<?xml version="1.0" encoding="UTF-8"?>
<svg xmlns="http://www.w3.org/2000/svg" xmlns:xlink="http://www.w3.org/1999/xlink" version="1.1" viewBox="0 0 603.63433 379.82349" width="603.63433" height="379.82349">
  <!-- Generator: Adobe Illustrator 30.0.0, SVG Export Plug-In . SVG Version: 2.1.1 Build 123)  -->
  <defs>
    <linearGradient id="linear-gradient" x1="-542.41499" y1="1809.54733" x2="-542.41499" y2="1783.54733" gradientTransform="translate(564 1822.84699) scale(1 -1)" gradientUnits="userSpaceOnUse">
      <stop offset="0" stop-color="#5ea0ef"/>
      <stop offset=".18" stop-color="#559cec"/>
      <stop offset=".47" stop-color="#3c91e5"/>
      <stop offset=".84" stop-color="#1380da"/>
      <stop offset="1" stop-color="#0078d4"/>
    </linearGradient>
    <linearGradient id="linear-gradient1" x1="101.65104" y1="1333.10288" x2="101.65104" y2="1318.02511" gradientTransform="translate(0 1588.84699) scale(1 -1)" gradientUnits="userSpaceOnUse">
      <stop offset=".22" stop-color="#50c8e9"/>
      <stop offset=".47" stop-color="#4ac7e9"/>
      <stop offset=".63" stop-color="#3bc4e7"/>
      <stop offset=".77" stop-color="#2abade"/>
      <stop offset=".89" stop-color="#21a5cb"/>
      <stop offset="1" stop-color="#1b8ab3"/>
      <stop offset="1" stop-color="#1b8ab3"/>
    </linearGradient>
    <linearGradient id="linear-gradient2" x1="101.21797" y1="1341.19176" x2="102.31797" y2="1327.50287" xlink:href="#linear-gradient1"/>
    <linearGradient id="linear-gradient3" y1="1302.30288" y2="1287.22511" xlink:href="#linear-gradient1"/>
    <linearGradient id="linear-gradient4" x1="101.21797" y1="1310.39176" x2="102.31797" y2="1296.70287" xlink:href="#linear-gradient1"/>
    <linearGradient id="linear-gradient5" y1="1271.50288" y2="1256.42511" xlink:href="#linear-gradient1"/>
    <linearGradient id="linear-gradient6" x1="101.21797" y1="1279.59176" x2="102.31797" y2="1265.90287" xlink:href="#linear-gradient1"/>
    <filter id="drop-shadow-1" x="167.93789" y="246.09966" width="62.1" height="88.5" filterUnits="userSpaceOnUse">
      <feOffset dx=".5" dy=".5"/>
      <feGaussianBlur result="blur" stdDeviation="0"/>
      <feFlood flood-color="#1e3465" flood-opacity=".8"/>
      <feComposite in2="blur" operator="in"/>
      <feComposite in="SourceGraphic"/>
    </filter>
    <linearGradient id="linear-gradient7" x1="333.03795" y1="1572.76874" x2="325.21044" y2="1549.64446" gradientTransform="translate(0 1588.84699) scale(1 -1)" gradientUnits="userSpaceOnUse">
      <stop offset="0" stop-color="#114a8b"/>
      <stop offset="1" stop-color="#0669bc"/>
    </linearGradient>
    <linearGradient id="linear-gradient8" x1="335.42631" y1="1562.08622" x2="333.5704" y2="1561.45314" gradientTransform="translate(0 1588.84699) scale(1 -1)" gradientUnits="userSpaceOnUse">
      <stop offset="0" stop-color="#000" stop-opacity=".3"/>
      <stop offset=".07118" stop-color="#000" stop-opacity=".2"/>
      <stop offset=".32103" stop-color="#000" stop-opacity=".1"/>
      <stop offset=".62305" stop-color="#000" stop-opacity=".05"/>
      <stop offset="1" stop-color="#000" stop-opacity="0"/>
    </linearGradient>
    <linearGradient id="linear-gradient9" x1="334.47324" y1="1573.4435" x2="343.06535" y2="1550.55199" gradientTransform="translate(0 1588.84699) scale(1 -1)" gradientUnits="userSpaceOnUse">
      <stop offset="0" stop-color="#3ccbf4"/>
      <stop offset="1" stop-color="#2892df"/>
    </linearGradient>
    <linearGradient id="linear-gradient10" x1="-216.32906" y1="1756.98048" x2="-215.62437" y2="1719.96421" gradientTransform="translate(564 1822.84699) scale(1 -1)" gradientUnits="userSpaceOnUse">
      <stop offset=".22" stop-color="#32d4f5"/>
      <stop offset=".47" stop-color="#31d1f3"/>
      <stop offset=".63" stop-color="#2ec9eb"/>
      <stop offset=".77" stop-color="#29bade"/>
      <stop offset=".89" stop-color="#22a5cb"/>
      <stop offset="1" stop-color="#198ab3"/>
      <stop offset="1" stop-color="#198ab3"/>
    </linearGradient>
    <linearGradient id="linear-gradient11" x1="-140.86211" y1="1666.38511" x2="-140.86211" y2="1683.70321" gradientTransform="translate(564 1822.84699) scale(1 -1)" gradientUnits="userSpaceOnUse">
      <stop offset="0" stop-color="#0078d4"/>
      <stop offset=".82" stop-color="#5ea0ef"/>
    </linearGradient>
    <linearGradient id="linear-gradient12" x1="-140.86211" y1="1659.70321" x2="-140.86211" y2="1666.38511" gradientTransform="translate(564 1822.84699) scale(1 -1)" gradientUnits="userSpaceOnUse">
      <stop offset=".15" stop-color="#ccc"/>
      <stop offset="1" stop-color="#707070"/>
    </linearGradient>
    <linearGradient id="linear-gradient13" x1="-79.26211" x2="-79.26211" xlink:href="#linear-gradient11"/>
    <linearGradient id="linear-gradient14" x1="-79.26211" x2="-79.26211" xlink:href="#linear-gradient12"/>
    <linearGradient id="linear-gradient15" x1="-14.02612" y1="1726.34733" x2="-14.02612" y2="1741.05106" gradientTransform="translate(564 1822.84699) scale(1 -1)" gradientUnits="userSpaceOnUse">
      <stop offset="0" stop-color="#32bedd"/>
      <stop offset=".18" stop-color="#32caea"/>
      <stop offset=".41" stop-color="#32d2f2"/>
      <stop offset=".78" stop-color="#32d4f5"/>
    </linearGradient>
    <linearGradient id="linear-gradient16" x1="-193.85856" y1="1520.47332" x2="-193.85856" y2="1544.90761" gradientTransform="translate(-577.42856 1510.64949) rotate(45) scale(1 -1)" gradientUnits="userSpaceOnUse">
      <stop offset="0" stop-color="#258277"/>
      <stop offset=".42" stop-color="#49a498"/>
      <stop offset=".78" stop-color="#60baad"/>
      <stop offset="1" stop-color="#68c2b5"/>
    </linearGradient>
    <linearGradient id="linear-gradient17" y1="1482.70279" y2="1467.62501" xlink:href="#linear-gradient1"/>
    <linearGradient id="linear-gradient18" x1="101.21797" y1="1490.79166" x2="102.31797" y2="1477.10277" xlink:href="#linear-gradient1"/>
    <linearGradient id="linear-gradient19" y1="1451.90279" y2="1436.82501" xlink:href="#linear-gradient1"/>
    <linearGradient id="linear-gradient20" x1="101.21797" y1="1459.99166" x2="102.31797" y2="1446.30277" xlink:href="#linear-gradient1"/>
    <linearGradient id="linear-gradient21" y1="1421.10279" y2="1406.02501" xlink:href="#linear-gradient1"/>
    <linearGradient id="linear-gradient22" x1="101.21797" y1="1429.19166" x2="102.31797" y2="1415.50277" xlink:href="#linear-gradient1"/>
  </defs>
  <g isolation="isolate">
    <g id="Shapes">
      <rect width="603.63433" height="379.82349" fill="#fff"/>
      <g>
        <g mix-blend-mode="multiply" opacity=".8">
          <rect x="14.43789" y="30.99966" width="250.8" height="334.4" fill="#3b3b3b"/>
          <rect x="14.43789" y="30.99966" width="250.8" height="334.4" fill="#3b3b3b"/>
        </g>
        <g>
          <rect x="13.93789" y="30.49966" width="250.8" height="334.4" fill="#fff"/>
          <rect x="13.93789" y="30.49966" width="250.8" height="334.4" fill="#f4f3f5"/>
        </g>
      </g>
      <g>
        <g mix-blend-mode="multiply" opacity=".8">
          <rect x="322.43789" y="30.99966" width="268.4" height="303.6" fill="#155ea1"/>
          <rect x="322.43789" y="30.99966" width="268.4" height="303.6" fill="#155ea1" opacity=".15"/>
        </g>
        <g>
          <rect x="321.93789" y="30.49966" width="268.4" height="303.6" fill="#fff"/>
          <rect x="321.93789" y="30.49966" width="268.4" height="303.6" fill="#83b9f9" opacity=".15"/>
        </g>
      </g>
      <g>
        <path d="M29.23198,14.17156v24.25621c.00845.47294-.3681.86317-.84103.87162-.00514.00009-.01029.00014-.01543.00014h-13.56573c-.47293.00852-.86323-.36796-.87176-.84089-.00019-.01029-.00019-.02058,0-.03087V14.17156c-.00852-.47293.36796-.86323.84089-.87176.01029-.00019.02058-.00019.03087,0h13.55044c.47293-.00852.86323.36796.87175.84089.00019.01029.00019.02058,0,.03087Z" fill="url(#linear-gradient)"/>
        <path id="a1bc77ea-5288-41a0-8f9a-2d282cf54a86" d="M15.97213,16.00683h2.55409c.11825,0,.21412.09586.21412.21412v3.21173c0,.11825-.09586.21412-.21412.21412h-2.55409c-.12096.00027-.22135-.09342-.22941-.21412v-3.21173c.00806-.12069.10845-.21438.22941-.21412ZM20.3462,16.00683h2.47762c.11825,0,.21412.09586.21412.21411h0v3.21173c0,.11825-.09586.21412-.21412.21412h-2.47762c-.11825,0-.21412-.09586-.21412-.21412h0v-3.21173c0-.11825.09586-.21412.21412-.21412h0ZM24.72027,16.00683h2.47762c.12096-.00027.22134.09343.22941.21412v3.21173c-.00806.12069-.10845.21438-.22941.21412h-2.47762c-.11825,0-.21412-.09586-.21412-.21412h0v-3.21173c0-.11825.09586-.21412.21412-.21412h0ZM15.97213,21.83382h2.55409c.11825,0,.21412.09586.21412.21412v3.21173c.00027.12096-.09342.22135-.21412.22941h-2.55409c-.1267,0-.22941-.10271-.22941-.22941v-3.21173c.00806-.12069.10845-.21438.22941-.21412ZM20.3462,21.83382h2.47762c.11825,0,.21412.09586.21412.21412h0v3.21173c.00027.12096-.09343.22135-.21412.22941h-2.47762c-.12069-.00806-.21438-.10845-.21412-.22941v-3.21173c0-.11825.09586-.21412.21412-.21412h0ZM24.72027,21.83382h2.47762c.12096-.00027.22134.09342.22941.21412v3.21173c0,.1267-.10271.22941-.22941.22941h-2.47762c-.12069-.00806-.21438-.10845-.21412-.22941v-3.21173c0-.11825.09586-.21412.21412-.21412h0ZM15.97213,27.67611h2.55409c.11825,0,.21412.09586.21412.21412h0v3.21173c0,.11825-.09586.21412-.21412.21412h-2.55409c-.12096.00027-.22135-.09343-.22941-.21412v-3.2729c.03389-.09637.12742-.15872.22941-.15294ZM20.3462,27.67611h2.47762c.1094-.04489.23448.0074.27937.1168.0048.01169.00855.02378.01121.03614v3.21173c0,.11825-.09586.21412-.21411.21412h-2.55409c-.11825,0-.21412-.09586-.21412-.21411h0v-3.21173c.02793-.09399.11614-.157.21412-.15294ZM20.3462,33.50311h2.47762c.11825,0,.21412.09586.21412.21411h0v4.8176c0,.11825-.09586.21411-.21412.21411h-2.47762c-.11825,0-.21411-.09586-.21411-.21411v-4.81759c0-.11825.09586-.21412.21411-.21412ZM24.72027,27.67611h2.47762c.12096-.00027.22135.09343.22941.21412v3.21173c-.00806.12069-.10845.21438-.22941.21412h-2.47762c-.11825,0-.21412-.09586-.21412-.21411h0v-3.27291c.02793-.09399.11614-.157.21412-.15294Z" fill="#f2f2f2"/>
      </g>
      <g>
        <rect x="31.53789" y="232.89966" width="215.6" height="114.4" rx="8" ry="8" fill="#fff"/>
        <rect x="31.53789" y="232.89966" width="215.6" height="114.4" rx="8" ry="8" fill="none" stroke="#626363" stroke-linejoin="round" stroke-width=".75"/>
        <rect x="31.53789" y="232.89966" width="215.6" height="114.4" rx="8" ry="8" fill="none" stroke="#cbccca" stroke-dasharray="2.98243 6.95899" stroke-linejoin="round" stroke-width=".75"/>
      </g>
      <g>
        <path d="M109.11817,268.09966c.88979,0,1.61111-.72132,1.61111-1.61111h0c.01148-.06244.01148-.12645,0-.18889-.64444-5.07778-3.52222-9.21111-9.07778-9.21111s-8.51111,3.5-9.07778,9.22222c-.09627.89074.54778,1.69087,1.43852,1.78714.00568.00061.01135.0012.01703.00175h15.08889Z" fill="url(#linear-gradient1)"/>
        <path d="M101.6515,258.28855c-.97726-.00078-1.93372-.28232-2.75556-.81111l2.75556,7.13333,2.71111-7.08889c-.8123.50843-1.75285.7744-2.71111.76667Z" fill="#fff" isolation="isolate" opacity=".8"/>
        <circle cx="101.66261" cy="253.18855" r="5.08889" fill="url(#linear-gradient2)"/>
      </g>
      <g>
        <path d="M109.11817,298.89966c.88979,0,1.61111-.72132,1.61111-1.61111h0c.01148-.06244.01148-.12645,0-.18889-.64444-5.07778-3.52222-9.21111-9.07778-9.21111s-8.51111,3.5-9.07778,9.22222c-.09627.89074.54778,1.69087,1.43852,1.78714.00568.00061.01135.0012.01703.00175h15.08889Z" fill="url(#linear-gradient3)"/>
        <path d="M101.6515,289.08855c-.97726-.00078-1.93372-.28232-2.75556-.81111l2.75556,7.13333,2.71111-7.08889c-.8123.50843-1.75285.7744-2.71111.76667Z" fill="#fff" isolation="isolate" opacity=".8"/>
        <circle cx="101.66261" cy="283.98855" r="5.08889" fill="url(#linear-gradient4)"/>
      </g>
      <g>
        <path d="M109.11817,329.69966c.88979,0,1.61111-.72132,1.61111-1.61111h0c.01148-.06244.01148-.12645,0-.18889-.64444-5.07778-3.52222-9.21111-9.07778-9.21111s-8.51111,3.5-9.07778,9.22222c-.09627.89074.54778,1.69087,1.43852,1.78714.00568.00061.01135.0012.01703.00175h15.08889Z" fill="url(#linear-gradient5)"/>
        <path d="M101.6515,319.88855c-.97726-.00078-1.93372-.28232-2.75556-.81111l2.75556,7.13333,2.71111-7.08889c-.8123.50843-1.75285.7744-2.71111.76667Z" fill="#fff" isolation="isolate" opacity=".8"/>
        <circle cx="101.66261" cy="314.78855" r="5.08889" fill="url(#linear-gradient6)"/>
      </g>
      <rect x="167.93789" y="246.09966" width="61.6" height="88" fill="#fff" filter="url(#drop-shadow-1)"/>
      <g>
        <line x1="162.55572" y1="290.09966" x2="118.52036" y2="290.09966" fill="none" stroke="#3c3c41" stroke-miterlimit="10"/>
        <polygon points="161.46148 286.35991 167.93789 290.09966 161.46148 293.83941 161.46148 286.35991" fill="#3c3c41"/>
        <polygon points="119.6146 286.35991 113.13818 290.09966 119.6146 293.83941 119.6146 286.35991" fill="#3c3c41"/>
      </g>
      <g>
        <line x1="162.55572" y1="259.29966" x2="118.52036" y2="259.29966" fill="none" stroke="#3c3c41" stroke-miterlimit="10"/>
        <polygon points="161.46148 255.55992 167.93789 259.29966 161.46148 263.03941 161.46148 255.55992" fill="#3c3c41"/>
        <polygon points="119.6146 255.55992 113.13818 259.29966 119.6146 263.03941 119.6146 255.55992" fill="#3c3c41"/>
      </g>
      <g>
        <line x1="162.55572" y1="320.89966" x2="118.52036" y2="320.89966" fill="none" stroke="#3c3c41" stroke-miterlimit="10"/>
        <polygon points="161.46148 317.15991 167.93789 320.89966 161.46148 324.63941 161.46148 317.15991" fill="#3c3c41"/>
        <polygon points="119.6146 317.15991 113.13818 320.89966 119.6146 324.63941 119.6146 317.15991" fill="#3c3c41"/>
      </g>
      <g>
        <rect x="31.53789" y="83.29976" width="215.6" height="114.4" rx="8" ry="8" fill="#fff"/>
        <rect x="31.53789" y="83.29976" width="215.6" height="114.4" rx="8" ry="8" fill="none" stroke="#626363" stroke-linejoin="round" stroke-width=".75"/>
        <rect x="31.53789" y="83.29977" width="215.6" height="114.39999" rx="8" ry="8" fill="none" stroke="#cbccca" stroke-dasharray="2.98243 6.95899" stroke-linejoin="round" stroke-width=".75"/>
      </g>
      <g>
        <rect x="339.63433" y="92.09966" width="233.10356" height="127.6" fill="#fff"/>
        <rect x="339.63433" y="92.09966" width="233.10356" height="127.6" fill="#50e6ff" opacity=".03"/>
        <rect x="339.63433" y="92.09966" width="233.10356" height="127.6" fill="none" stroke="#198ab3" stroke-width=".25"/>
      </g>
      <g>
        <g mix-blend-mode="multiply" opacity=".99">
          <rect x="340.03789" y="264.19966" width="233.2" height="50.45196" fill="#258277"/>
          <rect x="340.03789" y="264.19966" width="233.2" height="50.45196" fill="#258277" opacity=".25"/>
        </g>
        <g>
          <rect x="339.53789" y="263.69966" width="233.2" height="50.45196" fill="#fff"/>
          <rect x="339.53789" y="263.69966" width="233.2" height="50.45196" fill="#4bc5b1" opacity=".25"/>
        </g>
      </g>
      <g>
        <path d="M329.15258,15.11592c.1646-.48781.6221-.81626,1.13694-.81626h7.5385l-7.82451,23.18366c-.1646.48781-.6221.81629-1.13694.81629h-5.86701c-.82096,0-1.39951-.80591-1.13699-1.58378l7.29001-21.59991Z" fill="url(#linear-gradient7)"/>
        <path d="M341.20408,29.89969h-11.88057c-.49919,0-.74023.61144-.37528.95208l7.63409,7.12514c.22222.2074.51484.32276.81878.32276h6.72698l-2.92401-8.39997Z" fill="#0078d4"/>
        <path d="M337.82813,14.29966h-8.39997l-8.1,23.99995h8.39995l1.72473-5.11029,5.4753,5.11029h7.19997l-2.92401-8.39997h-8.64096l5.26501-15.59997Z" fill="url(#linear-gradient8)"/>
        <path d="M339.9036,15.11592c-.16466-.48781-.62215-.81626-1.137-.81626h-8.4385.03853c.51484,0,.97234.32846,1.137.81626l7.28996,21.59991c.26253.77787-.31605,1.58378-1.137,1.58378h-.12852,8.52849c.82095,0,1.39952-.80591,1.137-1.58378l-7.28996-21.59991Z" fill="url(#linear-gradient9)"/>
      </g>
      <g>
        <path d="M356.27701,87.75178h-1.32961v-4.09519c.01153-1.92341-.6949-3.78193-1.98111-5.21206-1.21763-1.41848-2.99698-2.23037-4.86636-2.22044-1.88791-.02566-3.6899.78767-4.91955,2.22044-1.29525,1.4246-2.00307,3.28679-1.98111,5.21206v4.09519h-1.07698c-.50369.00715-.91028.41374-.91743.91743v10.63686c.00715.50369.41374.91028.91743.91743h16.15473c.50599-.00693.91652-.41159.93072-.91743v-10.63686c-.01421-.50584-.42474-.9105-.93072-.91743ZM351.79623,87.75178h-7.39262v-4.16167c.01195-1.06453.42503-2.08538,1.15676-2.85866.63028-.72253,1.54087-1.13908,2.49966-1.14346.96231.00572,1.87648.42169,2.51296,1.14346.15761.1783.29994.36956.42547.57173h0c.4987.65592.78203,1.45017.81106,2.27363l-.0133,4.17497Z" fill="url(#linear-gradient10)"/>
        <path d="M356.3169,87.75178h-16.18132c-.21619.00071-.42452.0812-.58503.22603l17.35137,11.96646c.20944-.16851.33159-.42258.3324-.6914v-10.63686c-.04056-.47994-.43592-.85239-.91743-.86424Z" fill="#50e6ff"/>
        <path d="M340.16217,87.75178h16.16802c.21988.0023.43185.08238.59832.22603l-17.36467,11.96646c-.20505-.17196-.32615-.42386-.3324-.6914v-10.63686c.04696-.48204.44653-.85307.93073-.86424Z" fill="#fff" isolation="isolate" opacity=".2"/>
        <path d="M346.62406,90.31792l1.59553-1.59553c.0346-.02904.08506-.02904.11966,0l1.58223,1.59553c.03672.02435.04674.07386.02238.11058-.00589.00888-.0135.01649-.02238.02238h-.93072c-.04406,0-.07978.03572-.07978.07978h0v2.0476c0,.04406-.03572.07978-.07978.07978h-1.05039c-.03577.00829-.07149-.01398-.07978-.04975-.00229-.00988-.00229-.02015,0-.03003v-2.04759c-.00666-.04615-.04644-.08026-.09307-.07978h-.93072c-.04393-.00335-.07683-.04168-.07347-.08562.00134-.01759.00848-.03424.02029-.04734ZM349.90819,97.60417l-1.58223,1.58223c-.02914.03304-.07956.03621-.1126.00707-.0025-.00221-.00486-.00456-.00707-.00707l-1.58223-1.58223c-.03672-.02435-.04674-.07386-.02238-.11058.00589-.00888.0135-.01649.02238-.02238h.93072c.04663.00048.08641-.03362.09307-.07978v-2.06089c0-.04406.03572-.07978.07978-.07978h.98391c.04406,0,.07978.03572.07978.07978h0v2.06089c0,.04406.03572.07978.07978.07978h.93073c.03672-.02937.09029-.02342.11966.0133.02937.03672.02342.09029-.0133.11966h0ZM343.65904,95.54327v-.93072c0-.04406-.03572-.07978-.07978-.07978h-2.00771c-.04406,0-.07978-.03572-.07978-.07978h0v-.94402c-.02246-.0379-.00994-.08684.02796-.1093.01559-.00924.03387-.0129.05182-.01036h2.00771c.04406,0,.07978-.03572.07978-.07978h0v-.93072c.00528-.05113.051-.0883.10214-.08303.01588.00164.03108.00734.04412.01655l1.58223,1.59553c.02709.03028.02709.07609,0,.10637l-1.58223,1.59553c-.04199.02964-.10007.01963-.12971-.02236-.00921-.01304-.01491-.02824-.01655-.04412ZM352.87322,92.37881v.93072c0,.04406.03572.07978.07978.07978h2.0476s.09307,0,.09307.07978v.98391c-.00666.04615-.04644.08026-.09307.07978h-2.04759c-.04406,0-.07978.03572-.07978.07978h0v.93073c.00404.04387-.02824.08272-.07212.08676-.02223.00205-.04429-.00531-.06084-.02028l-1.58223-1.59553M351.15802,93.90786l1.58223-1.59553s.13296-.0133.13296.06648l-1.71519,1.52905Z" fill="#fff"/>
      </g>
      <g>
        <rect x="410.14932" y="139.14378" width="25.97715" height="17.3181" rx=".8659" ry=".8659" fill="url(#linear-gradient11)"/>
        <polygon points="427.46742 145.27728 427.46742 150.31396 423.13789 152.85394 423.13789 147.80283 427.46742 145.27728" fill="#50e6ff"/>
        <polygon points="427.46742 145.27728 423.13789 147.81726 418.80837 145.27728 423.13789 142.75172 427.46742 145.27728" fill="#c3f1ff"/>
        <polygon points="423.13789 147.81726 423.13789 152.85394 418.80837 150.31396 418.80837 145.27728 423.13789 147.81726" fill="#9cebff"/>
        <polygon points="418.80837 150.31396 423.13789 147.80283 423.13789 152.85394 418.80837 150.31396" fill="#c3f1ff"/>
        <polygon points="427.46742 150.31396 423.13789 147.80283 423.13789 152.85394 427.46742 150.31396" fill="#9cebff"/>
        <path d="M428.34775,161.70061c-2.56885-.40409-2.66987-2.25135-2.66987-5.23873h-5.09441c0,2.98737-.08659,4.83464-2.65544,5.23873-.73448.08127-1.28891.70422-1.28443,1.44317h12.98857c.00448-.73895-.54994-1.3619-1.28443-1.44317Z" fill="url(#linear-gradient12)"/>
      </g>
      <g>
        <rect x="471.74932" y="139.14378" width="25.97715" height="17.3181" rx=".8659" ry=".8659" fill="url(#linear-gradient13)"/>
        <polygon points="489.06742 145.27728 489.06742 150.31396 484.73789 152.85394 484.73789 147.80283 489.06742 145.27728" fill="#50e6ff"/>
        <polygon points="489.06742 145.27728 484.73789 147.81726 480.40837 145.27728 484.73789 142.75172 489.06742 145.27728" fill="#c3f1ff"/>
        <polygon points="484.73789 147.81726 484.73789 152.85394 480.40837 150.31396 480.40837 145.27728 484.73789 147.81726" fill="#9cebff"/>
        <polygon points="480.40837 150.31396 484.73789 147.80283 484.73789 152.85394 480.40837 150.31396" fill="#c3f1ff"/>
        <polygon points="489.06742 150.31396 484.73789 147.80283 484.73789 152.85394 489.06742 150.31396" fill="#9cebff"/>
        <path d="M489.94775,161.70061c-2.56885-.40409-2.66987-2.25135-2.66987-5.23873h-5.09441c0,2.98737-.08659,4.83464-2.65544,5.23873-.73448.08127-1.28891.70422-1.28443,1.44317h12.98857c.00448-.73895-.54994-1.3619-1.28443-1.44317Z" fill="url(#linear-gradient14)"/>
      </g>
      <g>
        <path d="M537.53789,81.79593h24.87198v13.86979c0,.46057-.37337.83394-.83394.83394h-23.2041c-.46057,0-.83394-.37337-.83394-.83394v-13.86979Z" fill="url(#linear-gradient15)"/>
        <path d="M538.37183,76.49966h23.2041c.46057,0,.83394.37337.83394.83394v4.46233h-24.87198v-4.47696c.00798-.45485.37902-.81938.83394-.81931Z" fill="#767676"/>
        <circle cx="555.56276" cy="88.23338" r="2.01902" fill="#f2f2f2"/>
        <circle cx="550.06167" cy="88.23338" r="2.01902" fill="#f2f2f2"/>
        <circle cx="544.385" cy="88.23338" r="2.01902" fill="#f2f2f2"/>
        <rect x="540.88829" y="78.07976" width="18.18581" height="2.13606" rx=".40966" ry=".40966" fill="#f2f2f2"/>
      </g>
      <g>
        <path d="M234.92006,259.40471h29.21783c2.75,0,6.21523-1.8936,7.70052-4.20799l34.19894-53.28908c1.48529-2.31439,4.95053-4.20798,7.70053-4.20798h20.41783" fill="none" stroke="#3c3c41" stroke-miterlimit="10"/>
        <polygon points="236.0143 263.14446 229.53789 259.40471 236.0143 255.66496 236.0143 263.14446" fill="#3c3c41"/>
        <polygon points="333.06147 201.43941 339.53789 197.69966 333.06147 193.95992 333.06147 201.43941" fill="#3c3c41"/>
      </g>
      <g>
        <rect x="360.69007" y="279.47782" width="18.89564" height="18.89564" rx=".87211" ry=".87211" transform="translate(-95.8904 346.35137) rotate(-45)" fill="url(#linear-gradient16)"/>
        <path d="M367.16837,282.31599l2.87642-2.87642c.05949-.05832.15471-.05832.2142,0l2.95292,2.87642c.06022.04645.07138.13292.02493.19314-.03108.0403-.08186.06017-.13203.05167h-1.75951c-.0845,0-.153.0685-.153.153h0v3.71793c0,.07605-.06165.1377-.1377.1377h-1.79011c-.07558.00845-.1437-.04597-.15215-.12155-.0006-.00536-.00088-.01076-.00085-.01616v-3.71793c.0004-.07887-.05923-.14512-.1377-.153h-1.69831c-.08411-.00815-.14568-.08294-.13753-.16705.00274-.02824.01327-.05516.03043-.07775ZM373.21191,295.53529l-2.95292,2.87642c-.05949.05832-.15471.05832-.2142,0l-2.87642-2.87642c-.05109-.0673-.03795-.16328.02935-.21438.0226-.01715.04952-.02769.07775-.03042h1.69831c.07848-.00789.1381-.07413.1377-.153v-3.71793c-.00047-.07605.0608-.13808.13684-.13855.0054-.00003.01079.00025.01616.00085h1.79011c.07605,0,.1377.06165.1377.1377h0v3.71793c0,.0845.0685.153.153.153h1.68301c.0676-.0507.1635-.037.2142.0306.0507.0676.037.1635-.0306.2142ZM364.55205,291.74086v-1.68301c-.00711-.08137-.07163-.14589-.153-.153h-3.71793c-.07887.0004-.14512-.05923-.153-.1377v-1.79011c.00711-.08137.07163-.14589.153-.153h3.71793c.07887.0004.14512-.05923.153-.1377v-1.69831c-.02624-.07138.01035-.15052.08173-.17676.06038-.0222.12809.00037.16308.05436l2.87642,2.90702c.05493.0526.05681.13977.00421.19469-.00137.00143-.00278.00284-.00421.00421l-2.87642,2.87642c-.04645.06022-.13292.07138-.19314.02493-.0403-.03108-.06017-.08186-.05167-.13203ZM375.75173,285.98802v1.69831c.00789.07848.07413.1381.153.1377h3.71793c.08137.00711.14589.07163.153.153v1.79011c-.00789.07848-.07413.1381-.153.1377h-3.71793c-.08137.00711-.14589.07163-.153.153v1.68301c.0127.07498-.03779.14606-.11277.15877-.05018.0085-.10095-.01137-.13203-.05167l-2.87642-2.92232c-.05492-.0526-.05681-.13977-.00421-.19469.00137-.00143.00278-.00284.00421-.00421l2.87642-2.86112c.04136-.06382.12662-.08203.19044-.04067.05399.03499.07655.10269.05436.16307Z" fill="#fff"/>
      </g>
      <g>
        <line x1="229.53789" y1="290.09966" x2="231.03789" y2="290.09966" fill="none" stroke="#3c3c41" stroke-miterlimit="10"/>
        <line x1="233.54079" y1="290.09966" x2="331.40427" y2="290.09966" fill="none" stroke="#3c3c41" stroke-dasharray="3.00348 2.5029" stroke-miterlimit="10"/>
        <line x1="332.65572" y1="290.09966" x2="334.15572" y2="290.09966" fill="none" stroke="#3c3c41" stroke-miterlimit="10"/>
        <polygon points="333.06147 293.83941 339.53789 290.09966 333.06147 286.35991 333.06147 293.83941" fill="#3c3c41"/>
      </g>
      <g>
        <line x1="456.13788" y1="263.69966" x2="456.13788" y2="262.19966" fill="none" stroke="#3c3c41" stroke-miterlimit="10"/>
        <line x1="456.13788" y1="259.69136" x2="456.13788" y2="227.83598" fill="none" stroke="#3c3c41" stroke-dasharray="3.00996 2.5083" stroke-miterlimit="10"/>
        <line x1="456.13788" y1="226.58183" x2="456.13788" y2="225.08183" fill="none" stroke="#3c3c41" stroke-miterlimit="10"/>
        <polygon points="459.87763 226.17607 456.13788 219.69966 452.39813 226.17607 459.87763 226.17607" fill="#3c3c41"/>
      </g>
      <g>
        <path d="M109.11817,118.49976c.88979,0,1.61111-.72132,1.61111-1.61111h0c.01148-.06244.01148-.12645,0-.18889-.64444-5.07778-3.52222-9.21111-9.07778-9.21111s-8.51111,3.5-9.07778,9.22222c-.09627.89074.54778,1.69087,1.43852,1.78714.00568.00061.01135.0012.01703.00175h15.08889Z" fill="url(#linear-gradient17)"/>
        <path d="M101.6515,108.68865c-.97726-.00078-1.93372-.28232-2.75556-.81111l2.75556,7.13333,2.71111-7.08889c-.8123.50843-1.75285.7744-2.71111.76667Z" fill="#fff" isolation="isolate" opacity=".8"/>
        <circle cx="101.66261" cy="103.58864" r="5.08889" fill="url(#linear-gradient18)"/>
      </g>
      <g>
        <path d="M109.11817,149.29976c.88979,0,1.61111-.72132,1.61111-1.61111h0c.01148-.06244.01148-.12645,0-.18889-.64444-5.07778-3.52222-9.21111-9.07778-9.21111s-8.51111,3.5-9.07778,9.22222c-.09627.89074.54778,1.69087,1.43852,1.78714.00568.00061.01135.0012.01703.00175h15.08889Z" fill="url(#linear-gradient19)"/>
        <path d="M101.6515,139.48865c-.97726-.00078-1.93372-.28232-2.75556-.81111l2.75556,7.13333,2.71111-7.08889c-.8123.50843-1.75285.7744-2.71111.76667Z" fill="#fff" isolation="isolate" opacity=".8"/>
        <circle cx="101.66261" cy="134.38864" r="5.08889" fill="url(#linear-gradient20)"/>
      </g>
      <g>
        <path d="M109.11817,180.09976c.88979,0,1.61111-.72132,1.61111-1.61111h0c.01148-.06244.01148-.12645,0-.18889-.64444-5.07778-3.52222-9.21111-9.07778-9.21111s-8.51111,3.5-9.07778,9.22222c-.09627.89074.54778,1.69087,1.43852,1.78714.00568.00061.01135.0012.01703.00175h15.08889Z" fill="url(#linear-gradient21)"/>
        <path d="M101.6515,170.28865c-.97726-.00078-1.93372-.28232-2.75556-.81111l2.75556,7.13333,2.71111-7.08889c-.8123.50843-1.75285.7744-2.71111.76667Z" fill="#fff" isolation="isolate" opacity=".8"/>
        <circle cx="101.66261" cy="165.18864" r="5.08889" fill="url(#linear-gradient22)"/>
      </g>
      <g>
        <line x1="334.15568" y1="140.49982" x2="118.52039" y2="140.49976" fill="none" stroke="#3c3c41" stroke-miterlimit="10"/>
        <polygon points="333.06144 136.76007 339.53785 140.49982 333.06144 144.23956 333.06144 136.76007" fill="#3c3c41"/>
        <polygon points="119.61463 136.76001 113.13822 140.49976 119.61463 144.2395 119.61463 136.76001" fill="#3c3c41"/>
      </g>
      <g>
        <line x1="334.15565" y1="109.69983" x2="118.52036" y2="109.69977" fill="none" stroke="#3c3c41" stroke-miterlimit="10"/>
        <polygon points="333.06139 105.96008 339.53782 109.69983 333.06139 113.43958 333.06139 105.96008" fill="#3c3c41"/>
        <polygon points="119.6146 105.96002 113.13818 109.69977 119.6146 113.43951 119.6146 105.96002" fill="#3c3c41"/>
      </g>
      <g>
        <line x1="334.15571" y1="171.29982" x2="118.52043" y2="171.29976" fill="none" stroke="#3c3c41" stroke-miterlimit="10"/>
        <polygon points="333.06147 167.56007 339.53788 171.29982 333.06147 175.03957 333.06147 167.56007" fill="#3c3c41"/>
        <polygon points="119.61467 167.56001 113.13825 171.29976 119.61467 175.03951 119.61467 167.56001" fill="#3c3c41"/>
      </g>
    </g>
    <g id="Text">
      <text transform="translate(35.93779 24.99987)" fill="#2f2f2f" font-family="SegoeUI, &apos;Segoe UI&apos;" font-size="14"><tspan x="0" y="0">On-premises</tspan></text>
      <text transform="translate(350.73792 24.99967)" fill="#2f2f2f" font-family="SegoeUI, &apos;Segoe UI&apos;" font-size="14"><tspan x="0" y="0">Azure</tspan></text>
      <text transform="translate(396.73441 181.84525)" fill="#2f2f2f" font-family="SegoeUI, &apos;Segoe UI&apos;" font-size="14"><tspan x="0" y="0">Gateway </tspan><tspan x="15.77051" y="16.7998">VM</tspan></text>
      <text transform="translate(458.33441 181.84525)" fill="#2f2f2f" font-family="SegoeUI, &apos;Segoe UI&apos;" font-size="14"><tspan x="0" y="0">Gateway </tspan><tspan x="15.77051" y="16.7998">VM</tspan></text>
      <text transform="translate(459.77909 114.3232)" fill="#2f2f2f" font-family="SegoeUI, &apos;Segoe UI&apos;" font-size="14"><tspan x="0" y="0">Public IP address</tspan></text>
      <text transform="translate(361.63431 68.52496)" fill="#2f2f2f" font-family="SegoeUI, &apos;Segoe UI&apos;" font-size="14"><tspan x="0" y="0">Virtual Network </tspan><tspan x="0" y="16.7998">Gateway</tspan></text>
      <text transform="translate(392.33786 293.34931)" fill="#2f2f2f" font-family="SegoeUI, &apos;Segoe UI&apos;" font-size="14"><tspan x="0" y="0">Local Network Gateway</tspan></text>
      <text transform="translate(31.53799 74.49977)" fill="#2f2f2f" font-size="14"><tspan x="0" y="0" font-family="SegoeUI-Bold, &apos;Segoe UI&apos;" font-weight="700">Point-to-site</tspan><tspan x="83.54199" y="0" xml:space="preserve" font-family="SegoeUI, &apos;Segoe UI&apos;"> VPN</tspan></text>
      <text transform="translate(31.53799 224.0997)" fill="#2f2f2f" font-size="14"><tspan x="0" y="0" font-family="SegoeUI-Bold, &apos;Segoe UI&apos;" font-weight="700">Site-to-site</tspan><tspan x="73.33594" y="0" xml:space="preserve" font-family="SegoeUI, &apos;Segoe UI&apos;"> VPN</tspan></text>
      <text transform="translate(49.83165 263.43231)" fill="#2f2f2f" font-family="SegoeUI, &apos;Segoe UI&apos;" font-size="14"><tspan x="0" y="0">Client</tspan></text>
      <text transform="translate(49.83165 294.26605)" fill="#2f2f2f" font-family="SegoeUI, &apos;Segoe UI&apos;" font-size="14"><tspan x="0" y="0">Client</tspan></text>
      <text transform="translate(49.83165 325.09955)" fill="#2f2f2f" font-family="SegoeUI, &apos;Segoe UI&apos;" font-size="14"><tspan x="0" y="0">Client</tspan></text>
      <text transform="translate(185.23349 287.26294)" fill="#2f2f2f" font-family="SegoeUI, &apos;Segoe UI&apos;" font-size="14"><tspan x="0" y="0">VPN </tspan><tspan x="-6.2207" y="16.7998">device</tspan></text>
      <text transform="translate(49.83165 113.8324)" fill="#2f2f2f" font-family="SegoeUI, &apos;Segoe UI&apos;" font-size="14"><tspan x="0" y="0">Client</tspan></text>
      <text transform="translate(49.83165 144.66614)" fill="#2f2f2f" font-family="SegoeUI, &apos;Segoe UI&apos;" font-size="14"><tspan x="0" y="0">Client</tspan></text>
      <text transform="translate(49.83165 175.49964)" fill="#2f2f2f" font-family="SegoeUI, &apos;Segoe UI&apos;" font-size="14"><tspan x="0" y="0">Client</tspan></text>
    </g>
  </g>
</svg>