<?xml version="1.0" encoding="UTF-8"?>
<svg xmlns="http://www.w3.org/2000/svg" width="603.6343" height="379.8235" xmlns:xlink="http://www.w3.org/1999/xlink" viewBox="0 0 603.6343 379.8235">
  <defs>
    <linearGradient id="linear-gradient" x1="-542.415" y1="1850.7003" x2="-542.415" y2="1824.7003" gradientTransform="translate(564 1864) scale(1 -1)" gradientUnits="userSpaceOnUse">
      <stop offset="0" stop-color="#5ea0ef"/>
      <stop offset=".18" stop-color="#559cec"/>
      <stop offset=".47" stop-color="#3c91e5"/>
      <stop offset=".84" stop-color="#1380da"/>
      <stop offset="1" stop-color="#0078d4"/>
    </linearGradient>
    <linearGradient id="linear-gradient-2" x1="101.651" y1="1374.2559" x2="101.651" y2="1359.1781" gradientTransform="translate(0 1630) scale(1 -1)" gradientUnits="userSpaceOnUse">
      <stop offset=".22" stop-color="#50c8e9"/>
      <stop offset=".47" stop-color="#4ac7e9"/>
      <stop offset=".63" stop-color="#3bc4e7"/>
      <stop offset=".77" stop-color="#2abade"/>
      <stop offset=".89" stop-color="#21a5cb"/>
      <stop offset="1" stop-color="#1b8ab3"/>
      <stop offset="1" stop-color="#1b8ab3"/>
    </linearGradient>
    <linearGradient id="linear-gradient-3" x1="101.218" y1="1382.3448" x2="102.318" y2="1368.6559" xlink:href="#linear-gradient-2"/>
    <linearGradient id="linear-gradient-4" y1="1343.4559" y2="1328.3781" xlink:href="#linear-gradient-2"/>
    <linearGradient id="linear-gradient-5" x1="101.218" y1="1351.5448" x2="102.318" y2="1337.8559" xlink:href="#linear-gradient-2"/>
    <linearGradient id="linear-gradient-6" y1="1312.6559" y2="1297.5781" xlink:href="#linear-gradient-2"/>
    <linearGradient id="linear-gradient-7" x1="101.218" y1="1320.7448" x2="102.318" y2="1307.0559" xlink:href="#linear-gradient-2"/>
    <linearGradient id="linear-gradient-8" x1="333.038" y1="1613.9218" x2="325.2104" y2="1590.7975" gradientTransform="translate(0 1630) scale(1 -1)" gradientUnits="userSpaceOnUse">
      <stop offset="0" stop-color="#114a8b"/>
      <stop offset="1" stop-color="#0669bc"/>
    </linearGradient>
    <linearGradient id="linear-gradient-9" x1="335.4263" y1="1603.2392" x2="333.5704" y2="1602.6061" gradientTransform="translate(0 1630) scale(1 -1)" gradientUnits="userSpaceOnUse">
      <stop offset="0" stop-color="#000" stop-opacity=".3"/>
      <stop offset=".0712" stop-color="#000" stop-opacity=".2"/>
      <stop offset=".321" stop-color="#000" stop-opacity=".1"/>
      <stop offset=".6231" stop-color="#000" stop-opacity=".05"/>
      <stop offset="1" stop-color="#000" stop-opacity="0"/>
    </linearGradient>
    <linearGradient id="linear-gradient-10" x1="334.4732" y1="1614.5965" x2="343.0654" y2="1591.705" gradientTransform="translate(0 1630) scale(1 -1)" gradientUnits="userSpaceOnUse">
      <stop offset="0" stop-color="#3ccbf4"/>
      <stop offset="1" stop-color="#2892df"/>
    </linearGradient>
    <linearGradient id="linear-gradient-11" x1="-220.8255" y1="1808.6573" x2="-220.1208" y2="1771.6411" gradientTransform="translate(564 1864) scale(1 -1)" gradientUnits="userSpaceOnUse">
      <stop offset=".22" stop-color="#32d4f5"/>
      <stop offset=".47" stop-color="#31d1f3"/>
      <stop offset=".63" stop-color="#2ec9eb"/>
      <stop offset=".77" stop-color="#29bade"/>
      <stop offset=".89" stop-color="#22a5cb"/>
      <stop offset="1" stop-color="#198ab3"/>
      <stop offset="1" stop-color="#198ab3"/>
    </linearGradient>
    <linearGradient id="linear-gradient-12" x1="-140.8621" y1="1707.5381" x2="-140.8621" y2="1724.8562" gradientTransform="translate(564 1864) scale(1 -1)" gradientUnits="userSpaceOnUse">
      <stop offset="0" stop-color="#0078d4"/>
      <stop offset=".82" stop-color="#5ea0ef"/>
    </linearGradient>
    <linearGradient id="linear-gradient-13" x1="-140.8621" y1="1700.8562" x2="-140.8621" y2="1707.5381" gradientTransform="translate(564 1864) scale(1 -1)" gradientUnits="userSpaceOnUse">
      <stop offset=".15" stop-color="#ccc"/>
      <stop offset="1" stop-color="#707070"/>
    </linearGradient>
    <linearGradient id="linear-gradient-14" x1="-79.2621" x2="-79.2621" xlink:href="#linear-gradient-12"/>
    <linearGradient id="linear-gradient-15" x1="-79.2621" x2="-79.2621" xlink:href="#linear-gradient-13"/>
    <linearGradient id="linear-gradient-16" x1="-14.0261" y1="1767.5003" x2="-14.0261" y2="1782.2041" gradientTransform="translate(564 1864) scale(1 -1)" gradientUnits="userSpaceOnUse">
      <stop offset="0" stop-color="#32bedd"/>
      <stop offset=".18" stop-color="#32caea"/>
      <stop offset=".41" stop-color="#32d2f2"/>
      <stop offset=".78" stop-color="#32d4f5"/>
    </linearGradient>
    <linearGradient id="linear-gradient-17" x1="-193.8586" y1="1561.6263" x2="-193.8586" y2="1586.0606" gradientTransform="translate(-606.5281 1539.7491) rotate(45) scale(1 -1)" gradientUnits="userSpaceOnUse">
      <stop offset="0" stop-color="#258277"/>
      <stop offset=".42" stop-color="#49a498"/>
      <stop offset=".78" stop-color="#60baad"/>
      <stop offset="1" stop-color="#68c2b5"/>
    </linearGradient>
    <linearGradient id="linear-gradient-18" y1="1523.8558" y2="1508.778" xlink:href="#linear-gradient-2"/>
    <linearGradient id="linear-gradient-19" x1="101.218" y1="1531.9447" x2="102.318" y2="1518.2558" xlink:href="#linear-gradient-2"/>
    <linearGradient id="linear-gradient-20" y1="1493.0558" y2="1477.978" xlink:href="#linear-gradient-2"/>
    <linearGradient id="linear-gradient-21" x1="101.218" y1="1501.1447" x2="102.318" y2="1487.4558" xlink:href="#linear-gradient-2"/>
    <linearGradient id="linear-gradient-22" y1="1462.2558" y2="1447.178" xlink:href="#linear-gradient-2"/>
    <linearGradient id="linear-gradient-23" x1="101.218" y1="1470.3447" x2="102.318" y2="1456.6558" xlink:href="#linear-gradient-2"/>
  </defs>
  <g isolation="isolate">
    <g id="Shapes">
      <rect width="603.6343" height="379.8235" fill="#fff"/>
      <g>
        <g mix-blend-mode="multiply" opacity=".8">
          <rect x="14.4379" y="30.9997" width="250.8" height="334.4" fill="#3b3b3b"/>
          <rect x="14.4379" y="30.9997" width="250.8" height="334.4" fill="#3b3b3b"/>
        </g>
        <g>
          <rect x="13.9379" y="30.4997" width="250.8" height="334.4" fill="#fff"/>
          <rect x="13.9379" y="30.4997" width="250.8" height="334.4" fill="#f4f3f5"/>
        </g>
      </g>
      <g>
        <g mix-blend-mode="multiply" opacity=".8">
          <rect x="322.4379" y="30.9997" width="268.4" height="303.6" fill="#155ea1"/>
          <rect x="322.4379" y="30.9997" width="268.4" height="303.6" fill="#155ea1" opacity=".15"/>
        </g>
        <g>
          <rect x="321.9379" y="30.4997" width="268.4" height="303.6" fill="#fff"/>
          <rect x="321.9379" y="30.4997" width="268.4" height="303.6" fill="#83b9f9" opacity=".15"/>
        </g>
      </g>
      <g>
        <path d="M29.232,14.1716v24.2562c.0084.4729-.3681.8632-.841.8716-.0051,0-.0103.0001-.0154.0001h-13.5657c-.4729.0085-.8632-.368-.8718-.8409-.0002-.0103-.0002-.0206,0-.0309V14.1716c-.0085-.4729.368-.8632.8409-.8718.0103-.0002.0206-.0002.0309,0h13.5504c.4729-.0085.8632.368.8718.8409.0002.0103.0002.0206,0,.0309Z" fill="url(#linear-gradient)"/>
        <path id="a1bc77ea-5288-41a0-8f9a-2d282cf54a86" d="M15.9721,16.0068h2.5541c.1183,0,.2141.0959.2141.2141v3.2117c0,.1183-.0959.2141-.2141.2141h-2.5541c-.121.0003-.2213-.0934-.2294-.2141v-3.2117c.0081-.1207.1085-.2144.2294-.2141ZM20.3462,16.0068h2.4776c.1183,0,.2141.0959.2141.2141h0v3.2117c0,.1183-.0959.2141-.2141.2141h-2.4776c-.1183,0-.2141-.0959-.2141-.2141h0v-3.2117c0-.1183.0959-.2141.2141-.2141h0ZM24.7203,16.0068h2.4776c.121-.0003.2213.0934.2294.2141v3.2117c-.0081.1207-.1085.2144-.2294.2141h-2.4776c-.1183,0-.2141-.0959-.2141-.2141h0v-3.2117c0-.1183.0959-.2141.2141-.2141h0ZM15.9721,21.8338h2.5541c.1183,0,.2141.0959.2141.2141v3.2117c.0003.121-.0934.2213-.2141.2294h-2.5541c-.1267,0-.2294-.1027-.2294-.2294v-3.2117c.0081-.1207.1085-.2144.2294-.2141ZM20.3462,21.8338h2.4776c.1183,0,.2141.0959.2141.2141h0v3.2117c.0003.121-.0934.2213-.2141.2294h-2.4776c-.1207-.0081-.2144-.1085-.2141-.2294v-3.2117c0-.1183.0959-.2141.2141-.2141h0ZM24.7203,21.8338h2.4776c.121-.0003.2213.0934.2294.2141v3.2117c0,.1267-.1027.2294-.2294.2294h-2.4776c-.1207-.0081-.2144-.1085-.2141-.2294v-3.2117c0-.1183.0959-.2141.2141-.2141h0ZM15.9721,27.6761h2.5541c.1183,0,.2141.0959.2141.2141h0v3.2117c0,.1183-.0959.2141-.2141.2141h-2.5541c-.121.0003-.2213-.0934-.2294-.2141v-3.2729c.0339-.0964.1274-.1587.2294-.1529ZM20.3462,27.6761h2.4776c.1094-.0449.2345.0074.2794.1168.0048.0117.0085.0238.0112.0361v3.2117c0,.1183-.0959.2141-.2141.2141h-2.5541c-.1183,0-.2141-.0959-.2141-.2141h0v-3.2117c.0279-.094.1161-.157.2141-.1529ZM20.3462,33.5031h2.4776c.1183,0,.2141.0959.2141.2141h0v4.8176c0,.1183-.0959.2141-.2141.2141h-2.4776c-.1183,0-.2141-.0959-.2141-.2141v-4.8176c0-.1183.0959-.2141.2141-.2141ZM24.7203,27.6761h2.4776c.121-.0003.2213.0934.2294.2141v3.2117c-.0081.1207-.1085.2144-.2294.2141h-2.4776c-.1183,0-.2141-.0959-.2141-.2141h0v-3.2729c.0279-.094.1161-.157.2141-.1529Z" fill="#f2f2f2"/>
      </g>
      <g>
        <rect x="31.5379" y="232.8997" width="215.6" height="114.4" rx="8" ry="8" fill="#fff"/>
        <rect x="31.5379" y="232.8997" width="215.6" height="114.4" rx="8" ry="8" fill="none" stroke="#626363" stroke-linejoin="round" stroke-width=".75"/>
        <rect x="31.5379" y="232.8997" width="215.6" height="114.4" rx="8" ry="8" fill="none" stroke="#cbccca" stroke-dasharray="2.9824 6.959" stroke-linejoin="round" stroke-width=".75"/>
      </g>
      <g>
        <path d="M109.1182,268.0997c.8898,0,1.6111-.7213,1.6111-1.6111h0c.0115-.0624.0115-.1264,0-.1889-.6444-5.0778-3.5222-9.2111-9.0778-9.2111s-8.5111,3.5-9.0778,9.2222c-.0963.8907.5478,1.6909,1.4385,1.7871.0057.0006.0114.0012.017.0018h15.0889Z" fill="url(#linear-gradient-2)"/>
        <path d="M101.6515,258.2885c-.9773-.0008-1.9337-.2823-2.7556-.8111l2.7556,7.1333,2.7111-7.0889c-.8123.5084-1.7529.7744-2.7111.7667Z" fill="#fff" isolation="isolate" opacity=".8"/>
        <circle cx="101.6626" cy="253.1885" r="5.0889" fill="url(#linear-gradient-3)"/>
      </g>
      <g>
        <path d="M109.1182,298.8997c.8898,0,1.6111-.7213,1.6111-1.6111h0c.0115-.0624.0115-.1264,0-.1889-.6444-5.0778-3.5222-9.2111-9.0778-9.2111s-8.5111,3.5-9.0778,9.2222c-.0963.8907.5478,1.6909,1.4385,1.7871.0057.0006.0114.0012.017.0018h15.0889Z" fill="url(#linear-gradient-4)"/>
        <path d="M101.6515,289.0885c-.9773-.0008-1.9337-.2823-2.7556-.8111l2.7556,7.1333,2.7111-7.0889c-.8123.5084-1.7529.7744-2.7111.7667Z" fill="#fff" isolation="isolate" opacity=".8"/>
        <circle cx="101.6626" cy="283.9885" r="5.0889" fill="url(#linear-gradient-5)"/>
      </g>
      <g>
        <path d="M109.1182,329.6997c.8898,0,1.6111-.7213,1.6111-1.6111h0c.0115-.0624.0115-.1264,0-.1889-.6444-5.0778-3.5222-9.2111-9.0778-9.2111s-8.5111,3.5-9.0778,9.2222c-.0963.8907.5478,1.6909,1.4385,1.7871.0057.0006.0114.0012.017.0018h15.0889Z" fill="url(#linear-gradient-6)"/>
        <path d="M101.6515,319.8885c-.9773-.0008-1.9337-.2823-2.7556-.8111l2.7556,7.1333,2.7111-7.0889c-.8123.5084-1.7529.7744-2.7111.7667Z" fill="#fff" isolation="isolate" opacity=".8"/>
        <circle cx="101.6626" cy="314.7885" r="5.0889" fill="url(#linear-gradient-7)"/>
      </g>
      <g>
        <g mix-blend-mode="multiply" opacity=".8">
          <rect x="168.4379" y="246.5997" width="61.6" height="88" fill="#1e3465"/>
          <rect x="168.4379" y="246.5997" width="61.6" height="88" fill="#1e3465" opacity=".25"/>
        </g>
        <g>
          <rect x="167.9379" y="246.0997" width="61.6" height="88" fill="#fff"/>
          <rect x="167.9379" y="246.0997" width="61.6" height="88" fill="#1e3465" opacity=".25"/>
        </g>
      </g>
      <g>
        <line x1="162.5557" y1="290.0997" x2="118.5204" y2="290.0997" fill="none" stroke="#3c3c41" stroke-miterlimit="10"/>
        <polygon points="161.4615 286.3599 167.9379 290.0997 161.4615 293.8394 161.4615 286.3599" fill="#3c3c41"/>
        <polygon points="119.6146 286.3599 113.1382 290.0997 119.6146 293.8394 119.6146 286.3599" fill="#3c3c41"/>
      </g>
      <g>
        <line x1="162.5557" y1="259.2997" x2="118.5204" y2="259.2997" fill="none" stroke="#3c3c41" stroke-miterlimit="10"/>
        <polygon points="161.4615 255.5599 167.9379 259.2997 161.4615 263.0394 161.4615 255.5599" fill="#3c3c41"/>
        <polygon points="119.6146 255.5599 113.1382 259.2997 119.6146 263.0394 119.6146 255.5599" fill="#3c3c41"/>
      </g>
      <g>
        <line x1="162.5557" y1="320.8997" x2="118.5204" y2="320.8997" fill="none" stroke="#3c3c41" stroke-miterlimit="10"/>
        <polygon points="161.4615 317.1599 167.9379 320.8997 161.4615 324.6394 161.4615 317.1599" fill="#3c3c41"/>
        <polygon points="119.6146 317.1599 113.1382 320.8997 119.6146 324.6394 119.6146 317.1599" fill="#3c3c41"/>
      </g>
      <g>
        <rect x="31.5379" y="83.2998" width="215.6" height="114.4" rx="8" ry="8" fill="#fff"/>
        <rect x="31.5379" y="83.2998" width="215.6" height="114.4" rx="8" ry="8" fill="none" stroke="#626363" stroke-linejoin="round" stroke-width=".75"/>
        <rect x="31.5379" y="83.2998" width="215.6" height="114.4" rx="8" ry="8" fill="none" stroke="#cbccca" stroke-dasharray="2.9824 6.959" stroke-linejoin="round" stroke-width=".75"/>
      </g>
      <rect x="341.7379" y="92.0997" width="231" height="127.6" fill="#fff" stroke="#0078d4" stroke-width=".25"/>
      <g>
        <g mix-blend-mode="multiply" opacity=".99">
          <rect x="340.0379" y="264.1997" width="233.2" height="50.452" fill="#258277"/>
          <rect x="340.0379" y="264.1997" width="233.2" height="50.452" fill="#258277" opacity=".25"/>
        </g>
        <g>
          <rect x="339.5379" y="263.6997" width="233.2" height="50.452" fill="#fff"/>
          <rect x="339.5379" y="263.6997" width="233.2" height="50.452" fill="#4bc5b1" opacity=".25"/>
        </g>
      </g>
      <g>
        <rect x="339.3232" y="79.4997" width="8.8" height="140.2" fill="#fff"/>
        <rect x="339.3232" y="79.4997" width="8.8" height="140.2" fill="#53b1e0" opacity=".6"/>
        <rect x="339.3232" y="79.4997" width="8.8" height="140.2" fill="none" stroke="#198ab3" stroke-width=".25"/>
      </g>
      <g>
        <path d="M329.1526,15.1159c.1646-.4878.6221-.8163,1.1369-.8163h7.5385l-7.8245,23.1837c-.1646.4878-.6221.8163-1.1369.8163h-5.867c-.821,0-1.3995-.8059-1.137-1.5838l7.29-21.5999Z" fill="url(#linear-gradient-8)"/>
        <path d="M341.2041,29.8997h-11.8806c-.4992,0-.7402.6114-.3753.9521l7.6341,7.1251c.2222.2074.5148.3228.8188.3228h6.727l-2.924-8.4Z" fill="#0078d4"/>
        <path d="M337.8281,14.2997h-8.4l-8.1,23.9999h8.4l1.7247-5.1103,5.4753,5.1103h7.2l-2.924-8.4h-8.641l5.265-15.6Z" fill="url(#linear-gradient-9)"/>
        <path d="M339.9036,15.1159c-.1647-.4878-.6222-.8163-1.137-.8163h-8.4385.0385c.5148,0,.9723.3285,1.137.8163l7.29,21.5999c.2625.7779-.316,1.5838-1.137,1.5838h-.1285,8.5285c.821,0,1.3995-.8059,1.137-1.5838l-7.29-21.5999Z" fill="url(#linear-gradient-10)"/>
      </g>
      <g>
        <path d="M351.7806,77.2279h-1.3296v-4.0952c.0115-1.9234-.6949-3.7819-1.9811-5.2121-1.2176-1.4185-2.997-2.2304-4.8664-2.2204-1.8879-.0257-3.6899.7877-4.9195,2.2204-1.2952,1.4246-2.0031,3.2868-1.9811,5.2121v4.0952h-1.077c-.5037.0071-.9103.4137-.9174.9174v10.6369c.0071.5037.4137.9103.9174.9174h16.1547c.506-.0069.9165-.4116.9307-.9174v-10.6369c-.0142-.5058-.4247-.9105-.9307-.9174ZM347.2998,77.2279h-7.3926v-4.1617c.0119-1.0645.425-2.0854,1.1568-2.8587.6303-.7225,1.5409-1.1391,2.4997-1.1435.9623.0057,1.8765.4217,2.513,1.1435.1576.1783.2999.3696.4255.5717h0c.4987.6559.782,1.4502.8111,2.2736l-.0133,4.175Z" fill="url(#linear-gradient-11)"/>
        <path d="M351.8205,77.2279h-16.1813c-.2162.0007-.4245.0812-.585.226l17.3514,11.9665c.2094-.1685.3316-.4226.3324-.6914v-10.6369c-.0406-.4799-.4359-.8524-.9174-.8642Z" fill="#50e6ff"/>
        <path d="M335.6657,77.2279h16.168c.2199.0023.4318.0824.5983.226l-17.3647,11.9665c-.205-.172-.3262-.4239-.3324-.6914v-10.6369c.047-.482.4465-.8531.9307-.8642Z" fill="#fff" isolation="isolate" opacity=".2"/>
        <path d="M342.1276,79.7941l1.5955-1.5955c.0346-.029.0851-.029.1197,0l1.5822,1.5955c.0367.0244.0467.0739.0224.1106-.0059.0089-.0135.0165-.0224.0224h-.9307c-.0441,0-.0798.0357-.0798.0798h0v2.0476c0,.0441-.0357.0798-.0798.0798h-1.0504c-.0358.0083-.0715-.014-.0798-.0497-.0023-.0099-.0023-.0201,0-.03v-2.0476c-.0067-.0462-.0464-.0803-.0931-.0798h-.9307c-.0439-.0034-.0768-.0417-.0735-.0856.0013-.0176.0085-.0342.0203-.0473ZM345.4118,87.0803l-1.5822,1.5822c-.0291.033-.0796.0362-.1126.0071-.0025-.0022-.0049-.0046-.0071-.0071l-1.5822-1.5822c-.0367-.0244-.0467-.0739-.0224-.1106.0059-.0089.0135-.0165.0224-.0224h.9307c.0466.0005.0864-.0336.0931-.0798v-2.0609c0-.0441.0357-.0798.0798-.0798h.9839c.0441,0,.0798.0357.0798.0798h0v2.0609c0,.0441.0357.0798.0798.0798h.9307c.0367-.0294.0903-.0234.1197.0133.0294.0367.0234.0903-.0133.1197h0ZM339.1626,85.0194v-.9307c0-.0441-.0357-.0798-.0798-.0798h-2.0077c-.0441,0-.0798-.0357-.0798-.0798h0v-.944c-.0225-.0379-.0099-.0868.028-.1093.0156-.0092.0339-.0129.0518-.0104h2.0077c.0441,0,.0798-.0357.0798-.0798h0v-.9307c.0053-.0511.051-.0883.1021-.083.0159.0016.0311.0073.0441.0165l1.5822,1.5955c.0271.0303.0271.0761,0,.1064l-1.5822,1.5955c-.042.0296-.1001.0196-.1297-.0224-.0092-.013-.0149-.0282-.0165-.0441ZM348.3768,81.855v.9307c0,.0441.0357.0798.0798.0798h2.0476s.0931,0,.0931.0798v.9839c-.0067.0462-.0464.0803-.0931.0798h-2.0476c-.0441,0-.0798.0357-.0798.0798h0v.9307c.004.0439-.0282.0827-.0721.0868-.0222.002-.0443-.0053-.0608-.0203l-1.5822-1.5955M346.6616,83.384l1.5822-1.5955s.133-.0133.133.0665l-1.7152,1.5291Z" fill="#fff"/>
      </g>
      <g>
        <rect x="410.1493" y="139.1438" width="25.9771" height="17.3181" rx=".8659" ry=".8659" fill="url(#linear-gradient-12)"/>
        <polygon points="427.4674 145.2773 427.4674 150.314 423.1379 152.8539 423.1379 147.8028 427.4674 145.2773" fill="#50e6ff"/>
        <polygon points="427.4674 145.2773 423.1379 147.8173 418.8084 145.2773 423.1379 142.7517 427.4674 145.2773" fill="#c3f1ff"/>
        <polygon points="423.1379 147.8173 423.1379 152.8539 418.8084 150.314 418.8084 145.2773 423.1379 147.8173" fill="#9cebff"/>
        <polygon points="418.8084 150.314 423.1379 147.8028 423.1379 152.8539 418.8084 150.314" fill="#c3f1ff"/>
        <polygon points="427.4674 150.314 423.1379 147.8028 423.1379 152.8539 427.4674 150.314" fill="#9cebff"/>
        <path d="M428.3478,161.7006c-2.5689-.4041-2.6699-2.2514-2.6699-5.2387h-5.0944c0,2.9874-.0866,4.8346-2.6554,5.2387-.7345.0813-1.2889.7042-1.2844,1.4432h12.9886c.0045-.739-.5499-1.3619-1.2844-1.4432Z" fill="url(#linear-gradient-13)"/>
      </g>
      <g>
        <rect x="471.7493" y="139.1438" width="25.9771" height="17.3181" rx=".8659" ry=".8659" fill="url(#linear-gradient-14)"/>
        <polygon points="489.0674 145.2773 489.0674 150.314 484.7379 152.8539 484.7379 147.8028 489.0674 145.2773" fill="#50e6ff"/>
        <polygon points="489.0674 145.2773 484.7379 147.8173 480.4084 145.2773 484.7379 142.7517 489.0674 145.2773" fill="#c3f1ff"/>
        <polygon points="484.7379 147.8173 484.7379 152.8539 480.4084 150.314 480.4084 145.2773 484.7379 147.8173" fill="#9cebff"/>
        <polygon points="480.4084 150.314 484.7379 147.8028 484.7379 152.8539 480.4084 150.314" fill="#c3f1ff"/>
        <polygon points="489.0674 150.314 484.7379 147.8028 484.7379 152.8539 489.0674 150.314" fill="#9cebff"/>
        <path d="M489.9478,161.7006c-2.5689-.4041-2.6699-2.2514-2.6699-5.2387h-5.0944c0,2.9874-.0866,4.8346-2.6554,5.2387-.7345.0813-1.2889.7042-1.2844,1.4432h12.9886c.0045-.739-.5499-1.3619-1.2844-1.4432Z" fill="url(#linear-gradient-15)"/>
      </g>
      <g>
        <path d="M537.5379,81.7959h24.872v13.8698c0,.4606-.3734.8339-.8339.8339h-23.2041c-.4606,0-.8339-.3734-.8339-.8339v-13.8698Z" fill="url(#linear-gradient-16)"/>
        <path d="M538.3718,76.4997h23.2041c.4606,0,.8339.3734.8339.8339v4.4623h-24.872v-4.477c.008-.4549.379-.8194.8339-.8193Z" fill="#767676"/>
        <circle cx="555.5628" cy="88.2334" r="2.019" fill="#f2f2f2"/>
        <circle cx="550.0617" cy="88.2334" r="2.019" fill="#f2f2f2"/>
        <circle cx="544.385" cy="88.2334" r="2.019" fill="#f2f2f2"/>
        <rect x="540.8883" y="78.0798" width="18.1858" height="2.1361" rx=".4097" ry=".4097" fill="#f2f2f2"/>
      </g>
      <g>
        <path d="M234.9201,259.4047h29.2178c2.75,0,6.2152-1.8936,7.7005-4.208l34.1989-53.2891c1.4853-2.3144,4.9505-4.208,7.7005-4.208h20.4178" fill="none" stroke="#3c3c41" stroke-miterlimit="10"/>
        <polygon points="236.0143 263.1445 229.5379 259.4047 236.0143 255.665 236.0143 263.1445" fill="#3c3c41"/>
        <polygon points="333.0615 201.4394 339.5379 197.6997 333.0615 193.9599 333.0615 201.4394" fill="#3c3c41"/>
      </g>
      <g>
        <rect x="360.6901" y="279.4778" width="18.8956" height="18.8956" rx=".8721" ry=".8721" transform="translate(-95.8904 346.3514) rotate(-45)" fill="url(#linear-gradient-17)"/>
        <path d="M367.1684,282.316l2.8764-2.8764c.0595-.0583.1547-.0583.2142,0l2.9529,2.8764c.0602.0464.0714.1329.0249.1931-.0311.0403-.0819.0602-.132.0517h-1.7595c-.0845,0-.153.0685-.153.153h0v3.7179c0,.0761-.0617.1377-.1377.1377h-1.7901c-.0756.0085-.1437-.046-.1522-.1215-.0006-.0054-.0009-.0108-.0009-.0162v-3.7179c.0004-.0789-.0592-.1451-.1377-.153h-1.6983c-.0841-.0082-.1457-.0829-.1375-.167.0027-.0282.0133-.0552.0304-.0778ZM373.2119,295.5353l-2.9529,2.8764c-.0595.0583-.1547.0583-.2142,0l-2.8764-2.8764c-.0511-.0673-.038-.1633.0293-.2144.0226-.0172.0495-.0277.0778-.0304h1.6983c.0785-.0079.1381-.0741.1377-.153v-3.7179c-.0005-.076.0608-.1381.1368-.1386.0054,0,.0108.0003.0162.0009h1.7901c.0761,0,.1377.0617.1377.1377h0v3.7179c0,.0845.0685.153.153.153h1.683c.0676-.0507.1635-.037.2142.0306.0507.0676.037.1635-.0306.2142ZM364.552,291.7409v-1.683c-.0071-.0814-.0716-.1459-.153-.153h-3.7179c-.0789.0004-.1451-.0592-.153-.1377v-1.7901c.0071-.0814.0716-.1459.153-.153h3.7179c.0789.0004.1451-.0592.153-.1377v-1.6983c-.0262-.0714.0103-.1505.0817-.1768.0604-.0222.1281.0004.1631.0544l2.8764,2.907c.0549.0526.0568.1398.0042.1947-.0014.0014-.0028.0028-.0042.0042l-2.8764,2.8764c-.0464.0602-.1329.0714-.1931.0249-.0403-.0311-.0602-.0819-.0517-.132ZM375.7517,285.988v1.6983c.0079.0785.0741.1381.153.1377h3.7179c.0814.0071.1459.0716.153.153v1.7901c-.0079.0785-.0741.1381-.153.1377h-3.7179c-.0814.0071-.1459.0716-.153.153v1.683c.0127.075-.0378.1461-.1128.1588-.0502.0085-.101-.0114-.132-.0517l-2.8764-2.9223c-.0549-.0526-.0568-.1398-.0042-.1947.0014-.0014.0028-.0028.0042-.0042l2.8764-2.8611c.0414-.0638.1266-.082.1904-.0407.054.035.0766.1027.0544.1631Z" fill="#fff"/>
      </g>
      <g>
        <line x1="229.5379" y1="290.0997" x2="231.0379" y2="290.0997" fill="none" stroke="#3c3c41" stroke-miterlimit="10"/>
        <line x1="233.5408" y1="290.0997" x2="331.4043" y2="290.0997" fill="none" stroke="#3c3c41" stroke-dasharray="3.0035 2.5029" stroke-miterlimit="10"/>
        <line x1="332.6557" y1="290.0997" x2="334.1557" y2="290.0997" fill="none" stroke="#3c3c41" stroke-miterlimit="10"/>
        <polygon points="333.0615 293.8394 339.5379 290.0997 333.0615 286.3599 333.0615 293.8394" fill="#3c3c41"/>
      </g>
      <g>
        <line x1="456.1379" y1="263.6997" x2="456.1379" y2="262.1997" fill="none" stroke="#3c3c41" stroke-miterlimit="10"/>
        <line x1="456.1379" y1="259.6914" x2="456.1379" y2="227.836" fill="none" stroke="#3c3c41" stroke-dasharray="3.01 2.5083" stroke-miterlimit="10"/>
        <line x1="456.1379" y1="226.5818" x2="456.1379" y2="225.0818" fill="none" stroke="#3c3c41" stroke-miterlimit="10"/>
        <polygon points="459.8776 226.1761 456.1379 219.6997 452.3981 226.1761 459.8776 226.1761" fill="#3c3c41"/>
      </g>
      <g>
        <path d="M109.1182,118.4998c.8898,0,1.6111-.7213,1.6111-1.6111h0c.0115-.0624.0115-.1264,0-.1889-.6444-5.0778-3.5222-9.2111-9.0778-9.2111s-8.5111,3.5-9.0778,9.2222c-.0963.8907.5478,1.6909,1.4385,1.7871.0057.0006.0114.0012.017.0018h15.0889Z" fill="url(#linear-gradient-18)"/>
        <path d="M101.6515,108.6886c-.9773-.0008-1.9337-.2823-2.7556-.8111l2.7556,7.1333,2.7111-7.0889c-.8123.5084-1.7529.7744-2.7111.7667Z" fill="#fff" isolation="isolate" opacity=".8"/>
        <circle cx="101.6626" cy="103.5886" r="5.0889" fill="url(#linear-gradient-19)"/>
      </g>
      <g>
        <path d="M109.1182,149.2998c.8898,0,1.6111-.7213,1.6111-1.6111h0c.0115-.0624.0115-.1264,0-.1889-.6444-5.0778-3.5222-9.2111-9.0778-9.2111s-8.5111,3.5-9.0778,9.2222c-.0963.8907.5478,1.6909,1.4385,1.7871.0057.0006.0114.0012.017.0018h15.0889Z" fill="url(#linear-gradient-20)"/>
        <path d="M101.6515,139.4886c-.9773-.0008-1.9337-.2823-2.7556-.8111l2.7556,7.1333,2.7111-7.0889c-.8123.5084-1.7529.7744-2.7111.7667Z" fill="#fff" isolation="isolate" opacity=".8"/>
        <circle cx="101.6626" cy="134.3886" r="5.0889" fill="url(#linear-gradient-21)"/>
      </g>
      <g>
        <path d="M109.1182,180.0998c.8898,0,1.6111-.7213,1.6111-1.6111h0c.0115-.0624.0115-.1264,0-.1889-.6444-5.0778-3.5222-9.2111-9.0778-9.2111s-8.5111,3.5-9.0778,9.2222c-.0963.8907.5478,1.6909,1.4385,1.7871.0057.0006.0114.0012.017.0018h15.0889Z" fill="url(#linear-gradient-22)"/>
        <path d="M101.6515,170.2886c-.9773-.0008-1.9337-.2823-2.7556-.8111l2.7556,7.1333,2.7111-7.0889c-.8123.5084-1.7529.7744-2.7111.7667Z" fill="#fff" isolation="isolate" opacity=".8"/>
        <circle cx="101.6626" cy="165.1886" r="5.0889" fill="url(#linear-gradient-23)"/>
      </g>
      <g>
        <line x1="334.1557" y1="140.4998" x2="118.5204" y2="140.4998" fill="none" stroke="#3c3c41" stroke-miterlimit="10"/>
        <polygon points="333.0614 136.7601 339.5378 140.4998 333.0614 144.2396 333.0614 136.7601" fill="#3c3c41"/>
        <polygon points="119.6146 136.76 113.1382 140.4998 119.6146 144.2395 119.6146 136.76" fill="#3c3c41"/>
      </g>
      <g>
        <line x1="334.1556" y1="109.6998" x2="118.5204" y2="109.6998" fill="none" stroke="#3c3c41" stroke-miterlimit="10"/>
        <polygon points="333.0614 105.9601 339.5378 109.6998 333.0614 113.4396 333.0614 105.9601" fill="#3c3c41"/>
        <polygon points="119.6146 105.96 113.1382 109.6998 119.6146 113.4395 119.6146 105.96" fill="#3c3c41"/>
      </g>
      <g>
        <line x1="334.1557" y1="171.2998" x2="118.5204" y2="171.2998" fill="none" stroke="#3c3c41" stroke-miterlimit="10"/>
        <polygon points="333.0615 167.5601 339.5379 171.2998 333.0615 175.0396 333.0615 167.5601" fill="#3c3c41"/>
        <polygon points="119.6147 167.56 113.1383 171.2998 119.6147 175.0395 119.6147 167.56" fill="#3c3c41"/>
      </g>
    </g>
    <g id="Text">
      <g>
        <path d="M41.174,25.1641c-1.3901,0-2.5029-.458-3.3394-1.374s-1.2544-2.1079-1.2544-3.5752c0-1.5767.4263-2.8345,1.2783-3.7734s2.0122-1.4082,3.4795-1.4082c1.3535,0,2.4438.4556,3.271,1.3672s1.2407,2.103,1.2407,3.5752c0,1.5996-.4238,2.8643-1.2715,3.7939s-1.9824,1.3945-3.4043,1.3945ZM41.2561,16.0723c-1.0298,0-1.8662.3716-2.5088,1.1143s-.9639,1.7183-.9639,2.9258.3135,2.1797.9399,2.9155,1.4434,1.104,2.4507,1.104c1.0757,0,1.9233-.3511,2.543-1.0527s.9297-1.6841.9297-2.9463c0-1.2944-.3008-2.2944-.9023-3.001s-1.4312-1.0596-2.4883-1.0596Z" fill="#2f2f2f"/>
        <path d="M53.4265,25h-1.1211v-3.9922c0-1.4858-.5425-2.2285-1.627-2.2285-.5605,0-1.0244.2109-1.3911.6323s-.5503.9536-.5503,1.5962v3.9922h-1.1211v-7h1.1211v1.1621h.0273c.5288-.8843,1.2944-1.3262,2.2969-1.3262.7656,0,1.3511.2471,1.7568.7417s.6084,1.209.6084,2.1431v4.2793Z" fill="#2f2f2f"/>
        <path d="M59.0354,21.541h-3.7324v-.8818h3.7324v.8818Z" fill="#2f2f2f"/>
        <path d="M62.0925,23.9883h-.0273v4.2314h-1.1211v-10.2197h1.1211v1.2305h.0273c.5513-.9297,1.3579-1.3945,2.4199-1.3945.9023,0,1.6064.3135,2.1123.9399s.7588,1.4663.7588,2.519c0,1.1714-.2847,2.1089-.8545,2.813s-1.3491,1.0562-2.3379,1.0562c-.9067,0-1.6064-.3921-2.0986-1.1758ZM62.0651,21.165v.9775c0,.5786.188,1.0698.564,1.4731s.8535.605,1.4321.605c.6792,0,1.2109-.2598,1.5962-.7793s.5776-1.2417.5776-2.167c0-.7793-.1802-1.3901-.54-1.832s-.8477-.6631-1.4629-.6631c-.6519,0-1.1758.2266-1.5723.6802s-.5947,1.022-.5947,1.7056Z" fill="#2f2f2f"/>
        <path d="M72.7507,19.1348c-.1958-.1504-.4785-.2256-.8477-.2256-.4785,0-.8784.2256-1.1997.6768s-.4819,1.0664-.4819,1.8457v3.5684h-1.1211v-7h1.1211v1.4424h.0273c.1597-.4922.4033-.876.7314-1.1519s.6948-.4136,1.1006-.4136c.2915,0,.5151.0317.6699.0957v1.1621Z" fill="#2f2f2f"/>
        <path d="M79.5935,21.7803h-4.9424c.0181.7793.228,1.3809.6289,1.8047s.9526.6357,1.6543.6357c.7886,0,1.5132-.2598,2.1738-.7793v1.0527c-.6152.4468-1.4287.6699-2.4404.6699-.9888,0-1.7661-.3179-2.3311-.9536s-.8477-1.5303-.8477-2.6831c0-1.0894.3086-1.9766.9263-2.6626s1.3843-1.0288,2.3003-1.0288,1.6245.2964,2.126.8887.752,1.415.752,2.4678v.5879ZM78.445,20.8301c-.0044-.647-.1606-1.1509-.4683-1.5107s-.7349-.54-1.2817-.54c-.5288,0-.9775.189-1.3467.5674s-.5972.8726-.6836,1.4834h3.7803Z" fill="#2f2f2f"/>
        <path d="M91.216,25h-1.1211v-4.0195c0-.7749-.1196-1.3354-.3589-1.6816s-.6416-.5195-1.2065-.5195c-.4785,0-.8853.2188-1.2202.6562s-.5024.9614-.5024,1.5723v3.9922h-1.1211v-4.1562c0-1.3765-.5308-2.0645-1.5928-2.0645-.4922,0-.8979.2061-1.2168.6187s-.4785.9492-.4785,1.6099v3.9922h-1.1211v-7h1.1211v1.1074h.0273c.4966-.8477,1.2212-1.2715,2.1738-1.2715.4785,0,.8955.1333,1.251.3999s.5991.6162.7314,1.0493c.5195-.9663,1.2944-1.4492,2.3242-1.4492,1.5405,0,2.3105.9502,2.3105,2.8506v4.3135Z" fill="#2f2f2f"/>
        <path d="M93.8044,16.2227c-.2007,0-.3716-.0684-.5127-.2051s-.2119-.3101-.2119-.5195.0708-.3838.2119-.5229.312-.2085.5127-.2085c.2051,0,.3794.0693.5229.2085s.2153.3135.2153.5229c0,.2007-.0718.3716-.2153.5127s-.3179.2119-.5229.2119ZM94.3513,25h-1.1211v-7h1.1211v7Z" fill="#2f2f2f"/>
        <path d="M96.0681,24.7471v-1.2031c.6108.4512,1.2827.6768,2.0166.6768.9844,0,1.4766-.3281,1.4766-.9844,0-.187-.042-.3452-.1265-.4751s-.1982-.2451-.3418-.3452-.312-.1904-.5059-.27-.4023-.1631-.6255-.2495c-.3101-.123-.582-.2471-.8169-.3726s-.4307-.2666-.5879-.4238-.2759-.3359-.3555-.5366-.1196-.4351-.1196-.7041c0-.3281.0752-.6187.2256-.8716s.3511-.4648.6016-.6357.5366-.2998.8579-.3862.6528-.1299.9946-.1299c.606,0,1.1484.105,1.627.3145v1.1348c-.5151-.3374-1.1074-.5059-1.7773-.5059-.2095,0-.3989.0239-.5674.0718s-.3135.1152-.4341.2017-.2144.1904-.2803.311-.0991.2539-.0991.3999c0,.1821.0332.335.0991.458s.1631.2324.2905.3281.2827.1821.4648.2598.3896.1616.6221.2529c.3101.1187.5879.2402.834.3657s.4556.2666.6289.4238.3066.3384.3999.5435.1401.4487.1401.7314c0,.3462-.0762.647-.229.9023s-.3564.4673-.6118.6357-.5493.2939-.8818.376-.6812.123-1.0459.123c-.7202,0-1.3442-.1392-1.873-.417Z" fill="#2f2f2f"/>
        <path d="M108.0231,21.7803h-4.9424c.0181.7793.228,1.3809.6289,1.8047s.9526.6357,1.6543.6357c.7886,0,1.5132-.2598,2.1738-.7793v1.0527c-.6152.4468-1.4287.6699-2.4404.6699-.9888,0-1.7661-.3179-2.3311-.9536s-.8477-1.5303-.8477-2.6831c0-1.0894.3086-1.9766.9263-2.6626s1.3843-1.0288,2.3003-1.0288,1.6245.2964,2.126.8887.752,1.415.752,2.4678v.5879ZM106.8747,20.8301c-.0044-.647-.1606-1.1509-.4683-1.5107s-.7349-.54-1.2817-.54c-.5288,0-.9775.189-1.3467.5674s-.5972.8726-.6836,1.4834h3.7803Z" fill="#2f2f2f"/>
        <path d="M109.2653,24.7471v-1.2031c.6108.4512,1.2827.6768,2.0166.6768.9844,0,1.4766-.3281,1.4766-.9844,0-.187-.042-.3452-.1265-.4751s-.1982-.2451-.3418-.3452-.312-.1904-.5059-.27-.4023-.1631-.6255-.2495c-.3101-.123-.582-.2471-.8169-.3726s-.4307-.2666-.5879-.4238-.2759-.3359-.3555-.5366-.1196-.4351-.1196-.7041c0-.3281.0752-.6187.2256-.8716s.3511-.4648.6016-.6357.5366-.2998.8579-.3862.6528-.1299.9946-.1299c.606,0,1.1484.105,1.627.3145v1.1348c-.5151-.3374-1.1074-.5059-1.7773-.5059-.2095,0-.3989.0239-.5674.0718s-.3135.1152-.4341.2017-.2144.1904-.2803.311-.0991.2539-.0991.3999c0,.1821.0332.335.0991.458s.1631.2324.2905.3281.2827.1821.4648.2598.3896.1616.6221.2529c.3101.1187.5879.2402.834.3657s.4556.2666.6289.4238.3066.3384.3999.5435.1401.4487.1401.7314c0,.3462-.0762.647-.229.9023s-.3564.4673-.6118.6357-.5493.2939-.8818.376-.6812.123-1.0459.123c-.7202,0-1.3442-.1392-1.873-.417Z" fill="#2f2f2f"/>
      </g>
      <g>
        <path d="M359.611,24.9995h-1.2715l-1.0391-2.748h-4.1562l-.9775,2.748h-1.2783l3.7598-9.8027h1.1895l3.7734,9.8027ZM356.9245,21.2192l-1.5381-4.1768c-.0503-.1367-.1001-.3555-.1504-.6562h-.0273c-.0454.2778-.0981.4966-.1572.6562l-1.5244,4.1768h3.3975Z" fill="#2f2f2f"/>
        <path d="M366.2219,18.3208l-4.1426,5.7217h4.1016v.957h-5.749v-.3486l4.1426-5.6943h-3.7529v-.957h5.4004v.3213Z" fill="#2f2f2f"/>
        <path d="M373.319,24.9995h-1.1211v-1.1074h-.0273c-.4648.8477-1.1851,1.2715-2.1602,1.2715-1.668,0-2.502-.9937-2.502-2.9805v-4.1836h1.1143v4.0059c0,1.4766.5649,2.2148,1.6953,2.2148.5469,0,.9971-.2017,1.3501-.605s.5298-.9307.5298-1.5825v-4.0332h1.1211v7Z" fill="#2f2f2f"/>
        <path d="M379.0764,19.1343c-.1958-.1504-.4785-.2256-.8477-.2256-.4785,0-.8784.2256-1.1997.6768s-.4819,1.0664-.4819,1.8457v3.5684h-1.1211v-7h1.1211v1.4424h.0273c.1597-.4922.4033-.876.7314-1.1519s.6948-.4136,1.1006-.4136c.2915,0,.5151.0317.6699.0957v1.1621Z" fill="#2f2f2f"/>
        <path d="M385.9191,21.7798h-4.9424c.0181.7793.228,1.3809.6289,1.8047s.9526.6357,1.6543.6357c.7886,0,1.5132-.2598,2.1738-.7793v1.0527c-.6152.4468-1.4287.6699-2.4404.6699-.9888,0-1.7661-.3179-2.3311-.9536s-.8477-1.5303-.8477-2.6831c0-1.0894.3086-1.9766.9263-2.6626s1.3843-1.0288,2.3003-1.0288,1.6245.2964,2.126.8887.752,1.415.752,2.4678v.5879ZM384.7707,20.8296c-.0044-.647-.1606-1.1509-.4683-1.5107s-.7349-.54-1.2817-.54c-.5288,0-.9775.189-1.3467.5674s-.5972.8726-.6836,1.4834h3.7803Z" fill="#2f2f2f"/>
      </g>
      <g>
        <rect x="392.3379" y="169.9438" width="61.6" height="32.1559" fill="none"/>
        <path d="M405.6618,181.1753c-.9844.5562-2.0781.834-3.2812.834-1.3989,0-2.5303-.4512-3.394-1.3535s-1.2954-2.0962-1.2954-3.582c0-1.5176.4795-2.7627,1.439-3.7358s2.1748-1.4595,3.647-1.4595c1.0664,0,1.9619.1733,2.6865.5195v1.2715c-.793-.5015-1.7319-.752-2.8164-.752-1.0981,0-1.9985.3784-2.7002,1.1348s-1.0527,1.7363-1.0527,2.9395c0,1.2397.3257,2.2139.9775,2.9224s1.5356,1.063,2.6523,1.063c.7656,0,1.4287-.1528,1.9893-.458v-2.748h-2.1465v-1.0391h3.2949v4.4434Z" fill="#2f2f2f"/>
        <path d="M412.7482,181.8452h-1.1211v-1.0938h-.0273c-.4878.8384-1.2056,1.2578-2.1533,1.2578-.6973,0-1.2432-.1846-1.6372-.5537s-.5913-.8589-.5913-1.4697c0-1.3081.77-2.0688,2.3105-2.2832l2.0986-.2939c0-1.1895-.481-1.7842-1.4424-1.7842-.8433,0-1.604.2871-2.2832.8613v-1.1484c.688-.4375,1.481-.6562,2.3789-.6562,1.645,0,2.4678.8706,2.4678,2.6113v4.5527ZM411.6271,178.3042l-1.6885.2324c-.5195.0728-.9116.2017-1.1758.3862s-.3965.5117-.3965.981c0,.3418.1221.6211.3657.8374s.5684.3247.9741.3247c.5562,0,1.0151-.1948,1.3774-.5845s.5435-.8828.5435-1.48v-.6973Z" fill="#2f2f2f"/>
        <path d="M418.0065,181.7769c-.2642.146-.6128.2188-1.0459.2188-1.2261,0-1.8389-.6836-1.8389-2.0508v-4.1426h-1.2031v-.957h1.2031v-1.709l1.1211-.3623v2.0713h1.7637v.957h-1.7637v3.9443c0,.4692.0796.8042.2393,1.0049s.4238.3008.793.3008c.2827,0,.5264-.0776.7314-.2324v.957Z" fill="#2f2f2f"/>
        <path d="M424.9997,178.6255h-4.9424c.0181.7793.228,1.3809.6289,1.8047s.9526.6357,1.6543.6357c.7886,0,1.5132-.2598,2.1738-.7793v1.0527c-.6152.4468-1.4287.6699-2.4404.6699-.9888,0-1.7661-.3179-2.3311-.9536s-.8477-1.5303-.8477-2.6831c0-1.0894.3086-1.9766.9263-2.6626s1.3843-1.0288,2.3003-1.0288,1.6245.2964,2.126.8887.752,1.415.752,2.4678v.5879ZM423.8513,177.6753c-.0044-.647-.1606-1.1509-.4683-1.5107s-.7349-.54-1.2817-.54c-.5288,0-.9775.189-1.3467.5674s-.5972.8726-.6836,1.4834h3.7803Z" fill="#2f2f2f"/>
        <path d="M435.4738,174.8452l-2.0986,7h-1.1621l-1.4424-5.0107c-.0547-.1914-.0913-.4077-.1094-.6494h-.0273c-.0137.1641-.0615.376-.1436.6357l-1.5654,5.0244h-1.1211l-2.1191-7h1.1758l1.4492,5.2637c.0454.1597.0776.3691.0957.6289h.0547c.0137-.2007.0547-.4146.123-.6426l1.6133-5.25h1.0254l1.4492,5.2773c.0454.1685.0796.3784.1025.6289h.0547c.0093-.1777.0479-.3872.1162-.6289l1.4219-5.2773h1.1074Z" fill="#2f2f2f"/>
        <path d="M441.6477,181.8452h-1.1211v-1.0938h-.0273c-.4878.8384-1.2056,1.2578-2.1533,1.2578-.6973,0-1.2432-.1846-1.6372-.5537s-.5913-.8589-.5913-1.4697c0-1.3081.77-2.0688,2.3105-2.2832l2.0986-.2939c0-1.1895-.481-1.7842-1.4424-1.7842-.8433,0-1.604.2871-2.2832.8613v-1.1484c.688-.4375,1.481-.6562,2.3789-.6562,1.645,0,2.4678.8706,2.4678,2.6113v4.5527ZM440.5266,178.3042l-1.6885.2324c-.5195.0728-.9116.2017-1.1758.3862s-.3965.5117-.3965.981c0,.3418.1221.6211.3657.8374s.5684.3247.9741.3247c.5562,0,1.0151-.1948,1.3774-.5845s.5435-.8828.5435-1.48v-.6973Z" fill="#2f2f2f"/>
        <path d="M449.1594,174.8452l-3.2197,8.1211c-.5742,1.4492-1.3809,2.1738-2.4199,2.1738-.2915,0-.5356-.0298-.7314-.0889v-1.0049c.2417.082.4624.123.6631.123.5649,0,.9888-.3374,1.2715-1.0117l.5605-1.3262-2.7344-6.9863h1.2441l1.8936,5.3867c.0229.0684.0708.2461.1436.5332h.041c.0229-.1094.0684-.2827.1367-.5195l1.9893-5.4004h1.1621Z" fill="#2f2f2f"/>
        <path d="M421.1149,188.8423l-3.6299,9.8027h-1.2646l-3.5547-9.8027h1.2783l2.7139,7.7725c.0864.2505.1528.54.1982.8682h.0273c.0366-.2734.1118-.5674.2256-.8818l2.7686-7.7588h1.2373Z" fill="#2f2f2f"/>
        <path d="M432.4416,198.645h-1.1416v-6.5762c0-.5195.0317-1.1553.0957-1.9072h-.0273c-.1094.4419-.2075.7588-.2939.9502l-3.3496,7.5332h-.5605l-3.3428-7.4785c-.0957-.2188-.1938-.5537-.2939-1.0049h-.0273c.0366.3921.0547,1.0322.0547,1.9209v6.5625h-1.1074v-9.8027h1.5176l3.0078,6.8359c.2324.5239.3828.916.4512,1.1758h.041c.1958-.5376.353-.939.4717-1.2031l3.0693-6.8086h1.4355v9.8027Z" fill="#2f2f2f"/>
      </g>
      <g>
        <rect x="453.9379" y="169.9438" width="61.6" height="32.1559" fill="none"/>
        <path d="M467.2614,181.1753c-.9844.5562-2.0781.834-3.2812.834-1.3989,0-2.5303-.4512-3.394-1.3535s-1.2954-2.0962-1.2954-3.582c0-1.5176.4795-2.7627,1.439-3.7358s2.1748-1.4595,3.647-1.4595c1.0664,0,1.9619.1733,2.6865.5195v1.2715c-.793-.5015-1.7319-.752-2.8164-.752-1.0981,0-1.9985.3784-2.7002,1.1348s-1.0527,1.7363-1.0527,2.9395c0,1.2397.3257,2.2139.9775,2.9224s1.5356,1.063,2.6523,1.063c.7656,0,1.4287-.1528,1.9893-.458v-2.748h-2.1465v-1.0391h3.2949v4.4434Z" fill="#2f2f2f"/>
        <path d="M474.3479,181.8452h-1.1211v-1.0938h-.0273c-.4873.8384-1.2051,1.2578-2.1533,1.2578-.6973,0-1.2432-.1846-1.6367-.5537-.3945-.3691-.5918-.8589-.5918-1.4697,0-1.3081.7705-2.0688,2.3105-2.2832l2.0986-.2939c0-1.1895-.4805-1.7842-1.4424-1.7842-.8428,0-1.6035.2871-2.2832.8613v-1.1484c.6885-.4375,1.4814-.6562,2.3789-.6562,1.6455,0,2.4678.8706,2.4678,2.6113v4.5527ZM473.2268,178.3042l-1.6885.2324c-.5195.0728-.9111.2017-1.1758.3862-.2637.1846-.3965.5117-.3965.981,0,.3418.1221.6211.3662.8374.2432.2163.5684.3247.9736.3247.5566,0,1.0156-.1948,1.3779-.5845s.543-.8828.543-1.48v-.6973Z" fill="#2f2f2f"/>
        <path d="M479.6066,181.7769c-.2646.146-.6133.2188-1.0459.2188-1.2266,0-1.8389-.6836-1.8389-2.0508v-4.1426h-1.2031v-.957h1.2031v-1.709l1.1211-.3623v2.0713h1.7637v.957h-1.7637v3.9443c0,.4692.0791.8042.2393,1.0049.1592.2007.4238.3008.793.3008.2822,0,.5264-.0776.7314-.2324v.957Z" fill="#2f2f2f"/>
        <path d="M486.5998,178.6255h-4.9424c.0176.7793.2275,1.3809.6289,1.8047.4004.4238.9521.6357,1.6543.6357.7881,0,1.5127-.2598,2.1738-.7793v1.0527c-.6152.4468-1.4287.6699-2.4404.6699-.9893,0-1.7666-.3179-2.3311-.9536-.5654-.6357-.8477-1.5303-.8477-2.6831,0-1.0894.3086-1.9766.9258-2.6626.6182-.686,1.3848-1.0288,2.3008-1.0288s1.624.2964,2.126.8887c.501.5923.752,1.415.752,2.4678v.5879ZM485.4514,177.6753c-.0049-.647-.1611-1.1509-.4688-1.5107s-.7344-.54-1.2812-.54c-.5293,0-.9775.189-1.3467.5674s-.5977.8726-.6836,1.4834h3.7803Z" fill="#2f2f2f"/>
        <path d="M497.0734,174.8452l-2.0986,7h-1.1621l-1.4424-5.0107c-.0547-.1914-.0908-.4077-.1094-.6494h-.0273c-.0137.1641-.0615.376-.1436.6357l-1.5654,5.0244h-1.1211l-2.1191-7h1.1758l1.4492,5.2637c.0459.1597.0781.3691.0957.6289h.0547c.0137-.2007.0547-.4146.123-.6426l1.6133-5.25h1.0254l1.4492,5.2773c.0459.1685.0801.3784.1025.6289h.0547c.0098-.1777.0479-.3872.1162-.6289l1.4219-5.2773h1.1074Z" fill="#2f2f2f"/>
        <path d="M503.2473,181.8452h-1.1211v-1.0938h-.0273c-.4873.8384-1.2051,1.2578-2.1533,1.2578-.6973,0-1.2432-.1846-1.6367-.5537-.3945-.3691-.5918-.8589-.5918-1.4697,0-1.3081.7705-2.0688,2.3105-2.2832l2.0986-.2939c0-1.1895-.4805-1.7842-1.4424-1.7842-.8428,0-1.6035.2871-2.2832.8613v-1.1484c.6885-.4375,1.4814-.6562,2.3789-.6562,1.6455,0,2.4678.8706,2.4678,2.6113v4.5527ZM502.1262,178.3042l-1.6885.2324c-.5195.0728-.9111.2017-1.1758.3862-.2637.1846-.3965.5117-.3965.981,0,.3418.1221.6211.3662.8374.2432.2163.5684.3247.9736.3247.5566,0,1.0156-.1948,1.3779-.5845s.543-.8828.543-1.48v-.6973Z" fill="#2f2f2f"/>
        <path d="M510.759,174.8452l-3.2197,8.1211c-.5742,1.4492-1.3809,2.1738-2.4199,2.1738-.291,0-.5352-.0298-.7314-.0889v-1.0049c.2422.082.4629.123.6631.123.5654,0,.9893-.3374,1.2715-1.0117l.5605-1.3262-2.7344-6.9863h1.2441l1.8936,5.3867c.0234.0684.0713.2461.1436.5332h.041c.0234-.1094.0684-.2827.1367-.5195l1.9893-5.4004h1.1621Z" fill="#2f2f2f"/>
        <path d="M482.715,188.8423l-3.6299,9.8027h-1.2646l-3.5547-9.8027h1.2783l2.7139,7.7725c.0859.2505.1523.54.1982.8682h.0273c.0361-.2734.1113-.5674.2256-.8818l2.7686-7.7588h1.2373Z" fill="#2f2f2f"/>
        <path d="M494.0412,198.645h-1.1416v-6.5762c0-.5195.0322-1.1553.0957-1.9072h-.0273c-.1094.4419-.207.7588-.2939.9502l-3.3496,7.5332h-.5605l-3.3428-7.4785c-.0957-.2188-.1934-.5537-.2939-1.0049h-.0273c.0371.3921.0547,1.0322.0547,1.9209v6.5625h-1.1074v-9.8027h1.5176l3.0078,6.8359c.2324.5239.3828.916.4512,1.1758h.041c.1963-.5376.3535-.939.4717-1.2031l3.0693-6.8086h1.4355v9.8027Z" fill="#2f2f2f"/>
      </g>
      <g>
        <rect x="440.7379" y="102.4217" width="123.2" height="16.0779" fill="none"/>
        <path d="M463.3073,110.6182v3.7051h-1.1484v-9.8027h2.6934c1.0483,0,1.8604.2554,2.437.7656s.8647,1.2305.8647,2.1602-.3203,1.6909-.9604,2.2832-1.5049.8887-2.5942.8887h-1.292ZM463.3073,105.5596v4.0195h1.2031c.793,0,1.3979-.1812,1.8149-.5435s.6255-.874.6255-1.5347c0-1.2944-.7656-1.9414-2.2969-1.9414h-1.3467Z" fill="#2f2f2f"/>
        <path d="M475.3713,114.3232h-1.1211v-1.1074h-.0273c-.4648.8477-1.1855,1.2715-2.1602,1.2715-1.668,0-2.502-.9937-2.502-2.9805v-4.1836h1.1143v4.0059c0,1.4766.5645,2.2148,1.6953,2.2148.5469,0,.9971-.2017,1.3496-.605.3535-.4033.5303-.9307.5303-1.5825v-4.0332h1.1211v7Z" fill="#2f2f2f"/>
        <path d="M478.6271,113.3115h-.0273v1.0117h-1.1211v-10.3633h1.1211v4.5938h.0273c.5508-.9297,1.3574-1.3945,2.4199-1.3945.8975,0,1.6006.3135,2.1084.9399.5088.6265.7627,1.4663.7627,2.519,0,1.1714-.2852,2.1089-.8545,2.813-.5703.7041-1.3496,1.0562-2.3379,1.0562-.9258,0-1.625-.3921-2.0986-1.1758ZM478.5998,110.4883v.9775c0,.5786.1875,1.0698.5635,1.4731s.8535.605,1.4326.605c.6787,0,1.2109-.2598,1.5957-.7793.3857-.5195.5781-1.2417.5781-2.167,0-.7793-.1807-1.3901-.54-1.832-.3604-.4419-.8477-.6631-1.4629-.6631-.6523,0-1.1758.2266-1.5723.6802s-.5947,1.022-.5947,1.7056Z" fill="#2f2f2f"/>
        <path d="M486.7687,114.3232h-1.1211v-10.3633h1.1211v10.3633Z" fill="#2f2f2f"/>
        <path d="M489.4553,105.5459c-.2002,0-.3711-.0684-.5127-.2051-.1406-.1367-.2119-.3101-.2119-.5195s.0713-.3838.2119-.5229c.1416-.1392.3125-.2085.5127-.2085.2051,0,.3799.0693.5234.2085s.2148.3135.2148.5229c0,.2007-.0713.3716-.2148.5127s-.3184.2119-.5234.2119ZM490.0021,114.3232h-1.1211v-7h1.1211v7Z" fill="#2f2f2f"/>
        <path d="M496.9143,114.002c-.5371.3237-1.1758.4854-1.9141.4854-.998,0-1.8037-.3247-2.416-.9741-.6133-.6494-.9199-1.4912-.9199-2.5259,0-1.1528.3311-2.0791.9912-2.7788.6611-.6997,1.543-1.0493,2.6455-1.0493.6152,0,1.1582.1138,1.627.3418v1.1484c-.5195-.3647-1.0752-.5469-1.668-.5469-.7148,0-1.3018.2563-1.7598.769s-.6875,1.186-.6875,2.02c0,.8203.2158,1.4673.6465,1.9414s1.0078.7109,1.7324.7109c.6113,0,1.1855-.2026,1.7227-.6084v1.0664Z" fill="#2f2f2f"/>
        <path d="M503.7434,114.3232h-1.1484v-9.8027h1.1484v9.8027Z" fill="#2f2f2f"/>
        <path d="M507.3137,110.6182v3.7051h-1.1484v-9.8027h2.6934c1.0488,0,1.8604.2554,2.4375.7656.5762.5103.8643,1.2305.8643,2.1602s-.3203,1.6909-.96,2.2832c-.6406.5923-1.5049.8887-2.5947.8887h-1.292ZM507.3137,105.5596v4.0195h1.2031c.793,0,1.3984-.1812,1.8154-.5435s.625-.874.625-1.5347c0-1.2944-.7656-1.9414-2.2969-1.9414h-1.3467Z" fill="#2f2f2f"/>
        <path d="M522.7014,114.3232h-1.1211v-1.0938h-.0273c-.4873.8384-1.2051,1.2578-2.1533,1.2578-.6973,0-1.2432-.1846-1.6367-.5537-.3945-.3691-.5918-.8589-.5918-1.4697,0-1.3081.7705-2.0688,2.3105-2.2832l2.0986-.2939c0-1.1895-.4805-1.7842-1.4424-1.7842-.8428,0-1.6035.2871-2.2832.8613v-1.1484c.6885-.4375,1.4814-.6562,2.3789-.6562,1.6455,0,2.4678.8706,2.4678,2.6113v4.5527ZM521.5803,110.7822l-1.6885.2324c-.5195.0728-.9111.2017-1.1758.3862-.2637.1846-.3965.5117-.3965.981,0,.3418.1221.6211.3662.8374.2432.2163.5684.3247.9736.3247.5566,0,1.0156-.1948,1.3779-.5845s.543-.8828.543-1.48v-.6973Z" fill="#2f2f2f"/>
        <path d="M530.7697,114.3232h-1.1211v-1.1895h-.0273c-.5195.9023-1.3213,1.3535-2.4062,1.3535-.8789,0-1.582-.3135-2.1084-.9399s-.79-1.48-.79-2.5601c0-1.1577.292-2.085.875-2.7822.584-.6973,1.3604-1.0459,2.3311-1.0459.9619,0,1.6611.3784,2.0986,1.1348h.0273v-4.334h1.1211v10.3633ZM529.6486,111.1582v-1.0322c0-.5649-.1865-1.0435-.5605-1.4355-.373-.3921-.8477-.5879-1.4219-.5879-.6836,0-1.2207.2505-1.6133.752-.3916.5015-.5879,1.1938-.5879,2.0781,0,.8066.1885,1.4434.5645,1.9106s.8809.7007,1.5137.7007c.625,0,1.1318-.2256,1.5215-.6768s.584-1.021.584-1.709Z" fill="#2f2f2f"/>
        <path d="M538.9396,114.3232h-1.1211v-1.1895h-.0273c-.5195.9023-1.3213,1.3535-2.4062,1.3535-.8789,0-1.582-.3135-2.1084-.9399s-.79-1.48-.79-2.5601c0-1.1577.292-2.085.875-2.7822.584-.6973,1.3604-1.0459,2.3311-1.0459.9619,0,1.6611.3784,2.0986,1.1348h.0273v-4.334h1.1211v10.3633ZM537.8186,111.1582v-1.0322c0-.5649-.1865-1.0435-.5605-1.4355-.373-.3921-.8477-.5879-1.4219-.5879-.6836,0-1.2207.2505-1.6133.752-.3916.5015-.5879,1.1938-.5879,2.0781,0,.8066.1885,1.4434.5645,1.9106s.8809.7007,1.5137.7007c.625,0,1.1318-.2256,1.5215-.6768s.584-1.021.584-1.709Z" fill="#2f2f2f"/>
        <path d="M544.6975,108.458c-.1953-.1504-.4785-.2256-.8477-.2256-.4785,0-.8779.2256-1.1992.6768s-.4824,1.0664-.4824,1.8457v3.5684h-1.1211v-7h1.1211v1.4424h.0273c.1602-.4922.4033-.876.7314-1.1519s.6953-.4136,1.1006-.4136c.292,0,.5156.0317.6699.0957v1.1621Z" fill="#2f2f2f"/>
        <path d="M551.5402,111.1035h-4.9424c.0186.7793.2285,1.3809.6289,1.8047.4014.4238.9531.6357,1.6543.6357.7891,0,1.5137-.2598,2.1738-.7793v1.0527c-.6152.4468-1.4287.6699-2.4404.6699-.9883,0-1.7656-.3179-2.3311-.9536-.5645-.6357-.8477-1.5303-.8477-2.6831,0-1.0894.3086-1.9766.9268-2.6626.6172-.686,1.3838-1.0288,2.2998-1.0288s1.625.2964,2.126.8887c.502.5923.752,1.415.752,2.4678v.5879ZM550.3918,110.1533c-.0039-.647-.1602-1.1509-.4678-1.5107s-.7354-.54-1.2822-.54c-.5283,0-.9775.189-1.3467.5674s-.5967.8726-.6836,1.4834h3.7803Z" fill="#2f2f2f"/>
        <path d="M552.7824,114.0703v-1.2031c.6113.4512,1.2832.6768,2.0166.6768.9844,0,1.4766-.3281,1.4766-.9844,0-.187-.042-.3452-.126-.4751-.085-.1299-.1982-.2451-.3418-.3452s-.3125-.1904-.5059-.27c-.1943-.0796-.4023-.1631-.626-.2495-.3096-.123-.582-.2471-.8164-.3726-.2354-.1255-.4307-.2666-.5879-.4238s-.2764-.3359-.3555-.5366c-.0801-.2007-.1201-.4351-.1201-.7041,0-.3281.0752-.6187.2256-.8716s.3516-.4648.6016-.6357c.251-.1709.5371-.2998.8584-.3862s.6523-.1299.9941-.1299c.6064,0,1.1484.105,1.627.3145v1.1348c-.5146-.3374-1.1074-.5059-1.7773-.5059-.209,0-.3984.0239-.5674.0718-.168.0479-.3135.1152-.4336.2017-.1211.0864-.2148.1904-.2803.311-.0664.1206-.0996.2539-.0996.3999,0,.1821.0332.335.0996.458.0654.123.1631.2324.29.3281.1279.0957.2832.1821.4648.2598.1826.0776.3896.1616.6221.2529.3105.1187.5879.2402.834.3657s.4561.2666.6289.4238c.1738.1572.3066.3384.4004.5435.0928.2051.1396.4487.1396.7314,0,.3462-.0762.647-.2285.9023-.1533.2554-.3564.4673-.6123.6357-.2549.1685-.5488.2939-.8818.376-.332.082-.6807.123-1.0459.123-.7197,0-1.3438-.1392-1.873-.417Z" fill="#2f2f2f"/>
        <path d="M558.7092,114.0703v-1.2031c.6104.4512,1.2822.6768,2.0166.6768.9844,0,1.4766-.3281,1.4766-.9844,0-.187-.042-.3452-.127-.4751-.084-.1299-.1982-.2451-.3418-.3452s-.3115-.1904-.5059-.27c-.1934-.0796-.4023-.1631-.625-.2495-.3105-.123-.582-.2471-.8174-.3726-.2344-.1255-.4307-.2666-.5879-.4238s-.2754-.3359-.3555-.5366c-.0791-.2007-.1191-.4351-.1191-.7041,0-.3281.0752-.6187.2256-.8716s.3506-.4648.6016-.6357c.25-.1709.5361-.2998.8574-.3862s.6533-.1299.9951-.1299c.6055,0,1.1484.105,1.627.3145v1.1348c-.5156-.3374-1.1074-.5059-1.7773-.5059-.21,0-.3994.0239-.5674.0718-.1689.0479-.3135.1152-.4346.2017-.1201.0864-.2139.1904-.2803.311-.0654.1206-.0986.2539-.0986.3999,0,.1821.0332.335.0986.458.0664.123.1631.2324.291.3281.127.0957.2822.1821.4648.2598.1816.0776.3896.1616.6221.2529.3096.1187.5879.2402.834.3657s.4551.2666.6289.4238c.1729.1572.3066.3384.3994.5435.0938.2051.1406.4487.1406.7314,0,.3462-.0762.647-.2295.9023-.1523.2554-.3564.4673-.6113.6357-.2559.1685-.5498.2939-.8818.376-.333.082-.6816.123-1.0459.123-.7207,0-1.3447-.1392-1.873-.417Z" fill="#2f2f2f"/>
      </g>
      <g>
        <rect x="361.5379" y="55.5438" width="123.2" height="32.1559" fill="none"/>
        <path d="M370.1105,57.6426l-3.6299,9.8027h-1.2646l-3.5547-9.8027h1.2783l2.7139,7.7725c.0864.2505.1528.54.1982.8682h.0273c.0366-.2734.1118-.5674.2256-.8818l2.7686-7.7588h1.2373Z" fill="#2f2f2f"/>
        <path d="M372.0222,58.668c-.2007,0-.3716-.0684-.5127-.2051s-.2119-.3101-.2119-.5195.0708-.3838.2119-.5229.312-.2085.5127-.2085c.2051,0,.3794.0693.5229.2085s.2153.3135.2153.5229c0,.2007-.0718.3716-.2153.5127s-.3179.2119-.5229.2119ZM372.569,67.4453h-1.1211v-7h1.1211v7Z" fill="#2f2f2f"/>
        <path d="M378.3381,61.5801c-.1958-.1504-.4785-.2256-.8477-.2256-.4785,0-.8784.2256-1.1997.6768s-.4819,1.0664-.4819,1.8457v3.5684h-1.1211v-7h1.1211v1.4424h.0273c.1597-.4922.4033-.876.7314-1.1519s.6948-.4136,1.1006-.4136c.2915,0,.5151.0317.6699.0957v1.1621Z" fill="#2f2f2f"/>
        <path d="M383.257,67.377c-.2642.146-.6128.2188-1.0459.2188-1.2261,0-1.8389-.6836-1.8389-2.0508v-4.1426h-1.2031v-.957h1.2031v-1.709l1.1211-.3623v2.0713h1.7637v.957h-1.7637v3.9443c0,.4692.0796.8042.2393,1.0049s.4238.3008.793.3008c.2827,0,.5264-.0776.7314-.2324v.957Z" fill="#2f2f2f"/>
        <path d="M390.3747,67.4453h-1.1211v-1.1074h-.0273c-.4648.8477-1.1851,1.2715-2.1602,1.2715-1.668,0-2.502-.9937-2.502-2.9805v-4.1836h1.1143v4.0059c0,1.4766.5649,2.2148,1.6953,2.2148.5469,0,.9971-.2017,1.3501-.605s.5298-.9307.5298-1.5825v-4.0332h1.1211v7Z" fill="#2f2f2f"/>
        <path d="M397.5305,67.4453h-1.1211v-1.0938h-.0273c-.4878.8384-1.2056,1.2578-2.1533,1.2578-.6973,0-1.2432-.1846-1.6372-.5537s-.5913-.8589-.5913-1.4697c0-1.3081.77-2.0688,2.3105-2.2832l2.0986-.2939c0-1.1895-.481-1.7842-1.4424-1.7842-.8433,0-1.604.2871-2.2832.8613v-1.1484c.688-.4375,1.481-.6562,2.3789-.6562,1.645,0,2.4678.8706,2.4678,2.6113v4.5527ZM396.4094,63.9043l-1.6885.2324c-.5195.0728-.9116.2017-1.1758.3862s-.3965.5117-.3965.981c0,.3418.1221.6211.3657.8374s.5684.3247.9741.3247c.5562,0,1.0151-.1948,1.3774-.5845s.5435-.8828.5435-1.48v-.6973Z" fill="#2f2f2f"/>
        <path d="M400.6716,67.4453h-1.1211v-10.3633h1.1211v10.3633Z" fill="#2f2f2f"/>
        <path d="M414.8288,67.4453h-1.4082l-5.0449-7.8135c-.1274-.1958-.2324-.4009-.3145-.6152h-.041c.0366.2095.0547.6587.0547,1.3467v7.082h-1.1484v-9.8027h1.4902l4.9082,7.6904c.2051.3188.3374.5376.3965.6562h.0273c-.0454-.2827-.0684-.7632-.0684-1.4424v-6.9043h1.1484v9.8027Z" fill="#2f2f2f"/>
        <path d="M422.8078,64.2256h-4.9424c.0181.7793.228,1.3809.6289,1.8047s.9526.6357,1.6543.6357c.7886,0,1.5132-.2598,2.1738-.7793v1.0527c-.6152.4468-1.4287.6699-2.4404.6699-.9888,0-1.7661-.3179-2.3311-.9536s-.8477-1.5303-.8477-2.6831c0-1.0894.3086-1.9766.9263-2.6626s1.3843-1.0288,2.3003-1.0288,1.6245.2964,2.126.8887.752,1.415.752,2.4678v.5879ZM421.6594,63.2754c-.0044-.647-.1606-1.1509-.4683-1.5107s-.7349-.54-1.2817-.54c-.5288,0-.9775.189-1.3467.5674s-.5972.8726-.6836,1.4834h3.7803Z" fill="#2f2f2f"/>
        <path d="M427.7316,67.377c-.2642.146-.6128.2188-1.0459.2188-1.2261,0-1.8389-.6836-1.8389-2.0508v-4.1426h-1.2031v-.957h1.2031v-1.709l1.1211-.3623v2.0713h1.7637v.957h-1.7637v3.9443c0,.4692.0796.8042.2393,1.0049s.4238.3008.793.3008c.2827,0,.5264-.0776.7314-.2324v.957Z" fill="#2f2f2f"/>
        <path d="M438.4226,60.4453l-2.0986,7h-1.1621l-1.4424-5.0107c-.0547-.1914-.0913-.4077-.1094-.6494h-.0273c-.0137.1641-.0615.376-.1436.6357l-1.5654,5.0244h-1.1211l-2.1191-7h1.1758l1.4492,5.2637c.0454.1597.0776.3691.0957.6289h.0547c.0137-.2007.0547-.4146.123-.6426l1.6133-5.25h1.0254l1.4492,5.2773c.0454.1685.0796.3784.1025.6289h.0547c.0093-.1777.0479-.3872.1162-.6289l1.4219-5.2773h1.1074Z" fill="#2f2f2f"/>
        <path d="M442.4973,67.6094c-1.0347,0-1.8604-.3271-2.478-.981s-.9263-1.521-.9263-2.6011c0-1.1758.3213-2.0942.9639-2.7549s1.5107-.9912,2.6045-.9912c1.0435,0,1.8584.3213,2.4438.9639s.8784,1.5337.8784,2.6729c0,1.1167-.3154,2.0107-.9468,2.6831s-1.4775,1.0083-2.5396,1.0083ZM442.5793,61.2246c-.7202,0-1.2896.2451-1.709.7349s-.6289,1.1655-.6289,2.0269c0,.8296.2119,1.4834.6357,1.9619s.9912.7178,1.7021.7178c.7246,0,1.2817-.2349,1.6714-.7041s.5845-1.1372.5845-2.0029c0-.875-.1948-1.5493-.5845-2.0234s-.9468-.7109-1.6714-.7109Z" fill="#2f2f2f"/>
        <path d="M451.3493,61.5801c-.1958-.1504-.4785-.2256-.8477-.2256-.4785,0-.8784.2256-1.1997.6768s-.4819,1.0664-.4819,1.8457v3.5684h-1.1211v-7h1.1211v1.4424h.0273c.1597-.4922.4033-.876.7314-1.1519s.6948-.4136,1.1006-.4136c.2915,0,.5151.0317.6699.0957v1.1621Z" fill="#2f2f2f"/>
        <path d="M458.4035,67.4453h-1.5723l-3.0898-3.3633h-.0273v3.3633h-1.1211v-10.3633h1.1211v6.5693h.0273l2.9395-3.2061h1.4697l-3.2471,3.377,3.5,3.623Z" fill="#2f2f2f"/>
        <path d="M370.1516,83.5752c-.9844.5562-2.0781.834-3.2812.834-1.3989,0-2.5303-.4512-3.394-1.3535s-1.2954-2.0962-1.2954-3.582c0-1.5176.4795-2.7627,1.439-3.7358s2.1748-1.4595,3.647-1.4595c1.0664,0,1.9619.1733,2.6865.5195v1.2715c-.793-.5015-1.7319-.752-2.8164-.752-1.0981,0-1.9985.3784-2.7002,1.1348s-1.0527,1.7363-1.0527,2.9395c0,1.2397.3257,2.2139.9775,2.9224s1.5356,1.063,2.6523,1.063c.7656,0,1.4287-.1528,1.9893-.458v-2.748h-2.1465v-1.0391h3.2949v4.4434Z" fill="#2f2f2f"/>
        <path d="M377.238,84.2451h-1.1211v-1.0938h-.0273c-.4878.8384-1.2056,1.2578-2.1533,1.2578-.6973,0-1.2432-.1846-1.6372-.5537s-.5913-.8589-.5913-1.4697c0-1.3081.77-2.0688,2.3105-2.2832l2.0986-.2939c0-1.1895-.481-1.7842-1.4424-1.7842-.8433,0-1.604.2871-2.2832.8613v-1.1484c.688-.4375,1.481-.6562,2.3789-.6562,1.645,0,2.4678.8706,2.4678,2.6113v4.5527ZM376.1169,80.7041l-1.6885.2324c-.5195.0728-.9116.2017-1.1758.3862s-.3965.5117-.3965.981c0,.3418.1221.6211.3657.8374s.5684.3247.9741.3247c.5562,0,1.0151-.1948,1.3774-.5845s.5435-.8828.5435-1.48v-.6973Z" fill="#2f2f2f"/>
        <path d="M382.4963,84.1768c-.2642.146-.6128.2188-1.0459.2188-1.2261,0-1.8389-.6836-1.8389-2.0508v-4.1426h-1.2031v-.957h1.2031v-1.709l1.1211-.3623v2.0713h1.7637v.957h-1.7637v3.9443c0,.4692.0796.8042.2393,1.0049s.4238.3008.793.3008c.2827,0,.5264-.0776.7314-.2324v.957Z" fill="#2f2f2f"/>
        <path d="M389.4895,81.0254h-4.9424c.0181.7793.228,1.3809.6289,1.8047s.9526.6357,1.6543.6357c.7886,0,1.5132-.2598,2.1738-.7793v1.0527c-.6152.4468-1.4287.6699-2.4404.6699-.9888,0-1.7661-.3179-2.3311-.9536s-.8477-1.5303-.8477-2.6831c0-1.0894.3086-1.9766.9263-2.6626s1.3843-1.0288,2.3003-1.0288,1.6245.2964,2.126.8887.752,1.415.752,2.4678v.5879ZM388.341,80.0752c-.0044-.647-.1606-1.1509-.4683-1.5107s-.7349-.54-1.2817-.54c-.5288,0-.9775.189-1.3467.5674s-.5972.8726-.6836,1.4834h3.7803Z" fill="#2f2f2f"/>
        <path d="M399.9636,77.2451l-2.0986,7h-1.1621l-1.4424-5.0107c-.0547-.1914-.0913-.4077-.1094-.6494h-.0273c-.0137.1641-.0615.376-.1436.6357l-1.5654,5.0244h-1.1211l-2.1191-7h1.1758l1.4492,5.2637c.0454.1597.0776.3691.0957.6289h.0547c.0137-.2007.0547-.4146.123-.6426l1.6133-5.25h1.0254l1.4492,5.2773c.0454.1685.0796.3784.1025.6289h.0547c.0093-.1777.0479-.3872.1162-.6289l1.4219-5.2773h1.1074Z" fill="#2f2f2f"/>
        <path d="M406.1374,84.2451h-1.1211v-1.0938h-.0273c-.4878.8384-1.2056,1.2578-2.1533,1.2578-.6973,0-1.2432-.1846-1.6372-.5537s-.5913-.8589-.5913-1.4697c0-1.3081.77-2.0688,2.3105-2.2832l2.0986-.2939c0-1.1895-.481-1.7842-1.4424-1.7842-.8433,0-1.604.2871-2.2832.8613v-1.1484c.688-.4375,1.481-.6562,2.3789-.6562,1.645,0,2.4678.8706,2.4678,2.6113v4.5527ZM405.0163,80.7041l-1.6885.2324c-.5195.0728-.9116.2017-1.1758.3862s-.3965.5117-.3965.981c0,.3418.1221.6211.3657.8374s.5684.3247.9741.3247c.5562,0,1.0151-.1948,1.3774-.5845s.5435-.8828.5435-1.48v-.6973Z" fill="#2f2f2f"/>
        <path d="M413.6491,77.2451l-3.2197,8.1211c-.5742,1.4492-1.3809,2.1738-2.4199,2.1738-.2915,0-.5356-.0298-.7314-.0889v-1.0049c.2417.082.4624.123.6631.123.5649,0,.9888-.3374,1.2715-1.0117l.5605-1.3262-2.7344-6.9863h1.2441l1.8936,5.3867c.0229.0684.0708.2461.1436.5332h.041c.0229-.1094.0684-.2827.1367-.5195l1.9893-5.4004h1.1621Z" fill="#2f2f2f"/>
      </g>
      <g>
        <rect x="392.3379" y="281.4477" width="162.8" height="18.9559" fill="none"/>
        <path d="M398.7092,293.3491h-5.0859v-9.8027h1.1484v8.7637h3.9375v1.0391Z" fill="#2f2f2f"/>
        <path d="M402.8947,293.5132c-1.0352,0-1.8604-.3271-2.4785-.981-.6172-.6538-.9258-1.521-.9258-2.6011,0-1.1758.3213-2.0942.9639-2.7549s1.5107-.9912,2.6045-.9912c1.043,0,1.8584.3213,2.4434.9639.5859.6426.8789,1.5337.8789,2.6729,0,1.1167-.3154,2.0107-.9473,2.6831-.6309.6724-1.4775,1.0083-2.5391,1.0083ZM402.9768,287.1284c-.7207,0-1.29.2451-1.709.7349-.4199.4897-.6289,1.1655-.6289,2.0269,0,.8296.2119,1.4834.6357,1.9619s.9912.7178,1.7021.7178c.7246,0,1.2812-.2349,1.6709-.7041s.585-1.1372.585-2.0029c0-.875-.1953-1.5493-.585-2.0234s-.9463-.7109-1.6709-.7109Z" fill="#2f2f2f"/>
        <path d="M412.9318,293.0278c-.5371.3237-1.1758.4854-1.9141.4854-.998,0-1.8037-.3247-2.416-.9741-.6133-.6494-.9199-1.4912-.9199-2.5259,0-1.1528.3311-2.0791.9912-2.7788.6611-.6997,1.543-1.0493,2.6455-1.0493.6152,0,1.1582.1138,1.627.3418v1.1484c-.5195-.3647-1.0752-.5469-1.668-.5469-.7148,0-1.3018.2563-1.7598.769s-.6875,1.186-.6875,2.02c0,.8203.2158,1.4673.6465,1.9414s1.0078.7109,1.7324.7109c.6113,0,1.1855-.2026,1.7227-.6084v1.0664Z" fill="#2f2f2f"/>
        <path d="M419.676,293.3491h-1.1211v-1.0938h-.0273c-.4883.8384-1.2061,1.2578-2.1533,1.2578-.6973,0-1.2432-.1846-1.6377-.5537-.3936-.3691-.5908-.8589-.5908-1.4697,0-1.3081.7695-2.0688,2.3105-2.2832l2.0986-.2939c0-1.1895-.4814-1.7842-1.4424-1.7842-.8438,0-1.6045.2871-2.2832.8613v-1.1484c.6875-.4375,1.4805-.6562,2.3789-.6562,1.6445,0,2.4678.8706,2.4678,2.6113v4.5527ZM418.5549,289.8081l-1.6885.2324c-.5195.0728-.9121.2017-1.1758.3862-.2646.1846-.3965.5117-.3965.981,0,.3418.1221.6211.3652.8374.2441.2163.5684.3247.9746.3247.5557,0,1.0146-.1948,1.377-.5845s.5439-.8828.5439-1.48v-.6973Z" fill="#2f2f2f"/>
        <path d="M422.8166,293.3491h-1.1211v-10.3633h1.1211v10.3633Z" fill="#2f2f2f"/>
        <path d="M436.9738,293.3491h-1.4082l-5.0449-7.8135c-.127-.1958-.2324-.4009-.3145-.6152h-.041c.0371.2095.0547.6587.0547,1.3467v7.082h-1.1484v-9.8027h1.4902l4.9082,7.6904c.2051.3188.3379.5376.3965.6562h.0273c-.0449-.2827-.0684-.7632-.0684-1.4424v-6.9043h1.1484v9.8027Z" fill="#2f2f2f"/>
        <path d="M444.9533,290.1294h-4.9424c.0176.7793.2275,1.3809.6289,1.8047.4004.4238.9521.6357,1.6543.6357.7881,0,1.5127-.2598,2.1738-.7793v1.0527c-.6152.4468-1.4287.6699-2.4404.6699-.9893,0-1.7666-.3179-2.3311-.9536-.5654-.6357-.8477-1.5303-.8477-2.6831,0-1.0894.3086-1.9766.9258-2.6626.6182-.686,1.3848-1.0288,2.3008-1.0288s1.624.2964,2.126.8887c.501.5923.752,1.415.752,2.4678v.5879ZM443.8049,289.1792c-.0049-.647-.1611-1.1509-.4688-1.5107s-.7344-.54-1.2812-.54c-.5293,0-.9775.189-1.3467.5674s-.5977.8726-.6836,1.4834h3.7803Z" fill="#2f2f2f"/>
        <path d="M449.8771,293.2808c-.2646.146-.6133.2188-1.0459.2188-1.2266,0-1.8389-.6836-1.8389-2.0508v-4.1426h-1.2031v-.957h1.2031v-1.709l1.1211-.3623v2.0713h1.7637v.957h-1.7637v3.9443c0,.4692.0791.8042.2393,1.0049.1592.2007.4238.3008.793.3008.2822,0,.5264-.0776.7314-.2324v.957Z" fill="#2f2f2f"/>
        <path d="M460.5676,286.3491l-2.0986,7h-1.1621l-1.4424-5.0107c-.0547-.1914-.0908-.4077-.1094-.6494h-.0273c-.0137.1641-.0615.376-.1436.6357l-1.5654,5.0244h-1.1211l-2.1191-7h1.1758l1.4492,5.2637c.0459.1597.0781.3691.0957.6289h.0547c.0137-.2007.0547-.4146.123-.6426l1.6133-5.25h1.0254l1.4492,5.2773c.0459.1685.0801.3784.1025.6289h.0547c.0098-.1777.0479-.3872.1162-.6289l1.4219-5.2773h1.1074Z" fill="#2f2f2f"/>
        <path d="M464.6428,293.5132c-1.0352,0-1.8604-.3271-2.4785-.981-.6172-.6538-.9258-1.521-.9258-2.6011,0-1.1758.3213-2.0942.9639-2.7549s1.5107-.9912,2.6045-.9912c1.043,0,1.8584.3213,2.4434.9639.5859.6426.8789,1.5337.8789,2.6729,0,1.1167-.3154,2.0107-.9473,2.6831-.6309.6724-1.4775,1.0083-2.5391,1.0083ZM464.7248,287.1284c-.7207,0-1.29.2451-1.709.7349-.4199.4897-.6289,1.1655-.6289,2.0269,0,.8296.2119,1.4834.6357,1.9619s.9912.7178,1.7021.7178c.7246,0,1.2812-.2349,1.6709-.7041s.585-1.1372.585-2.0029c0-.875-.1953-1.5493-.585-2.0234s-.9463-.7109-1.6709-.7109Z" fill="#2f2f2f"/>
        <path d="M473.4943,287.4839c-.1953-.1504-.4785-.2256-.8477-.2256-.4785,0-.8779.2256-1.1992.6768s-.4824,1.0664-.4824,1.8457v3.5684h-1.1211v-7h1.1211v1.4424h.0273c.1602-.4922.4033-.876.7314-1.1519s.6953-.4136,1.1006-.4136c.292,0,.5156.0317.6699.0957v1.1621Z" fill="#2f2f2f"/>
        <path d="M480.549,293.3491h-1.5723l-3.0898-3.3633h-.0273v3.3633h-1.1211v-10.3633h1.1211v6.5693h.0273l2.9395-3.2061h1.4697l-3.2471,3.377,3.5,3.623Z" fill="#2f2f2f"/>
        <path d="M493.0109,292.6792c-.9844.5562-2.0781.834-3.2812.834-1.3994,0-2.5303-.4512-3.3945-1.3535-.8633-.9023-1.2949-2.0962-1.2949-3.582,0-1.5176.4795-2.7627,1.4385-3.7358.96-.9731,2.1748-1.4595,3.6475-1.4595,1.0664,0,1.9619.1733,2.6865.5195v1.2715c-.793-.5015-1.7324-.752-2.8164-.752-1.0986,0-1.999.3784-2.7002,1.1348-.7021.7563-1.0527,1.7363-1.0527,2.9395,0,1.2397.3252,2.2139.9775,2.9224.6514.7085,1.5352,1.063,2.6523,1.063.7656,0,1.4287-.1528,1.9893-.458v-2.748h-2.1465v-1.0391h3.2949v4.4434Z" fill="#2f2f2f"/>
        <path d="M500.0969,293.3491h-1.1211v-1.0938h-.0273c-.4883.8384-1.2061,1.2578-2.1533,1.2578-.6973,0-1.2432-.1846-1.6377-.5537-.3936-.3691-.5908-.8589-.5908-1.4697,0-1.3081.7695-2.0688,2.3105-2.2832l2.0986-.2939c0-1.1895-.4814-1.7842-1.4424-1.7842-.8438,0-1.6045.2871-2.2832.8613v-1.1484c.6875-.4375,1.4805-.6562,2.3789-.6562,1.6445,0,2.4678.8706,2.4678,2.6113v4.5527ZM498.9758,289.8081l-1.6885.2324c-.5195.0728-.9121.2017-1.1758.3862-.2646.1846-.3965.5117-.3965.981,0,.3418.1221.6211.3652.8374.2441.2163.5684.3247.9746.3247.5557,0,1.0146-.1948,1.377-.5845s.5439-.8828.5439-1.48v-.6973Z" fill="#2f2f2f"/>
        <path d="M505.3557,293.2808c-.2646.146-.6133.2188-1.0459.2188-1.2266,0-1.8389-.6836-1.8389-2.0508v-4.1426h-1.2031v-.957h1.2031v-1.709l1.1211-.3623v2.0713h1.7637v.957h-1.7637v3.9443c0,.4692.0791.8042.2393,1.0049.1592.2007.4238.3008.793.3008.2822,0,.5264-.0776.7314-.2324v.957Z" fill="#2f2f2f"/>
        <path d="M512.3479,290.1294h-4.9424c.0186.7793.2285,1.3809.6289,1.8047.4014.4238.9531.6357,1.6543.6357.7891,0,1.5137-.2598,2.1738-.7793v1.0527c-.6152.4468-1.4287.6699-2.4404.6699-.9883,0-1.7656-.3179-2.3311-.9536-.5645-.6357-.8477-1.5303-.8477-2.6831,0-1.0894.3086-1.9766.9268-2.6626.6172-.686,1.3838-1.0288,2.2998-1.0288s1.625.2964,2.126.8887c.502.5923.752,1.415.752,2.4678v.5879ZM511.1994,289.1792c-.0039-.647-.1602-1.1509-.4678-1.5107s-.7354-.54-1.2822-.54c-.5283,0-.9775.189-1.3467.5674s-.5967.8726-.6836,1.4834h3.7803Z" fill="#2f2f2f"/>
        <path d="M522.8225,286.3491l-2.0986,7h-1.1621l-1.4424-5.0107c-.0547-.1914-.0908-.4077-.1094-.6494h-.0273c-.0137.1641-.0615.376-.1436.6357l-1.5654,5.0244h-1.1211l-2.1191-7h1.1758l1.4492,5.2637c.0459.1597.0781.3691.0957.6289h.0547c.0137-.2007.0547-.4146.123-.6426l1.6133-5.25h1.0254l1.4492,5.2773c.0459.1685.0801.3784.1025.6289h.0547c.0098-.1777.0479-.3872.1162-.6289l1.4219-5.2773h1.1074Z" fill="#2f2f2f"/>
        <path d="M528.9963,293.3491h-1.1211v-1.0938h-.0273c-.4873.8384-1.2051,1.2578-2.1533,1.2578-.6973,0-1.2432-.1846-1.6367-.5537-.3945-.3691-.5918-.8589-.5918-1.4697,0-1.3081.7705-2.0688,2.3105-2.2832l2.0986-.2939c0-1.1895-.4805-1.7842-1.4424-1.7842-.8428,0-1.6035.2871-2.2832.8613v-1.1484c.6885-.4375,1.4814-.6562,2.3789-.6562,1.6455,0,2.4678.8706,2.4678,2.6113v4.5527ZM527.8752,289.8081l-1.6885.2324c-.5195.0728-.9111.2017-1.1758.3862-.2637.1846-.3965.5117-.3965.981,0,.3418.1221.6211.3662.8374.2432.2163.5684.3247.9736.3247.5566,0,1.0156-.1948,1.3779-.5845s.543-.8828.543-1.48v-.6973Z" fill="#2f2f2f"/>
        <path d="M536.508,286.3491l-3.2197,8.1211c-.5742,1.4492-1.3809,2.1738-2.4199,2.1738-.292,0-.5361-.0298-.7314-.0889v-1.0049c.2412.082.4619.123.6631.123.5645,0,.9883-.3374,1.2715-1.0117l.5605-1.3262-2.7344-6.9863h1.2441l1.8936,5.3867c.0225.0684.0703.2461.1436.5332h.041c.0225-.1094.0684-.2827.1367-.5195l1.9893-5.4004h1.1621Z" fill="#2f2f2f"/>
      </g>
      <g>
        <path d="M34.8669,71.123v3.377h-2.208v-9.8027h3.459c2.4702,0,3.7051,1.0415,3.7051,3.124,0,.9844-.3545,1.7808-1.063,2.3892s-1.6553.9126-2.8403.9126h-1.0527ZM34.8669,66.3926v3.0557h.8682c1.1758,0,1.7637-.5151,1.7637-1.5449,0-1.0073-.5879-1.5107-1.7637-1.5107h-.8682Z" fill="#2f2f2f"/>
        <path d="M43.9655,74.6709c-1.1665,0-2.084-.3271-2.7515-.981s-1.0015-1.5415-1.0015-2.6626c0-1.1577.3462-2.0635,1.0391-2.7173s1.6294-.981,2.8096-.981c1.1621,0,2.0737.3271,2.7344.981s.9912,1.5186.9912,2.5942c0,1.1621-.3408,2.0806-1.022,2.7549s-1.6143,1.0117-2.7993,1.0117ZM44.0202,68.9834c-.5103,0-.9067.1753-1.1895.5264s-.4238.8477-.4238,1.4902c0,1.3442.5425,2.0166,1.627,2.0166,1.0347,0,1.5518-.6904,1.5518-2.0713,0-1.3081-.522-1.9619-1.5654-1.9619Z" fill="#2f2f2f"/>
        <path d="M50.2819,66.3926c-.3647,0-.6631-.1084-.8955-.3247s-.3486-.4819-.3486-.7964c0-.3237.1162-.5879.3486-.793s.5308-.3076.8955-.3076c.3691,0,.6689.1025.8989.3076s.3452.4692.3452.793c0,.3281-.1152.5972-.3452.8066s-.5298.3145-.8989.3145ZM51.3483,74.5h-2.1602v-7h2.1602v7Z" fill="#2f2f2f"/>
        <path d="M59.9274,74.5h-2.1533v-3.8896c0-1.0845-.3872-1.627-1.1621-1.627-.3735,0-.6812.1436-.9229.4307s-.3623.6519-.3623,1.0938v3.9922h-2.1602v-7h2.1602v1.1074h.0273c.5151-.8521,1.2646-1.2783,2.249-1.2783,1.5493,0,2.3242.9614,2.3242,2.8848v4.2861Z" fill="#2f2f2f"/>
        <path d="M65.8679,74.418c-.3188.1685-.7998.2529-1.4424.2529-1.522,0-2.2832-.7905-2.2832-2.3721v-3.2061h-1.1348v-1.5928h1.1348v-1.5107l2.1533-.6152v2.126h1.5723v1.5928h-1.5723v2.8301c0,.729.2896,1.0938.8682,1.0938.228,0,.4624-.0659.7041-.1982v1.5996Z" fill="#2f2f2f"/>
        <path d="M70.2634,71.5195h-3.7393v-1.5107h3.7393v1.5107Z" fill="#2f2f2f"/>
        <path d="M76.3474,74.418c-.3188.1685-.7998.2529-1.4424.2529-1.522,0-2.2832-.7905-2.2832-2.3721v-3.2061h-1.1348v-1.5928h1.1348v-1.5107l2.1533-.6152v2.126h1.5723v1.5928h-1.5723v2.8301c0,.729.2896,1.0938.8682,1.0938.228,0,.4624-.0659.7041-.1982v1.5996Z" fill="#2f2f2f"/>
        <path d="M80.8454,74.6709c-1.1665,0-2.084-.3271-2.7515-.981s-1.0015-1.5415-1.0015-2.6626c0-1.1577.3462-2.0635,1.0391-2.7173s1.6294-.981,2.8096-.981c1.1621,0,2.0737.3271,2.7344.981s.9912,1.5186.9912,2.5942c0,1.1621-.3408,2.0806-1.022,2.7549s-1.6143,1.0117-2.7993,1.0117ZM80.9001,68.9834c-.5103,0-.9067.1753-1.1895.5264s-.4238.8477-.4238,1.4902c0,1.3442.5425,2.0166,1.627,2.0166,1.0347,0,1.5518-.6904,1.5518-2.0713,0-1.3081-.522-1.9619-1.5654-1.9619Z" fill="#2f2f2f"/>
        <path d="M89.8757,71.5195h-3.7393v-1.5107h3.7393v1.5107Z" fill="#2f2f2f"/>
        <path d="M91.2702,74.3154v-1.75c.3555.2144.71.3735,1.063.4785s.687.1572,1.0015.1572c.3828,0,.6846-.0522.9058-.1572s.3315-.2642.3315-.4785c0-.1367-.0503-.2505-.1504-.3418s-.229-.1709-.3862-.2393-.3291-.1299-.5161-.1846-.3667-.1162-.54-.1846c-.2778-.105-.5229-.2178-.7349-.3384s-.3896-.2607-.5332-.4204-.2529-.3442-.3281-.5537-.1128-.458-.1128-.7451c0-.3921.0854-.729.2563-1.0117s.3989-.5137.6836-.6938.6108-.312.9775-.3965.7485-.1265,1.145-.1265c.3101,0,.6245.0239.9434.0718s.6333.1172.9434.2085v1.668c-.2734-.1597-.5664-.2793-.8784-.3589s-.6187-.1196-.9194-.1196c-.1411,0-.2744.0127-.3999.0376s-.2358.0615-.3315.1094-.1709.1094-.2256.1846-.082.1606-.082.2563c0,.1274.041.2368.123.3281s.189.1699.3213.2358.2793.1255.4409.1777.3223.106.4819.1606c.2871.1001.5469.2095.7793.3281s.4316.2573.5981.417.2939.3462.3828.5605.1333.4692.1333.7656c0,.4146-.0898.769-.27,1.063s-.4194.5332-.7178.7178-.6426.3188-1.0322.4033-.7939.1265-1.2134.1265c-.77,0-1.4834-.1187-2.1396-.3555Z" fill="#2f2f2f"/>
        <path d="M98.9812,66.3926c-.3647,0-.6631-.1084-.8955-.3247s-.3486-.4819-.3486-.7964c0-.3237.1162-.5879.3486-.793s.5308-.3076.8955-.3076c.3691,0,.6689.1025.8989.3076s.3452.4692.3452.793c0,.3281-.1152.5972-.3452.8066s-.5298.3145-.8989.3145ZM100.0476,74.5h-2.1602v-7h2.1602v7Z" fill="#2f2f2f"/>
        <path d="M106.0974,74.418c-.3188.1685-.7998.2529-1.4424.2529-1.522,0-2.2832-.7905-2.2832-2.3721v-3.2061h-1.1348v-1.5928h1.1348v-1.5107l2.1533-.6152v2.126h1.5723v1.5928h-1.5723v2.8301c0,.729.2896,1.0938.8682,1.0938.228,0,.4624-.0659.7041-.1982v1.5996Z" fill="#2f2f2f"/>
        <path d="M113.5485,71.6152h-4.5664c.0728,1.0161.7134,1.5244,1.9209,1.5244.77,0,1.4468-.1821,2.0303-.5469v1.5586c-.647.3462-1.4878.5195-2.5225.5195-1.1304,0-2.0073-.3135-2.6318-.9399s-.9365-1.5005-.9365-2.6216c0-1.1621.3374-2.0825,1.0117-2.7617s1.5039-1.0186,2.4883-1.0186c1.021,0,1.8105.3032,2.3687.9092s.8374,1.4287.8374,2.4678v.9092ZM111.5456,70.2891c0-1.0024-.4058-1.5039-1.2168-1.5039-.3462,0-.646.1436-.8989.4307s-.4067.645-.4614,1.0732h2.5771Z" fill="#2f2f2f"/>
        <path d="M126.3317,64.6973l-3.6299,9.8027h-1.2646l-3.5547-9.8027h1.2783l2.7139,7.7725c.0864.2505.1528.54.1982.8682h.0273c.0366-.2734.1118-.5674.2256-.8818l2.7686-7.7588h1.2373Z" fill="#2f2f2f"/>
        <path d="M128.8884,70.7949v3.7051h-1.1484v-9.8027h2.6934c1.0483,0,1.8604.2554,2.437.7656s.8647,1.2305.8647,2.1602-.3203,1.6909-.9604,2.2832-1.5049.8887-2.5942.8887h-1.292ZM128.8884,65.7363v4.0195h1.2031c.793,0,1.3979-.1812,1.8149-.5435s.6255-.874.6255-1.5347c0-1.2944-.7656-1.9414-2.2969-1.9414h-1.3467Z" fill="#2f2f2f"/>
        <path d="M143.4831,74.5h-1.4082l-5.0449-7.8135c-.1274-.1958-.2324-.4009-.3145-.6152h-.041c.0366.2095.0547.6587.0547,1.3467v7.082h-1.1484v-9.8027h1.4902l4.9082,7.6904c.2051.3188.3374.5376.3965.6562h.0273c-.0454-.2827-.0684-.7632-.0684-1.4424v-6.9043h1.1484v9.8027Z" fill="#2f2f2f"/>
      </g>
      <g>
        <path d="M32.2077,223.7236v-2.1875c.3965.3325.8271.582,1.292.7485s.9341.2495,1.4082.2495c.2778,0,.5205-.0249.728-.0752s.3804-.1196.5195-.2085.2427-.1938.311-.3145.1025-.252.1025-.3931c0-.1914-.0547-.3623-.1641-.5127s-.2588-.2896-.4478-.417-.4136-.2505-.6733-.3691-.54-.2393-.8408-.3623c-.7656-.3188-1.3364-.7085-1.7124-1.1689s-.564-1.0161-.564-1.668c0-.5103.1025-.9492.3076-1.3159s.4844-.6689.8374-.9058.7622-.4111,1.2271-.5229.957-.1675,1.4766-.1675c.5103,0,.9629.0308,1.3569.0923s.7578.1562,1.0903.2837v2.0439c-.1641-.1138-.3428-.2144-.5366-.3008s-.3931-.1582-.5981-.2153-.4092-.0991-.6118-.1265-.3955-.041-.5776-.041c-.2505,0-.4785.0239-.6836.0718s-.3784.1152-.5195.2017-.2505.1904-.3281.311-.1162.2563-.1162.4067c0,.1641.0435.311.1299.4409s.2095.2529.3691.3691.353.23.5811.3418.4854.2266.7725.3452c.3921.1641.7441.3384,1.0562.5229s.5801.3931.8032.6255.394.498.5127.7964.1777.646.1777,1.0425c0,.5469-.1035,1.0059-.311,1.3774s-.4888.6724-.8442.9023-.769.3955-1.2407.4956-.9697.1504-1.4937.1504c-.5376,0-1.0493-.0454-1.5347-.1367s-.9058-.228-1.2612-.4102Z" fill="#2f2f2f"/>
        <path d="M41.3884,215.9922c-.3647,0-.6631-.1084-.8955-.3247s-.3486-.4819-.3486-.7964c0-.3237.1162-.5879.3486-.793s.5308-.3076.8955-.3076c.3691,0,.6689.1025.8989.3076s.3452.4692.3452.793c0,.3281-.1152.5972-.3452.8066s-.5298.3145-.8989.3145ZM42.4548,224.0996h-2.1602v-7h2.1602v7Z" fill="#2f2f2f"/>
        <path d="M48.5046,224.0176c-.3188.1685-.7998.2529-1.4424.2529-1.522,0-2.2832-.7905-2.2832-2.3721v-3.2061h-1.1348v-1.5928h1.1348v-1.5107l2.1533-.6152v2.126h1.5723v1.5928h-1.5723v2.8301c0,.729.2896,1.0938.8682,1.0938.228,0,.4624-.0659.7041-.1982v1.5996Z" fill="#2f2f2f"/>
        <path d="M55.9558,221.2148h-4.5664c.0728,1.0161.7134,1.5244,1.9209,1.5244.77,0,1.4468-.1821,2.0303-.5469v1.5586c-.647.3462-1.4878.5195-2.5225.5195-1.1304,0-2.0073-.3135-2.6318-.9399s-.9365-1.5005-.9365-2.6216c0-1.1621.3374-2.0825,1.0117-2.7617s1.5039-1.0186,2.4883-1.0186c1.021,0,1.8105.3032,2.3687.9092s.8374,1.4287.8374,2.4678v.9092ZM53.9528,219.8887c0-1.0024-.4058-1.5039-1.2168-1.5039-.3462,0-.646.1436-.8989.4307s-.4067.645-.4614,1.0732h2.5771Z" fill="#2f2f2f"/>
        <path d="M61.0485,221.1191h-3.7393v-1.5107h3.7393v1.5107Z" fill="#2f2f2f"/>
        <path d="M67.1325,224.0176c-.3188.1685-.7998.2529-1.4424.2529-1.522,0-2.2832-.7905-2.2832-2.3721v-3.2061h-1.1348v-1.5928h1.1348v-1.5107l2.1533-.6152v2.126h1.5723v1.5928h-1.5723v2.8301c0,.729.2896,1.0938.8682,1.0938.228,0,.4624-.0659.7041-.1982v1.5996Z" fill="#2f2f2f"/>
        <path d="M71.6306,224.2705c-1.1665,0-2.084-.3271-2.7515-.981s-1.0015-1.5415-1.0015-2.6626c0-1.1577.3462-2.0635,1.0391-2.7173s1.6294-.981,2.8096-.981c1.1621,0,2.0737.3271,2.7344.981s.9912,1.5186.9912,2.5942c0,1.1621-.3408,2.0806-1.022,2.7549s-1.6143,1.0117-2.7993,1.0117ZM71.6853,218.583c-.5103,0-.9067.1753-1.1895.5264s-.4238.8477-.4238,1.4902c0,1.3442.5425,2.0166,1.627,2.0166,1.0347,0,1.5518-.6904,1.5518-2.0713,0-1.3081-.522-1.9619-1.5654-1.9619Z" fill="#2f2f2f"/>
        <path d="M80.6608,221.1191h-3.7393v-1.5107h3.7393v1.5107Z" fill="#2f2f2f"/>
        <path d="M82.0554,223.915v-1.75c.3555.2144.71.3735,1.063.4785s.687.1572,1.0015.1572c.3828,0,.6846-.0522.9058-.1572s.3315-.2642.3315-.4785c0-.1367-.0503-.2505-.1504-.3418s-.229-.1709-.3862-.2393-.3291-.1299-.5161-.1846-.3667-.1162-.54-.1846c-.2778-.105-.5229-.2178-.7349-.3384s-.3896-.2607-.5332-.4204-.2529-.3442-.3281-.5537-.1128-.458-.1128-.7451c0-.3921.0854-.729.2563-1.0117s.3989-.5137.6836-.6938.6108-.312.9775-.3965.7485-.1265,1.145-.1265c.3101,0,.6245.0239.9434.0718s.6333.1172.9434.2085v1.668c-.2734-.1597-.5664-.2793-.8784-.3589s-.6187-.1196-.9194-.1196c-.1411,0-.2744.0127-.3999.0376s-.2358.0615-.3315.1094-.1709.1094-.2256.1846-.082.1606-.082.2563c0,.1274.041.2368.123.3281s.189.1699.3213.2358.2793.1255.4409.1777.3223.106.4819.1606c.2871.1001.5469.2095.7793.3281s.4316.2573.5981.417.2939.3462.3828.5605.1333.4692.1333.7656c0,.4146-.0898.769-.27,1.063s-.4194.5332-.7178.7178-.6426.3188-1.0322.4033-.7939.1265-1.2134.1265c-.77,0-1.4834-.1187-2.1396-.3555Z" fill="#2f2f2f"/>
        <path d="M89.7663,215.9922c-.3647,0-.6631-.1084-.8955-.3247s-.3486-.4819-.3486-.7964c0-.3237.1162-.5879.3486-.793s.5308-.3076.8955-.3076c.3691,0,.6689.1025.8989.3076s.3452.4692.3452.793c0,.3281-.1152.5972-.3452.8066s-.5298.3145-.8989.3145ZM90.8327,224.0996h-2.1602v-7h2.1602v7Z" fill="#2f2f2f"/>
        <path d="M96.8825,224.0176c-.3188.1685-.7998.2529-1.4424.2529-1.522,0-2.2832-.7905-2.2832-2.3721v-3.2061h-1.1348v-1.5928h1.1348v-1.5107l2.1533-.6152v2.126h1.5723v1.5928h-1.5723v2.8301c0,.729.2896,1.0938.8682,1.0938.228,0,.4624-.0659.7041-.1982v1.5996Z" fill="#2f2f2f"/>
        <path d="M104.3337,221.2148h-4.5664c.0728,1.0161.7134,1.5244,1.9209,1.5244.77,0,1.4468-.1821,2.0303-.5469v1.5586c-.647.3462-1.4878.5195-2.5225.5195-1.1304,0-2.0073-.3135-2.6318-.9399s-.9365-1.5005-.9365-2.6216c0-1.1621.3374-2.0825,1.0117-2.7617s1.5039-1.0186,2.4883-1.0186c1.021,0,1.8105.3032,2.3687.9092s.8374,1.4287.8374,2.4678v.9092ZM102.3308,219.8887c0-1.0024-.4058-1.5039-1.2168-1.5039-.3462,0-.646.1436-.8989.4307s-.4067.645-.4614,1.0732h2.5771Z" fill="#2f2f2f"/>
        <path d="M117.1169,214.2969l-3.6299,9.8027h-1.2646l-3.5547-9.8027h1.2783l2.7139,7.7725c.0864.2505.1528.54.1982.8682h.0273c.0366-.2734.1118-.5674.2256-.8818l2.7686-7.7588h1.2373Z" fill="#2f2f2f"/>
        <path d="M119.6735,220.3945v3.7051h-1.1484v-9.8027h2.6934c1.0483,0,1.8604.2554,2.437.7656s.8647,1.2305.8647,2.1602-.3203,1.6909-.9604,2.2832-1.5049.8887-2.5942.8887h-1.292ZM119.6735,215.3359v4.0195h1.2031c.793,0,1.3979-.1812,1.8149-.5435s.6255-.874.6255-1.5347c0-1.2944-.7656-1.9414-2.2969-1.9414h-1.3467Z" fill="#2f2f2f"/>
        <path d="M134.2683,224.0996h-1.4082l-5.0449-7.8135c-.1274-.1958-.2324-.4009-.3145-.6152h-.041c.0366.2095.0547.6587.0547,1.3467v7.082h-1.1484v-9.8027h1.4902l4.9082,7.6904c.2051.3188.3374.5376.3965.6562h.0273c-.0454-.2827-.0684-.7632-.0684-1.4424v-6.9043h1.1484v9.8027Z" fill="#2f2f2f"/>
      </g>
      <g>
        <path d="M57.7888,263.022c-.7246.3828-1.627.5742-2.707.5742-1.3945,0-2.5112-.4487-3.3496-1.3467s-1.2578-2.0757-1.2578-3.5342c0-1.5679.4717-2.8345,1.415-3.8008s2.1396-1.4492,3.5889-1.4492c.9297,0,1.6997.1343,2.3105.4033v1.2236c-.7017-.3921-1.4766-.5879-2.3242-.5879-1.1255,0-2.0381.376-2.7378,1.1279s-1.0493,1.7568-1.0493,3.0146c0,1.1938.3271,2.1455.981,2.854s1.5117,1.063,2.5737,1.063c.9844,0,1.8364-.2188,2.5566-.6562v1.1143Z" fill="#2f2f2f"/>
        <path d="M60.7556,263.4321h-1.1211v-10.3633h1.1211v10.3633Z" fill="#2f2f2f"/>
        <path d="M63.5993,254.6548c-.2007,0-.3716-.0684-.5127-.2051s-.2119-.3101-.2119-.5195.0708-.3838.2119-.5229.312-.2085.5127-.2085c.2051,0,.3794.0693.5229.2085s.2153.3135.2153.5229c0,.2007-.0718.3716-.2153.5127s-.3179.2119-.5229.2119ZM64.1462,263.4321h-1.1211v-7h1.1211v7Z" fill="#2f2f2f"/>
        <path d="M72.0417,260.2124h-4.9424c.0181.7793.228,1.3809.6289,1.8047s.9526.6357,1.6543.6357c.7886,0,1.5132-.2598,2.1738-.7793v1.0527c-.6152.4468-1.4287.6699-2.4404.6699-.9888,0-1.7661-.3179-2.3311-.9536s-.8477-1.5303-.8477-2.6831c0-1.0894.3086-1.9766.9263-2.6626s1.3843-1.0288,2.3003-1.0288,1.6245.2964,2.126.8887.752,1.415.752,2.4678v.5879ZM70.8933,259.2622c-.0044-.647-.1606-1.1509-.4683-1.5107s-.7349-.54-1.2817-.54c-.5288,0-.9775.189-1.3467.5674s-.5972.8726-.6836,1.4834h3.7803Z" fill="#2f2f2f"/>
        <path d="M79.5476,263.4321h-1.1211v-3.9922c0-1.4858-.5425-2.2285-1.627-2.2285-.5605,0-1.0244.2109-1.3911.6323s-.5503.9536-.5503,1.5962v3.9922h-1.1211v-7h1.1211v1.1621h.0273c.5288-.8843,1.2944-1.3262,2.2969-1.3262.7656,0,1.3511.2471,1.7568.7417s.6084,1.209.6084,2.1431v4.2793Z" fill="#2f2f2f"/>
        <path d="M84.9069,263.3638c-.2642.146-.6128.2188-1.0459.2188-1.2261,0-1.8389-.6836-1.8389-2.0508v-4.1426h-1.2031v-.957h1.2031v-1.709l1.1211-.3623v2.0713h1.7637v.957h-1.7637v3.9443c0,.4692.0796.8042.2393,1.0049s.4238.3008.793.3008c.2827,0,.5264-.0776.7314-.2324v.957Z" fill="#2f2f2f"/>
      </g>
      <g>
        <path d="M57.7888,293.856c-.7246.3828-1.627.5742-2.707.5742-1.3945,0-2.5112-.4487-3.3496-1.3467s-1.2578-2.0757-1.2578-3.5342c0-1.5679.4717-2.8345,1.415-3.8008s2.1396-1.4492,3.5889-1.4492c.9297,0,1.6997.1343,2.3105.4033v1.2236c-.7017-.3921-1.4766-.5879-2.3242-.5879-1.1255,0-2.0381.376-2.7378,1.1279s-1.0493,1.7568-1.0493,3.0146c0,1.1938.3271,2.1455.981,2.854s1.5117,1.063,2.5737,1.063c.9844,0,1.8364-.2188,2.5566-.6562v1.1143Z" fill="#2f2f2f"/>
        <path d="M60.7556,294.2661h-1.1211v-10.3633h1.1211v10.3633Z" fill="#2f2f2f"/>
        <path d="M63.5993,285.4888c-.2007,0-.3716-.0684-.5127-.2051s-.2119-.3101-.2119-.5195.0708-.3838.2119-.5229.312-.2085.5127-.2085c.2051,0,.3794.0693.5229.2085s.2153.3135.2153.5229c0,.2007-.0718.3716-.2153.5127s-.3179.2119-.5229.2119ZM64.1462,294.2661h-1.1211v-7h1.1211v7Z" fill="#2f2f2f"/>
        <path d="M72.0417,291.0464h-4.9424c.0181.7793.228,1.3809.6289,1.8047s.9526.6357,1.6543.6357c.7886,0,1.5132-.2598,2.1738-.7793v1.0527c-.6152.4468-1.4287.6699-2.4404.6699-.9888,0-1.7661-.3179-2.3311-.9536s-.8477-1.5303-.8477-2.6831c0-1.0894.3086-1.9766.9263-2.6626s1.3843-1.0288,2.3003-1.0288,1.6245.2964,2.126.8887.752,1.415.752,2.4678v.5879ZM70.8933,290.0962c-.0044-.647-.1606-1.1509-.4683-1.5107s-.7349-.54-1.2817-.54c-.5288,0-.9775.189-1.3467.5674s-.5972.8726-.6836,1.4834h3.7803Z" fill="#2f2f2f"/>
        <path d="M79.5476,294.2661h-1.1211v-3.9922c0-1.4858-.5425-2.2285-1.627-2.2285-.5605,0-1.0244.2109-1.3911.6323s-.5503.9536-.5503,1.5962v3.9922h-1.1211v-7h1.1211v1.1621h.0273c.5288-.8843,1.2944-1.3262,2.2969-1.3262.7656,0,1.3511.2471,1.7568.7417s.6084,1.209.6084,2.1431v4.2793Z" fill="#2f2f2f"/>
        <path d="M84.9069,294.1978c-.2642.146-.6128.2188-1.0459.2188-1.2261,0-1.8389-.6836-1.8389-2.0508v-4.1426h-1.2031v-.957h1.2031v-1.709l1.1211-.3623v2.0713h1.7637v.957h-1.7637v3.9443c0,.4692.0796.8042.2393,1.0049s.4238.3008.793.3008c.2827,0,.5264-.0776.7314-.2324v.957Z" fill="#2f2f2f"/>
      </g>
      <g>
        <path d="M57.7888,324.6895c-.7246.3828-1.627.5742-2.707.5742-1.3945,0-2.5112-.4487-3.3496-1.3467s-1.2578-2.0757-1.2578-3.5342c0-1.5679.4717-2.8345,1.415-3.8008s2.1396-1.4492,3.5889-1.4492c.9297,0,1.6997.1343,2.3105.4033v1.2236c-.7017-.3921-1.4766-.5879-2.3242-.5879-1.1255,0-2.0381.376-2.7378,1.1279s-1.0493,1.7568-1.0493,3.0146c0,1.1938.3271,2.1455.981,2.854s1.5117,1.063,2.5737,1.063c.9844,0,1.8364-.2188,2.5566-.6562v1.1143Z" fill="#2f2f2f"/>
        <path d="M60.7556,325.0996h-1.1211v-10.3633h1.1211v10.3633Z" fill="#2f2f2f"/>
        <path d="M63.5993,316.3223c-.2007,0-.3716-.0684-.5127-.2051s-.2119-.3101-.2119-.5195.0708-.3838.2119-.5229.312-.2085.5127-.2085c.2051,0,.3794.0693.5229.2085s.2153.3135.2153.5229c0,.2007-.0718.3716-.2153.5127s-.3179.2119-.5229.2119ZM64.1462,325.0996h-1.1211v-7h1.1211v7Z" fill="#2f2f2f"/>
        <path d="M72.0417,321.8799h-4.9424c.0181.7793.228,1.3809.6289,1.8047s.9526.6357,1.6543.6357c.7886,0,1.5132-.2598,2.1738-.7793v1.0527c-.6152.4468-1.4287.6699-2.4404.6699-.9888,0-1.7661-.3179-2.3311-.9536s-.8477-1.5303-.8477-2.6831c0-1.0894.3086-1.9766.9263-2.6626s1.3843-1.0288,2.3003-1.0288,1.6245.2964,2.126.8887.752,1.415.752,2.4678v.5879ZM70.8933,320.9297c-.0044-.647-.1606-1.1509-.4683-1.5107s-.7349-.54-1.2817-.54c-.5288,0-.9775.189-1.3467.5674s-.5972.8726-.6836,1.4834h3.7803Z" fill="#2f2f2f"/>
        <path d="M79.5476,325.0996h-1.1211v-3.9922c0-1.4858-.5425-2.2285-1.627-2.2285-.5605,0-1.0244.2109-1.3911.6323s-.5503.9536-.5503,1.5962v3.9922h-1.1211v-7h1.1211v1.1621h.0273c.5288-.8843,1.2944-1.3262,2.2969-1.3262.7656,0,1.3511.2471,1.7568.7417s.6084,1.209.6084,2.1431v4.2793Z" fill="#2f2f2f"/>
        <path d="M84.9069,325.0312c-.2642.146-.6128.2188-1.0459.2188-1.2261,0-1.8389-.6836-1.8389-2.0508v-4.1426h-1.2031v-.957h1.2031v-1.709l1.1211-.3623v2.0713h1.7637v.957h-1.7637v3.9443c0,.4692.0796.8042.2393,1.0049s.4238.3008.793.3008c.2827,0,.5264-.0776.7314-.2324v.957Z" fill="#2f2f2f"/>
      </g>
      <g>
        <rect x="172.3379" y="276.8997" width="52.8" height="35.2" fill="none"/>
        <path d="M193.9899,277.46l-3.6299,9.8027h-1.2646l-3.5547-9.8027h1.2783l2.7139,7.7725c.0864.2505.1528.54.1982.8682h.0273c.0366-.2734.1118-.5674.2256-.8818l2.7686-7.7588h1.2373Z" fill="#2f2f2f"/>
        <path d="M196.4709,283.5576v3.7051h-1.1484v-9.8027h2.6934c1.0483,0,1.8604.2554,2.437.7656s.8647,1.2305.8647,2.1602-.3203,1.6909-.9604,2.2832-1.5049.8887-2.5942.8887h-1.292ZM196.4709,278.499v4.0195h1.2031c.793,0,1.3979-.1812,1.8149-.5435s.6255-.874.6255-1.5347c0-1.2944-.7656-1.9414-2.2969-1.9414h-1.3467Z" fill="#2f2f2f"/>
        <path d="M210.7731,287.2627h-1.4082l-5.0449-7.8135c-.1274-.1958-.2324-.4009-.3145-.6152h-.041c.0366.2095.0547.6587.0547,1.3467v7.082h-1.1484v-9.8027h1.4902l4.9082,7.6904c.2051.3188.3374.5376.3965.6562h.0273c-.0454-.2827-.0684-.7632-.0684-1.4424v-6.9043h1.1484v9.8027Z" fill="#2f2f2f"/>
        <path d="M186.3107,304.0625h-1.1211v-1.1895h-.0273c-.5195.9023-1.3218,1.3535-2.4062,1.3535-.8794,0-1.5825-.3135-2.1089-.9399s-.7896-1.48-.7896-2.5601c0-1.1577.2915-2.085.875-2.7822s1.3604-1.0459,2.3311-1.0459c.9614,0,1.6611.3784,2.0986,1.1348h.0273v-4.334h1.1211v10.3633ZM185.1896,300.8975v-1.0322c0-.5649-.187-1.0435-.5605-1.4355s-.8477-.5879-1.4219-.5879c-.6836,0-1.2212.2505-1.6133.752s-.5879,1.1938-.5879,2.0781c0,.8066.188,1.4434.564,1.9106s.8809.7007,1.5142.7007c.6245,0,1.1313-.2256,1.521-.6768s.5845-1.021.5845-1.709Z" fill="#2f2f2f"/>
        <path d="M194.132,300.8428h-4.9424c.0181.7793.228,1.3809.6289,1.8047s.9526.6357,1.6543.6357c.7886,0,1.5132-.2598,2.1738-.7793v1.0527c-.6152.4468-1.4287.6699-2.4404.6699-.9888,0-1.7661-.3179-2.3311-.9536s-.8477-1.5303-.8477-2.6831c0-1.0894.3086-1.9766.9263-2.6626s1.3843-1.0288,2.3003-1.0288,1.6245.2964,2.126.8887.752,1.415.752,2.4678v.5879ZM192.9836,299.8926c-.0044-.647-.1606-1.1509-.4683-1.5107s-.7349-.54-1.2817-.54c-.5288,0-.9775.189-1.3467.5674s-.5972.8726-.6836,1.4834h3.7803Z" fill="#2f2f2f"/>
        <path d="M201.2702,297.0625l-2.7891,7h-1.1006l-2.6523-7h1.2305l1.7773,5.0859c.1323.3735.2144.6997.2461.9775h.0273c.0454-.3511.1187-.6675.2188-.9502l1.8594-5.1133h1.1826Z" fill="#2f2f2f"/>
        <path d="M203.0852,295.2852c-.2007,0-.3716-.0684-.5127-.2051s-.2119-.3101-.2119-.5195.0708-.3838.2119-.5229.312-.2085.5127-.2085c.2051,0,.3794.0693.5229.2085s.2153.3135.2153.5229c0,.2007-.0718.3716-.2153.5127s-.3179.2119-.5229.2119ZM203.632,304.0625h-1.1211v-7h1.1211v7Z" fill="#2f2f2f"/>
        <path d="M210.5441,303.7412c-.5376.3237-1.1758.4854-1.9141.4854-.998,0-1.8037-.3247-2.4165-.9741s-.9194-1.4912-.9194-2.5259c0-1.1528.3306-2.0791.9912-2.7788s1.5425-1.0493,2.6455-1.0493c.6152,0,1.1577.1138,1.627.3418v1.1484c-.5195-.3647-1.0757-.5469-1.668-.5469-.7153,0-1.3022.2563-1.7603.769s-.687,1.186-.687,2.02c0,.8203.2153,1.4673.646,1.9414s1.0083.7109,1.7329.7109c.6108,0,1.1851-.2026,1.7227-.6084v1.0664Z" fill="#2f2f2f"/>
        <path d="M217.7146,300.8428h-4.9424c.0181.7793.228,1.3809.6289,1.8047s.9526.6357,1.6543.6357c.7886,0,1.5132-.2598,2.1738-.7793v1.0527c-.6152.4468-1.4287.6699-2.4404.6699-.9888,0-1.7661-.3179-2.3311-.9536s-.8477-1.5303-.8477-2.6831c0-1.0894.3086-1.9766.9263-2.6626s1.3843-1.0288,2.3003-1.0288,1.6245.2964,2.126.8887.752,1.415.752,2.4678v.5879ZM216.5661,299.8926c-.0044-.647-.1606-1.1509-.4683-1.5107s-.7349-.54-1.2817-.54c-.5288,0-.9775.189-1.3467.5674s-.5972.8726-.6836,1.4834h3.7803Z" fill="#2f2f2f"/>
      </g>
      <g>
        <path d="M57.7888,113.4224c-.7246.3828-1.627.5742-2.707.5742-1.3945,0-2.5112-.4487-3.3496-1.3467s-1.2578-2.0757-1.2578-3.5342c0-1.5679.4717-2.8345,1.415-3.8008s2.1396-1.4492,3.5889-1.4492c.9297,0,1.6997.1343,2.3105.4033v1.2236c-.7017-.3921-1.4766-.5879-2.3242-.5879-1.1255,0-2.0381.376-2.7378,1.1279s-1.0493,1.7568-1.0493,3.0146c0,1.1938.3271,2.1455.981,2.854s1.5117,1.063,2.5737,1.063c.9844,0,1.8364-.2188,2.5566-.6562v1.1143Z" fill="#2f2f2f"/>
        <path d="M60.7556,113.8325h-1.1211v-10.3633h1.1211v10.3633Z" fill="#2f2f2f"/>
        <path d="M63.5993,105.0552c-.2007,0-.3716-.0684-.5127-.2051s-.2119-.3101-.2119-.5195.0708-.3838.2119-.5229.312-.2085.5127-.2085c.2051,0,.3794.0693.5229.2085s.2153.3135.2153.5229c0,.2007-.0718.3716-.2153.5127s-.3179.2119-.5229.2119ZM64.1462,113.8325h-1.1211v-7h1.1211v7Z" fill="#2f2f2f"/>
        <path d="M72.0417,110.6128h-4.9424c.0181.7793.228,1.3809.6289,1.8047s.9526.6357,1.6543.6357c.7886,0,1.5132-.2598,2.1738-.7793v1.0527c-.6152.4468-1.4287.6699-2.4404.6699-.9888,0-1.7661-.3179-2.3311-.9536s-.8477-1.5303-.8477-2.6831c0-1.0894.3086-1.9766.9263-2.6626s1.3843-1.0288,2.3003-1.0288,1.6245.2964,2.126.8887.752,1.415.752,2.4678v.5879ZM70.8933,109.6626c-.0044-.647-.1606-1.1509-.4683-1.5107s-.7349-.54-1.2817-.54c-.5288,0-.9775.189-1.3467.5674s-.5972.8726-.6836,1.4834h3.7803Z" fill="#2f2f2f"/>
        <path d="M79.5476,113.8325h-1.1211v-3.9922c0-1.4858-.5425-2.2285-1.627-2.2285-.5605,0-1.0244.2109-1.3911.6323s-.5503.9536-.5503,1.5962v3.9922h-1.1211v-7h1.1211v1.1621h.0273c.5288-.8843,1.2944-1.3262,2.2969-1.3262.7656,0,1.3511.2471,1.7568.7417s.6084,1.209.6084,2.1431v4.2793Z" fill="#2f2f2f"/>
        <path d="M84.9069,113.7642c-.2642.146-.6128.2188-1.0459.2188-1.2261,0-1.8389-.6836-1.8389-2.0508v-4.1426h-1.2031v-.957h1.2031v-1.709l1.1211-.3623v2.0713h1.7637v.957h-1.7637v3.9443c0,.4692.0796.8042.2393,1.0049s.4238.3008.793.3008c.2827,0,.5264-.0776.7314-.2324v.957Z" fill="#2f2f2f"/>
      </g>
      <g>
        <path d="M57.7888,144.2559c-.7246.3828-1.627.5742-2.707.5742-1.3945,0-2.5112-.4487-3.3496-1.3467s-1.2578-2.0757-1.2578-3.5342c0-1.5679.4717-2.8345,1.415-3.8008s2.1396-1.4492,3.5889-1.4492c.9297,0,1.6997.1343,2.3105.4033v1.2236c-.7017-.3921-1.4766-.5879-2.3242-.5879-1.1255,0-2.0381.376-2.7378,1.1279s-1.0493,1.7568-1.0493,3.0146c0,1.1938.3271,2.1455.981,2.854s1.5117,1.063,2.5737,1.063c.9844,0,1.8364-.2188,2.5566-.6562v1.1143Z" fill="#2f2f2f"/>
        <path d="M60.7556,144.666h-1.1211v-10.3633h1.1211v10.3633Z" fill="#2f2f2f"/>
        <path d="M63.5993,135.8887c-.2007,0-.3716-.0684-.5127-.2051s-.2119-.3101-.2119-.5195.0708-.3838.2119-.5229.312-.2085.5127-.2085c.2051,0,.3794.0693.5229.2085s.2153.3135.2153.5229c0,.2007-.0718.3716-.2153.5127s-.3179.2119-.5229.2119ZM64.1462,144.666h-1.1211v-7h1.1211v7Z" fill="#2f2f2f"/>
        <path d="M72.0417,141.4463h-4.9424c.0181.7793.228,1.3809.6289,1.8047s.9526.6357,1.6543.6357c.7886,0,1.5132-.2598,2.1738-.7793v1.0527c-.6152.4468-1.4287.6699-2.4404.6699-.9888,0-1.7661-.3179-2.3311-.9536s-.8477-1.5303-.8477-2.6831c0-1.0894.3086-1.9766.9263-2.6626s1.3843-1.0288,2.3003-1.0288,1.6245.2964,2.126.8887.752,1.415.752,2.4678v.5879ZM70.8933,140.4961c-.0044-.647-.1606-1.1509-.4683-1.5107s-.7349-.54-1.2817-.54c-.5288,0-.9775.189-1.3467.5674s-.5972.8726-.6836,1.4834h3.7803Z" fill="#2f2f2f"/>
        <path d="M79.5476,144.666h-1.1211v-3.9922c0-1.4858-.5425-2.2285-1.627-2.2285-.5605,0-1.0244.2109-1.3911.6323s-.5503.9536-.5503,1.5962v3.9922h-1.1211v-7h1.1211v1.1621h.0273c.5288-.8843,1.2944-1.3262,2.2969-1.3262.7656,0,1.3511.2471,1.7568.7417s.6084,1.209.6084,2.1431v4.2793Z" fill="#2f2f2f"/>
        <path d="M84.9069,144.5977c-.2642.146-.6128.2188-1.0459.2188-1.2261,0-1.8389-.6836-1.8389-2.0508v-4.1426h-1.2031v-.957h1.2031v-1.709l1.1211-.3623v2.0713h1.7637v.957h-1.7637v3.9443c0,.4692.0796.8042.2393,1.0049s.4238.3008.793.3008c.2827,0,.5264-.0776.7314-.2324v.957Z" fill="#2f2f2f"/>
      </g>
      <g>
        <path d="M57.7888,175.0894c-.7246.3828-1.627.5742-2.707.5742-1.3945,0-2.5112-.4487-3.3496-1.3467s-1.2578-2.0757-1.2578-3.5342c0-1.5679.4717-2.8345,1.415-3.8008s2.1396-1.4492,3.5889-1.4492c.9297,0,1.6997.1343,2.3105.4033v1.2236c-.7017-.3921-1.4766-.5879-2.3242-.5879-1.1255,0-2.0381.376-2.7378,1.1279s-1.0493,1.7568-1.0493,3.0146c0,1.1938.3271,2.1455.981,2.854s1.5117,1.063,2.5737,1.063c.9844,0,1.8364-.2188,2.5566-.6562v1.1143Z" fill="#2f2f2f"/>
        <path d="M60.7556,175.4995h-1.1211v-10.3633h1.1211v10.3633Z" fill="#2f2f2f"/>
        <path d="M63.5993,166.7222c-.2007,0-.3716-.0684-.5127-.2051s-.2119-.3101-.2119-.5195.0708-.3838.2119-.5229.312-.2085.5127-.2085c.2051,0,.3794.0693.5229.2085s.2153.3135.2153.5229c0,.2007-.0718.3716-.2153.5127s-.3179.2119-.5229.2119ZM64.1462,175.4995h-1.1211v-7h1.1211v7Z" fill="#2f2f2f"/>
        <path d="M72.0417,172.2798h-4.9424c.0181.7793.228,1.3809.6289,1.8047s.9526.6357,1.6543.6357c.7886,0,1.5132-.2598,2.1738-.7793v1.0527c-.6152.4468-1.4287.6699-2.4404.6699-.9888,0-1.7661-.3179-2.3311-.9536s-.8477-1.5303-.8477-2.6831c0-1.0894.3086-1.9766.9263-2.6626s1.3843-1.0288,2.3003-1.0288,1.6245.2964,2.126.8887.752,1.415.752,2.4678v.5879ZM70.8933,171.3296c-.0044-.647-.1606-1.1509-.4683-1.5107s-.7349-.54-1.2817-.54c-.5288,0-.9775.189-1.3467.5674s-.5972.8726-.6836,1.4834h3.7803Z" fill="#2f2f2f"/>
        <path d="M79.5476,175.4995h-1.1211v-3.9922c0-1.4858-.5425-2.2285-1.627-2.2285-.5605,0-1.0244.2109-1.3911.6323s-.5503.9536-.5503,1.5962v3.9922h-1.1211v-7h1.1211v1.1621h.0273c.5288-.8843,1.2944-1.3262,2.2969-1.3262.7656,0,1.3511.2471,1.7568.7417s.6084,1.209.6084,2.1431v4.2793Z" fill="#2f2f2f"/>
        <path d="M84.9069,175.4312c-.2642.146-.6128.2188-1.0459.2188-1.2261,0-1.8389-.6836-1.8389-2.0508v-4.1426h-1.2031v-.957h1.2031v-1.709l1.1211-.3623v2.0713h1.7637v.957h-1.7637v3.9443c0,.4692.0796.8042.2393,1.0049s.4238.3008.793.3008c.2827,0,.5264-.0776.7314-.2324v.957Z" fill="#2f2f2f"/>
      </g>
    </g>
  </g>
</svg>