<?xml version="1.0" encoding="UTF-8"?>
<svg xmlns="http://www.w3.org/2000/svg" width="866.8" height="334.4" xmlns:xlink="http://www.w3.org/1999/xlink" viewBox="0 0 866.8 334.4">
  <defs>
    <linearGradient id="Cool_gray_gradient_1" data-name="Cool gray gradient 1" x1="624.8" y1="168.3" x2="858" y2="168.3" gradientUnits="userSpaceOnUse">
      <stop offset="0" stop-color="#f5f5f4"/>
      <stop offset="1" stop-color="#ececea"/>
    </linearGradient>
    <linearGradient id="Cool_gray_gradient_1-2" data-name="Cool gray gradient 1" x1="140.7801" x2="373.9801" xlink:href="#Cool_gray_gradient_1"/>
    <linearGradient id="Cool_gray_gradient_1-3" data-name="Cool gray gradient 1" x1="382.8" x2="616" xlink:href="#Cool_gray_gradient_1"/>
    <linearGradient id="linear-gradient" x1="-352.8571" y1="-1035.3181" x2="-352.8571" y2="-1018" gradientTransform="translate(564 -740.8) scale(1 -1)" gradientUnits="userSpaceOnUse">
      <stop offset="0" stop-color="#0078d4"/>
      <stop offset=".82" stop-color="#5ea0ef"/>
    </linearGradient>
    <linearGradient id="linear-gradient-2" x1="-352.8571" y1="-1042" x2="-352.8571" y2="-1035.3181" gradientTransform="translate(564 -740.8) scale(1 -1)" gradientUnits="userSpaceOnUse">
      <stop offset=".15" stop-color="#ccc"/>
      <stop offset="1" stop-color="#707070"/>
    </linearGradient>
    <linearGradient id="linear-gradient-3" x1="-489.2399" y1="-863.5873" x2="-489.2399" y2="-828.8098" gradientTransform="translate(564 -740.8) scale(1 -1)" gradientUnits="userSpaceOnUse">
      <stop offset="0" stop-color="#5e9624"/>
      <stop offset=".02" stop-color="#5f9724"/>
      <stop offset="1" stop-color="#76bc2d"/>
    </linearGradient>
    <linearGradient id="linear-gradient-4" x1="-260.5714" x2="-260.5714" xlink:href="#linear-gradient"/>
    <linearGradient id="linear-gradient-5" x1="-260.5714" x2="-260.5714" xlink:href="#linear-gradient-2"/>
  </defs>
  <g isolation="isolate">
    <g id="Shapes">
      <rect width="866.8" height="334.4" fill="#fff"/>
      <g>
        <g mix-blend-mode="multiply" opacity=".65">
          <rect x="625.8" y="12" width="233.2" height="314.6" rx="8" ry="8" fill="#2b436f"/>
          <rect x="625.8" y="12" width="233.2" height="314.6" rx="8" ry="8" fill="#2b436f" opacity=".6"/>
        </g>
        <g>
          <rect x="624.8" y="11" width="233.2" height="314.6" rx="8" ry="8" fill="url(#Cool_gray_gradient_1)"/>
          <rect x="624.8" y="11" width="233.2" height="314.6" rx="8" ry="8" fill="#8ec8e7" opacity=".6"/>
        </g>
      </g>
      <g>
        <g mix-blend-mode="multiply" opacity=".65">
          <rect x="141.7801" y="12" width="233.2" height="314.6" rx="8" ry="8" fill="#2b436f"/>
          <rect x="141.7801" y="12" width="233.2" height="314.6" rx="8" ry="8" fill="#2b436f" opacity=".6"/>
        </g>
        <g>
          <rect x="140.7801" y="11" width="233.2" height="314.6" rx="8" ry="8" fill="url(#Cool_gray_gradient_1-2)"/>
          <rect x="140.7801" y="11" width="233.2" height="314.6" rx="8" ry="8" fill="#8ec8e7" opacity=".6"/>
        </g>
      </g>
      <g>
        <g mix-blend-mode="multiply" opacity=".65">
          <rect x="383.8" y="12" width="233.2" height="314.6" rx="8" ry="8" fill="#2b436f"/>
          <rect x="383.8" y="12" width="233.2" height="314.6" rx="8" ry="8" fill="#2b436f" opacity=".6"/>
        </g>
        <g>
          <rect x="382.8" y="11" width="233.2" height="314.6" rx="8" ry="8" fill="url(#Cool_gray_gradient_1-3)"/>
          <rect x="382.8" y="11" width="233.2" height="314.6" rx="8" ry="8" fill="#8ec8e7" opacity=".6"/>
        </g>
      </g>
      <g>
        <rect x="8.8" y="52.8" width="365.2" height="154" fill="#fff"/>
        <rect x="8.8" y="52.8" width="365.2" height="154" fill="#d3ec8e" opacity=".25"/>
        <rect x="8.8" y="52.8" width="365.2" height="154" fill="none" opacity=".7" stroke="#8bc63f" stroke-width=".25"/>
      </g>
      <rect x="140.7601" y="61.7424" width="233.2399" height="39.6" fill="#fff" stroke="#4e4f4f" stroke-width=".25"/>
      <rect x="140.7601" y="110" width="233.2399" height="39.6" fill="#fff" stroke="#4e4f4f" stroke-width=".25"/>
      <rect x="140.7601" y="158.4" width="233.2399" height="39.6" fill="#fff" stroke="#4e4f4f" stroke-width=".25"/>
      <rect x="171.6" y="220" width="79.0857" height="92.4" fill="#fff" stroke="#8e8278" stroke-width=".35"/>
      <g>
        <rect x="198.1543" y="277.2" width="25.9771" height="17.3181" rx=".8659" ry=".8659" fill="url(#linear-gradient)"/>
        <polygon points="215.4724 283.3335 215.4724 288.3702 211.1429 290.9102 211.1429 285.859 215.4724 283.3335" fill="#50e6ff"/>
        <polygon points="215.4724 283.3335 211.1429 285.8735 206.8133 283.3335 211.1429 280.8079 215.4724 283.3335" fill="#c3f1ff"/>
        <polygon points="211.1429 285.8735 211.1429 290.9102 206.8133 288.3702 206.8133 283.3335 211.1429 285.8735" fill="#9cebff"/>
        <polygon points="206.8133 288.3702 211.1429 285.859 211.1429 290.9102 206.8133 288.3702" fill="#c3f1ff"/>
        <polygon points="215.4724 288.3702 211.1429 285.859 211.1429 290.9102 215.4724 288.3702" fill="#9cebff"/>
        <path d="M216.3527,299.7568c-2.5689-.4041-2.6699-2.2514-2.6699-5.2387h-5.0944c0,2.9874-.0866,4.8346-2.6554,5.2387-.7345.0813-1.2889.7042-1.2844,1.4432h12.9886c.0045-.739-.5499-1.3619-1.2844-1.4432Z" fill="url(#linear-gradient-2)"/>
      </g>
      <g>
        <path d="M60.0626,103.9905l13.981-13.981c.3851-.3957,1.0181-.4044,1.4138-.0192.0065.0063.0129.0127.0192.0192l13.981,13.981c.3957.3851.4044,1.0181.0192,1.4138-.0063.0065-.0127.0129-.0192.0192l-13.9976,13.9976c-.3888.3811-1.011.3811-1.3998,0l-13.9976-13.9976c-.3957-.3851-.4044-1.0181-.0192-1.4138.0063-.0065.0127-.0129.0192-.0192Z" fill="url(#linear-gradient-3)"/>
        <path d="M78.4262,96.3751l-3.5327-3.5161c-.0759-.0679-.1907-.0679-.2666,0l-3.5327,3.5161c-.0764.0514-.0966.1549-.0452.2313.0391.0582.1105.0856.1785.0687h2.0663c.1012,0,.1833.0821.1833.1833v3.3328c0,.1012.0821.1833.1833.1833h2.1996c.1012,0,.1833-.0821.1833-.1833v-3.3328c0-.1012.0821-.1833.1833-.1833h2.0663c.0893.0222.1797-.0321.202-.1214.0169-.068-.0105-.1394-.0687-.1785Z" fill="#b4ec36"/>
        <path d="M66.4282,100.7244l-3.4994,3.5494c-.0656.0704-.0656.1796,0,.25l3.4994,3.5161c.0694.0737.1854.0772.2591.0078.0387-.0365.0597-.088.0575-.1411v-2.0497c0-.1012.0821-.1833.1833-.1833h3.3328c.092.0005.167-.0738.1675-.1658,0-.0058-.0002-.0117-.0008-.0175v-2.1996c.0472-.079.0214-.1813-.0576-.2285-.0181-.0108-.0382-.0181-.059-.0215h-3.3328c-.0916.0092-.1733-.0576-.1825-.1491-.0006-.0058-.0009-.0117-.0008-.0175v-2.0163c.0368-.1012-.0154-.2131-.1166-.25-.1012-.0368-.2131.0154-.25.1166Z" fill="#b4ec36"/>
        <path d="M83.2253,108.0398l3.5494-3.5327c.0656-.0704.0656-.1796,0-.25l-3.5494-3.5327c-.078-.0645-.1936-.0536-.2581.0244-.0254.0308-.0401.069-.0419.1089v2.083c.0005.092-.0738.167-.1658.1675-.0058,0-.0117-.0002-.0175-.0008h-3.3328c-.092-.0005-.167.0738-.1675.1658,0,.0058.0002.0117.0008.0175v2.1996c-.0092.0916.0576.1733.1491.1825.0058.0006.0117.0009.0175.0008h3.3328c.1012,0,.1833.0821.1833.1833v2.0663c.013.1004.1049.1713.2053.1583.0349-.0045.0678-.019.0947-.0417Z" fill="#b4ec36"/>
        <path d="M79.4093,104.707c.0159-2.5676-2.0527-4.662-4.6203-4.6779-2.5676-.0159-4.662,2.0527-4.6779,4.6203-.013,2.097,1.3794,3.9431,3.3992,4.5069v1.5831c-1.3981.7224-1.9459,2.4415-1.2234,3.8396.7224,1.3981,2.4415,1.9459,3.8396,1.2234,1.3981-.7224,1.9459-2.4415,1.2234-3.8396-.2711-.5247-.6987-.9523-1.2234-1.2234v-1.6664c1.9303-.5822,3.2595-2.3498,3.2828-4.3659Z" fill="#fff"/>
        <circle id="e99c3387-15c3-4f28-bd4b-cb209b430e06" cx="74.7768" cy="104.6903" r="2.6995" fill="#5ea0ef"/>
      </g>
      <g>
        <line x1="211.1429" y1="198" x2="211.1429" y2="214.6178" fill="none" stroke="#3c3c41" stroke-miterlimit="10"/>
        <polygon points="207.4031 213.5236 211.1429 220 214.8826 213.5236 207.4031 213.5236" fill="#3c3c41"/>
      </g>
      <rect x="263.8857" y="220" width="79.0857" height="92.4" fill="#fff" stroke="#8e8278" stroke-width=".35"/>
      <g>
        <rect x="290.44" y="277.2" width="25.9771" height="17.3181" rx=".8659" ry=".8659" fill="url(#linear-gradient-4)"/>
        <polygon points="307.7581 283.3335 307.7581 288.3702 303.4286 290.9102 303.4286 285.859 307.7581 283.3335" fill="#50e6ff"/>
        <polygon points="307.7581 283.3335 303.4286 285.8735 299.0991 283.3335 303.4286 280.8079 307.7581 283.3335" fill="#c3f1ff"/>
        <polygon points="303.4286 285.8735 303.4286 290.9102 299.0991 288.3702 299.0991 283.3335 303.4286 285.8735" fill="#9cebff"/>
        <polygon points="299.0991 288.3702 303.4286 285.859 303.4286 290.9102 299.0991 288.3702" fill="#c3f1ff"/>
        <polygon points="307.7581 288.3702 303.4286 285.859 303.4286 290.9102 307.7581 288.3702" fill="#9cebff"/>
        <path d="M308.6385,299.7568c-2.5689-.4041-2.6699-2.2514-2.6699-5.2387h-5.0944c0,2.9874-.0866,4.8346-2.6554,5.2387-.7345.0813-1.2889.7042-1.2844,1.4432h12.9886c.0045-.739-.5499-1.3619-1.2844-1.4432Z" fill="url(#linear-gradient-5)"/>
      </g>
      <g>
        <line x1="303.4286" y1="198" x2="303.4286" y2="214.6178" fill="none" stroke="#3c3c41" stroke-miterlimit="10"/>
        <polygon points="299.6889 213.5236 303.4286 220 307.1684 213.5236 299.6889 213.5236" fill="#3c3c41"/>
      </g>
    </g>
    <g id="Text">
      <g>
        <path d="M205.8414,34.143h-2.4062l-.6973-2.1816h-3.4863l-.6904,2.1816h-2.3926l3.5684-9.8027h2.6182l3.4863,9.8027ZM202.232,30.266l-1.0527-3.2949c-.0776-.2461-.1323-.5391-.1641-.8809h-.0547c-.0229.2871-.0796.5713-.1709.8535l-1.0664,3.3223h2.5088Z" fill="#2f2f2f"/>
        <path d="M213.2062,27.143l-2.6045,7h-2.4609l-2.4814-7h2.3105l1.2168,4.3125c.1367.4883.2163.9023.2393,1.2441h.0273c.0317-.3232.1162-.7246.2529-1.2031l1.2441-4.3535h2.2559Z" fill="#2f2f2f"/>
        <path d="M219.8619,34.143h-2.0439v-1.0059h-.0273c-.4692.7842-1.1646,1.1758-2.085,1.1758-.6792,0-1.2134-.1914-1.603-.5771s-.5845-.8994-.5845-1.542c0-1.3574.8042-2.1416,2.4131-2.3516l1.9004-.252c0-.7656-.4146-1.1484-1.2441-1.1484-.834,0-1.627.248-2.3789.7441v-1.627c.3008-.1543.7119-.291,1.2339-.4102.522-.1182.9971-.1777,1.4253-.1777,1.9961,0,2.9941.9961,2.9941,2.9883v4.1836ZM217.8316,31.2992v-.4727l-1.2715.1641c-.7017.0918-1.0527.4082-1.0527.9512,0,.2461.0854.4473.2563.6045s.4023.2354.6938.2354c.4058,0,.7358-.1396.9912-.4199s.3828-.6348.3828-1.0625Z" fill="#2f2f2f"/>
        <path d="M222.6324,26.0355c-.3647,0-.6631-.1094-.8955-.3252s-.3486-.4814-.3486-.7959c0-.3242.1162-.5879.3486-.793s.5308-.3086.8955-.3086c.3691,0,.6689.1035.8989.3086s.3452.4688.3452.793c0,.3281-.1152.5967-.3452.8066-.23.209-.5298.3145-.8989.3145ZM223.6988,34.143h-2.1602v-7h2.1602v7Z" fill="#2f2f2f"/>
        <path d="M227.6339,34.143h-2.1602v-10.3633h2.1602v10.3633Z" fill="#2f2f2f"/>
        <path d="M235.2989,34.143h-2.0439v-1.0059h-.0273c-.4692.7842-1.1646,1.1758-2.085,1.1758-.6792,0-1.2134-.1914-1.603-.5771s-.5845-.8994-.5845-1.542c0-1.3574.8042-2.1416,2.4131-2.3516l1.9004-.252c0-.7656-.4146-1.1484-1.2441-1.1484-.834,0-1.627.248-2.3789.7441v-1.627c.3008-.1543.7119-.291,1.2339-.4102.522-.1182.9971-.1777,1.4253-.1777,1.9961,0,2.9941.9961,2.9941,2.9883v4.1836ZM233.2687,31.2992v-.4727l-1.2715.1641c-.7017.0918-1.0527.4082-1.0527.9512,0,.2461.0854.4473.2563.6045s.4023.2354.6938.2354c.4058,0,.7358-.1396.9912-.4199s.3828-.6348.3828-1.0625Z" fill="#2f2f2f"/>
        <path d="M239.1827,33.3285h-.0273v.8145h-2.1602v-10.3633h2.1602v4.416h.0273c.5332-.8164,1.292-1.2246,2.2764-1.2246.9023,0,1.5972.3105,2.085.9297.4878.6201.7314,1.4678.7314,2.543,0,1.167-.2847,2.1035-.8545,2.8105-.5698.7061-1.3306,1.0586-2.2832,1.0586-.8613,0-1.5132-.3281-1.9551-.9844ZM239.1212,30.3754v.7188c0,.4512.1299.8242.3896,1.1211.2598.2959.5923.4434.998.4434.4922,0,.874-.1895,1.145-.5703s.4067-.9199.4067-1.6172c0-.5781-.124-1.0312-.3726-1.3564s-.6025-.4893-1.063-.4893c-.4331,0-.792.1621-1.0767.4863-.2847.3232-.4272.7441-.4272,1.2637Z" fill="#2f2f2f"/>
        <path d="M246.7706,26.0355c-.3647,0-.6631-.1094-.8955-.3252s-.3486-.4814-.3486-.7959c0-.3242.1162-.5879.3486-.793s.5308-.3086.8955-.3086c.3691,0,.6689.1035.8989.3086s.3452.4688.3452.793c0,.3281-.1152.5967-.3452.8066-.23.209-.5298.3145-.8989.3145ZM247.837,34.143h-2.1602v-7h2.1602v7Z" fill="#2f2f2f"/>
        <path d="M251.7726,34.143h-2.1602v-10.3633h2.1602v10.3633Z" fill="#2f2f2f"/>
        <path d="M254.6412,26.0355c-.3647,0-.6631-.1094-.8955-.3252s-.3486-.4814-.3486-.7959c0-.3242.1162-.5879.3486-.793s.5308-.3086.8955-.3086c.3691,0,.6689.1035.8989.3086s.3452.4688.3452.793c0,.3281-.1152.5967-.3452.8066-.23.209-.5298.3145-.8989.3145ZM255.7076,34.143h-2.1602v-7h2.1602v7Z" fill="#2f2f2f"/>
        <path d="M261.6437,34.0609c-.3188.168-.7998.252-1.4424.252-1.522,0-2.2832-.79-2.2832-2.3711v-3.207h-1.1348v-1.5918h1.1348v-1.5117l2.1533-.6152v2.127h1.5723v1.5918h-1.5723v2.8301c0,.7295.2896,1.0938.8682,1.0938.228,0,.4624-.0654.7041-.1973v1.5996Z" fill="#2f2f2f"/>
        <path d="M269.8687,27.143l-2.8438,7.5605c-.6836,1.8184-1.7134,2.7266-3.0898,2.7266-.5239,0-.9546-.0586-1.292-.1777v-1.7227c.2871.1689.5991.2539.9365.2539.5562,0,.9434-.2627,1.1621-.7871l.3691-.8672-2.8438-6.9863h2.3926l1.3057,4.2578c.082.2646.146.5771.1914.9375h.0273c.041-.2646.1162-.5723.2256-.9238l1.3193-4.2715h2.1396Z" fill="#2f2f2f"/>
        <path d="M281.8658,34.143h-7.8955v-1.2715l5.0244-6.7344h-4.6621v-1.7969h7.5195v1.2363l-4.915,6.7754h4.9287v1.791Z" fill="#2f2f2f"/>
        <path d="M286.3844,34.3129c-1.1665,0-2.084-.3262-2.7515-.9805s-1.0015-1.541-1.0015-2.6621c0-1.1582.3462-2.0645,1.0391-2.7178s1.6294-.9814,2.8096-.9814c1.1621,0,2.0737.3281,2.7344.9814s.9912,1.5186.9912,2.5947c0,1.1621-.3408,2.0801-1.022,2.7539-.6812.6748-1.6143,1.0117-2.7993,1.0117ZM286.4391,28.6254c-.5103,0-.9067.1758-1.1895.5273-.2827.3506-.4238.8477-.4238,1.4902,0,1.3438.5425,2.0156,1.627,2.0156,1.0347,0,1.5518-.6895,1.5518-2.0703,0-1.3086-.522-1.9629-1.5654-1.9629Z" fill="#2f2f2f"/>
        <path d="M298.3468,34.143h-2.1533v-3.8906c0-1.084-.3872-1.627-1.1621-1.627-.3735,0-.6812.1445-.9229.4316s-.3623.6514-.3623,1.0938v3.9922h-2.1602v-7h2.1602v1.1074h.0273c.5151-.8525,1.2646-1.2793,2.249-1.2793,1.5493,0,2.3242.9619,2.3242,2.8848v4.2871Z" fill="#2f2f2f"/>
        <path d="M306.3687,31.2582h-4.5664c.0728,1.0156.7134,1.5234,1.9209,1.5234.77,0,1.4468-.1816,2.0303-.5469v1.5586c-.647.3467-1.4878.5195-2.5225.5195-1.1304,0-2.0073-.3125-2.6318-.9395s-.9365-1.5-.9365-2.6211c0-1.1621.3374-2.083,1.0117-2.7617.6743-.6797,1.5039-1.0195,2.4883-1.0195,1.021,0,1.8105.3037,2.3687.9102.5581.6055.8374,1.4277.8374,2.4668v.9102ZM304.3658,29.932c0-1.0029-.4058-1.5039-1.2168-1.5039-.3462,0-.646.1426-.8989.4297s-.4067.6455-.4614,1.0742h2.5771Z" fill="#2f2f2f"/>
        <path d="M316.2945,24.1215v10.0215h-2.1533v-7.5879c-.1187.1045-.2588.2031-.4204.2969s-.334.1777-.5161.2529-.3716.1396-.5674.1914-.3896.0898-.5811.1123v-1.8184c.5605-.1641,1.0894-.373,1.5859-.6289.4966-.2549.9458-.5352,1.3467-.8398h1.3057Z" fill="#2f2f2f"/>
      </g>
      <g>
        <rect x="8.7601" y="126.307" width="132" height="39.793" fill="none"/>
        <path d="M52.3985,138.2084h-2.208v-9.8027h2.208v9.8027Z" fill="#2f2f2f"/>
        <path d="M61.0987,138.2084h-2.1533v-3.8896c0-1.084-.3872-1.627-1.1621-1.627-.3735,0-.6812.1436-.9229.4307s-.3623.6523-.3623,1.0938v3.9922h-2.1602v-7h2.1602v1.1074h.0273c.5151-.8516,1.2646-1.2783,2.249-1.2783,1.5493,0,2.3242.9619,2.3242,2.8848v4.2861Z" fill="#2f2f2f"/>
        <path d="M66.9483,138.1264c-.3188.1689-.7998.2529-1.4424.2529-1.522,0-2.2832-.79-2.2832-2.3721v-3.2061h-1.1348v-1.5928h1.1348v-1.5107l2.1533-.6152v2.126h1.5723v1.5928h-1.5723v2.8301c0,.7295.2896,1.0938.8682,1.0938.228,0,.4624-.0654.7041-.1982v1.5996Z" fill="#2f2f2f"/>
        <path d="M74.4347,135.3236h-4.5664c.0728,1.0166.7134,1.5244,1.9209,1.5244.77,0,1.4468-.1816,2.0303-.5469v1.5586c-.647.3467-1.4878.5195-2.5225.5195-1.1304,0-2.0073-.3135-2.6318-.9395-.6245-.627-.9365-1.501-.9365-2.6221,0-1.1621.3374-2.082,1.0117-2.7617.6743-.6787,1.5039-1.0186,2.4883-1.0186,1.021,0,1.8105.3037,2.3687.9092.5581.6064.8374,1.4287.8374,2.4678v.9092ZM72.4317,133.9975c0-1.002-.4058-1.5039-1.2168-1.5039-.3462,0-.646.1436-.8989.4307s-.4067.6455-.4614,1.0732h2.5771Z" fill="#2f2f2f"/>
        <path d="M80.3658,133.1566c-.2598-.1406-.563-.2119-.9092-.2119-.4692,0-.8364.1719-1.1006.5166-.2642.3438-.3965.8125-.3965,1.4043v3.3428h-2.1602v-7h2.1602v1.2988h.0273c.3418-.9473.957-1.4219,1.8457-1.4219.228,0,.4058.0273.5332.082v1.9893Z" fill="#2f2f2f"/>
        <path d="M88.1178,138.2084h-2.1533v-3.8896c0-1.084-.3872-1.627-1.1621-1.627-.3735,0-.6812.1436-.9229.4307s-.3623.6523-.3623,1.0938v3.9922h-2.1602v-7h2.1602v1.1074h.0273c.5151-.8516,1.2646-1.2783,2.249-1.2783,1.5493,0,2.3242.9619,2.3242,2.8848v4.2861Z" fill="#2f2f2f"/>
        <path d="M95.6832,138.2084h-2.0439v-1.0049h-.0273c-.4692.7842-1.1646,1.1758-2.085,1.1758-.6792,0-1.2134-.1924-1.603-.5771-.3896-.3857-.5845-.8994-.5845-1.542,0-1.3574.8042-2.1416,2.4131-2.3516l1.9004-.2529c0-.7656-.4146-1.1484-1.2441-1.1484-.834,0-1.627.249-2.3789.7451v-1.627c.3008-.1543.7119-.291,1.2339-.4102.522-.1182.9971-.1777,1.4253-.1777,1.9961,0,2.9941.9961,2.9941,2.9873v4.1836ZM93.6529,135.3646v-.4717l-1.2715.1641c-.7017.0918-1.0527.4082-1.0527.9502,0,.2461.0854.4482.2563.6055s.4023.2354.6938.2354c.4058,0,.7358-.1396.9912-.4199s.3828-.6348.3828-1.0635Z" fill="#2f2f2f"/>
        <path d="M99.5411,138.2084h-2.1602v-10.3633h2.1602v10.3633Z" fill="#2f2f2f"/>
        <path d="M33.4498,155.0082h-2.1602v-10.3633h2.1602v10.3633Z" fill="#2f2f2f"/>
        <path d="M38.5929,155.1791c-1.1665,0-2.084-.3271-2.7515-.9805-.6675-.6543-1.0015-1.542-1.0015-2.6631,0-1.1572.3462-2.0635,1.0391-2.7168.6929-.6543,1.6294-.9814,2.8096-.9814,1.1621,0,2.0737.3271,2.7344.9814.6606.6533.9912,1.5186.9912,2.5938,0,1.1621-.3408,2.0811-1.022,2.7549-.6812.6748-1.6143,1.0117-2.7993,1.0117ZM38.6476,149.4916c-.5103,0-.9067.1758-1.1895.5264-.2827.3516-.4238.8477-.4238,1.4902,0,1.3447.5425,2.0166,1.627,2.0166,1.0347,0,1.5518-.6904,1.5518-2.0713,0-1.3076-.522-1.9619-1.5654-1.9619Z" fill="#2f2f2f"/>
        <path d="M49.6285,155.0082h-2.0439v-1.0049h-.0273c-.4692.7842-1.1646,1.1758-2.085,1.1758-.6792,0-1.2134-.1924-1.603-.5771-.3896-.3857-.5845-.8994-.5845-1.542,0-1.3574.8042-2.1416,2.4131-2.3516l1.9004-.2529c0-.7656-.4146-1.1484-1.2441-1.1484-.834,0-1.627.249-2.3789.7451v-1.627c.3008-.1543.7119-.291,1.2339-.4102.522-.1182.9971-.1777,1.4253-.1777,1.9961,0,2.9941.9961,2.9941,2.9873v4.1836ZM47.5982,152.1645v-.4717l-1.2715.1641c-.7017.0918-1.0527.4082-1.0527.9502,0,.2461.0854.4482.2563.6055s.4023.2354.6938.2354c.4058,0,.7358-.1396.9912-.4199s.3828-.6348.3828-1.0635Z" fill="#2f2f2f"/>
        <path d="M58.2096,155.0082h-2.1602v-.9639h-.0273c-.4922.7568-1.2144,1.1348-2.167,1.1348-.875,0-1.5791-.3086-2.1123-.9258-.5332-.6182-.7998-1.4805-.7998-2.5879,0-1.1572.2939-2.085.8818-2.7822s1.3579-1.0459,2.3105-1.0459c.9023,0,1.5312.3242,1.8867.9707h.0273v-4.1631h2.1602v10.3633ZM56.0904,151.6039v-.5264c0-.4551-.1323-.834-.3965-1.1348s-.6084-.4512-1.0322-.4512c-.4785,0-.8521.1885-1.1211.5645s-.4033.8916-.4033,1.5479c0,.6152.1299,1.0898.3896,1.4219.2598.333.6196.499,1.0801.499.4375,0,.7939-.1748,1.0698-.5264.2759-.3506.4136-.8154.4136-1.3945Z" fill="#2f2f2f"/>
        <path d="M66.0777,154.1947h-.0273v.8135h-2.1602v-10.3633h2.1602v4.416h.0273c.5332-.8154,1.292-1.2236,2.2764-1.2236.9023,0,1.5972.3105,2.085.9297.4878.6201.7314,1.4678.7314,2.543,0,1.167-.2847,2.1035-.8545,2.8096-.5698.707-1.3306,1.0596-2.2832,1.0596-.8613,0-1.5132-.3281-1.9551-.9844ZM66.0162,151.2416v.7178c0,.4512.1299.8252.3896,1.1211.2598.2969.5923.4443.998.4443.4922,0,.874-.1904,1.145-.5703.271-.3809.4067-.9199.4067-1.6172,0-.5781-.124-1.0312-.3726-1.3564-.2485-.3262-.6025-.4893-1.063-.4893-.4331,0-.792.1621-1.0767.4854-.2847.3242-.4272.7451-.4272,1.2646Z" fill="#2f2f2f"/>
        <path d="M78.4029,155.0082h-2.0439v-1.0049h-.0273c-.4692.7842-1.1646,1.1758-2.085,1.1758-.6792,0-1.2134-.1924-1.603-.5771-.3896-.3857-.5845-.8994-.5845-1.542,0-1.3574.8042-2.1416,2.4131-2.3516l1.9004-.2529c0-.7656-.4146-1.1484-1.2441-1.1484-.834,0-1.627.249-2.3789.7451v-1.627c.3008-.1543.7119-.291,1.2339-.4102.522-.1182.9971-.1777,1.4253-.1777,1.9961,0,2.9941.9961,2.9941,2.9873v4.1836ZM76.3727,152.1645v-.4717l-1.2715.1641c-.7017.0918-1.0527.4082-1.0527.9502,0,.2461.0854.4482.2563.6055s.4023.2354.6938.2354c.4058,0,.7358-.1396.9912-.4199s.3828-.6348.3828-1.0635Z" fill="#2f2f2f"/>
        <path d="M82.2608,155.0082h-2.1602v-10.3633h2.1602v10.3633Z" fill="#2f2f2f"/>
        <path d="M89.9259,155.0082h-2.0439v-1.0049h-.0273c-.4692.7842-1.1646,1.1758-2.085,1.1758-.6792,0-1.2134-.1924-1.603-.5771-.3896-.3857-.5845-.8994-.5845-1.542,0-1.3574.8042-2.1416,2.4131-2.3516l1.9004-.2529c0-.7656-.4146-1.1484-1.2441-1.1484-.834,0-1.627.249-2.3789.7451v-1.627c.3008-.1543.7119-.291,1.2339-.4102.522-.1182.9971-.1777,1.4253-.1777,1.9961,0,2.9941.9961,2.9941,2.9873v4.1836ZM87.8956,152.1645v-.4717l-1.2715.1641c-.7017.0918-1.0527.4082-1.0527.9502,0,.2461.0854.4482.2563.6055s.4023.2354.6938.2354c.4058,0,.7358-.1396.9912-.4199s.3828-.6348.3828-1.0635Z" fill="#2f2f2f"/>
        <path d="M98.3829,155.0082h-2.1533v-3.8896c0-1.084-.3872-1.627-1.1621-1.627-.3735,0-.6812.1436-.9229.4307s-.3623.6523-.3623,1.0938v3.9922h-2.1602v-7h2.1602v1.1074h.0273c.5151-.8516,1.2646-1.2783,2.249-1.2783,1.5493,0,2.3242.9619,2.3242,2.8848v4.2861Z" fill="#2f2f2f"/>
        <path d="M105.3966,154.7553c-.4878.2832-1.1919.4238-2.1123.4238-1.0757,0-1.9458-.3252-2.6113-.9775-.6655-.6514-.998-1.4922-.998-2.5225,0-1.1895.3564-2.127,1.0698-2.8125.7134-.6865,1.667-1.0293,2.8608-1.0293.8247,0,1.4219.1094,1.791.3281v1.832c-.4512-.3369-.9546-.5059-1.5107-.5059-.6196,0-1.1108.1816-1.4731.5439s-.5435.8623-.5435,1.5c0,.6201.1733,1.1064.5195,1.46.3462.3525.8228.5293,1.4287.5293.5376,0,1.064-.168,1.5791-.5059v1.7363Z" fill="#2f2f2f"/>
        <path d="M113.1119,152.1234h-4.5664c.0728,1.0166.7134,1.5244,1.9209,1.5244.77,0,1.4468-.1816,2.0303-.5469v1.5586c-.647.3467-1.4878.5195-2.5225.5195-1.1304,0-2.0073-.3135-2.6318-.9395-.6245-.627-.9365-1.501-.9365-2.6221,0-1.1621.3374-2.082,1.0117-2.7617.6743-.6787,1.5039-1.0186,2.4883-1.0186,1.021,0,1.8105.3037,2.3687.9092.5581.6064.8374,1.4287.8374,2.4678v.9092ZM111.109,150.7973c0-1.002-.4058-1.5039-1.2168-1.5039-.3462,0-.646.1436-.8989.4307s-.4067.6455-.4614,1.0732h2.5771Z" fill="#2f2f2f"/>
        <path d="M119.0436,149.9564c-.2598-.1406-.563-.2119-.9092-.2119-.4692,0-.8364.1719-1.1006.5166-.2642.3438-.3965.8125-.3965,1.4043v3.3428h-2.1602v-7h2.1602v1.2988h.0273c.3418-.9473.957-1.4219,1.8457-1.4219.228,0,.4058.0273.5332.082v1.9893Z" fill="#2f2f2f"/>
      </g>
      <g>
        <rect x="178.2571" y="233.2" width="65.7715" height="35.2" fill="none"/>
        <path d="M186.7301,245.102v-9.8027h2.7891c.8477,0,1.52.207,2.0166.6211.4966.415.7451.9551.7451,1.6211,0,.5557-.1504,1.0391-.4512,1.4492s-.7153.7012-1.2441.875v.0273c.6606.0771,1.1895.3262,1.5859.748s.5947.9697.5947,1.6445c0,.8379-.3008,1.5176-.9023,2.0371s-1.3604.7793-2.2764.7793h-2.8574ZM187.8785,236.3383v3.1641h1.1758c.6289,0,1.1235-.1504,1.4834-.4541s.54-.7305.54-1.2822c0-.9521-.6265-1.4277-1.8799-1.4277h-1.3193ZM187.8785,240.5355v3.5273h1.5586c.6743,0,1.1973-.1602,1.5688-.4785.3716-.3193.5571-.7568.5571-1.3125,0-1.1582-.7886-1.7363-2.3652-1.7363h-1.3193Z" fill="#2f2f2f"/>
        <path d="M199.5738,245.102h-1.1211v-1.0938h-.0273c-.4878.8379-1.2056,1.2578-2.1533,1.2578-.6973,0-1.2432-.1855-1.6372-.5547s-.5913-.8584-.5913-1.4688c0-1.3086.77-2.0693,2.3105-2.2832l2.0986-.2949c0-1.1895-.481-1.7832-1.4424-1.7832-.8433,0-1.604.2871-2.2832.8613v-1.1484c.688-.4375,1.481-.6562,2.3789-.6562,1.645,0,2.4678.8701,2.4678,2.6113v4.5527ZM198.4527,241.5609l-1.6885.2324c-.5195.0723-.9116.2012-1.1758.3857s-.3965.5117-.3965.9814c0,.3418.1221.6211.3657.8369s.5684.3252.9741.3252c.5562,0,1.0151-.1953,1.3774-.585s.5435-.8828.5435-1.4795v-.6973Z" fill="#2f2f2f"/>
        <path d="M206.4156,244.7797c-.5376.3242-1.1758.4863-1.9141.4863-.998,0-1.8037-.3252-2.4165-.9746s-.9194-1.4912-.9194-2.5254c0-1.1533.3306-2.0801.9912-2.7793s1.5425-1.0488,2.6455-1.0488c.6152,0,1.1577.1133,1.627.3418v1.1484c-.5195-.3652-1.0757-.5469-1.668-.5469-.7153,0-1.3022.2559-1.7603.7686s-.687,1.1865-.687,2.0205c0,.8203.2153,1.4668.646,1.9414.4307.4736,1.0083.7109,1.7329.7109.6108,0,1.1851-.2031,1.7227-.6094v1.0664Z" fill="#2f2f2f"/>
        <path d="M213.7145,245.102h-1.5723l-3.0898-3.3633h-.0273v3.3633h-1.1211v-10.3633h1.1211v6.5684h.0273l2.9395-3.2051h1.4697l-3.2471,3.377,3.5,3.623Z" fill="#2f2f2f"/>
        <path d="M220.1388,241.8813h-4.9424c.0181.7793.228,1.3809.6289,1.8047s.9526.6367,1.6543.6367c.7886,0,1.5132-.2598,2.1738-.7793v1.0527c-.6152.4463-1.4287.6699-2.4404.6699-.9888,0-1.7661-.3184-2.3311-.9541s-.8477-1.5303-.8477-2.6826c0-1.0898.3086-1.9766.9263-2.6631s1.3843-1.0283,2.3003-1.0283,1.6245.2959,2.126.8887c.5015.5918.752,1.4141.752,2.4668v.5879ZM218.9903,240.932c-.0044-.6475-.1606-1.1514-.4683-1.5117-.3076-.3594-.7349-.5391-1.2817-.5391-.5288,0-.9775.1885-1.3467.5664-.3691.3789-.5972.873-.6836,1.4844h3.7803Z" fill="#2f2f2f"/>
        <path d="M227.6319,245.102h-1.1211v-3.9922c0-1.4863-.5425-2.2285-1.627-2.2285-.5605,0-1.0244.2109-1.3911.6318s-.5503.9541-.5503,1.5967v3.9922h-1.1211v-7h1.1211v1.1621h.0273c.5288-.8848,1.2944-1.3262,2.2969-1.3262.7656,0,1.3511.2461,1.7568.7412s.6084,1.209.6084,2.1436v4.2793Z" fill="#2f2f2f"/>
        <path d="M235.7062,245.102h-1.1211v-1.1895h-.0273c-.5195.9023-1.3218,1.3535-2.4062,1.3535-.8794,0-1.5825-.3145-2.1089-.9404s-.7896-1.4795-.7896-2.5596c0-1.1582.2915-2.0859.875-2.7832s1.3604-1.0449,2.3311-1.0449c.9614,0,1.6611.3779,2.0986,1.1348h.0273v-4.334h1.1211v10.3633ZM234.5851,241.9359v-1.0312c0-.5654-.187-1.0439-.5605-1.4355-.3735-.3926-.8477-.5879-1.4219-.5879-.6836,0-1.2212.25-1.6133.752-.3921.501-.5879,1.1934-.5879,2.0781,0,.8066.188,1.4434.564,1.9102s.8809.7012,1.5142.7012c.6245,0,1.1313-.2266,1.521-.6777s.5845-1.0205.5845-1.709Z" fill="#2f2f2f"/>
        <path d="M187.5948,253.1234c-.2007,0-.3716-.0684-.5127-.2051s-.2119-.3096-.2119-.5195c0-.209.0708-.3828.2119-.5225s.312-.208.5127-.208c.2051,0,.3794.0684.5229.208s.2153.3135.2153.5225c0,.2012-.0718.3721-.2153.5137-.1436.1406-.3179.2109-.5229.2109ZM188.1417,261.9008h-1.1211v-7h1.1211v7Z" fill="#2f2f2f"/>
        <path d="M196.0704,261.9008h-1.1211v-3.9922c0-1.4854-.5425-2.2285-1.627-2.2285-.5605,0-1.0244.2109-1.3911.6328s-.5503.9531-.5503,1.5957v3.9922h-1.1211v-7h1.1211v1.1621h.0273c.5288-.8838,1.2944-1.3262,2.2969-1.3262.7656,0,1.3511.248,1.7568.7422s.6084,1.209.6084,2.1426v4.2793Z" fill="#2f2f2f"/>
        <path d="M197.7184,261.6488v-1.2031c.6108.4512,1.2827.6758,2.0166.6758.9844,0,1.4766-.3281,1.4766-.9844,0-.1865-.042-.3447-.1265-.4746s-.1982-.2451-.3418-.3457c-.1436-.0996-.312-.1895-.5059-.2695s-.4023-.1631-.6255-.25c-.3101-.123-.582-.2461-.8169-.3721s-.4307-.2666-.5879-.4238-.2759-.3359-.3555-.5361c-.0796-.2012-.1196-.4355-.1196-.7051,0-.3281.0752-.6182.2256-.8711s.3511-.4648.6016-.6357.5366-.2998.8579-.3857c.3213-.0869.6528-.1309.9946-.1309.606,0,1.1484.1055,1.627.3145v1.1348c-.5151-.3369-1.1074-.5059-1.7773-.5059-.2095,0-.3989.0244-.5674.0723s-.3135.1152-.4341.2012c-.1206.0869-.2144.1914-.2803.3115s-.0991.2539-.0991.3994c0,.1826.0332.3359.0991.459s.1631.2324.2905.3281.2827.1816.4648.2598c.1821.0771.3896.1611.6221.252.3101.1191.5879.2402.834.3662s.4556.2666.6289.4238.3066.3389.3999.5439.1401.4482.1401.7305c0,.3467-.0762.6475-.229.9023-.1528.2559-.3564.4678-.6118.6367-.2554.168-.5493.293-.8818.375s-.6812.123-1.0459.123c-.7202,0-1.3442-.1387-1.873-.416Z" fill="#2f2f2f"/>
        <path d="M207.3717,261.8324c-.2642.1465-.6128.2188-1.0459.2188-1.2261,0-1.8389-.6836-1.8389-2.0508v-4.1426h-1.2031v-.957h1.2031v-1.709l1.1211-.3613v2.0703h1.7637v.957h-1.7637v3.9453c0,.4688.0796.8037.2393,1.0039.1597.2012.4238.3008.793.3008.2827,0,.5264-.0771.7314-.2324v.957Z" fill="#2f2f2f"/>
        <path d="M213.9889,261.9008h-1.1211v-1.0938h-.0273c-.4878.8389-1.2056,1.2578-2.1533,1.2578-.6973,0-1.2432-.1836-1.6372-.5527s-.5913-.8594-.5913-1.4707c0-1.3076.77-2.0684,2.3105-2.2832l2.0986-.293c0-1.1895-.481-1.7852-1.4424-1.7852-.8433,0-1.604.2871-2.2832.8613v-1.1484c.688-.4375,1.481-.6562,2.3789-.6562,1.645,0,2.4678.8711,2.4678,2.6113v4.5527ZM212.8678,258.3598l-1.6885.2324c-.5195.0732-.9116.2021-1.1758.3867s-.3965.5117-.3965.9805c0,.3418.1221.6211.3657.8379s.5684.3242.9741.3242c.5562,0,1.0151-.1943,1.3774-.584s.5435-.8828.5435-1.4805v-.6973Z" fill="#2f2f2f"/>
        <path d="M221.8204,261.9008h-1.1211v-3.9922c0-1.4854-.5425-2.2285-1.627-2.2285-.5605,0-1.0244.2109-1.3911.6328s-.5503.9531-.5503,1.5957v3.9922h-1.1211v-7h1.1211v1.1621h.0273c.5288-.8838,1.2944-1.3262,2.2969-1.3262.7656,0,1.3511.248,1.7568.7422s.6084,1.209.6084,2.1426v4.2793Z" fill="#2f2f2f"/>
        <path d="M228.6695,261.5805c-.5376.3232-1.1758.4844-1.9141.4844-.998,0-1.8037-.3242-2.4165-.9736s-.9194-1.4912-.9194-2.5264c0-1.1523.3306-2.0781.9912-2.7783s1.5425-1.0498,2.6455-1.0498c.6152,0,1.1577.1143,1.627.3418v1.1484c-.5195-.3643-1.0757-.5469-1.668-.5469-.7153,0-1.3022.2568-1.7603.7695s-.687,1.1855-.687,2.0195c0,.8203.2153,1.4678.646,1.9414.4307.4746,1.0083.7109,1.7329.7109.6108,0,1.1851-.2021,1.7227-.6074v1.0664Z" fill="#2f2f2f"/>
        <path d="M235.8395,258.682h-4.9424c.0181.7793.228,1.3809.6289,1.8047s.9526.6348,1.6543.6348c.7886,0,1.5132-.2598,2.1738-.7793v1.0527c-.6152.4473-1.4287.6699-2.4404.6699-.9888,0-1.7661-.3174-2.3311-.9531s-.8477-1.5303-.8477-2.6836c0-1.0889.3086-1.9766.9263-2.6621s1.3843-1.0293,2.3003-1.0293,1.6245.2969,2.126.8887c.5015.5928.752,1.416.752,2.4688v.5879ZM234.691,257.7309c-.0044-.6465-.1606-1.1504-.4683-1.5098-.3076-.3604-.7349-.541-1.2817-.541-.5288,0-.9775.1895-1.3467.5684-.3691.3779-.5972.8721-.6836,1.4824h3.7803Z" fill="#2f2f2f"/>
      </g>
      <g>
        <rect x="270.5429" y="233.2" width="65.7715" height="35.2" fill="none"/>
        <path d="M279.0157,245.102v-9.8027h2.7891c.8477,0,1.52.207,2.0166.6211.4966.415.7451.9551.7451,1.6211,0,.5557-.1504,1.0391-.4512,1.4492s-.7153.7012-1.2441.875v.0273c.6606.0771,1.1895.3262,1.5859.748s.5947.9697.5947,1.6445c0,.8379-.3008,1.5176-.9023,2.0371s-1.3604.7793-2.2764.7793h-2.8574ZM280.1642,236.3383v3.1641h1.1758c.6289,0,1.1235-.1504,1.4834-.4541s.54-.7305.54-1.2822c0-.9521-.6265-1.4277-1.8799-1.4277h-1.3193ZM280.1642,240.5355v3.5273h1.5586c.6743,0,1.1973-.1602,1.5688-.4785.3716-.3193.5571-.7568.5571-1.3125,0-1.1582-.7886-1.7363-2.3652-1.7363h-1.3193Z" fill="#2f2f2f"/>
        <path d="M291.8595,245.102h-1.1211v-1.0938h-.0273c-.4878.8379-1.2056,1.2578-2.1533,1.2578-.6973,0-1.2432-.1855-1.6372-.5547s-.5913-.8584-.5913-1.4688c0-1.3086.77-2.0693,2.3105-2.2832l2.0986-.2949c0-1.1895-.481-1.7832-1.4424-1.7832-.8433,0-1.604.2871-2.2832.8613v-1.1484c.688-.4375,1.481-.6562,2.3789-.6562,1.645,0,2.4678.8701,2.4678,2.6113v4.5527ZM290.7384,241.5609l-1.6885.2324c-.5195.0723-.9116.2012-1.1758.3857s-.3965.5117-.3965.9814c0,.3418.1221.6211.3657.8369s.5684.3252.9741.3252c.5562,0,1.0151-.1953,1.3774-.585s.5435-.8828.5435-1.4795v-.6973Z" fill="#2f2f2f"/>
        <path d="M298.7013,244.7797c-.5376.3242-1.1758.4863-1.9141.4863-.998,0-1.8037-.3252-2.4165-.9746s-.9194-1.4912-.9194-2.5254c0-1.1533.3306-2.0801.9912-2.7793s1.5425-1.0488,2.6455-1.0488c.6152,0,1.1577.1133,1.627.3418v1.1484c-.5195-.3652-1.0757-.5469-1.668-.5469-.7153,0-1.3022.2559-1.7603.7686s-.687,1.1865-.687,2.0205c0,.8203.2153,1.4668.646,1.9414.4307.4736,1.0083.7109,1.7329.7109.6108,0,1.1851-.2031,1.7227-.6094v1.0664Z" fill="#2f2f2f"/>
        <path d="M306.0001,245.102h-1.5723l-3.0898-3.3633h-.0273v3.3633h-1.1211v-10.3633h1.1211v6.5684h.0273l2.9395-3.2051h1.4697l-3.2471,3.377,3.5,3.623Z" fill="#2f2f2f"/>
        <path d="M312.4244,241.8813h-4.9424c.0181.7793.228,1.3809.6289,1.8047s.9526.6367,1.6543.6367c.7886,0,1.5132-.2598,2.1738-.7793v1.0527c-.6152.4463-1.4287.6699-2.4404.6699-.9888,0-1.7661-.3184-2.3311-.9541s-.8477-1.5303-.8477-2.6826c0-1.0898.3086-1.9766.9263-2.6631s1.3843-1.0283,2.3003-1.0283,1.6245.2959,2.126.8887c.5015.5918.752,1.4141.752,2.4668v.5879ZM311.276,240.932c-.0044-.6475-.1606-1.1514-.4683-1.5117-.3076-.3594-.7349-.5391-1.2817-.5391-.5288,0-.9775.1885-1.3467.5664-.3691.3789-.5972.873-.6836,1.4844h3.7803Z" fill="#2f2f2f"/>
        <path d="M319.9176,245.102h-1.1211v-3.9922c0-1.4863-.5425-2.2285-1.627-2.2285-.5605,0-1.0244.2109-1.3911.6318s-.5503.9541-.5503,1.5967v3.9922h-1.1211v-7h1.1211v1.1621h.0273c.5288-.8848,1.2944-1.3262,2.2969-1.3262.7656,0,1.3511.2461,1.7568.7412s.6084,1.209.6084,2.1436v4.2793Z" fill="#2f2f2f"/>
        <path d="M327.9918,245.102h-1.1211v-1.1895h-.0273c-.5195.9023-1.3218,1.3535-2.4062,1.3535-.8794,0-1.5825-.3145-2.1089-.9404s-.7896-1.4795-.7896-2.5596c0-1.1582.2915-2.0859.875-2.7832s1.3604-1.0449,2.3311-1.0449c.9614,0,1.6611.3779,2.0986,1.1348h.0273v-4.334h1.1211v10.3633ZM326.8707,241.9359v-1.0312c0-.5654-.187-1.0439-.5605-1.4355-.3735-.3926-.8477-.5879-1.4219-.5879-.6836,0-1.2212.25-1.6133.752-.3921.501-.5879,1.1934-.5879,2.0781,0,.8066.188,1.4434.564,1.9102s.8809.7012,1.5142.7012c.6245,0,1.1313-.2266,1.521-.6777s.5845-1.0205.5845-1.709Z" fill="#2f2f2f"/>
        <path d="M279.8805,253.1234c-.2007,0-.3716-.0684-.5127-.2051s-.2119-.3096-.2119-.5195c0-.209.0708-.3828.2119-.5225s.312-.208.5127-.208c.2051,0,.3794.0684.5229.208s.2153.3135.2153.5225c0,.2012-.0718.3721-.2153.5137-.1436.1406-.3179.2109-.5229.2109ZM280.4273,261.9008h-1.1211v-7h1.1211v7Z" fill="#2f2f2f"/>
        <path d="M288.3561,261.9008h-1.1211v-3.9922c0-1.4854-.5425-2.2285-1.627-2.2285-.5605,0-1.0244.2109-1.3911.6328s-.5503.9531-.5503,1.5957v3.9922h-1.1211v-7h1.1211v1.1621h.0273c.5288-.8838,1.2944-1.3262,2.2969-1.3262.7656,0,1.3511.248,1.7568.7422s.6084,1.209.6084,2.1426v4.2793Z" fill="#2f2f2f"/>
        <path d="M290.004,261.6488v-1.2031c.6108.4512,1.2827.6758,2.0166.6758.9844,0,1.4766-.3281,1.4766-.9844,0-.1865-.042-.3447-.1265-.4746s-.1982-.2451-.3418-.3457c-.1436-.0996-.312-.1895-.5059-.2695s-.4023-.1631-.6255-.25c-.3101-.123-.582-.2461-.8169-.3721s-.4307-.2666-.5879-.4238-.2759-.3359-.3555-.5361c-.0796-.2012-.1196-.4355-.1196-.7051,0-.3281.0752-.6182.2256-.8711s.3511-.4648.6016-.6357.5366-.2998.8579-.3857c.3213-.0869.6528-.1309.9946-.1309.606,0,1.1484.1055,1.627.3145v1.1348c-.5151-.3369-1.1074-.5059-1.7773-.5059-.2095,0-.3989.0244-.5674.0723s-.3135.1152-.4341.2012c-.1206.0869-.2144.1914-.2803.3115s-.0991.2539-.0991.3994c0,.1826.0332.3359.0991.459s.1631.2324.2905.3281.2827.1816.4648.2598c.1821.0771.3896.1611.6221.252.3101.1191.5879.2402.834.3662s.4556.2666.6289.4238.3066.3389.3999.5439.1401.4482.1401.7305c0,.3467-.0762.6475-.229.9023-.1528.2559-.3564.4678-.6118.6367-.2554.168-.5493.293-.8818.375s-.6812.123-1.0459.123c-.7202,0-1.3442-.1387-1.873-.416Z" fill="#2f2f2f"/>
        <path d="M299.6573,261.8324c-.2642.1465-.6128.2188-1.0459.2188-1.2261,0-1.8389-.6836-1.8389-2.0508v-4.1426h-1.2031v-.957h1.2031v-1.709l1.1211-.3613v2.0703h1.7637v.957h-1.7637v3.9453c0,.4688.0796.8037.2393,1.0039.1597.2012.4238.3008.793.3008.2827,0,.5264-.0771.7314-.2324v.957Z" fill="#2f2f2f"/>
        <path d="M306.2745,261.9008h-1.1211v-1.0938h-.0273c-.4878.8389-1.2056,1.2578-2.1533,1.2578-.6973,0-1.2432-.1836-1.6372-.5527s-.5913-.8594-.5913-1.4707c0-1.3076.77-2.0684,2.3105-2.2832l2.0986-.293c0-1.1895-.481-1.7852-1.4424-1.7852-.8433,0-1.604.2871-2.2832.8613v-1.1484c.688-.4375,1.481-.6562,2.3789-.6562,1.645,0,2.4678.8711,2.4678,2.6113v4.5527ZM305.1534,258.3598l-1.6885.2324c-.5195.0732-.9116.2021-1.1758.3867s-.3965.5117-.3965.9805c0,.3418.1221.6211.3657.8379s.5684.3242.9741.3242c.5562,0,1.0151-.1943,1.3774-.584s.5435-.8828.5435-1.4805v-.6973Z" fill="#2f2f2f"/>
        <path d="M314.1061,261.9008h-1.1211v-3.9922c0-1.4854-.5425-2.2285-1.627-2.2285-.5605,0-1.0244.2109-1.3911.6328s-.5503.9531-.5503,1.5957v3.9922h-1.1211v-7h1.1211v1.1621h.0273c.5288-.8838,1.2944-1.3262,2.2969-1.3262.7656,0,1.3511.248,1.7568.7422s.6084,1.209.6084,2.1426v4.2793Z" fill="#2f2f2f"/>
        <path d="M320.9552,261.5805c-.5376.3232-1.1758.4844-1.9141.4844-.998,0-1.8037-.3242-2.4165-.9736s-.9194-1.4912-.9194-2.5264c0-1.1523.3306-2.0781.9912-2.7783s1.5425-1.0498,2.6455-1.0498c.6152,0,1.1577.1143,1.627.3418v1.1484c-.5195-.3643-1.0757-.5469-1.668-.5469-.7153,0-1.3022.2568-1.7603.7695s-.687,1.1855-.687,2.0195c0,.8203.2153,1.4678.646,1.9414.4307.4746,1.0083.7109,1.7329.7109.6108,0,1.1851-.2021,1.7227-.6074v1.0664Z" fill="#2f2f2f"/>
        <path d="M328.1251,258.682h-4.9424c.0181.7793.228,1.3809.6289,1.8047s.9526.6348,1.6543.6348c.7886,0,1.5132-.2598,2.1738-.7793v1.0527c-.6152.4473-1.4287.6699-2.4404.6699-.9888,0-1.7661-.3174-2.3311-.9531s-.8477-1.5303-.8477-2.6836c0-1.0889.3086-1.9766.9263-2.6621s1.3843-1.0293,2.3003-1.0293,1.6245.2969,2.126.8887c.5015.5928.752,1.416.752,2.4688v.5879ZM326.9767,257.7309c-.0044-.6465-.1606-1.1504-.4683-1.5098-.3076-.3604-.7349-.541-1.2817-.541-.5288,0-.9775.1895-1.3467.5684-.3691.3779-.5972.8721-.6836,1.4824h3.7803Z" fill="#2f2f2f"/>
      </g>
      <g>
        <rect x="175.3155" y="123.2" width="164.1292" height="20.38" fill="none"/>
        <path d="M203.7066,135.102h-5.0859v-9.8027h1.1484v8.7637h3.9375v1.0391Z" fill="#2f2f2f"/>
        <path d="M207.8922,135.266c-1.0347,0-1.8604-.3281-2.478-.9814s-.9263-1.5205-.9263-2.6006c0-1.1758.3213-2.0947.9639-2.7559.6426-.6602,1.5107-.9902,2.6045-.9902,1.0435,0,1.8584.3203,2.4438.9629s.8784,1.5342.8784,2.6738c0,1.1162-.3154,2.0098-.9468,2.6826s-1.4775,1.0088-2.5396,1.0088ZM207.9742,128.8813c-.7202,0-1.2896.2441-1.709.7344s-.6289,1.166-.6289,2.0273c0,.8291.2119,1.4824.6357,1.9609s.9912.7188,1.7021.7188c.7246,0,1.2817-.2354,1.6714-.7051.3896-.4688.5845-1.1367.5845-2.002,0-.875-.1948-1.5498-.5845-2.0234-.3896-.4746-.9468-.7109-1.6714-.7109Z" fill="#2f2f2f"/>
        <path d="M218.1271,135.102h-1.1211v-1.0938h-.0273c-.4878.8379-1.2056,1.2578-2.1533,1.2578-.6973,0-1.2432-.1855-1.6372-.5547s-.5913-.8584-.5913-1.4688c0-1.3086.77-2.0693,2.3105-2.2832l2.0986-.2949c0-1.1895-.481-1.7832-1.4424-1.7832-.8433,0-1.604.2871-2.2832.8613v-1.1484c.688-.4375,1.481-.6562,2.3789-.6562,1.645,0,2.4678.8701,2.4678,2.6113v4.5527ZM217.006,131.5609l-1.6885.2324c-.5195.0723-.9116.2012-1.1758.3857s-.3965.5117-.3965.9814c0,.3418.1221.6211.3657.8369s.5684.3252.9741.3252c.5562,0,1.0151-.1953,1.3774-.585s.5435-.8828.5435-1.4795v-.6973Z" fill="#2f2f2f"/>
        <path d="M226.1959,135.102h-1.1211v-1.1895h-.0273c-.5195.9023-1.3218,1.3535-2.4062,1.3535-.8794,0-1.5825-.3145-2.1089-.9404s-.7896-1.4795-.7896-2.5596c0-1.1582.2915-2.0859.875-2.7832s1.3604-1.0449,2.3311-1.0449c.9614,0,1.6611.3779,2.0986,1.1348h.0273v-4.334h1.1211v10.3633ZM225.0748,131.9359v-1.0312c0-.5654-.187-1.0439-.5605-1.4355-.3735-.3926-.8477-.5879-1.4219-.5879-.6836,0-1.2212.25-1.6133.752-.3921.501-.5879,1.1934-.5879,2.0781,0,.8066.188,1.4434.564,1.9102s.8809.7012,1.5142.7012c.6245,0,1.1313-.2266,1.521-.6777s.5845-1.0205.5845-1.709Z" fill="#2f2f2f"/>
        <path d="M233.4488,134.0902h-.0273v1.0117h-1.1211v-10.3633h1.1211v4.5938h.0273c.5513-.9297,1.3579-1.3945,2.4199-1.3945.8979,0,1.6006.3125,2.1089.9395s.7622,1.4668.7622,2.5195c0,1.1709-.2847,2.1084-.8545,2.8125s-1.3491,1.0566-2.3379,1.0566c-.9253,0-1.6245-.3926-2.0986-1.1758ZM233.4215,131.266v.9785c0,.5781.188,1.0693.564,1.4727s.8535.6055,1.4321.6055c.6792,0,1.2109-.2598,1.5962-.7793s.5776-1.2422.5776-2.168c0-.7793-.1802-1.3896-.54-1.832-.3599-.4414-.8477-.6621-1.4629-.6621-.6519,0-1.1758.2266-1.5723.6797s-.5947,1.0215-.5947,1.7051Z" fill="#2f2f2f"/>
        <path d="M245.4757,135.102h-1.1211v-1.0938h-.0273c-.4878.8379-1.2056,1.2578-2.1533,1.2578-.6973,0-1.2432-.1855-1.6372-.5547s-.5913-.8584-.5913-1.4688c0-1.3086.77-2.0693,2.3105-2.2832l2.0986-.2949c0-1.1895-.481-1.7832-1.4424-1.7832-.8433,0-1.604.2871-2.2832.8613v-1.1484c.688-.4375,1.481-.6562,2.3789-.6562,1.645,0,2.4678.8701,2.4678,2.6113v4.5527ZM244.3546,131.5609l-1.6885.2324c-.5195.0723-.9116.2012-1.1758.3857s-.3965.5117-.3965.9814c0,.3418.1221.6211.3657.8369s.5684.3252.9741.3252c.5562,0,1.0151-.1953,1.3774-.585s.5435-.8828.5435-1.4795v-.6973Z" fill="#2f2f2f"/>
        <path d="M248.6168,135.102h-1.1211v-10.3633h1.1211v10.3633Z" fill="#2f2f2f"/>
        <path d="M255.7711,135.102h-1.1211v-1.0938h-.0273c-.4878.8379-1.2056,1.2578-2.1533,1.2578-.6973,0-1.2432-.1855-1.6372-.5547s-.5913-.8584-.5913-1.4688c0-1.3086.77-2.0693,2.3105-2.2832l2.0986-.2949c0-1.1895-.481-1.7832-1.4424-1.7832-.8433,0-1.604.2871-2.2832.8613v-1.1484c.688-.4375,1.481-.6562,2.3789-.6562,1.645,0,2.4678.8701,2.4678,2.6113v4.5527ZM254.65,131.5609l-1.6885.2324c-.5195.0723-.9116.2012-1.1758.3857s-.3965.5117-.3965.9814c0,.3418.1221.6211.3657.8369s.5684.3252.9741.3252c.5562,0,1.0151-.1953,1.3774-.585s.5435-.8828.5435-1.4795v-.6973Z" fill="#2f2f2f"/>
        <path d="M263.6026,135.102h-1.1211v-3.9922c0-1.4863-.5425-2.2285-1.627-2.2285-.5605,0-1.0244.2109-1.3911.6318s-.5503.9541-.5503,1.5967v3.9922h-1.1211v-7h1.1211v1.1621h.0273c.5288-.8848,1.2944-1.3262,2.2969-1.3262.7656,0,1.3511.2461,1.7568.7412s.6084,1.209.6084,2.1436v4.2793Z" fill="#2f2f2f"/>
        <path d="M270.4518,134.7797c-.5376.3242-1.1758.4863-1.9141.4863-.998,0-1.8037-.3252-2.4165-.9746s-.9194-1.4912-.9194-2.5254c0-1.1533.3306-2.0801.9912-2.7793s1.5425-1.0488,2.6455-1.0488c.6152,0,1.1577.1133,1.627.3418v1.1484c-.5195-.3652-1.0757-.5469-1.668-.5469-.7153,0-1.3022.2559-1.7603.7686s-.687,1.1865-.687,2.0205c0,.8203.2153,1.4668.646,1.9414.4307.4736,1.0083.7109,1.7329.7109.6108,0,1.1851-.2031,1.7227-.6094v1.0664Z" fill="#2f2f2f"/>
        <path d="M272.5138,126.3246c-.2007,0-.3716-.0684-.5127-.2051s-.2119-.3105-.2119-.5195c0-.21.0708-.3848.2119-.5234s.312-.209.5127-.209c.2051,0,.3794.0703.5229.209s.2153.3135.2153.5234c0,.2002-.0718.3711-.2153.5117-.1436.1416-.3179.2129-.5229.2129ZM273.0606,135.102h-1.1211v-7h1.1211v7Z" fill="#2f2f2f"/>
        <path d="M280.9898,135.102h-1.1211v-3.9922c0-1.4863-.5425-2.2285-1.627-2.2285-.5605,0-1.0244.2109-1.3911.6318s-.5503.9541-.5503,1.5967v3.9922h-1.1211v-7h1.1211v1.1621h.0273c.5288-.8848,1.2944-1.3262,2.2969-1.3262.7656,0,1.3511.2461,1.7568.7412s.6084,1.209.6084,2.1436v4.2793Z" fill="#2f2f2f"/>
        <path d="M289.0641,134.5414c0,2.5703-1.2305,3.8555-3.6914,3.8555-.8657,0-1.6226-.1641-2.2695-.4922v-1.1211c.7886.4375,1.5405.6562,2.2559.6562,1.7227,0,2.584-.916,2.584-2.748v-.7656h-.0273c-.5332.8926-1.3354,1.3398-2.4062,1.3398-.8706,0-1.5713-.3115-2.1021-.9336s-.7964-1.457-.7964-2.5059c0-1.1895.2861-2.1348.8579-2.8359.5718-.7021,1.3545-1.0527,2.3481-1.0527.9434,0,1.6431.3779,2.0986,1.1348h.0273v-.9707h1.1211v6.4395ZM287.943,131.9359v-1.0312c0-.5566-.188-1.0332-.564-1.4297s-.8442-.5938-1.4048-.5938c-.6929,0-1.2349.252-1.627.7549s-.5879,1.209-.5879,2.1162c0,.7793.188,1.4023.564,1.8691s.874.7012,1.4937.7012c.6289,0,1.1406-.2236,1.5347-.6699.394-.4473.5913-1.0195.5913-1.7168Z" fill="#2f2f2f"/>
        <path d="M298.8189,129.2367c-.1958-.1504-.4785-.2266-.8477-.2266-.4785,0-.8784.2266-1.1997.6777s-.4819,1.0664-.4819,1.8457v3.5684h-1.1211v-7h1.1211v1.4414h.0273c.1597-.4922.4033-.875.7314-1.1514s.6948-.4131,1.1006-.4131c.2915,0,.5151.0312.6699.0957v1.1621Z" fill="#2f2f2f"/>
        <path d="M305.7994,135.102h-1.1211v-1.1074h-.0273c-.4648.8477-1.1851,1.2715-2.1602,1.2715-1.668,0-2.502-.9941-2.502-2.9805v-4.1836h1.1143v4.0059c0,1.4766.5649,2.2148,1.6953,2.2148.5469,0,.9971-.2021,1.3501-.6055s.5298-.9307.5298-1.582v-4.0332h1.1211v7Z" fill="#2f2f2f"/>
        <path d="M309.0265,135.102h-1.1211v-10.3633h1.1211v10.3633Z" fill="#2f2f2f"/>
        <path d="M316.8644,131.8813h-4.9424c.0181.7793.228,1.3809.6289,1.8047s.9526.6367,1.6543.6367c.7886,0,1.5132-.2598,2.1738-.7793v1.0527c-.6152.4463-1.4287.6699-2.4404.6699-.9888,0-1.7661-.3184-2.3311-.9541s-.8477-1.5303-.8477-2.6826c0-1.0898.3086-1.9766.9263-2.6631s1.3843-1.0283,2.3003-1.0283,1.6245.2959,2.126.8887c.5015.5918.752,1.4141.752,2.4668v.5879ZM315.7159,130.932c-.0044-.6475-.1606-1.1514-.4683-1.5117-.3076-.3594-.7349-.5391-1.2817-.5391-.5288,0-.9775.1885-1.3467.5664-.3691.3789-.5972.873-.6836,1.4844h3.7803Z" fill="#2f2f2f"/>
      </g>
      <g>
        <rect x="153.9801" y="73.8" width="206.8" height="20.38" fill="none"/>
        <path d="M168.9767,76.1723l-5.7422,8.4902h5.6055v1.0391h-7.3213v-.3213l5.6943-8.4424h-5.2363v-1.0391h7v.2734Z" fill="#2f2f2f"/>
        <path d="M173.1334,85.8656c-1.0347,0-1.8604-.3271-2.478-.9814-.6177-.6533-.9263-1.5205-.9263-2.6006,0-1.1758.3213-2.0947.9639-2.7549.6426-.6611,1.5107-.9912,2.6045-.9912,1.0435,0,1.8584.3213,2.4438.9639s.8784,1.5332.8784,2.6729c0,1.1162-.3154,2.0107-.9468,2.6826-.6313.6729-1.4775,1.0088-2.5396,1.0088ZM173.2154,79.4809c-.7202,0-1.2896.2451-1.709.7344-.4194.4902-.6289,1.166-.6289,2.0273,0,.8291.2119,1.4834.6357,1.9619s.9912.7178,1.7021.7178c.7246,0,1.2817-.2354,1.6714-.7041.3896-.4697.5845-1.1377.5845-2.0029,0-.875-.1948-1.5498-.5845-2.0234-.3896-.4746-.9468-.7109-1.6714-.7109Z" fill="#2f2f2f"/>
        <path d="M184.1461,85.7016h-1.1211v-3.9922c0-1.4863-.5425-2.2285-1.627-2.2285-.5605,0-1.0244.2109-1.3911.6318-.3667.4219-.5503.9541-.5503,1.5967v3.9922h-1.1211v-7h1.1211v1.1621h.0273c.5288-.8848,1.2944-1.3262,2.2969-1.3262.7656,0,1.3511.2471,1.7568.7412.4058.4951.6084,1.209.6084,2.1436v4.2793Z" fill="#2f2f2f"/>
        <path d="M191.1764,85.7016h-1.1211v-1.0938h-.0273c-.4878.8379-1.2056,1.2578-2.1533,1.2578-.6973,0-1.2432-.1846-1.6372-.5537s-.5913-.8594-.5913-1.4697c0-1.3086.77-2.0693,2.3105-2.2832l2.0986-.2939c0-1.1895-.481-1.7842-1.4424-1.7842-.8433,0-1.604.2871-2.2832.8613v-1.1484c.688-.4375,1.481-.6562,2.3789-.6562,1.645,0,2.4678.8701,2.4678,2.6113v4.5527ZM190.0553,82.1605l-1.6885.2324c-.5195.0723-.9116.2012-1.1758.3857s-.3965.5117-.3965.9814c0,.3418.1221.6211.3657.8369.2437.2168.5684.3252.9741.3252.5562,0,1.0151-.1953,1.3774-.585s.5435-.8828.5435-1.4795v-.6973Z" fill="#2f2f2f"/>
        <path d="M194.3175,85.7016h-1.1211v-10.3633h1.1211v10.3633Z" fill="#2f2f2f"/>
        <path d="M203.881,76.3227c-.2188-.123-.4673-.1846-.7451-.1846-.7837,0-1.1758.4941-1.1758,1.4834v1.0801h1.6406v.957h-1.6406v6.043h-1.1143v-6.043h-1.1963v-.957h1.1963v-1.1348c0-.7344.2119-1.3135.6357-1.7402.4238-.4258.9526-.6387,1.5859-.6387.3418,0,.6128.041.8135.123v1.0117Z" fill="#2f2f2f"/>
        <path d="M208.4923,79.8363c-.1958-.1504-.4785-.2256-.8477-.2256-.4785,0-.8784.2256-1.1997.6768s-.4819,1.0664-.4819,1.8457v3.5684h-1.1211v-7h1.1211v1.4424h.0273c.1597-.4922.4033-.876.7314-1.1523.3281-.2754.6948-.4131,1.1006-.4131.2915,0,.5151.0312.6699.0957v1.1621Z" fill="#2f2f2f"/>
        <path d="M212.6349,85.8656c-1.0347,0-1.8604-.3271-2.478-.9814-.6177-.6533-.9263-1.5205-.9263-2.6006,0-1.1758.3213-2.0947.9639-2.7549.6426-.6611,1.5107-.9912,2.6045-.9912,1.0435,0,1.8584.3213,2.4438.9639s.8784,1.5332.8784,2.6729c0,1.1162-.3154,2.0107-.9468,2.6826-.6313.6729-1.4775,1.0088-2.5396,1.0088ZM212.7169,79.4809c-.7202,0-1.2896.2451-1.709.7344-.4194.4902-.6289,1.166-.6289,2.0273,0,.8291.2119,1.4834.6357,1.9619s.9912.7178,1.7021.7178c.7246,0,1.2817-.2354,1.6714-.7041.3896-.4697.5845-1.1377.5845-2.0029,0-.875-.1948-1.5498-.5845-2.0234-.3896-.4746-.9468-.7109-1.6714-.7109Z" fill="#2f2f2f"/>
        <path d="M223.6471,85.7016h-1.1211v-3.9922c0-1.4863-.5425-2.2285-1.627-2.2285-.5605,0-1.0244.2109-1.3911.6318-.3667.4219-.5503.9541-.5503,1.5967v3.9922h-1.1211v-7h1.1211v1.1621h.0273c.5288-.8848,1.2944-1.3262,2.2969-1.3262.7656,0,1.3511.2471,1.7568.7412.4058.4951.6084,1.209.6084,2.1436v4.2793Z" fill="#2f2f2f"/>
        <path d="M228.8761,85.6332c-.2642.1455-.6128.2188-1.0459.2188-1.2261,0-1.8389-.6836-1.8389-2.0508v-4.1426h-1.2031v-.957h1.2031v-1.709l1.1211-.3623v2.0713h1.7637v.957h-1.7637v3.9443c0,.4688.0796.8037.2393,1.0049.1597.2002.4238.3008.793.3008.2827,0,.5264-.0781.7314-.2324v.957Z" fill="#2f2f2f"/>
        <path d="M235.8687,82.4818h-4.9424c.0181.7793.228,1.3809.6289,1.8047s.9526.6357,1.6543.6357c.7886,0,1.5132-.2598,2.1738-.7793v1.0527c-.6152.4463-1.4287.6699-2.4404.6699-.9888,0-1.7661-.3184-2.3311-.9541s-.8477-1.5303-.8477-2.6826c0-1.0898.3086-1.9766.9263-2.6631.6177-.6855,1.3843-1.0283,2.3003-1.0283s1.6245.2959,2.126.8887c.5015.5918.752,1.415.752,2.4678v.5879ZM234.7203,81.5316c-.0044-.6475-.1606-1.1514-.4683-1.5107-.3076-.3604-.7349-.54-1.2817-.54-.5288,0-.9775.1885-1.3467.5674-.3691.3779-.5972.8721-.6836,1.4834h3.7803Z" fill="#2f2f2f"/>
        <path d="M243.3624,85.7016h-1.1211v-3.9922c0-1.4863-.5425-2.2285-1.627-2.2285-.5605,0-1.0244.2109-1.3911.6318-.3667.4219-.5503.9541-.5503,1.5967v3.9922h-1.1211v-7h1.1211v1.1621h.0273c.5288-.8848,1.2944-1.3262,2.2969-1.3262.7656,0,1.3511.2471,1.7568.7412.4058.4951.6084,1.209.6084,2.1436v4.2793Z" fill="#2f2f2f"/>
        <path d="M251.4366,85.7016h-1.1211v-1.1895h-.0273c-.5195.9023-1.3218,1.3535-2.4062,1.3535-.8794,0-1.5825-.3135-2.1089-.9404-.5264-.626-.7896-1.4795-.7896-2.5596,0-1.1582.2915-2.085.875-2.7822s1.3604-1.0459,2.3311-1.0459c.9614,0,1.6611.3779,2.0986,1.1348h.0273v-4.334h1.1211v10.3633ZM250.3155,82.5365v-1.0322c0-.5654-.187-1.0439-.5605-1.4355-.3735-.3926-.8477-.5879-1.4219-.5879-.6836,0-1.2212.25-1.6133.752-.3921.501-.5879,1.1934-.5879,2.0781,0,.8066.188,1.4434.564,1.9102.376.4678.8809.7012,1.5142.7012.6245,0,1.1313-.2256,1.521-.6768s.5845-1.0215.5845-1.709Z" fill="#2f2f2f"/>
        <path d="M258.8399,85.7016h-1.1484v-9.8027h1.1484v9.8027Z" fill="#2f2f2f"/>
        <path d="M262.4103,81.9965v3.7051h-1.1484v-9.8027h2.6934c1.0483,0,1.8604.2549,2.437.7656.5767.5098.8647,1.2305.8647,2.1602s-.3203,1.6904-.9604,2.2832c-.6401.5918-1.5049.8887-2.5942.8887h-1.292ZM262.4103,76.9379v4.0195h1.2031c.793,0,1.3979-.1816,1.8149-.5439s.6255-.874.6255-1.5342c0-1.2949-.7656-1.9414-2.2969-1.9414h-1.3467Z" fill="#2f2f2f"/>
        <path d="M277.5587,85.3803c-.5376.3232-1.1758.4854-1.9141.4854-.998,0-1.8037-.3252-2.4165-.9746s-.9194-1.4912-.9194-2.5254c0-1.1533.3306-2.0791.9912-2.7793.6606-.6992,1.5425-1.0488,2.6455-1.0488.6152,0,1.1577.1133,1.627.3418v1.1484c-.5195-.3652-1.0757-.5469-1.668-.5469-.7153,0-1.3022.2559-1.7603.7686s-.687,1.1865-.687,2.0205c0,.8203.2153,1.4668.646,1.9414.4307.4736,1.0083.7109,1.7329.7109.6108,0,1.1851-.2031,1.7227-.6084v1.0664Z" fill="#2f2f2f"/>
        <path d="M281.9991,85.8656c-1.0347,0-1.8604-.3271-2.478-.9814-.6177-.6533-.9263-1.5205-.9263-2.6006,0-1.1758.3213-2.0947.9639-2.7549.6426-.6611,1.5107-.9912,2.6045-.9912,1.0435,0,1.8584.3213,2.4438.9639s.8784,1.5332.8784,2.6729c0,1.1162-.3154,2.0107-.9468,2.6826-.6313.6729-1.4775,1.0088-2.5396,1.0088ZM282.0812,79.4809c-.7202,0-1.2896.2451-1.709.7344-.4194.4902-.6289,1.166-.6289,2.0273,0,.8291.2119,1.4834.6357,1.9619s.9912.7178,1.7021.7178c.7246,0,1.2817-.2354,1.6714-.7041.3896-.4697.5845-1.1377.5845-2.0029,0-.875-.1948-1.5498-.5845-2.0234-.3896-.4746-.9468-.7109-1.6714-.7109Z" fill="#2f2f2f"/>
        <path d="M293.0113,85.7016h-1.1211v-3.9922c0-1.4863-.5425-2.2285-1.627-2.2285-.5605,0-1.0244.2109-1.3911.6318-.3667.4219-.5503.9541-.5503,1.5967v3.9922h-1.1211v-7h1.1211v1.1621h.0273c.5288-.8848,1.2944-1.3262,2.2969-1.3262.7656,0,1.3511.2471,1.7568.7412.4058.4951.6084,1.209.6084,2.1436v4.2793Z" fill="#2f2f2f"/>
        <path d="M298.4171,76.3227c-.2188-.123-.4673-.1846-.7451-.1846-.7837,0-1.1758.4941-1.1758,1.4834v1.0801h1.6406v.957h-1.6406v6.043h-1.1143v-6.043h-1.1963v-.957h1.1963v-1.1348c0-.7344.2119-1.3135.6357-1.7402.4238-.4258.9526-.6387,1.5859-.6387.3418,0,.6128.041.8135.123v1.0117Z" fill="#2f2f2f"/>
        <path d="M300.1705,76.9242c-.2007,0-.3716-.0684-.5127-.2051s-.2119-.3105-.2119-.5195c0-.21.0708-.3838.2119-.5234.1411-.1387.312-.208.5127-.208.2051,0,.3794.0693.5229.208.1436.1396.2153.3135.2153.5234,0,.2002-.0718.3711-.2153.5127-.1436.1406-.3179.2119-.5229.2119ZM300.7174,85.7016h-1.1211v-7h1.1211v7Z" fill="#2f2f2f"/>
        <path d="M308.8609,85.141c0,2.5703-1.2305,3.8555-3.6914,3.8555-.8657,0-1.6226-.1641-2.2695-.4922v-1.1211c.7886.4375,1.5405.6562,2.2559.6562,1.7227,0,2.584-.916,2.584-2.748v-.7656h-.0273c-.5332.8926-1.3354,1.3398-2.4062,1.3398-.8706,0-1.5713-.3115-2.1021-.9336s-.7964-1.457-.7964-2.5049c0-1.1895.2861-2.1357.8579-2.8369.5718-.7021,1.3545-1.0527,2.3481-1.0527.9434,0,1.6431.3779,2.0986,1.1348h.0273v-.9707h1.1211v6.4395ZM307.7398,82.5365v-1.0322c0-.5566-.188-1.0322-.564-1.4287s-.8442-.5947-1.4048-.5947c-.6929,0-1.2349.252-1.627.7549-.3921.5039-.5879,1.209-.5879,2.1162,0,.7793.188,1.4023.564,1.8691.376.4678.874.7012,1.4937.7012.6289,0,1.1406-.2236,1.5347-.6699.394-.4473.5913-1.0186.5913-1.7158Z" fill="#2f2f2f"/>
        <path d="M316.6896,85.7016h-1.1211v-1.1074h-.0273c-.4648.8477-1.1851,1.2715-2.1602,1.2715-1.668,0-2.502-.9941-2.502-2.9805v-4.1836h1.1143v4.0059c0,1.4766.5649,2.2148,1.6953,2.2148.5469,0,.9971-.2021,1.3501-.6055s.5298-.9307.5298-1.582v-4.0332h1.1211v7Z" fill="#2f2f2f"/>
        <path d="M322.4474,79.8363c-.1958-.1504-.4785-.2256-.8477-.2256-.4785,0-.8784.2256-1.1997.6768s-.4819,1.0664-.4819,1.8457v3.5684h-1.1211v-7h1.1211v1.4424h.0273c.1597-.4922.4033-.876.7314-1.1523.3281-.2754.6948-.4131,1.1006-.4131.2915,0,.5151.0312.6699.0957v1.1621Z" fill="#2f2f2f"/>
        <path d="M328.6231,85.7016h-1.1211v-1.0938h-.0273c-.4878.8379-1.2056,1.2578-2.1533,1.2578-.6973,0-1.2432-.1846-1.6372-.5537s-.5913-.8594-.5913-1.4697c0-1.3086.77-2.0693,2.3105-2.2832l2.0986-.2939c0-1.1895-.481-1.7842-1.4424-1.7842-.8433,0-1.604.2871-2.2832.8613v-1.1484c.688-.4375,1.481-.6562,2.3789-.6562,1.645,0,2.4678.8701,2.4678,2.6113v4.5527ZM327.5021,82.1605l-1.6885.2324c-.5195.0723-.9116.2012-1.1758.3857s-.3965.5117-.3965.9814c0,.3418.1221.6211.3657.8369.2437.2168.5684.3252.9741.3252.5562,0,1.0151-.1953,1.3774-.585s.5435-.8828.5435-1.4795v-.6973Z" fill="#2f2f2f"/>
        <path d="M333.8819,85.6332c-.2642.1455-.6128.2188-1.0459.2188-1.2261,0-1.8389-.6836-1.8389-2.0508v-4.1426h-1.2031v-.957h1.2031v-1.709l1.1211-.3623v2.0713h1.7637v.957h-1.7637v3.9443c0,.4688.0796.8037.2393,1.0049.1597.2002.4238.3008.793.3008.2827,0,.5264-.0781.7314-.2324v.957Z" fill="#2f2f2f"/>
        <path d="M335.837,76.9242c-.2007,0-.3716-.0684-.5127-.2051s-.2119-.3105-.2119-.5195c0-.21.0708-.3838.2119-.5234.1411-.1387.312-.208.5127-.208.2051,0,.3794.0693.5229.208.1436.1396.2153.3135.2153.5234,0,.2002-.0718.3711-.2153.5127-.1436.1406-.3179.2119-.5229.2119ZM336.3839,85.7016h-1.1211v-7h1.1211v7Z" fill="#2f2f2f"/>
        <path d="M341.4781,85.8656c-1.0347,0-1.8604-.3271-2.478-.9814-.6177-.6533-.9263-1.5205-.9263-2.6006,0-1.1758.3213-2.0947.9639-2.7549.6426-.6611,1.5107-.9912,2.6045-.9912,1.0435,0,1.8584.3213,2.4438.9639s.8784,1.5332.8784,2.6729c0,1.1162-.3154,2.0107-.9468,2.6826-.6313.6729-1.4775,1.0088-2.5396,1.0088ZM341.5602,79.4809c-.7202,0-1.2896.2451-1.709.7344-.4194.4902-.6289,1.166-.6289,2.0273,0,.8291.2119,1.4834.6357,1.9619s.9912.7178,1.7021.7178c.7246,0,1.2817-.2354,1.6714-.7041.3896-.4697.5845-1.1377.5845-2.0029,0-.875-.1948-1.5498-.5845-2.0234-.3896-.4746-.9468-.7109-1.6714-.7109Z" fill="#2f2f2f"/>
        <path d="M352.4903,85.7016h-1.1211v-3.9922c0-1.4863-.5425-2.2285-1.627-2.2285-.5605,0-1.0244.2109-1.3911.6318-.3667.4219-.5503.9541-.5503,1.5967v3.9922h-1.1211v-7h1.1211v1.1621h.0273c.5288-.8848,1.2944-1.3262,2.2969-1.3262.7656,0,1.3511.2471,1.7568.7412.4058.4951.6084,1.209.6084,2.1436v4.2793Z" fill="#2f2f2f"/>
      </g>
      <g>
        <rect x="197.9801" y="171.6" width="118.8" height="19.2376" fill="none"/>
        <path d="M217.089,183.5004v-9.8027h2.7891c.8477,0,1.52.208,2.0166.623.4966.4141.7451.9541.7451,1.6191,0,.5566-.1504,1.0391-.4512,1.4492s-.7153.7021-1.2441.875v.0273c.6606.0781,1.1895.3281,1.5859.749s.5947.9697.5947,1.6436c0,.8389-.3008,1.5176-.9023,2.0371s-1.3604.7793-2.2764.7793h-2.8574ZM218.2374,174.7367v3.166h1.1758c.6289,0,1.1235-.1523,1.4834-.4551s.54-.7305.54-1.2812c0-.9531-.6265-1.4297-1.8799-1.4297h-1.3193ZM218.2374,178.934v3.5273h1.5586c.6743,0,1.1973-.1592,1.5688-.4785.3716-.3184.5571-.7559.5571-1.3125,0-1.1572-.7886-1.7363-2.3652-1.7363h-1.3193Z" fill="#2f2f2f"/>
        <path d="M229.9327,183.5004h-1.1211v-1.0938h-.0273c-.4878.8389-1.2056,1.2578-2.1533,1.2578-.6973,0-1.2432-.1836-1.6372-.5527s-.5913-.8594-.5913-1.4707c0-1.3076.77-2.0684,2.3105-2.2832l2.0986-.293c0-1.1895-.481-1.7852-1.4424-1.7852-.8433,0-1.604.2871-2.2832.8613v-1.1484c.688-.4375,1.481-.6562,2.3789-.6562,1.645,0,2.4678.8711,2.4678,2.6113v4.5527ZM228.8116,179.9594l-1.6885.2324c-.5195.0732-.9116.2021-1.1758.3867s-.3965.5117-.3965.9805c0,.3418.1221.6211.3657.8379s.5684.3242.9741.3242c.5562,0,1.0151-.1943,1.3774-.584s.5435-.8828.5435-1.4805v-.6973Z" fill="#2f2f2f"/>
        <path d="M236.7745,183.1801c-.5376.3232-1.1758.4844-1.9141.4844-.998,0-1.8037-.3242-2.4165-.9736s-.9194-1.4912-.9194-2.5264c0-1.1523.3306-2.0781.9912-2.7783s1.5425-1.0498,2.6455-1.0498c.6152,0,1.1577.1143,1.627.3418v1.1484c-.5195-.3643-1.0757-.5469-1.668-.5469-.7153,0-1.3022.2568-1.7603.7695s-.687,1.1855-.687,2.0195c0,.8203.2153,1.4678.646,1.9414.4307.4746,1.0083.7109,1.7329.7109.6108,0,1.1851-.2021,1.7227-.6074v1.0664Z" fill="#2f2f2f"/>
        <path d="M244.0733,183.5004h-1.5723l-3.0898-3.3633h-.0273v3.3633h-1.1211v-10.3633h1.1211v6.5703h.0273l2.9395-3.207h1.4697l-3.2471,3.377,3.5,3.623Z" fill="#2f2f2f"/>
        <path d="M250.4977,180.2816h-4.9424c.0181.7793.228,1.3809.6289,1.8047s.9526.6348,1.6543.6348c.7886,0,1.5132-.2598,2.1738-.7793v1.0527c-.6152.4473-1.4287.6699-2.4404.6699-.9888,0-1.7661-.3174-2.3311-.9531s-.8477-1.5303-.8477-2.6836c0-1.0889.3086-1.9766.9263-2.6621s1.3843-1.0293,2.3003-1.0293,1.6245.2969,2.126.8887c.5015.5928.752,1.416.752,2.4688v.5879ZM249.3492,179.3305c-.0044-.6465-.1606-1.1504-.4683-1.5098-.3076-.3604-.7349-.541-1.2817-.541-.5288,0-.9775.1895-1.3467.5684-.3691.3779-.5972.8721-.6836,1.4824h3.7803Z" fill="#2f2f2f"/>
        <path d="M257.9908,183.5004h-1.1211v-3.9922c0-1.4854-.5425-2.2285-1.627-2.2285-.5605,0-1.0244.2109-1.3911.6328s-.5503.9531-.5503,1.5957v3.9922h-1.1211v-7h1.1211v1.1621h.0273c.5288-.8838,1.2944-1.3262,2.2969-1.3262.7656,0,1.3511.248,1.7568.7422s.6084,1.209.6084,2.1426v4.2793Z" fill="#2f2f2f"/>
        <path d="M266.065,183.5004h-1.1211v-1.1895h-.0273c-.5195.9023-1.3218,1.3535-2.4062,1.3535-.8794,0-1.5825-.3125-2.1089-.9395s-.7896-1.4805-.7896-2.5605c0-1.1572.2915-2.084.875-2.7812s1.3604-1.0469,2.3311-1.0469c.9614,0,1.6611.3789,2.0986,1.1348h.0273v-4.334h1.1211v10.3633ZM264.9439,180.3363v-1.0332c0-.5645-.187-1.043-.5605-1.4355-.3735-.3916-.8477-.5879-1.4219-.5879-.6836,0-1.2212.251-1.6133.752-.3921.502-.5879,1.1943-.5879,2.0781,0,.8066.188,1.4434.564,1.9111s.8809.7002,1.5142.7002c.6245,0,1.1313-.2246,1.521-.6758s.5845-1.0215.5845-1.709Z" fill="#2f2f2f"/>
        <path d="M273.318,182.4887h-.0273v4.2324h-1.1211v-10.2207h1.1211v1.2305h.0273c.5513-.9297,1.3579-1.3945,2.4199-1.3945.9023,0,1.6064.3145,2.1123.9404s.7588,1.4658.7588,2.5186c0,1.1719-.2847,2.1094-.8545,2.8135s-1.3491,1.0557-2.3379,1.0557c-.9067,0-1.6064-.3916-2.0986-1.1758ZM273.2906,179.6664v.9766c0,.5791.188,1.0703.564,1.4736s.8535.6045,1.4321.6045c.6792,0,1.2109-.2598,1.5962-.7793s.5776-1.2412.5776-2.166c0-.7793-.1802-1.3906-.54-1.832-.3599-.4424-.8477-.6641-1.4629-.6641-.6519,0-1.1758.2266-1.5723.6807s-.5947,1.0225-.5947,1.7061Z" fill="#2f2f2f"/>
        <path d="M283.3146,183.6645c-1.0347,0-1.8604-.3262-2.478-.9805s-.9263-1.5215-.9263-2.6016c0-1.1758.3213-2.0938.9639-2.7539.6426-.6611,1.5107-.9922,2.6045-.9922,1.0435,0,1.8584.3223,2.4438.9648s.8784,1.5332.8784,2.6719c0,1.1172-.3154,2.0117-.9468,2.6836s-1.4775,1.0078-2.5396,1.0078ZM283.3966,177.2797c-.7202,0-1.2896.2461-1.709.7354s-.6289,1.165-.6289,2.0264c0,.8301.2119,1.4844.6357,1.9629s.9912.7168,1.7021.7168c.7246,0,1.2817-.2344,1.6714-.7031.3896-.4697.5845-1.1377.5845-2.0039,0-.875-.1948-1.5488-.5845-2.0234-.3896-.4736-.9468-.7109-1.6714-.7109Z" fill="#2f2f2f"/>
        <path d="M291.5064,183.6645c-1.0347,0-1.8604-.3262-2.478-.9805s-.9263-1.5215-.9263-2.6016c0-1.1758.3213-2.0938.9639-2.7539.6426-.6611,1.5107-.9922,2.6045-.9922,1.0435,0,1.8584.3223,2.4438.9648s.8784,1.5332.8784,2.6719c0,1.1172-.3154,2.0117-.9468,2.6836s-1.4775,1.0078-2.5396,1.0078ZM291.5885,177.2797c-.7202,0-1.2896.2461-1.709.7354s-.6289,1.165-.6289,2.0264c0,.8301.2119,1.4844.6357,1.9629s.9912.7168,1.7021.7168c.7246,0,1.2817-.2344,1.6714-.7031.3896-.4697.5845-1.1377.5845-2.0039,0-.875-.1948-1.5488-.5845-2.0234-.3896-.4736-.9468-.7109-1.6714-.7109Z" fill="#2f2f2f"/>
        <path d="M297.8224,183.5004h-1.1211v-10.3633h1.1211v10.3633Z" fill="#2f2f2f"/>
      </g>
      <g>
        <path d="M447.8614,34.143h-2.4062l-.6973-2.1816h-3.4863l-.6904,2.1816h-2.3926l3.5684-9.8027h2.6182l3.4863,9.8027ZM444.2521,30.266l-1.0527-3.2949c-.0776-.2461-.1323-.5391-.1641-.8809h-.0547c-.0229.2871-.0796.5713-.1709.8535l-1.0664,3.3223h2.5088Z" fill="#2f2f2f"/>
        <path d="M455.2262,27.143l-2.6045,7h-2.4609l-2.4814-7h2.3105l1.2168,4.3125c.1367.4883.2163.9023.2393,1.2441h.0273c.0317-.3232.1162-.7246.2529-1.2031l1.2441-4.3535h2.2559Z" fill="#2f2f2f"/>
        <path d="M461.8819,34.143h-2.0439v-1.0059h-.0273c-.4692.7842-1.1646,1.1758-2.085,1.1758-.6792,0-1.2134-.1914-1.603-.5771s-.5845-.8994-.5845-1.542c0-1.3574.8042-2.1416,2.4131-2.3516l1.9004-.252c0-.7656-.4146-1.1484-1.2441-1.1484-.834,0-1.627.248-2.3789.7441v-1.627c.3008-.1543.7119-.291,1.2339-.4102.522-.1182.9971-.1777,1.4253-.1777,1.9961,0,2.9941.9961,2.9941,2.9883v4.1836ZM459.8517,31.2992v-.4727l-1.2715.1641c-.7017.0918-1.0527.4082-1.0527.9512,0,.2461.0854.4473.2563.6045s.4023.2354.6938.2354c.4058,0,.7358-.1396.9912-.4199s.3828-.6348.3828-1.0625Z" fill="#2f2f2f"/>
        <path d="M464.6524,26.0355c-.3647,0-.6631-.1094-.8955-.3252s-.3486-.4814-.3486-.7959c0-.3242.1162-.5879.3486-.793s.5308-.3086.8955-.3086c.3691,0,.6689.1035.8989.3086s.3452.4688.3452.793c0,.3281-.1152.5967-.3452.8066-.23.209-.5298.3145-.8989.3145ZM465.7188,34.143h-2.1602v-7h2.1602v7Z" fill="#2f2f2f"/>
        <path d="M469.6539,34.143h-2.1602v-10.3633h2.1602v10.3633Z" fill="#2f2f2f"/>
        <path d="M477.3189,34.143h-2.0439v-1.0059h-.0273c-.4692.7842-1.1646,1.1758-2.085,1.1758-.6792,0-1.2134-.1914-1.603-.5771s-.5845-.8994-.5845-1.542c0-1.3574.8042-2.1416,2.4131-2.3516l1.9004-.252c0-.7656-.4146-1.1484-1.2441-1.1484-.834,0-1.627.248-2.3789.7441v-1.627c.3008-.1543.7119-.291,1.2339-.4102.522-.1182.9971-.1777,1.4253-.1777,1.9961,0,2.9941.9961,2.9941,2.9883v4.1836ZM475.2887,31.2992v-.4727l-1.2715.1641c-.7017.0918-1.0527.4082-1.0527.9512,0,.2461.0854.4473.2563.6045s.4023.2354.6938.2354c.4058,0,.7358-.1396.9912-.4199s.3828-.6348.3828-1.0625Z" fill="#2f2f2f"/>
        <path d="M481.2027,33.3285h-.0273v.8145h-2.1602v-10.3633h2.1602v4.416h.0273c.5332-.8164,1.292-1.2246,2.2764-1.2246.9023,0,1.5972.3105,2.085.9297.4878.6201.7314,1.4678.7314,2.543,0,1.167-.2847,2.1035-.8545,2.8105-.5698.7061-1.3306,1.0586-2.2832,1.0586-.8613,0-1.5132-.3281-1.9551-.9844ZM481.1412,30.3754v.7188c0,.4512.1299.8242.3896,1.1211.2598.2959.5923.4434.998.4434.4922,0,.874-.1895,1.145-.5703s.4067-.9199.4067-1.6172c0-.5781-.124-1.0312-.3726-1.3564s-.6025-.4893-1.063-.4893c-.4331,0-.792.1621-1.0767.4863-.2847.3232-.4272.7441-.4272,1.2637Z" fill="#2f2f2f"/>
        <path d="M488.7906,26.0355c-.3647,0-.6631-.1094-.8955-.3252s-.3486-.4814-.3486-.7959c0-.3242.1162-.5879.3486-.793s.5308-.3086.8955-.3086c.3691,0,.6689.1035.8989.3086s.3452.4688.3452.793c0,.3281-.1152.5967-.3452.8066-.23.209-.5298.3145-.8989.3145ZM489.857,34.143h-2.1602v-7h2.1602v7Z" fill="#2f2f2f"/>
        <path d="M493.7926,34.143h-2.1602v-10.3633h2.1602v10.3633Z" fill="#2f2f2f"/>
        <path d="M496.6612,26.0355c-.3647,0-.6631-.1094-.8955-.3252s-.3486-.4814-.3486-.7959c0-.3242.1162-.5879.3486-.793s.5308-.3086.8955-.3086c.3691,0,.6689.1035.8989.3086s.3452.4688.3452.793c0,.3281-.1152.5967-.3452.8066-.23.209-.5298.3145-.8989.3145ZM497.7276,34.143h-2.1602v-7h2.1602v7Z" fill="#2f2f2f"/>
        <path d="M503.6637,34.0609c-.3188.168-.7998.252-1.4424.252-1.522,0-2.2832-.79-2.2832-2.3711v-3.207h-1.1348v-1.5918h1.1348v-1.5117l2.1533-.6152v2.127h1.5723v1.5918h-1.5723v2.8301c0,.7295.2896,1.0938.8682,1.0938.228,0,.4624-.0654.7041-.1973v1.5996Z" fill="#2f2f2f"/>
        <path d="M511.8888,27.143l-2.8438,7.5605c-.6836,1.8184-1.7134,2.7266-3.0898,2.7266-.5239,0-.9546-.0586-1.292-.1777v-1.7227c.2871.1689.5991.2539.9365.2539.5562,0,.9434-.2627,1.1621-.7871l.3691-.8672-2.8438-6.9863h2.3926l1.3057,4.2578c.082.2646.146.5771.1914.9375h.0273c.041-.2646.1162-.5723.2256-.9238l1.3193-4.2715h2.1396Z" fill="#2f2f2f"/>
        <path d="M523.8858,34.143h-7.8955v-1.2715l5.0244-6.7344h-4.6621v-1.7969h7.5195v1.2363l-4.915,6.7754h4.9287v1.791Z" fill="#2f2f2f"/>
        <path d="M528.4044,34.3129c-1.1665,0-2.084-.3262-2.7515-.9805s-1.0015-1.541-1.0015-2.6621c0-1.1582.3462-2.0645,1.0391-2.7178s1.6294-.9814,2.8096-.9814c1.1621,0,2.0737.3281,2.7344.9814s.9912,1.5186.9912,2.5947c0,1.1621-.3408,2.0801-1.022,2.7539-.6812.6748-1.6143,1.0117-2.7993,1.0117ZM528.4591,28.6254c-.5103,0-.9067.1758-1.1895.5273-.2827.3506-.4238.8477-.4238,1.4902,0,1.3438.5425,2.0156,1.627,2.0156,1.0347,0,1.5518-.6895,1.5518-2.0703,0-1.3086-.522-1.9629-1.5654-1.9629Z" fill="#2f2f2f"/>
        <path d="M540.3668,34.143h-2.1533v-3.8906c0-1.084-.3872-1.627-1.1621-1.627-.3735,0-.6812.1445-.9229.4316s-.3623.6514-.3623,1.0938v3.9922h-2.1602v-7h2.1602v1.1074h.0273c.5151-.8525,1.2646-1.2793,2.249-1.2793,1.5493,0,2.3242.9619,2.3242,2.8848v4.2871Z" fill="#2f2f2f"/>
        <path d="M548.3888,31.2582h-4.5664c.0728,1.0156.7134,1.5234,1.9209,1.5234.77,0,1.4468-.1816,2.0303-.5469v1.5586c-.647.3467-1.4878.5195-2.5225.5195-1.1304,0-2.0073-.3125-2.6318-.9395s-.9365-1.5-.9365-2.6211c0-1.1621.3374-2.083,1.0117-2.7617.6743-.6797,1.5039-1.0195,2.4883-1.0195,1.021,0,1.8105.3037,2.3687.9102.5581.6055.8374,1.4277.8374,2.4668v.9102ZM546.3858,29.932c0-1.0029-.4058-1.5039-1.2168-1.5039-.3462,0-.646.1426-.8989.4297s-.4067.6455-.4614,1.0742h2.5771Z" fill="#2f2f2f"/>
        <path d="M555.5597,32.352h4.1562v1.791h-6.5215v-.7383c0-.502.0845-.9512.2529-1.3506s.3804-.7568.6357-1.0732.5342-.5977.8374-.8408.5913-.4639.8647-.6592c.2871-.2051.5391-.4014.7554-.5879.2163-.1875.3989-.373.5469-.5576s.2588-.3721.3315-.5605.1094-.3906.1094-.6045c0-.4199-.1187-.7363-.3555-.9512-.2368-.2139-.5991-.3203-1.0869-.3203-.8433,0-1.6499.334-2.4199,1.0039v-1.9004c.8521-.5508,1.814-.8262,2.8848-.8262.4966,0,.9424.0645,1.3364.1943s.728.3154,1.0015.5576c.2734.2412.4819.5332.6255.8779s.2153.7275.2153,1.1514c0,.4512-.0693.8525-.2085,1.2031-.1392.3516-.3237.6699-.5537.957s-.4956.5508-.7964.79-.6128.4707-.9365.6943c-.2188.1543-.4297.3086-.6323.4609s-.3818.3027-.5366.4512-.2778.293-.3691.4336c-.0913.1416-.1367.2764-.1367.4043Z" fill="#2f2f2f"/>
      </g>
      <g>
        <path d="M689.8619,34.143h-2.4062l-.6973-2.1816h-3.4863l-.6904,2.1816h-2.3926l3.5684-9.8027h2.6182l3.4863,9.8027ZM686.2525,30.266l-1.0527-3.2949c-.0781-.2461-.1328-.5391-.1641-.8809h-.0547c-.0234.2871-.0801.5713-.1709.8535l-1.0664,3.3223h2.5088Z" fill="#2f2f2f"/>
        <path d="M697.2262,27.143l-2.6045,7h-2.4609l-2.4814-7h2.3105l1.2168,4.3125c.1367.4883.2168.9023.2393,1.2441h.0273c.0322-.3232.1162-.7246.2529-1.2031l1.2441-4.3535h2.2559Z" fill="#2f2f2f"/>
        <path d="M703.8824,34.143h-2.0439v-1.0059h-.0273c-.4697.7842-1.165,1.1758-2.085,1.1758-.6797,0-1.2139-.1914-1.6035-.5771s-.584-.8994-.584-1.542c0-1.3574.8037-2.1416,2.4131-2.3516l1.9004-.252c0-.7656-.415-1.1484-1.2441-1.1484-.834,0-1.627.248-2.3789.7441v-1.627c.3008-.1543.7119-.291,1.2334-.4102.5225-.1182.9971-.1777,1.4258-.1777,1.9961,0,2.9941.9961,2.9941,2.9883v4.1836ZM701.8521,31.2992v-.4727l-1.2715.1641c-.7021.0918-1.0527.4082-1.0527.9512,0,.2461.085.4473.2559.6045s.4023.2354.6943.2354c.4053,0,.7354-.1396.9912-.4199.2549-.2803.3828-.6348.3828-1.0625Z" fill="#2f2f2f"/>
        <path d="M706.6529,26.0355c-.3652,0-.6631-.1094-.8955-.3252s-.3486-.4814-.3486-.7959c0-.3242.1162-.5879.3486-.793s.5303-.3086.8955-.3086c.3691,0,.6689.1035.8984.3086.2305.2051.3457.4688.3457.793,0,.3281-.1152.5967-.3457.8066-.2295.209-.5293.3145-.8984.3145ZM707.7193,34.143h-2.1602v-7h2.1602v7Z" fill="#2f2f2f"/>
        <path d="M711.6539,34.143h-2.1602v-10.3633h2.1602v10.3633Z" fill="#2f2f2f"/>
        <path d="M719.3189,34.143h-2.0439v-1.0059h-.0273c-.4688.7842-1.1641,1.1758-2.085,1.1758-.6787,0-1.2129-.1914-1.6025-.5771s-.585-.8994-.585-1.542c0-1.3574.8047-2.1416,2.4131-2.3516l1.9004-.252c0-.7656-.4141-1.1484-1.2441-1.1484-.834,0-1.627.248-2.3789.7441v-1.627c.3008-.1543.7119-.291,1.2344-.4102.5215-.1182.9971-.1777,1.4248-.1777,1.9961,0,2.9941.9961,2.9941,2.9883v4.1836ZM717.2887,31.2992v-.4727l-1.2715.1641c-.7012.0918-1.0527.4082-1.0527.9512,0,.2461.0859.4473.2568.6045s.4023.2354.6934.2354c.4062,0,.7363-.1396.9912-.4199.2559-.2803.3828-.6348.3828-1.0625Z" fill="#2f2f2f"/>
        <path d="M723.2027,33.3285h-.0273v.8145h-2.1602v-10.3633h2.1602v4.416h.0273c.5332-.8164,1.292-1.2246,2.2764-1.2246.9023,0,1.5977.3105,2.085.9297.4883.6201.7314,1.4678.7314,2.543,0,1.167-.2842,2.1035-.8545,2.8105-.5693.7061-1.3301,1.0586-2.2832,1.0586-.8613,0-1.5127-.3281-1.9551-.9844ZM723.1412,30.3754v.7188c0,.4512.1299.8242.3896,1.1211.2598.2959.5928.4434.998.4434.4922,0,.874-.1895,1.1455-.5703.2705-.3809.4062-.9199.4062-1.6172,0-.5781-.124-1.0312-.3721-1.3564-.249-.3252-.6025-.4893-1.0635-.4893-.4326,0-.792.1621-1.0762.4863-.2852.3232-.4277.7441-.4277,1.2637Z" fill="#2f2f2f"/>
        <path d="M730.7906,26.0355c-.3643,0-.6631-.1094-.8955-.3252s-.3486-.4814-.3486-.7959c0-.3242.1162-.5879.3486-.793s.5312-.3086.8955-.3086c.3691,0,.6689.1035.8994.3086.2295.2051.3447.4688.3447.793,0,.3281-.1152.5967-.3447.8066-.2305.209-.5303.3145-.8994.3145ZM731.857,34.143h-2.1602v-7h2.1602v7Z" fill="#2f2f2f"/>
        <path d="M735.7926,34.143h-2.1602v-10.3633h2.1602v10.3633Z" fill="#2f2f2f"/>
        <path d="M738.6617,26.0355c-.3652,0-.6631-.1094-.8955-.3252s-.3486-.4814-.3486-.7959c0-.3242.1162-.5879.3486-.793s.5303-.3086.8955-.3086c.3691,0,.6689.1035.8984.3086.2305.2051.3457.4688.3457.793,0,.3281-.1152.5967-.3457.8066-.2295.209-.5293.3145-.8984.3145ZM739.7281,34.143h-2.1602v-7h2.1602v7Z" fill="#2f2f2f"/>
        <path d="M745.6637,34.0609c-.3184.168-.7998.252-1.4424.252-1.5215,0-2.2832-.79-2.2832-2.3711v-3.207h-1.1348v-1.5918h1.1348v-1.5117l2.1533-.6152v2.127h1.5723v1.5918h-1.5723v2.8301c0,.7295.29,1.0938.8682,1.0938.2285,0,.4629-.0654.7041-.1973v1.5996Z" fill="#2f2f2f"/>
        <path d="M753.8893,27.143l-2.8438,7.5605c-.6836,1.8184-1.7139,2.7266-3.0898,2.7266-.5244,0-.9551-.0586-1.292-.1777v-1.7227c.2871.1689.5986.2539.9365.2539.5557,0,.9434-.2627,1.1621-.7871l.3691-.8672-2.8438-6.9863h2.3926l1.3057,4.2578c.082.2646.1455.5771.1914.9375h.0273c.041-.2646.1162-.5723.2256-.9238l1.3193-4.2715h2.1396Z" fill="#2f2f2f"/>
        <path d="M765.8863,34.143h-7.8955v-1.2715l5.0244-6.7344h-4.6621v-1.7969h7.5195v1.2363l-4.915,6.7754h4.9287v1.791Z" fill="#2f2f2f"/>
        <path d="M770.4049,34.3129c-1.167,0-2.084-.3262-2.752-.9805-.667-.6543-1.001-1.541-1.001-2.6621,0-1.1582.3457-2.0645,1.0391-2.7178.6924-.6533,1.6289-.9814,2.8096-.9814,1.1621,0,2.0732.3281,2.7344.9814.6602.6533.9912,1.5186.9912,2.5947,0,1.1621-.3408,2.0801-1.0225,2.7539-.6807.6748-1.6143,1.0117-2.7988,1.0117ZM770.4596,28.6254c-.5107,0-.9072.1758-1.1895.5273-.2832.3506-.4238.8477-.4238,1.4902,0,1.3438.542,2.0156,1.627,2.0156,1.0342,0,1.5518-.6895,1.5518-2.0703,0-1.3086-.5225-1.9629-1.5654-1.9629Z" fill="#2f2f2f"/>
        <path d="M782.3668,34.143h-2.1533v-3.8906c0-1.084-.3867-1.627-1.1621-1.627-.373,0-.6807.1445-.9229.4316-.2412.2871-.3623.6514-.3623,1.0938v3.9922h-2.1602v-7h2.1602v1.1074h.0273c.5156-.8525,1.2646-1.2793,2.249-1.2793,1.5498,0,2.3242.9619,2.3242,2.8848v4.2871Z" fill="#2f2f2f"/>
        <path d="M790.3893,31.2582h-4.5664c.0723,1.0156.7129,1.5234,1.9209,1.5234.7695,0,1.4463-.1816,2.0303-.5469v1.5586c-.6475.3467-1.4883.5195-2.5225.5195-1.1309,0-2.0078-.3125-2.6318-.9395-.625-.627-.9365-1.5-.9365-2.6211,0-1.1621.3369-2.083,1.0117-2.7617.6738-.6797,1.5039-1.0195,2.4883-1.0195,1.0205,0,1.8105.3037,2.3682.9102.5586.6055.8379,1.4277.8379,2.4668v.9102ZM788.3863,29.932c0-1.0029-.4062-1.5039-1.2168-1.5039-.3467,0-.6465.1426-.8994.4297s-.4062.6455-.4609,1.0742h2.5771Z" fill="#2f2f2f"/>
        <path d="M795.4273,33.8207v-1.8789c.6562.4785,1.4219.7168,2.2969.7168.5508,0,.9805-.1182,1.2881-.3555.3076-.2363.4619-.5664.4619-.9902,0-.4375-.1904-.7754-.5713-1.0117-.3799-.2373-.9033-.3555-1.5684-.3555h-.9092v-1.6543h.8408c1.2754,0,1.9141-.4238,1.9141-1.2715,0-.7979-.4902-1.1973-1.4697-1.1973-.6562,0-1.2949.2129-1.9141.6367v-1.7637c.6875-.3467,1.4902-.5195,2.4062-.5195,1.002,0,1.7832.2246,2.3408.6758.5586.4512.8379,1.0371.8379,1.7578,0,1.2803-.6494,2.082-1.9482,2.4062v.0332c.6924.0869,1.2393.3389,1.6406.7559.4004.417.6016.9287.6016,1.5352,0,.916-.335,1.6406-1.0049,2.1738s-1.5957.7988-2.7754.7988c-1.0117,0-1.835-.1641-2.4678-.4922Z" fill="#2f2f2f"/>
      </g>
    </g>
  </g>
</svg>