<?xml version="1.0" encoding="UTF-8"?>
<svg xmlns="http://www.w3.org/2000/svg" width="611.0287" height="237.6" xmlns:xlink="http://www.w3.org/1999/xlink" viewBox="0 0 611.0287 237.6">
  <defs>
    <radialGradient id="radial-gradient" cx="-106.951" cy="381.1343" fx="-106.951" fy="381.1343" r="13.4005" gradientTransform="translate(108.6879 325.0224) scale(.7678 -.7678)" gradientUnits="userSpaceOnUse">
      <stop offset=".27" stop-color="#ffd70f"/>
      <stop offset=".49" stop-color="#ffcb12"/>
      <stop offset=".88" stop-color="#feac19"/>
      <stop offset="1" stop-color="#fea11b"/>
    </radialGradient>
    <radialGradient id="radial-gradient-2" cx="420.2969" fx="420.2969" xlink:href="#radial-gradient"/>
  </defs>
  <g id="Shapes">
    <rect width="611.0287" height="237.6" fill="#fff"/>
    <g>
      <rect x="26.4" y="35.2" width="167.2" height="189.2" fill="#fff"/>
      <rect x="26.4" y="35.2" width="167.2" height="189.2" fill="#fff1cc" opacity=".5"/>
      <rect x="26.4" y="35.2" width="167.2" height="189.2" fill="none" stroke="#dfa626" stroke-width=".25"/>
    </g>
    <g>
      <g>
        <path d="M23.9439,47.7251c-2.4707,0-4.7139-.7485-6.4868-2.1646-5.3428-4.2671-5.1172-13.4629.5024-20.499,3.5938-4.5,8.6006-7.1865,13.3931-7.1865,2.4707,0,4.7139.7485,6.4868,2.1646,2.585,2.0645,3.958,5.3315,3.8662,9.1992-.0923,3.875-1.6436,7.8882-4.3682,11.2993-3.5938,4.5005-8.6011,7.187-13.3936,7.187Z" fill="#fff"/>
        <path d="M23.9439,47.7251c-2.4707,0-4.7139-.7485-6.4868-2.1646-5.3428-4.2671-5.1172-13.4629.5024-20.499,3.5938-4.5,8.6006-7.1865,13.3931-7.1865,2.4707,0,4.7139.7485,6.4868,2.1646,2.585,2.0645,3.958,5.3315,3.8662,9.1992-.0923,3.875-1.6436,7.8882-4.3682,11.2993-3.5938,4.5005-8.6011,7.187-13.3936,7.187Z" fill="#ffe452" opacity=".12"/>
        <path d="M31.3531,17.95h0c2.453,0,4.6801.7429,6.4397,2.1482,5.3103,4.2411,5.0797,13.3895-.5139,20.3933-3.5799,4.4824-8.5649,7.1584-13.3348,7.1584-2.4535,0-4.6805-.7429-6.4401-2.1483-2.5662-2.0495-3.9291-5.2951-3.8377-9.1387.0918-3.859,1.6373-7.856,4.3516-11.2546,3.5798-4.4823,8.5649-7.1583,13.3352-7.1585M31.3527,17.8c-4.6099.0002-9.7407,2.5679-13.452,7.2149-5.6543,7.0797-5.8739,16.3045-.4903,20.6041,1.8499,1.4775,4.1203,2.181,6.5337,2.181,4.61,0,9.7407-2.5679,13.452-7.2148,5.6543-7.0797,5.8739-16.3045.4903-20.6041-1.8499-1.4775-4.1203-2.1811-6.5337-2.181h0Z" fill="#ffe452"/>
        <path d="M31.3527,17.8c2.4134,0,4.6838.7036,6.5337,2.181,5.3835,4.2996,5.164,13.5244-.4903,20.6041-3.7113,4.6469-8.8421,7.2148-13.452,7.2148-2.4134,0-4.6838-.7036-6.5337-2.181-5.3835-4.2996-5.164-13.5244.4903-20.6041,3.7113-4.6469,8.8421-7.2147,13.452-7.2149M31.3531,17.7c-4.8456.0002-9.9038,2.7113-13.5306,7.2524-2.7482,3.4411-4.3131,7.4913-4.4062,11.4046-.0934,3.9236,1.3029,7.2406,3.9316,9.34,1.8044,1.4411,4.0854,2.2029,6.5961,2.2029,4.8452,0,9.9032-2.7112,13.5302-7.2524,5.6797-7.1115,5.8926-16.4175.4746-20.7447-1.8044-1.4411-4.0852-2.2029-6.5957-2.2029h0Z" fill="#d15900"/>
      </g>
      <g>
        <path id="e3d1e58c-f78e-4fb5-9857-0c9331da9979" d="M32.5589,30.9314c.7921-.7907.7932-2.0738.0025-2.8659-.0008-.0008-.0017-.0017-.0025-.0025h0l-3.4852-3.495c-.7858-.7894-2.0627-.7923-2.8521-.0066-.0022.0022-.0044.0044-.0066.0066h0l-3.4852,3.495c-.7824.7961-.7824,2.0724,0,2.8684l2.937,2.937c.1039.1081.1633.2514.1664.4014v5.404c-.0026.1827.0679.359.1958.4895l1.3216,1.3216c.1654.1784.4442.189.6226.0236.0081-.0076.016-.0154.0236-.0236l1.2825-1.2825h0l.7538-.7538c.1027-.096.1082-.257.0123-.3598-.0039-.0042-.008-.0083-.0123-.0123l-.5384-.5482c-.1135-.1081-.1179-.2878-.0098-.4014.0032-.0033.0064-.0066.0098-.0098l.5384-.5482c.1027-.096.1082-.257.0123-.3598-.0039-.0042-.008-.0083-.0123-.0123l-.5678-.5776c-.1108-.1031-.1171-.2766-.014-.3874.0045-.0048.0092-.0095.014-.014l.5874-.5776c.1027-.096.1082-.257.0123-.3598-.0039-.0042-.008-.0083-.0123-.0123l-.7538-.7636v-.2741l3.26-3.2992ZM27.6639,25.4099c.638.0054,1.1508.527,1.1454,1.165-.0054.638-.527,1.1508-1.165,1.1454-.6341-.0054-1.1454-.521-1.1454-1.1551-.0054-.6326.503-1.1498,1.1356-1.1552.0033,0,.0066,0,.0098,0h.0196Z" fill="url(#radial-gradient)"/>
        <path id="a21a8f7a-61cc-4035-8449-e5c8fe4d4d5e" d="M26.7437,39.7619h0c.1154.0703.266.0337.3363-.0817.0227-.0374.0351-.0801.0357-.1238v-4.3565c.0008-.0849-.0393-.1651-.1077-.2154h0c-.1119-.0759-.2641-.0467-.3399.0651-.03.0442-.0447.0969-.0419.1502v4.3565c.0046.0832.0481.1594.1175.2056Z" fill="#ff9300" isolation="isolate" opacity=".75"/>
        <rect id="ecd3189c-fb1e-4a0e-a2b6-ba2f11dda484" x="24.8542" y="29.228" width="5.7369" height=".6755" rx=".3133" ry=".3133" fill="#ff9300" isolation="isolate" opacity=".75"/>
        <rect id="a1949a3c-4818-4bd1-b236-0d970b92fc62" x="24.8542" y="30.3245" width="5.7369" height=".6755" rx=".3133" ry=".3133" fill="#ff9300" isolation="isolate" opacity=".75"/>
      </g>
    </g>
    <rect x="48.4" y="61.6" width="123.2" height="35.2" fill="#fff" stroke="#4e4f4f" stroke-width=".25"/>
    <rect x="48.4" y="114.4" width="123.2" height="35.2" fill="#fff" stroke="#4e4f4f" stroke-width=".25"/>
    <rect x="48.4" y="167.2" width="123.2" height="35.2" fill="#fff" stroke="#4e4f4f" stroke-width=".25"/>
    <g>
      <rect x="228.8" y="35.2" width="167.2" height="189.2" fill="#fff"/>
      <rect x="228.8" y="35.2" width="167.2" height="189.2" fill="#83b9f9" opacity=".25"/>
      <rect x="228.8" y="35.2" width="167.2" height="189.2" fill="none" stroke="#1b93eb" stroke-miterlimit="10" stroke-width=".25"/>
    </g>
    <rect x="250.8" y="61.6" width="123.2" height="35.2" fill="#fff" stroke="#4e4f4f" stroke-width=".25"/>
    <rect x="250.8" y="114.4" width="123.2" height="35.2" fill="#fff" stroke="#4e4f4f" stroke-width=".25"/>
    <rect x="250.8" y="167.2" width="123.2" height="35.2" fill="#fff" stroke="#4e4f4f" stroke-width=".25"/>
    <g>
      <rect x="431.2" y="35.2" width="167.2" height="189.2" fill="#fff"/>
      <rect x="431.2" y="35.2" width="167.2" height="189.2" fill="#fff1cc" opacity=".5"/>
      <rect x="431.2" y="35.2" width="167.2" height="189.2" fill="none" stroke="#dfa626" stroke-width=".25"/>
    </g>
    <g>
      <g>
        <path d="M428.7446,47.7251c-2.4707,0-4.7139-.7485-6.4873-2.1646-5.3428-4.2671-5.1172-13.4629.502-20.499,3.5938-4.5,8.6006-7.1865,13.3936-7.1865,2.4707,0,4.7139.7485,6.4863,2.1646,2.585,2.0645,3.958,5.3315,3.8662,9.1992-.0928,3.875-1.6436,7.8882-4.3682,11.2993-3.5938,4.5005-8.6006,7.187-13.3926,7.187Z" fill="#fff"/>
        <path d="M428.7446,47.7251c-2.4707,0-4.7139-.7485-6.4873-2.1646-5.3428-4.2671-5.1172-13.4629.502-20.499,3.5938-4.5,8.6006-7.1865,13.3936-7.1865,2.4707,0,4.7139.7485,6.4863,2.1646,2.585,2.0645,3.958,5.3315,3.8662,9.1992-.0928,3.875-1.6436,7.8882-4.3682,11.2993-3.5938,4.5005-8.6006,7.187-13.3926,7.187Z" fill="#ffe452" opacity=".12"/>
        <path d="M436.1531,17.95h0c2.4531,0,4.6801.7429,6.4397,2.1482,5.3102,4.2411,5.0797,13.3895-.5139,20.3933-3.58,4.4824-8.5649,7.1584-13.3348,7.1584-2.4535,0-4.6805-.7429-6.4401-2.1483-5.3103-4.2411-5.0797-13.3895.5139-20.3933,3.5798-4.4822,8.565-7.1583,13.3353-7.1585M436.1527,17.8c-4.6099.0002-9.7407,2.5679-13.452,7.2149-5.6543,7.0797-5.8738,16.3045-.4904,20.6041,1.8499,1.4775,4.1204,2.181,6.5338,2.181,4.61,0,9.7407-2.5679,13.452-7.2148,5.6543-7.0797,5.8738-16.3045.4904-20.6041-1.8499-1.4775-4.1203-2.1811-6.5338-2.181h0Z" fill="#ffe452"/>
        <path d="M436.1527,17.8c2.4135,0,4.6838.7036,6.5338,2.181,5.3835,4.2996,5.1639,13.5244-.4904,20.6041-3.7113,4.6469-8.842,7.2148-13.452,7.2148-2.4134,0-4.6838-.7036-6.5338-2.181-5.3835-4.2996-5.1639-13.5244.4904-20.6041,3.7114-4.6469,8.8421-7.2147,13.452-7.2149M436.1531,17.7c-4.8456.0002-9.9037,2.7113-13.5306,7.2524-5.6797,7.1115-5.8926,16.4175-.4747,20.7447,1.8045,1.4411,4.0854,2.2029,6.5962,2.2029,4.8453,0,9.9033-2.7112,13.5302-7.2524,5.6797-7.1115,5.8926-16.4175.4747-20.7447-1.8045-1.4411-4.0853-2.2029-6.5958-2.2029h0Z" fill="#d15900"/>
      </g>
      <g>
        <path id="e3d1e58c-f78e-4fb5-9857-0c9331da9979-2" data-name="e3d1e58c-f78e-4fb5-9857-0c9331da9979" d="M437.3589,30.9314c.7921-.7907.7932-2.0738.0025-2.8659-.0008-.0008-.0017-.0017-.0025-.0025h0l-3.4852-3.495c-.7858-.7894-2.0627-.7923-2.8521-.0066-.0022.0022-.0044.0044-.0066.0066h0l-3.4852,3.495c-.7824.7961-.7824,2.0724,0,2.8684l2.937,2.937c.1039.1081.1633.2514.1664.4014v5.404c-.0026.1827.0679.359.1958.4895l1.3216,1.3216c.1654.1784.4442.189.6226.0236.0081-.0076.016-.0154.0236-.0236l1.2825-1.2825h0l.7538-.7538c.1027-.096.1082-.257.0123-.3598-.0039-.0042-.008-.0083-.0123-.0123l-.5384-.5482c-.1135-.1081-.1179-.2878-.0098-.4014.0032-.0033.0064-.0066.0098-.0098l.5384-.5482c.1027-.096.1082-.257.0123-.3598-.0039-.0042-.008-.0083-.0123-.0123l-.5678-.5776c-.1108-.1031-.1171-.2766-.014-.3874.0045-.0048.0092-.0095.014-.014l.5874-.5776c.1027-.096.1082-.257.0123-.3598-.0039-.0042-.008-.0083-.0123-.0123l-.7538-.7636v-.2741l3.26-3.2992ZM432.4639,25.4099c.638.0054,1.1508.527,1.1454,1.165-.0054.638-.527,1.1508-1.165,1.1454-.6341-.0054-1.1454-.521-1.1454-1.1551-.0054-.6326.503-1.1498,1.1356-1.1552.0033,0,.0066,0,.0098,0h.0196Z" fill="url(#radial-gradient-2)"/>
        <path id="a21a8f7a-61cc-4035-8449-e5c8fe4d4d5e-2" data-name="a21a8f7a-61cc-4035-8449-e5c8fe4d4d5e" d="M431.5437,39.7619h0c.1154.0703.266.0337.3363-.0817.0227-.0374.0351-.0801.0357-.1238v-4.3565c.0008-.0849-.0393-.1651-.1077-.2154h0c-.1119-.0759-.2641-.0467-.3399.0651-.03.0442-.0447.0969-.0419.1502v4.3565c.0046.0832.0481.1594.1175.2056Z" fill="#ff9300" isolation="isolate" opacity=".75"/>
        <rect id="ecd3189c-fb1e-4a0e-a2b6-ba2f11dda484-2" data-name="ecd3189c-fb1e-4a0e-a2b6-ba2f11dda484" x="429.6542" y="29.228" width="5.7369" height=".6755" rx=".3133" ry=".3133" fill="#ff9300" isolation="isolate" opacity=".75"/>
        <rect id="a1949a3c-4818-4bd1-b236-0d970b92fc62-2" data-name="a1949a3c-4818-4bd1-b236-0d970b92fc62" x="429.6542" y="30.3245" width="5.7369" height=".6755" rx=".3133" ry=".3133" fill="#ff9300" isolation="isolate" opacity=".75"/>
      </g>
    </g>
    <rect x="453.2" y="61.6" width="123.2" height="35.2" fill="#fff" stroke="#4e4f4f" stroke-width=".25"/>
    <rect x="453.2" y="114.4" width="123.2" height="35.2" fill="#fff" stroke="#4e4f4f" stroke-width=".25"/>
    <rect x="453.2" y="167.2" width="123.2" height="35.2" fill="#fff" stroke="#4e4f4f" stroke-width=".25"/>
    <g>
      <path d="M171.6,132h10.2c1.65,0,3.9122-.9952,5.0272-2.2115l44.3457-48.3771c1.1149-1.2163,3.3772-2.2115,5.0272-2.2115h9.2178" fill="none" stroke="#3c3c41" stroke-miterlimit="10"/>
      <polygon points="244.3236 82.9397 250.8 79.2 244.3236 75.4602 244.3236 82.9397" fill="#3c3c41"/>
    </g>
    <g>
      <path d="M453.2,184.8h-10.2c-1.65,0-3.5625-1.2272-4.25-2.7272l-45.9001-100.1456c-.6875-1.5-2.5999-2.7272-4.25-2.7272h-9.2178" fill="none" stroke="#3c3c41" stroke-miterlimit="10"/>
      <polygon points="380.4764 75.4602 374 79.2 380.4764 82.9397 380.4764 75.4602" fill="#3c3c41"/>
    </g>
  </g>
  <g id="Text">
    <g>
      <path d="M49.07,29.0241v-2.1875c.3965.3325.8271.582,1.292.7485s.9341.2495,1.4082.2495c.2778,0,.5205-.0249.728-.0752s.3804-.1196.5195-.2085.2427-.1938.311-.3145.1025-.252.1025-.3931c0-.1914-.0547-.3623-.1641-.5127s-.2588-.2896-.4478-.417-.4136-.2505-.6733-.3691-.54-.2393-.8408-.3623c-.7656-.3188-1.3364-.7085-1.7124-1.1689s-.564-1.0161-.564-1.668c0-.5103.1025-.9492.3076-1.3159s.4844-.6689.8374-.9058.7622-.4111,1.2271-.5229.957-.1675,1.4766-.1675c.5103,0,.9629.0308,1.3569.0923s.7578.1562,1.0903.2837v2.0439c-.1641-.1138-.3428-.2144-.5366-.3008s-.3931-.1582-.5981-.2153-.4092-.0991-.6118-.1265-.3955-.041-.5776-.041c-.2505,0-.4785.0239-.6836.0718s-.3784.1152-.5195.2017-.2505.1904-.3281.311-.1162.2563-.1162.4067c0,.1641.0435.311.1299.4409s.2095.2529.3691.3691.353.23.5811.3418.4854.2266.7725.3452c.3921.1641.7441.3384,1.0562.5229s.5801.3931.8032.6255.394.498.5127.7964.1777.646.1777,1.0425c0,.5469-.1035,1.0059-.311,1.3774s-.4888.6724-.8442.9023-.769.3955-1.2407.4956-.9697.1504-1.4937.1504c-.5376,0-1.0493-.0454-1.5347-.1367s-.9058-.228-1.2612-.4102Z" fill="#2f2f2f"/>
      <path d="M63.8083,29.4001h-2.1533v-1.0664h-.0342c-.5332.8247-1.2466,1.2373-2.1396,1.2373-1.6226,0-2.4336-.9819-2.4336-2.9463v-4.2246h2.1533v4.0332c0,.9888.3921,1.4834,1.1758,1.4834.3872,0,.6973-.1357.9297-.4067s.3486-.6392.3486-1.104v-4.0059h2.1533v7Z" fill="#2f2f2f"/>
      <path d="M67.7639,28.5866h-.0273v.8135h-2.1602v-10.3633h2.1602v4.416h.0273c.5332-.8159,1.292-1.2236,2.2764-1.2236.9023,0,1.5972.3101,2.085.9297s.7314,1.4673.7314,2.543c0,1.1665-.2847,2.103-.8545,2.8096s-1.3306,1.0596-2.2832,1.0596c-.8613,0-1.5132-.3281-1.9551-.9844ZM67.7023,25.6335v.7178c0,.4512.1299.8247.3896,1.1211s.5923.4443.998.4443c.4922,0,.874-.1904,1.145-.5708s.4067-.9194.4067-1.6167c0-.5786-.124-1.0312-.3726-1.3569s-.6025-.4888-1.063-.4888c-.4331,0-.792.1616-1.0767.4854s-.4272.7451-.4272,1.2646Z" fill="#2f2f2f"/>
      <path d="M73.8967,29.2155v-1.75c.3555.2144.71.3735,1.063.4785s.687.1572,1.0015.1572c.3828,0,.6846-.0522.9058-.1572s.3315-.2642.3315-.4785c0-.1367-.0503-.2505-.1504-.3418s-.229-.1709-.3862-.2393-.3291-.1299-.5161-.1846-.3667-.1162-.54-.1846c-.2778-.105-.5229-.2178-.7349-.3384s-.3896-.2607-.5332-.4204-.2529-.3442-.3281-.5537-.1128-.458-.1128-.7451c0-.3921.0854-.729.2563-1.0117s.3989-.5137.6836-.6938.6108-.312.9775-.3965.7485-.1265,1.145-.1265c.3101,0,.6245.0239.9434.0718s.6333.1172.9434.2085v1.668c-.2734-.1597-.5664-.2793-.8784-.3589s-.6187-.1196-.9194-.1196c-.1411,0-.2744.0127-.3999.0376s-.2358.0615-.3315.1094-.1709.1094-.2256.1846-.082.1606-.082.2563c0,.1274.041.2368.123.3281s.189.1699.3213.2358.2793.1255.4409.1777.3223.106.4819.1606c.2871.1001.5469.2095.7793.3281s.4316.2573.5981.417.2939.3462.3828.5605.1333.4692.1333.7656c0,.4146-.0898.769-.27,1.063s-.4194.5332-.7178.7178-.6426.3188-1.0322.4033-.7939.1265-1.2134.1265c-.77,0-1.4834-.1187-2.1396-.3555Z" fill="#2f2f2f"/>
      <path d="M85.8615,29.1472c-.4878.2827-1.1919.4238-2.1123.4238-1.0757,0-1.9458-.3257-2.6113-.9775s-.998-1.4927-.998-2.5225c0-1.1895.3564-2.127,1.0698-2.813s1.667-1.0288,2.8608-1.0288c.8247,0,1.4219.1094,1.791.3281v1.832c-.4512-.3374-.9546-.5059-1.5107-.5059-.6196,0-1.1108.1812-1.4731.5435s-.5435.8623-.5435,1.5005c0,.6196.1733,1.1064.5195,1.4595s.8228.5298,1.4287.5298c.5376,0,1.064-.1685,1.5791-.5059v1.7363Z" fill="#2f2f2f"/>
      <path d="M91.9455,24.3483c-.2598-.1411-.563-.2119-.9092-.2119-.4692,0-.8364.1719-1.1006.5161s-.3965.8125-.3965,1.4048v3.3428h-2.1602v-7h2.1602v1.2988h.0273c.3418-.9478.957-1.4219,1.8457-1.4219.228,0,.4058.0273.5332.082v1.9893Z" fill="#2f2f2f"/>
      <path d="M94.0314,21.2927c-.3647,0-.6631-.1084-.8955-.3247s-.3486-.4819-.3486-.7964c0-.3237.1162-.5879.3486-.793s.5308-.3076.8955-.3076c.3691,0,.6689.1025.8989.3076s.3452.4692.3452.793c0,.3281-.1152.5972-.3452.8066s-.5298.3145-.8989.3145ZM95.0979,29.4001h-2.1602v-7h2.1602v7Z" fill="#2f2f2f"/>
      <path d="M99.0671,28.5866h-.0273v4.0332h-2.1602v-10.2197h2.1602v1.0527h.0273c.5332-.8159,1.2827-1.2236,2.249-1.2236.9067,0,1.6074.311,2.1021.9331s.7417,1.4688.7417,2.5396c0,1.1665-.2881,2.103-.8647,2.8096s-1.3433,1.0596-2.3003,1.0596c-.8433,0-1.4858-.3281-1.9277-.9844ZM99.0056,25.7155v.5605c0,.4829.1274.8774.3828,1.1826s.5903.458,1.0049.458c.4922,0,.874-.1904,1.145-.5708s.4067-.9194.4067-1.6167c0-1.2305-.4785-1.8457-1.4355-1.8457-.4419,0-.8032.1675-1.0835.5024s-.4204.7783-.4204,1.3296Z" fill="#2f2f2f"/>
      <path d="M109.7858,29.3181c-.3188.1685-.7998.2529-1.4424.2529-1.522,0-2.2832-.7905-2.2832-2.3721v-3.2061h-1.1348v-1.5928h1.1348v-1.5107l2.1533-.6152v2.126h1.5723v1.5928h-1.5723v2.8301c0,.729.2896,1.0938.8682,1.0938.228,0,.4624-.0659.7041-.1982v1.5996Z" fill="#2f2f2f"/>
      <path d="M112.1638,21.2927c-.3647,0-.6631-.1084-.8955-.3247s-.3486-.4819-.3486-.7964c0-.3237.1162-.5879.3486-.793s.5308-.3076.8955-.3076c.3691,0,.6689.1025.8989.3076s.3452.4692.3452.793c0,.3281-.1152.5972-.3452.8066s-.5298.3145-.8989.3145ZM113.2302,29.4001h-2.1602v-7h2.1602v7Z" fill="#2f2f2f"/>
      <path d="M118.341,29.571c-1.1665,0-2.084-.3271-2.7515-.981s-1.0015-1.5415-1.0015-2.6626c0-1.1577.3462-2.0635,1.0391-2.7173s1.6294-.981,2.8096-.981c1.1621,0,2.0737.3271,2.7344.981s.9912,1.5186.9912,2.5942c0,1.1621-.3408,2.0806-1.022,2.7549s-1.6143,1.0117-2.7993,1.0117ZM118.3957,23.8835c-.5103,0-.9067.1753-1.1895.5264s-.4238.8477-.4238,1.4902c0,1.3442.5425,2.0166,1.627,2.0166,1.0347,0,1.5518-.6904,1.5518-2.0713,0-1.3081-.522-1.9619-1.5654-1.9619Z" fill="#2f2f2f"/>
      <path d="M130.3034,29.4001h-2.1533v-3.8896c0-1.0845-.3872-1.627-1.1621-1.627-.3735,0-.6812.1436-.9229.4307s-.3623.6519-.3623,1.0938v3.9922h-2.1602v-7h2.1602v1.1074h.0273c.5151-.8521,1.2646-1.2783,2.249-1.2783,1.5493,0,2.3242.9614,2.3242,2.8848v4.2861Z" fill="#2f2f2f"/>
      <path d="M144.7067,29.4001h-2.4062l-.6973-2.1807h-3.4863l-.6904,2.1807h-2.3926l3.5684-9.8027h2.6182l3.4863,9.8027ZM141.0974,25.5241l-1.0527-3.2949c-.0776-.2461-.1323-.54-.1641-.8818h-.0547c-.0229.2871-.0796.5718-.1709.8545l-1.0664,3.3223h2.5088Z" fill="#2f2f2f"/>
    </g>
    <g>
      <path d="M72.1701,83.5998h-5.0859v-9.8027h1.1484v8.7637h3.9375v1.0391Z" fill="#2f2f2f"/>
      <path d="M76.4494,83.7639c-1.0347,0-1.8604-.3271-2.478-.981s-.9263-1.521-.9263-2.6011c0-1.1758.3213-2.0942.9639-2.7549s1.5107-.9912,2.6045-.9912c1.0435,0,1.8584.3213,2.4438.9639s.8784,1.5337.8784,2.6729c0,1.1167-.3154,2.0107-.9468,2.6831s-1.4775,1.0083-2.5396,1.0083ZM76.5314,77.3791c-.7202,0-1.2896.2451-1.709.7349s-.6289,1.1655-.6289,2.0269c0,.8296.2119,1.4834.6357,1.9619s.9912.7178,1.7021.7178c.7246,0,1.2817-.2349,1.6714-.7041s.5845-1.1372.5845-2.0029c0-.875-.1948-1.5493-.5845-2.0234s-.9468-.7109-1.6714-.7109Z" fill="#2f2f2f"/>
      <path d="M87.7014,83.0393c0,2.5703-1.2305,3.8555-3.6914,3.8555-.8657,0-1.6226-.1641-2.2695-.4922v-1.1211c.7886.4375,1.5405.6562,2.2559.6562,1.7227,0,2.584-.916,2.584-2.748v-.7656h-.0273c-.5332.8931-1.3354,1.3398-2.4062,1.3398-.8706,0-1.5713-.311-2.1021-.9331s-.7964-1.457-.7964-2.5054c0-1.1895.2861-2.1353.8579-2.8369s1.3545-1.0527,2.3481-1.0527c.9434,0,1.6431.3784,2.0986,1.1348h.0273v-.9707h1.1211v6.4395ZM86.5803,80.4348v-1.0322c0-.5562-.188-1.0322-.564-1.4287s-.8442-.5947-1.4048-.5947c-.6929,0-1.2349.252-1.627.7554s-.5879,1.209-.5879,2.1157c0,.7793.188,1.4023.564,1.8696s.874.7007,1.4937.7007c.6289,0,1.1406-.2231,1.5347-.6699s.5913-1.0186.5913-1.7158Z" fill="#2f2f2f"/>
      <path d="M90.5451,74.8225c-.2007,0-.3716-.0684-.5127-.2051s-.2119-.3101-.2119-.5195.0708-.3838.2119-.5229.312-.2085.5127-.2085c.2051,0,.3794.0693.5229.2085s.2153.3135.2153.5229c0,.2007-.0718.3716-.2153.5127s-.3179.2119-.5229.2119ZM91.092,83.5998h-1.1211v-7h1.1211v7Z" fill="#2f2f2f"/>
      <path d="M98.133,83.2785c-.5376.3237-1.1758.4854-1.9141.4854-.998,0-1.8037-.3247-2.4165-.9741s-.9194-1.4912-.9194-2.5259c0-1.1528.3306-2.0791.9912-2.7788s1.5425-1.0493,2.6455-1.0493c.6152,0,1.1577.1138,1.627.3418v1.1484c-.5195-.3647-1.0757-.5469-1.668-.5469-.7153,0-1.3022.2563-1.7603.769s-.687,1.186-.687,2.02c0,.8203.2153,1.4673.646,1.9414s1.0083.7109,1.7329.7109c.6108,0,1.1851-.2026,1.7227-.6084v1.0664Z" fill="#2f2f2f"/>
      <path d="M104.8391,83.5998h-1.1211v-1.0938h-.0273c-.4878.8384-1.2056,1.2578-2.1533,1.2578-.6973,0-1.2432-.1846-1.6372-.5537s-.5913-.8589-.5913-1.4697c0-1.3081.77-2.0688,2.3105-2.2832l2.0986-.2939c0-1.1895-.481-1.7842-1.4424-1.7842-.8433,0-1.604.2871-2.2832.8613v-1.1484c.688-.4375,1.481-.6562,2.3789-.6562,1.645,0,2.4678.8706,2.4678,2.6113v4.5527ZM103.718,80.0588l-1.6885.2324c-.5195.0728-.9116.2017-1.1758.3862s-.3965.5117-.3965.981c0,.3418.1221.6211.3657.8374s.5684.3247.9741.3247c.5562,0,1.0151-.1948,1.3774-.5845s.5435-.8828.5435-1.48v-.6973Z" fill="#2f2f2f"/>
      <path d="M108.0725,83.5998h-1.1211v-10.3633h1.1211v10.3633Z" fill="#2f2f2f"/>
      <path d="M119.0578,76.9211l-4.1426,5.7217h4.1016v.957h-5.749v-.3486l4.1426-5.6943h-3.7529v-.957h5.4004v.3213Z" fill="#2f2f2f"/>
      <path d="M123.4328,83.7639c-1.0347,0-1.8604-.3271-2.478-.981s-.9263-1.521-.9263-2.6011c0-1.1758.3213-2.0942.9639-2.7549s1.5107-.9912,2.6045-.9912c1.0435,0,1.8584.3213,2.4438.9639s.8784,1.5337.8784,2.6729c0,1.1167-.3154,2.0107-.9468,2.6831s-1.4775,1.0083-2.5396,1.0083ZM123.5148,77.3791c-.7202,0-1.2896.2451-1.709.7349s-.6289,1.1655-.6289,2.0269c0,.8296.2119,1.4834.6357,1.9619s.9912.7178,1.7021.7178c.7246,0,1.2817-.2349,1.6714-.7041s.5845-1.1372.5845-2.0029c0-.875-.1948-1.5493-.5845-2.0234s-.9468-.7109-1.6714-.7109Z" fill="#2f2f2f"/>
      <path d="M134.5207,83.5998h-1.1211v-3.9922c0-1.4858-.5425-2.2285-1.627-2.2285-.5605,0-1.0244.2109-1.3911.6323s-.5503.9536-.5503,1.5962v3.9922h-1.1211v-7h1.1211v1.1621h.0273c.5288-.8843,1.2944-1.3262,2.2969-1.3262.7656,0,1.3511.2471,1.7568.7417s.6084,1.209.6084,2.1431v4.2793Z" fill="#2f2f2f"/>
      <path d="M142.259,80.3801h-4.9424c.0181.7793.228,1.3809.6289,1.8047s.9526.6357,1.6543.6357c.7886,0,1.5132-.2598,2.1738-.7793v1.0527c-.6152.4468-1.4287.6699-2.4404.6699-.9888,0-1.7661-.3179-2.3311-.9536s-.8477-1.5303-.8477-2.6831c0-1.0894.3086-1.9766.9263-2.6626s1.3843-1.0288,2.3003-1.0288,1.6245.2964,2.126.8887.752,1.415.752,2.4678v.5879ZM141.1105,79.4299c-.0044-.647-.1606-1.1509-.4683-1.5107s-.7349-.54-1.2817-.54c-.5288,0-.9775.189-1.3467.5674s-.5972.8726-.6836,1.4834h3.7803Z" fill="#2f2f2f"/>
      <path d="M151.6037,83.5998h-1.1211v-8.4697c-.0864.0864-.2129.1855-.3794.2974s-.353.2222-.5605.3315-.4263.2119-.6562.3076-.4546.1709-.6733.2256v-1.1348c.2461-.0684.5068-.1606.7827-.2769s.5469-.2461.8135-.3896.5186-.2939.7554-.4512.4419-.311.6152-.4614h.4238v10.0215Z" fill="#2f2f2f"/>
    </g>
    <g>
      <path d="M72.1701,136.4001h-5.0859v-9.8027h1.1484v8.7637h3.9375v1.0391Z" fill="#2f2f2f"/>
      <path d="M76.4494,136.5642c-1.0347,0-1.8604-.3271-2.478-.981s-.9263-1.521-.9263-2.6011c0-1.1758.3213-2.0942.9639-2.7549s1.5107-.9912,2.6045-.9912c1.0435,0,1.8584.3213,2.4438.9639s.8784,1.5337.8784,2.6729c0,1.1167-.3154,2.0107-.9468,2.6831s-1.4775,1.0083-2.5396,1.0083ZM76.5314,130.1794c-.7202,0-1.2896.2451-1.709.7349s-.6289,1.1655-.6289,2.0269c0,.8296.2119,1.4834.6357,1.9619s.9912.7178,1.7021.7178c.7246,0,1.2817-.2349,1.6714-.7041s.5845-1.1372.5845-2.0029c0-.875-.1948-1.5493-.5845-2.0234s-.9468-.7109-1.6714-.7109Z" fill="#2f2f2f"/>
      <path d="M87.7014,135.8396c0,2.5703-1.2305,3.8555-3.6914,3.8555-.8657,0-1.6226-.1641-2.2695-.4922v-1.1211c.7886.4375,1.5405.6562,2.2559.6562,1.7227,0,2.584-.916,2.584-2.748v-.7656h-.0273c-.5332.8931-1.3354,1.3398-2.4062,1.3398-.8706,0-1.5713-.311-2.1021-.9331s-.7964-1.457-.7964-2.5054c0-1.1895.2861-2.1353.8579-2.8369s1.3545-1.0527,2.3481-1.0527c.9434,0,1.6431.3784,2.0986,1.1348h.0273v-.9707h1.1211v6.4395ZM86.5803,133.2351v-1.0322c0-.5562-.188-1.0322-.564-1.4287s-.8442-.5947-1.4048-.5947c-.6929,0-1.2349.252-1.627.7554s-.5879,1.209-.5879,2.1157c0,.7793.188,1.4023.564,1.8696s.874.7007,1.4937.7007c.6289,0,1.1406-.2231,1.5347-.6699s.5913-1.0186.5913-1.7158Z" fill="#2f2f2f"/>
      <path d="M90.5451,127.6228c-.2007,0-.3716-.0684-.5127-.2051s-.2119-.3101-.2119-.5195.0708-.3838.2119-.5229.312-.2085.5127-.2085c.2051,0,.3794.0693.5229.2085s.2153.3135.2153.5229c0,.2007-.0718.3716-.2153.5127s-.3179.2119-.5229.2119ZM91.092,136.4001h-1.1211v-7h1.1211v7Z" fill="#2f2f2f"/>
      <path d="M98.133,136.0788c-.5376.3237-1.1758.4854-1.9141.4854-.998,0-1.8037-.3247-2.4165-.9741s-.9194-1.4912-.9194-2.5259c0-1.1528.3306-2.0791.9912-2.7788s1.5425-1.0493,2.6455-1.0493c.6152,0,1.1577.1138,1.627.3418v1.1484c-.5195-.3647-1.0757-.5469-1.668-.5469-.7153,0-1.3022.2563-1.7603.769s-.687,1.186-.687,2.02c0,.8203.2153,1.4673.646,1.9414s1.0083.7109,1.7329.7109c.6108,0,1.1851-.2026,1.7227-.6084v1.0664Z" fill="#2f2f2f"/>
      <path d="M104.8391,136.4001h-1.1211v-1.0938h-.0273c-.4878.8384-1.2056,1.2578-2.1533,1.2578-.6973,0-1.2432-.1846-1.6372-.5537s-.5913-.8589-.5913-1.4697c0-1.3081.77-2.0688,2.3105-2.2832l2.0986-.2939c0-1.1895-.481-1.7842-1.4424-1.7842-.8433,0-1.604.2871-2.2832.8613v-1.1484c.688-.4375,1.481-.6562,2.3789-.6562,1.645,0,2.4678.8706,2.4678,2.6113v4.5527ZM103.718,132.8591l-1.6885.2324c-.5195.0728-.9116.2017-1.1758.3862s-.3965.5117-.3965.981c0,.3418.1221.6211.3657.8374s.5684.3247.9741.3247c.5562,0,1.0151-.1948,1.3774-.5845s.5435-.8828.5435-1.48v-.6973Z" fill="#2f2f2f"/>
      <path d="M108.0725,136.4001h-1.1211v-10.3633h1.1211v10.3633Z" fill="#2f2f2f"/>
      <path d="M119.0578,129.7214l-4.1426,5.7217h4.1016v.957h-5.749v-.3486l4.1426-5.6943h-3.7529v-.957h5.4004v.3213Z" fill="#2f2f2f"/>
      <path d="M123.4328,136.5642c-1.0347,0-1.8604-.3271-2.478-.981s-.9263-1.521-.9263-2.6011c0-1.1758.3213-2.0942.9639-2.7549s1.5107-.9912,2.6045-.9912c1.0435,0,1.8584.3213,2.4438.9639s.8784,1.5337.8784,2.6729c0,1.1167-.3154,2.0107-.9468,2.6831s-1.4775,1.0083-2.5396,1.0083ZM123.5148,130.1794c-.7202,0-1.2896.2451-1.709.7349s-.6289,1.1655-.6289,2.0269c0,.8296.2119,1.4834.6357,1.9619s.9912.7178,1.7021.7178c.7246,0,1.2817-.2349,1.6714-.7041s.5845-1.1372.5845-2.0029c0-.875-.1948-1.5493-.5845-2.0234s-.9468-.7109-1.6714-.7109Z" fill="#2f2f2f"/>
      <path d="M134.5207,136.4001h-1.1211v-3.9922c0-1.4858-.5425-2.2285-1.627-2.2285-.5605,0-1.0244.2109-1.3911.6323s-.5503.9536-.5503,1.5962v3.9922h-1.1211v-7h1.1211v1.1621h.0273c.5288-.8843,1.2944-1.3262,2.2969-1.3262.7656,0,1.3511.2471,1.7568.7417s.6084,1.209.6084,2.1431v4.2793Z" fill="#2f2f2f"/>
      <path d="M142.259,133.1804h-4.9424c.0181.7793.228,1.3809.6289,1.8047s.9526.6357,1.6543.6357c.7886,0,1.5132-.2598,2.1738-.7793v1.0527c-.6152.4468-1.4287.6699-2.4404.6699-.9888,0-1.7661-.3179-2.3311-.9536s-.8477-1.5303-.8477-2.6831c0-1.0894.3086-1.9766.9263-2.6626s1.3843-1.0288,2.3003-1.0288,1.6245.2964,2.126.8887.752,1.415.752,2.4678v.5879ZM141.1105,132.2302c-.0044-.647-.1606-1.1509-.4683-1.5107s-.7349-.54-1.2817-.54c-.5288,0-.9775.189-1.3467.5674s-.5972.8726-.6836,1.4834h3.7803Z" fill="#2f2f2f"/>
      <path d="M151.9318,129.1677c0-.3008-.0469-.563-.1401-.7861s-.2212-.4092-.3828-.5571-.3521-.2588-.5708-.3315-.4556-.1094-.7109-.1094c-.2188,0-.4331.0298-.6426.0889s-.4136.1411-.6118.2461-.3896.23-.5742.376-.3564.3076-.5161.4854v-1.2031c.3145-.3052.6665-.5391,1.0562-.7007s.8647-.2427,1.4253-.2427c.4009,0,.7725.0581,1.1143.1743s.6382.2861.8887.5093.4478.499.5913.8271.2153.7041.2153,1.1279c0,.3872-.0444.7383-.1333,1.0527s-.2231.6108-.4033.8887-.4067.5444-.6802.7998-.5947.5151-.9639.7793c-.4604.3281-.8398.6084-1.1382.8408s-.5356.4502-.7109.6528-.2983.4058-.3691.6084-.106.4365-.106.7007h4.8809v1.0049h-6.0498v-.4854c0-.4194.0454-.7886.1367-1.1074s.2417-.6221.4512-.9092c.2095-.2871.4844-.5742.8237-.8613s.7554-.6108,1.2476-.9707c.3555-.2554.6528-.499.8921-.7314s.4316-.4648.5776-.6973.2495-.4683.311-.7075.0923-.4932.0923-.7622Z" fill="#2f2f2f"/>
    </g>
    <g>
      <path d="M72.1701,189.1999h-5.0859v-9.8027h1.1484v8.7637h3.9375v1.0391Z" fill="#2f2f2f"/>
      <path d="M76.4494,189.364c-1.0347,0-1.8604-.3271-2.478-.981s-.9263-1.521-.9263-2.6011c0-1.1758.3213-2.0942.9639-2.7549s1.5107-.9912,2.6045-.9912c1.0435,0,1.8584.3213,2.4438.9639s.8784,1.5337.8784,2.6729c0,1.1167-.3154,2.0107-.9468,2.6831s-1.4775,1.0083-2.5396,1.0083ZM76.5314,182.9792c-.7202,0-1.2896.2451-1.709.7349s-.6289,1.1655-.6289,2.0269c0,.8296.2119,1.4834.6357,1.9619s.9912.7178,1.7021.7178c.7246,0,1.2817-.2349,1.6714-.7041s.5845-1.1372.5845-2.0029c0-.875-.1948-1.5493-.5845-2.0234s-.9468-.7109-1.6714-.7109Z" fill="#2f2f2f"/>
      <path d="M87.7014,188.6394c0,2.5703-1.2305,3.8555-3.6914,3.8555-.8657,0-1.6226-.1641-2.2695-.4922v-1.1211c.7886.4375,1.5405.6562,2.2559.6562,1.7227,0,2.584-.916,2.584-2.748v-.7656h-.0273c-.5332.8931-1.3354,1.3398-2.4062,1.3398-.8706,0-1.5713-.311-2.1021-.9331s-.7964-1.457-.7964-2.5054c0-1.1895.2861-2.1353.8579-2.8369s1.3545-1.0527,2.3481-1.0527c.9434,0,1.6431.3784,2.0986,1.1348h.0273v-.9707h1.1211v6.4395ZM86.5803,186.0349v-1.0322c0-.5562-.188-1.0322-.564-1.4287s-.8442-.5947-1.4048-.5947c-.6929,0-1.2349.252-1.627.7554s-.5879,1.209-.5879,2.1157c0,.7793.188,1.4023.564,1.8696s.874.7007,1.4937.7007c.6289,0,1.1406-.2231,1.5347-.6699s.5913-1.0186.5913-1.7158Z" fill="#2f2f2f"/>
      <path d="M90.5451,180.4226c-.2007,0-.3716-.0684-.5127-.2051s-.2119-.3101-.2119-.5195.0708-.3838.2119-.5229.312-.2085.5127-.2085c.2051,0,.3794.0693.5229.2085s.2153.3135.2153.5229c0,.2007-.0718.3716-.2153.5127s-.3179.2119-.5229.2119ZM91.092,189.1999h-1.1211v-7h1.1211v7Z" fill="#2f2f2f"/>
      <path d="M98.133,188.8786c-.5376.3237-1.1758.4854-1.9141.4854-.998,0-1.8037-.3247-2.4165-.9741s-.9194-1.4912-.9194-2.5259c0-1.1528.3306-2.0791.9912-2.7788s1.5425-1.0493,2.6455-1.0493c.6152,0,1.1577.1138,1.627.3418v1.1484c-.5195-.3647-1.0757-.5469-1.668-.5469-.7153,0-1.3022.2563-1.7603.769s-.687,1.186-.687,2.02c0,.8203.2153,1.4673.646,1.9414s1.0083.7109,1.7329.7109c.6108,0,1.1851-.2026,1.7227-.6084v1.0664Z" fill="#2f2f2f"/>
      <path d="M104.8391,189.1999h-1.1211v-1.0938h-.0273c-.4878.8384-1.2056,1.2578-2.1533,1.2578-.6973,0-1.2432-.1846-1.6372-.5537s-.5913-.8589-.5913-1.4697c0-1.3081.77-2.0688,2.3105-2.2832l2.0986-.2939c0-1.1895-.481-1.7842-1.4424-1.7842-.8433,0-1.604.2871-2.2832.8613v-1.1484c.688-.4375,1.481-.6562,2.3789-.6562,1.645,0,2.4678.8706,2.4678,2.6113v4.5527ZM103.718,185.6589l-1.6885.2324c-.5195.0728-.9116.2017-1.1758.3862s-.3965.5117-.3965.981c0,.3418.1221.6211.3657.8374s.5684.3247.9741.3247c.5562,0,1.0151-.1948,1.3774-.5845s.5435-.8828.5435-1.48v-.6973Z" fill="#2f2f2f"/>
      <path d="M108.0725,189.1999h-1.1211v-10.3633h1.1211v10.3633Z" fill="#2f2f2f"/>
      <path d="M119.0578,182.5212l-4.1426,5.7217h4.1016v.957h-5.749v-.3486l4.1426-5.6943h-3.7529v-.957h5.4004v.3213Z" fill="#2f2f2f"/>
      <path d="M123.4328,189.364c-1.0347,0-1.8604-.3271-2.478-.981s-.9263-1.521-.9263-2.6011c0-1.1758.3213-2.0942.9639-2.7549s1.5107-.9912,2.6045-.9912c1.0435,0,1.8584.3213,2.4438.9639s.8784,1.5337.8784,2.6729c0,1.1167-.3154,2.0107-.9468,2.6831s-1.4775,1.0083-2.5396,1.0083ZM123.5148,182.9792c-.7202,0-1.2896.2451-1.709.7349s-.6289,1.1655-.6289,2.0269c0,.8296.2119,1.4834.6357,1.9619s.9912.7178,1.7021.7178c.7246,0,1.2817-.2349,1.6714-.7041s.5845-1.1372.5845-2.0029c0-.875-.1948-1.5493-.5845-2.0234s-.9468-.7109-1.6714-.7109Z" fill="#2f2f2f"/>
      <path d="M134.5207,189.1999h-1.1211v-3.9922c0-1.4858-.5425-2.2285-1.627-2.2285-.5605,0-1.0244.2109-1.3911.6323s-.5503.9536-.5503,1.5962v3.9922h-1.1211v-7h1.1211v1.1621h.0273c.5288-.8843,1.2944-1.3262,2.2969-1.3262.7656,0,1.3511.2471,1.7568.7417s.6084,1.209.6084,2.1431v4.2793Z" fill="#2f2f2f"/>
      <path d="M142.259,185.9802h-4.9424c.0181.7793.228,1.3809.6289,1.8047s.9526.6357,1.6543.6357c.7886,0,1.5132-.2598,2.1738-.7793v1.0527c-.6152.4468-1.4287.6699-2.4404.6699-.9888,0-1.7661-.3179-2.3311-.9536s-.8477-1.5303-.8477-2.6831c0-1.0894.3086-1.9766.9263-2.6626s1.3843-1.0288,2.3003-1.0288,1.6245.2964,2.126.8887.752,1.415.752,2.4678v.5879ZM141.1105,185.03c-.0044-.647-.1606-1.1509-.4683-1.5107s-.7349-.54-1.2817-.54c-.5288,0-.9775.189-1.3467.5674s-.5972.8726-.6836,1.4834h3.7803Z" fill="#2f2f2f"/>
      <path d="M153.1691,186.4245c0,.4419-.083.8442-.2495,1.2065s-.4009.6724-.7041.9297-.6665.457-1.0903.5981-.8911.2119-1.4014.2119c-.9341,0-1.6772-.1777-2.2285-.5332v-1.2031c.6606.5195,1.4175.7793,2.2695.7793.3418,0,.6504-.0435.9263-.1299s.5127-.2119.7109-.376.3511-.3623.458-.5947.1606-.4946.1606-.7861c0-1.2808-.9116-1.9209-2.7344-1.9209h-.8135v-.9502h.7725c1.6133,0,2.4199-.6016,2.4199-1.8047,0-1.1118-.6152-1.668-1.8457-1.668-.6929,0-1.3423.2324-1.9482.6973v-1.0869c.6245-.3735,1.3672-.5605,2.2285-.5605.4102,0,.7817.0571,1.1143.1709s.6177.2734.8545.4785.4204.4512.5503.7383.1948.604.1948.9502c0,1.2896-.6519,2.1191-1.9551,2.4883v.0273c.3325.0366.6401.1172.9229.2427s.5264.2881.7314.4888.3657.4365.4819.7075.1743.5708.1743.8989Z" fill="#2f2f2f"/>
    </g>
    <g>
      <path d="M238.5412,29.4001h-2.4062l-.6973-2.1807h-3.4863l-.6904,2.1807h-2.3926l3.5684-9.8027h2.6182l3.4863,9.8027ZM234.9318,25.5241l-1.0527-3.2949c-.0776-.2461-.1323-.54-.1641-.8818h-.0547c-.0229.2871-.0796.5718-.1709.8545l-1.0664,3.3223h2.5088Z" fill="#2f2f2f"/>
      <path d="M245.447,29.4001h-6.2822v-.8955l3.5137-4.5117h-3.165v-1.5928h5.9062v1.0664l-3.3291,4.3408h3.3564v1.5928Z" fill="#2f2f2f"/>
      <path d="M253.3288,29.4001h-2.1533v-1.0664h-.0342c-.5332.8247-1.2466,1.2373-2.1396,1.2373-1.6226,0-2.4336-.9819-2.4336-2.9463v-4.2246h2.1533v4.0332c0,.9888.3921,1.4834,1.1758,1.4834.3872,0,.6973-.1357.9297-.4067s.3486-.6392.3486-1.104v-4.0059h2.1533v7Z" fill="#2f2f2f"/>
      <path d="M259.6633,24.3483c-.2598-.1411-.563-.2119-.9092-.2119-.4692,0-.8364.1719-1.1006.5161s-.3965.8125-.3965,1.4048v3.3428h-2.1602v-7h2.1602v1.2988h.0273c.3418-.9478.957-1.4219,1.8457-1.4219.228,0,.4058.0273.5332.082v1.9893Z" fill="#2f2f2f"/>
      <path d="M267.0358,26.5153h-4.5664c.0728,1.0161.7134,1.5244,1.9209,1.5244.77,0,1.4468-.1821,2.0303-.5469v1.5586c-.647.3462-1.4878.5195-2.5225.5195-1.1304,0-2.0073-.3135-2.6318-.9399s-.9365-1.5005-.9365-2.6216c0-1.1621.3374-2.0825,1.0117-2.7617s1.5039-1.0186,2.4883-1.0186c1.021,0,1.8105.3032,2.3687.9092s.8374,1.4287.8374,2.4678v.9092ZM265.0329,25.1892c0-1.0024-.4058-1.5039-1.2168-1.5039-.3462,0-.646.1436-.8989.4307s-.4067.645-.4614,1.0732h2.5771Z" fill="#2f2f2f"/>
      <path d="M276.7497,24.3483c-.2598-.1411-.563-.2119-.9092-.2119-.4692,0-.8364.1719-1.1006.5161s-.3965.8125-.3965,1.4048v3.3428h-2.1602v-7h2.1602v1.2988h.0273c.3418-.9478.957-1.4219,1.8457-1.4219.228,0,.4058.0273.5332.082v1.9893Z" fill="#2f2f2f"/>
      <path d="M284.1218,26.5153h-4.5664c.0728,1.0161.7134,1.5244,1.9209,1.5244.77,0,1.4468-.1821,2.0303-.5469v1.5586c-.647.3462-1.4878.5195-2.5225.5195-1.1304,0-2.0073-.3135-2.6318-.9399s-.9365-1.5005-.9365-2.6216c0-1.1621.3374-2.0825,1.0117-2.7617s1.5039-1.0186,2.4883-1.0186c1.021,0,1.8105.3032,2.3687.9092s.8374,1.4287.8374,2.4678v.9092ZM282.1188,25.1892c0-1.0024-.4058-1.5039-1.2168-1.5039-.3462,0-.646.1436-.8989.4307s-.4067.645-.4614,1.0732h2.5771Z" fill="#2f2f2f"/>
      <path d="M292.3811,28.6003c0,1.2988-.376,2.3047-1.1279,3.0181s-1.8413,1.0698-3.2676,1.0698c-.9434,0-1.6909-.1343-2.2422-.4033v-1.8184c.7202.4194,1.4468.6289,2.1807.6289.729,0,1.2944-.1924,1.6953-.5776s.6016-.9082.6016-1.5688v-.5537h-.0273c-.4922.7837-1.2192,1.1758-2.1807,1.1758-.8931,0-1.6021-.3145-2.126-.9434s-.7861-1.4722-.7861-2.5293c0-1.1851.2915-2.126.875-2.8232s1.3511-1.0459,2.3037-1.0459c.8521,0,1.4902.3281,1.9141.9844h.0273v-.8135h2.1602v6.2002ZM290.2482,26.0368v-.5537c0-.4419-.1309-.8193-.3931-1.1313s-.6025-.4683-1.022-.4683c-.4785,0-.8545.187-1.1279.5605s-.4102.8999-.4102,1.5791c0,.5835.1299,1.0449.3896,1.3843s.6152.5093,1.0664.5093c.4468,0,.8076-.1719,1.0835-.5161s.4136-.7988.4136-1.3638Z" fill="#2f2f2f"/>
      <path d="M295.236,21.2927c-.3647,0-.6631-.1084-.8955-.3247s-.3486-.4819-.3486-.7964c0-.3237.1162-.5879.3486-.793s.5308-.3076.8955-.3076c.3691,0,.6689.1025.8989.3076s.3452.4692.3452.793c0,.3281-.1152.5972-.3452.8066s-.5298.3145-.8989.3145ZM296.3024,29.4001h-2.1602v-7h2.1602v7Z" fill="#2f2f2f"/>
      <path d="M301.4133,29.571c-1.1665,0-2.084-.3271-2.7515-.981s-1.0015-1.5415-1.0015-2.6626c0-1.1577.3462-2.0635,1.0391-2.7173s1.6294-.981,2.8096-.981c1.1621,0,2.0737.3271,2.7344.981s.9912,1.5186.9912,2.5942c0,1.1621-.3408,2.0806-1.022,2.7549s-1.6143,1.0117-2.7993,1.0117ZM301.468,23.8835c-.5103,0-.9067.1753-1.1895.5264s-.4238.8477-.4238,1.4902c0,1.3442.5425,2.0166,1.627,2.0166,1.0347,0,1.5518-.6904,1.5518-2.0713,0-1.3081-.522-1.9619-1.5654-1.9619Z" fill="#2f2f2f"/>
      <path d="M313.3757,29.4001h-2.1533v-3.8896c0-1.0845-.3872-1.627-1.1621-1.627-.3735,0-.6812.1436-.9229.4307s-.3623.6519-.3623,1.0938v3.9922h-2.1602v-7h2.1602v1.1074h.0273c.5151-.8521,1.2646-1.2783,2.249-1.2783,1.5493,0,2.3242.9614,2.3242,2.8848v4.2861Z" fill="#2f2f2f"/>
    </g>
    <g>
      <path d="M267.9118,79.8947v3.7051h-1.1484v-9.8027h2.6934c1.0483,0,1.8604.2554,2.437.7656s.8647,1.2305.8647,2.1602-.3203,1.6909-.9604,2.2832-1.5049.8887-2.5942.8887h-1.292ZM267.9118,74.8361v4.0195h1.2031c.793,0,1.3979-.1812,1.8149-.5435s.6255-.874.6255-1.5347c0-1.2944-.7656-1.9414-2.2969-1.9414h-1.3467Z" fill="#2f2f2f"/>
      <path d="M280.2644,83.5998h-1.1211v-4.0332c0-1.4585-.5425-2.1875-1.627-2.1875-.5469,0-1.0073.2109-1.3809.6323s-.5605.9629-.5605,1.6235v3.9648h-1.1211v-10.3633h1.1211v4.5254h.0273c.5376-.8843,1.3032-1.3262,2.2969-1.3262,1.5767,0,2.3652.9502,2.3652,2.8506v4.3135Z" fill="#2f2f2f"/>
      <path d="M287.9479,76.5998l-3.2197,8.1211c-.5742,1.4492-1.3809,2.1738-2.4199,2.1738-.2915,0-.5356-.0298-.7314-.0889v-1.0049c.2417.082.4624.123.6631.123.5649,0,.9888-.3374,1.2715-1.0117l.5605-1.3262-2.7344-6.9863h1.2441l1.8936,5.3867c.0229.0684.0708.2461.1436.5332h.041c.0229-.1094.0684-.2827.1367-.5195l1.9893-5.4004h1.1621Z" fill="#2f2f2f"/>
      <path d="M288.7272,83.3469v-1.2031c.6108.4512,1.2827.6768,2.0166.6768.9844,0,1.4766-.3281,1.4766-.9844,0-.187-.042-.3452-.1265-.4751s-.1982-.2451-.3418-.3452-.312-.1904-.5059-.27-.4023-.1631-.6255-.2495c-.3101-.123-.582-.2471-.8169-.3726s-.4307-.2666-.5879-.4238-.2759-.3359-.3555-.5366-.1196-.4351-.1196-.7041c0-.3281.0752-.6187.2256-.8716s.3511-.4648.6016-.6357.5366-.2998.8579-.3862.6528-.1299.9946-.1299c.606,0,1.1484.105,1.627.3145v1.1348c-.5151-.3374-1.1074-.5059-1.7773-.5059-.2095,0-.3989.0239-.5674.0718s-.3135.1152-.4341.2017-.2144.1904-.2803.311-.0991.2539-.0991.3999c0,.1821.0332.335.0991.458s.1631.2324.2905.3281.2827.1821.4648.2598.3896.1616.6221.2529c.3101.1187.5879.2402.834.3657s.4556.2666.6289.4238.3066.3384.3999.5435.1401.4487.1401.7314c0,.3462-.0762.647-.229.9023s-.3564.4673-.6118.6357-.5493.2939-.8818.376-.6812.123-1.0459.123c-.7202,0-1.3442-.1392-1.873-.417Z" fill="#2f2f2f"/>
      <path d="M295.6657,74.8225c-.2007,0-.3716-.0684-.5127-.2051s-.2119-.3101-.2119-.5195.0708-.3838.2119-.5229.312-.2085.5127-.2085c.2051,0,.3794.0693.5229.2085s.2153.3135.2153.5229c0,.2007-.0718.3716-.2153.5127s-.3179.2119-.5229.2119ZM296.2126,83.5998h-1.1211v-7h1.1211v7Z" fill="#2f2f2f"/>
      <path d="M303.2536,83.2785c-.5376.3237-1.1758.4854-1.9141.4854-.998,0-1.8037-.3247-2.4165-.9741s-.9194-1.4912-.9194-2.5259c0-1.1528.3306-2.0791.9912-2.7788s1.5425-1.0493,2.6455-1.0493c.6152,0,1.1577.1138,1.627.3418v1.1484c-.5195-.3647-1.0757-.5469-1.668-.5469-.7153,0-1.3022.2563-1.7603.769s-.687,1.186-.687,2.02c0,.8203.2153,1.4673.646,1.9414s1.0083.7109,1.7329.7109c.6108,0,1.1851-.2026,1.7227-.6084v1.0664Z" fill="#2f2f2f"/>
      <path d="M309.9597,83.5998h-1.1211v-1.0938h-.0273c-.4878.8384-1.2056,1.2578-2.1533,1.2578-.6973,0-1.2432-.1846-1.6372-.5537s-.5913-.8589-.5913-1.4697c0-1.3081.77-2.0688,2.3105-2.2832l2.0986-.2939c0-1.1895-.481-1.7842-1.4424-1.7842-.8433,0-1.604.2871-2.2832.8613v-1.1484c.688-.4375,1.481-.6562,2.3789-.6562,1.645,0,2.4678.8706,2.4678,2.6113v4.5527ZM308.8386,80.0588l-1.6885.2324c-.5195.0728-.9116.2017-1.1758.3862s-.3965.5117-.3965.981c0,.3418.1221.6211.3657.8374s.5684.3247.9741.3247c.5562,0,1.0151-.1948,1.3774-.5845s.5435-.8828.5435-1.48v-.6973Z" fill="#2f2f2f"/>
      <path d="M313.1931,83.5998h-1.1211v-10.3633h1.1211v10.3633Z" fill="#2f2f2f"/>
      <path d="M324.1789,76.9211l-4.1426,5.7217h4.1016v.957h-5.749v-.3486l4.1426-5.6943h-3.7529v-.957h5.4004v.3213Z" fill="#2f2f2f"/>
      <path d="M328.5539,83.7639c-1.0352,0-1.8604-.3271-2.4785-.981-.6172-.6538-.9258-1.521-.9258-2.6011,0-1.1758.3213-2.0942.9639-2.7549s1.5107-.9912,2.6045-.9912c1.043,0,1.8584.3213,2.4434.9639.5859.6426.8789,1.5337.8789,2.6729,0,1.1167-.3154,2.0107-.9473,2.6831-.6309.6724-1.4775,1.0083-2.5391,1.0083ZM328.6359,77.3791c-.7207,0-1.29.2451-1.709.7349-.4199.4897-.6289,1.1655-.6289,2.0269,0,.8296.2119,1.4834.6357,1.9619s.9912.7178,1.7021.7178c.7246,0,1.2812-.2349,1.6709-.7041s.585-1.1372.585-2.0029c0-.875-.1953-1.5493-.585-2.0234s-.9463-.7109-1.6709-.7109Z" fill="#2f2f2f"/>
      <path d="M339.6418,83.5998h-1.1211v-3.9922c0-1.4858-.543-2.2285-1.627-2.2285-.5605,0-1.0244.2109-1.3916.6323-.3662.4214-.5498.9536-.5498,1.5962v3.9922h-1.1211v-7h1.1211v1.1621h.0273c.5283-.8843,1.2939-1.3262,2.2969-1.3262.7656,0,1.3506.2471,1.7568.7417.4053.4946.6084,1.209.6084,2.1431v4.2793Z" fill="#2f2f2f"/>
      <path d="M347.3801,80.3801h-4.9424c.0176.7793.2275,1.3809.6289,1.8047.4004.4238.9521.6357,1.6543.6357.7881,0,1.5127-.2598,2.1738-.7793v1.0527c-.6152.4468-1.4287.6699-2.4404.6699-.9893,0-1.7666-.3179-2.3311-.9536-.5654-.6357-.8477-1.5303-.8477-2.6831,0-1.0894.3086-1.9766.9258-2.6626.6182-.686,1.3848-1.0288,2.3008-1.0288s1.624.2964,2.126.8887c.501.5923.752,1.415.752,2.4678v.5879ZM346.2316,79.4299c-.0049-.647-.1611-1.1509-.4688-1.5107s-.7344-.54-1.2812-.54c-.5293,0-.9775.189-1.3467.5674s-.5977.8726-.6836,1.4834h3.7803Z" fill="#2f2f2f"/>
      <path d="M356.7248,83.5998h-1.1211v-8.4697c-.0869.0864-.2129.1855-.3799.2974-.166.1118-.3525.2222-.5605.3315-.207.1094-.4258.2119-.6562.3076-.2295.0957-.4541.1709-.6729.2256v-1.1348c.2461-.0684.5068-.1606.7822-.2769.2764-.1162.5469-.2461.8135-.3896s.5186-.2939.7559-.4512c.2363-.1572.4414-.311.6152-.4614h.4238v10.0215Z" fill="#2f2f2f"/>
    </g>
    <g>
      <path d="M267.9118,132.695v3.7051h-1.1484v-9.8027h2.6934c1.0483,0,1.8604.2554,2.437.7656s.8647,1.2305.8647,2.1602-.3203,1.6909-.9604,2.2832-1.5049.8887-2.5942.8887h-1.292ZM267.9118,127.6364v4.0195h1.2031c.793,0,1.3979-.1812,1.8149-.5434.417-.3623.6255-.874.6255-1.5347,0-1.2944-.7656-1.9414-2.2969-1.9414h-1.3467Z" fill="#2f2f2f"/>
      <path d="M280.2644,136.4001h-1.1211v-4.0332c0-1.4585-.5425-2.1875-1.627-2.1875-.5469,0-1.0073.2109-1.3809.6323s-.5605.9629-.5605,1.6235v3.9648h-1.1211v-10.3633h1.1211v4.5254h.0273c.5376-.8843,1.3032-1.3262,2.2969-1.3262,1.5767,0,2.3652.9502,2.3652,2.8506v4.3135Z" fill="#2f2f2f"/>
      <path d="M287.9479,129.4001l-3.2197,8.1211c-.5742,1.4492-1.3809,2.1738-2.4199,2.1738-.2915,0-.5356-.0298-.7314-.0889v-1.0049c.2417.082.4624.123.6631.123.5649,0,.9888-.3374,1.2715-1.0117l.5605-1.3262-2.7344-6.9863h1.2441l1.8936,5.3867c.0229.0684.0708.2461.1436.5332h.041c.0229-.1094.0684-.2827.1367-.5195l1.9893-5.4004h1.1621Z" fill="#2f2f2f"/>
      <path d="M288.7272,136.1472v-1.2031c.6108.4512,1.2827.6768,2.0166.6768.9844,0,1.4766-.3281,1.4766-.9844,0-.187-.042-.3452-.1265-.4751s-.1982-.2451-.3418-.3452-.312-.1904-.5059-.27-.4023-.1631-.6255-.2495c-.3101-.123-.582-.2471-.8169-.3726s-.4307-.2666-.5879-.4238-.2759-.3359-.3555-.5366-.1196-.4351-.1196-.7041c0-.3281.0752-.6187.2256-.8716s.3511-.4648.6016-.6357.5366-.2998.8579-.3862.6528-.1299.9946-.1299c.606,0,1.1484.105,1.627.3145v1.1348c-.5151-.3374-1.1074-.5059-1.7773-.5059-.2095,0-.3989.0239-.5674.0718s-.3135.1152-.4341.2017-.2144.1904-.2803.311-.0991.2539-.0991.3999c0,.1821.0332.335.0991.458s.1631.2324.2905.3281.2827.1821.4648.2598.3896.1616.6221.2529c.3101.1187.5879.2402.834.3657s.4556.2666.6289.4238.3066.3384.3999.5435.1401.4487.1401.7314c0,.3462-.0762.647-.229.9023s-.3564.4673-.6118.6357-.5493.2939-.8818.376-.6812.123-1.0459.123c-.7202,0-1.3442-.1392-1.873-.417Z" fill="#2f2f2f"/>
      <path d="M295.6657,127.6228c-.2007,0-.3716-.0684-.5127-.2051s-.2119-.3101-.2119-.5195.0708-.3838.2119-.5229.312-.2085.5127-.2085c.2051,0,.3794.0693.5229.2085s.2153.3135.2153.5229c0,.2007-.0718.3716-.2153.5127s-.3179.2119-.5229.2119ZM296.2126,136.4001h-1.1211v-7h1.1211v7Z" fill="#2f2f2f"/>
      <path d="M303.2536,136.0788c-.5376.3237-1.1758.4854-1.9141.4854-.998,0-1.8037-.3247-2.4165-.9741s-.9194-1.4912-.9194-2.5259c0-1.1528.3306-2.0791.9912-2.7788s1.5425-1.0493,2.6455-1.0493c.6152,0,1.1577.1138,1.627.3418v1.1484c-.5195-.3647-1.0757-.5469-1.668-.5469-.7153,0-1.3022.2563-1.7603.769s-.687,1.186-.687,2.02c0,.8203.2153,1.4673.646,1.9414s1.0083.7109,1.7329.7109c.6108,0,1.1851-.2026,1.7227-.6084v1.0664Z" fill="#2f2f2f"/>
      <path d="M309.9597,136.4001h-1.1211v-1.0938h-.0273c-.4878.8384-1.2056,1.2578-2.1533,1.2578-.6973,0-1.2432-.1846-1.6372-.5537s-.5913-.8589-.5913-1.4697c0-1.3081.77-2.0688,2.3105-2.2832l2.0986-.2939c0-1.1895-.481-1.7842-1.4424-1.7842-.8433,0-1.604.2871-2.2832.8613v-1.1484c.688-.4375,1.481-.6562,2.3789-.6562,1.645,0,2.4678.8706,2.4678,2.6113v4.5527ZM308.8386,132.8591l-1.6885.2324c-.5195.0728-.9116.2017-1.1758.3862s-.3965.5117-.3965.981c0,.3418.1221.6211.3657.8374s.5684.3247.9741.3247c.5562,0,1.0151-.1948,1.3774-.5845s.5435-.8828.5435-1.48v-.6973Z" fill="#2f2f2f"/>
      <path d="M313.1931,136.4001h-1.1211v-10.3633h1.1211v10.3633Z" fill="#2f2f2f"/>
      <path d="M324.1789,129.7214l-4.1426,5.7217h4.1016v.957h-5.749v-.3486l4.1426-5.6943h-3.7529v-.957h5.4004v.3213Z" fill="#2f2f2f"/>
      <path d="M328.5539,136.5642c-1.0352,0-1.8604-.3271-2.4785-.981-.6172-.6538-.9258-1.521-.9258-2.6011,0-1.1758.3213-2.0942.9639-2.7549s1.5107-.9912,2.6045-.9912c1.043,0,1.8584.3213,2.4434.9639.5859.6426.8789,1.5337.8789,2.6729,0,1.1167-.3154,2.0107-.9473,2.6831-.6309.6724-1.4775,1.0083-2.5391,1.0083ZM328.6359,130.1794c-.7207,0-1.29.2451-1.709.7349-.4199.4897-.6289,1.1655-.6289,2.0269,0,.8296.2119,1.4834.6357,1.9619s.9912.7178,1.7021.7178c.7246,0,1.2812-.2349,1.6709-.7041s.585-1.1372.585-2.0029c0-.875-.1953-1.5493-.585-2.0234s-.9463-.7109-1.6709-.7109Z" fill="#2f2f2f"/>
      <path d="M339.6418,136.4001h-1.1211v-3.9922c0-1.4858-.543-2.2285-1.627-2.2285-.5605,0-1.0244.2109-1.3916.6323-.3662.4214-.5498.9536-.5498,1.5962v3.9922h-1.1211v-7h1.1211v1.1621h.0273c.5283-.8843,1.2939-1.3262,2.2969-1.3262.7656,0,1.3506.2471,1.7568.7417.4053.4946.6084,1.209.6084,2.1431v4.2793Z" fill="#2f2f2f"/>
      <path d="M347.3801,133.1804h-4.9424c.0176.7793.2275,1.3809.6289,1.8047.4004.4238.9521.6357,1.6543.6357.7881,0,1.5127-.2598,2.1738-.7793v1.0527c-.6152.4468-1.4287.6699-2.4404.6699-.9893,0-1.7666-.3179-2.3311-.9536-.5654-.6357-.8477-1.5303-.8477-2.6831,0-1.0894.3086-1.9766.9258-2.6626.6182-.686,1.3848-1.0288,2.3008-1.0288s1.624.2964,2.126.8887c.501.5923.752,1.415.752,2.4678v.5879ZM346.2316,132.2302c-.0049-.647-.1611-1.1509-.4688-1.5107s-.7344-.54-1.2812-.54c-.5293,0-.9775.189-1.3467.5674s-.5977.8726-.6836,1.4834h3.7803Z" fill="#2f2f2f"/>
      <path d="M357.0529,129.1677c0-.3008-.0469-.563-.1406-.7861-.0928-.2231-.2207-.4092-.3828-.5571-.1611-.1479-.3516-.2588-.5703-.3315s-.4561-.1094-.7109-.1094c-.2188,0-.4336.0298-.6426.0889-.21.0591-.4141.1411-.6123.2461s-.3896.23-.5742.376-.3564.3076-.5156.4854v-1.2031c.3145-.3052.666-.5391,1.0557-.7007s.8652-.2427,1.4258-.2427c.4004,0,.7725.0581,1.1143.1743s.6377.2861.8887.5093c.25.2231.4473.499.5908.8271s.2158.7041.2158,1.1279c0,.3872-.0449.7383-.1338,1.0527s-.2227.6108-.4033.8887c-.1797.2778-.4062.5444-.6797.7998s-.5947.5151-.9639.7793c-.4609.3281-.8398.6084-1.1387.8408-.2979.2324-.5352.4502-.7109.6528-.1748.2026-.2979.4058-.3691.6084-.0703.2026-.1055.4365-.1055.7007h4.8809v1.0049h-6.0498v-.4854c0-.4194.0449-.7886.1367-1.1074.0908-.3188.2412-.6221.4512-.9092.209-.2871.4844-.5742.8232-.8613.3398-.2871.7559-.6108,1.248-.9707.3555-.2554.6523-.499.8916-.7314s.4316-.4648.5781-.6973c.1455-.2324.249-.4683.3105-.7075s.0928-.4932.0928-.7622Z" fill="#2f2f2f"/>
    </g>
    <g>
      <path d="M267.9118,185.4948v3.7051h-1.1484v-9.8027h2.6934c1.0483,0,1.8604.2554,2.437.7656s.8647,1.2305.8647,2.1602-.3203,1.6909-.9604,2.2832-1.5049.8887-2.5942.8887h-1.292ZM267.9118,180.4362v4.0195h1.2031c.793,0,1.3979-.1812,1.8149-.5435s.6255-.874.6255-1.5347c0-1.2944-.7656-1.9414-2.2969-1.9414h-1.3467Z" fill="#2f2f2f"/>
      <path d="M280.2644,189.1999h-1.1211v-4.0332c0-1.4585-.5425-2.1875-1.627-2.1875-.5469,0-1.0073.2109-1.3809.6323s-.5605.9629-.5605,1.6235v3.9648h-1.1211v-10.3633h1.1211v4.5254h.0273c.5376-.8843,1.3032-1.3262,2.2969-1.3262,1.5767,0,2.3652.9502,2.3652,2.8506v4.3135Z" fill="#2f2f2f"/>
      <path d="M287.9479,182.1999l-3.2197,8.1211c-.5742,1.4492-1.3809,2.1738-2.4199,2.1738-.2915,0-.5356-.0298-.7314-.0889v-1.0049c.2417.082.4624.123.6631.123.5649,0,.9888-.3374,1.2715-1.0117l.5605-1.3262-2.7344-6.9863h1.2441l1.8936,5.3867c.0229.0684.0708.2461.1436.5332h.041c.0229-.1094.0684-.2827.1367-.5195l1.9893-5.4004h1.1621Z" fill="#2f2f2f"/>
      <path d="M288.7272,188.947v-1.2031c.6108.4512,1.2827.6768,2.0166.6768.9844,0,1.4766-.3281,1.4766-.9844,0-.187-.042-.3452-.1265-.4751s-.1982-.2451-.3418-.3452-.312-.1904-.5059-.27-.4023-.1631-.6255-.2495c-.3101-.123-.582-.2471-.8169-.3726s-.4307-.2666-.5879-.4238-.2759-.3359-.3555-.5366-.1196-.4351-.1196-.7041c0-.3281.0752-.6187.2256-.8716s.3511-.4648.6016-.6357.5366-.2998.8579-.3862.6528-.1299.9946-.1299c.606,0,1.1484.105,1.627.3145v1.1348c-.5151-.3374-1.1074-.5059-1.7773-.5059-.2095,0-.3989.0239-.5674.0718s-.3135.1152-.4341.2017-.2144.1904-.2803.311-.0991.2539-.0991.3999c0,.1821.0332.335.0991.458s.1631.2324.2905.3281.2827.1821.4648.2598.3896.1616.6221.2529c.3101.1187.5879.2402.834.3657s.4556.2666.6289.4238.3066.3384.3999.5435.1401.4487.1401.7314c0,.3462-.0762.647-.229.9023s-.3564.4673-.6118.6357-.5493.2939-.8818.376-.6812.123-1.0459.123c-.7202,0-1.3442-.1392-1.873-.417Z" fill="#2f2f2f"/>
      <path d="M295.6657,180.4226c-.2007,0-.3716-.0684-.5127-.2051s-.2119-.3101-.2119-.5195.0708-.3838.2119-.5229.312-.2085.5127-.2085c.2051,0,.3794.0693.5229.2085s.2153.3135.2153.5229c0,.2007-.0718.3716-.2153.5127s-.3179.2119-.5229.2119ZM296.2126,189.1999h-1.1211v-7h1.1211v7Z" fill="#2f2f2f"/>
      <path d="M303.2536,188.8786c-.5376.3237-1.1758.4854-1.9141.4854-.998,0-1.8037-.3247-2.4165-.9741s-.9194-1.4912-.9194-2.5259c0-1.1528.3306-2.0791.9912-2.7788s1.5425-1.0493,2.6455-1.0493c.6152,0,1.1577.1138,1.627.3418v1.1484c-.5195-.3647-1.0757-.5469-1.668-.5469-.7153,0-1.3022.2563-1.7603.769s-.687,1.186-.687,2.02c0,.8203.2153,1.4673.646,1.9414s1.0083.7109,1.7329.7109c.6108,0,1.1851-.2026,1.7227-.6084v1.0664Z" fill="#2f2f2f"/>
      <path d="M309.9597,189.1999h-1.1211v-1.0938h-.0273c-.4878.8384-1.2056,1.2578-2.1533,1.2578-.6973,0-1.2432-.1846-1.6372-.5537s-.5913-.8589-.5913-1.4697c0-1.3081.77-2.0688,2.3105-2.2832l2.0986-.2939c0-1.1895-.481-1.7842-1.4424-1.7842-.8433,0-1.604.2871-2.2832.8613v-1.1484c.688-.4375,1.481-.6562,2.3789-.6562,1.645,0,2.4678.8706,2.4678,2.6113v4.5527ZM308.8386,185.6589l-1.6885.2324c-.5195.0728-.9116.2017-1.1758.3862s-.3965.5117-.3965.981c0,.3418.1221.6211.3657.8374s.5684.3247.9741.3247c.5562,0,1.0151-.1948,1.3774-.5845s.5435-.8828.5435-1.48v-.6973Z" fill="#2f2f2f"/>
      <path d="M313.1931,189.1999h-1.1211v-10.3633h1.1211v10.3633Z" fill="#2f2f2f"/>
      <path d="M324.1789,182.5212l-4.1426,5.7217h4.1016v.957h-5.749v-.3486l4.1426-5.6943h-3.7529v-.957h5.4004v.3213Z" fill="#2f2f2f"/>
      <path d="M328.5539,189.364c-1.0352,0-1.8604-.3271-2.4785-.981-.6172-.6538-.9258-1.521-.9258-2.6011,0-1.1758.3213-2.0942.9639-2.7549s1.5107-.9912,2.6045-.9912c1.043,0,1.8584.3213,2.4434.9639.5859.6426.8789,1.5337.8789,2.6729,0,1.1167-.3154,2.0107-.9473,2.6831-.6309.6724-1.4775,1.0083-2.5391,1.0083ZM328.6359,182.9792c-.7207,0-1.29.2451-1.709.7349-.4199.4897-.6289,1.1655-.6289,2.0269,0,.8296.2119,1.4834.6357,1.9619s.9912.7178,1.7021.7178c.7246,0,1.2812-.2349,1.6709-.7041s.585-1.1372.585-2.0029c0-.875-.1953-1.5493-.585-2.0234s-.9463-.7109-1.6709-.7109Z" fill="#2f2f2f"/>
      <path d="M339.6418,189.1999h-1.1211v-3.9922c0-1.4858-.543-2.2285-1.627-2.2285-.5605,0-1.0244.2109-1.3916.6323-.3662.4214-.5498.9536-.5498,1.5962v3.9922h-1.1211v-7h1.1211v1.1621h.0273c.5283-.8843,1.2939-1.3262,2.2969-1.3262.7656,0,1.3506.2471,1.7568.7417.4053.4946.6084,1.209.6084,2.1431v4.2793Z" fill="#2f2f2f"/>
      <path d="M347.3801,185.9802h-4.9424c.0176.7793.2275,1.3809.6289,1.8047.4004.4238.9521.6357,1.6543.6357.7881,0,1.5127-.2598,2.1738-.7793v1.0527c-.6152.4468-1.4287.6699-2.4404.6699-.9893,0-1.7666-.3179-2.3311-.9536-.5654-.6357-.8477-1.5303-.8477-2.6831,0-1.0894.3086-1.9766.9258-2.6626.6182-.686,1.3848-1.0288,2.3008-1.0288s1.624.2964,2.126.8887c.501.5923.752,1.415.752,2.4678v.5879ZM346.2316,185.03c-.0049-.647-.1611-1.1509-.4688-1.5107s-.7344-.54-1.2812-.54c-.5293,0-.9775.189-1.3467.5674s-.5977.8726-.6836,1.4834h3.7803Z" fill="#2f2f2f"/>
      <path d="M358.2902,186.4245c0,.4419-.083.8442-.25,1.2065-.166.3623-.4004.6724-.7041.9297-.3027.2573-.666.457-1.0898.5981s-.8916.2119-1.4014.2119c-.9346,0-1.6777-.1777-2.2285-.5332v-1.2031c.6602.5195,1.417.7793,2.2695.7793.3418,0,.6504-.0435.9258-.1299.2764-.0864.5127-.2119.7109-.376s.3516-.3623.458-.5947c.1074-.2324.1611-.4946.1611-.7861,0-1.2808-.9121-1.9209-2.7344-1.9209h-.8135v-.9502h.7725c1.6133,0,2.4199-.6016,2.4199-1.8047,0-1.1118-.6152-1.668-1.8457-1.668-.6934,0-1.3428.2324-1.9482.6973v-1.0869c.624-.3735,1.3672-.5605,2.2285-.5605.4102,0,.7812.0571,1.1143.1709.332.1138.6172.2734.8545.4785.2363.2051.4199.4512.5498.7383s.1953.604.1953.9502c0,1.2896-.6523,2.1191-1.9551,2.4883v.0273c.332.0366.6396.1172.9229.2427.2822.1255.5264.2881.7314.4888s.3652.4365.4814.7075.1748.5708.1748.8989Z" fill="#2f2f2f"/>
    </g>
    <g>
      <path d="M453.8703,29.0241v-2.1875c.3965.3325.8271.582,1.292.7485s.9336.2495,1.4082.2495c.2773,0,.5205-.0249.7275-.0752.208-.0503.3809-.1196.5195-.2085.1396-.0889.2432-.1938.3115-.3145s.1025-.252.1025-.3931c0-.1914-.0547-.3623-.1641-.5127s-.2588-.2896-.4482-.417c-.1885-.1274-.4131-.2505-.6729-.3691s-.54-.2393-.8408-.3623c-.7656-.3188-1.3369-.7085-1.7129-1.1689s-.5635-1.0161-.5635-1.668c0-.5103.1025-.9492.3076-1.3159s.4844-.6689.8369-.9058c.3535-.2368.7627-.4111,1.2275-.5229s.957-.1675,1.4766-.1675c.5098,0,.9629.0308,1.3564.0923.3945.0615.7578.1562,1.0908.2837v2.0439c-.1641-.1138-.3428-.2144-.5371-.3008-.1934-.0864-.3926-.1582-.5977-.2153s-.4092-.0991-.6123-.1265c-.2021-.0273-.3955-.041-.5771-.041-.251,0-.4785.0239-.6836.0718s-.3789.1152-.5195.2017c-.1416.0864-.251.1904-.3281.311-.0781.1206-.1162.2563-.1162.4067,0,.1641.043.311.1299.4409.0859.1299.209.2529.3691.3691.1592.1162.3525.23.5811.3418.2275.1118.4854.2266.7725.3452.3916.1641.7441.3384,1.0557.5229.3125.1846.5801.3931.8037.6255.2227.2324.3936.498.5127.7964.1182.2983.1777.646.1777,1.0425,0,.5469-.1035,1.0059-.3115,1.3774-.207.3716-.4883.6724-.8438.9023s-.7695.3955-1.2412.4956-.9697.1504-1.4932.1504c-.5381,0-1.0498-.0454-1.5352-.1367s-.9053-.228-1.2607-.4102Z" fill="#2f2f2f"/>
      <path d="M468.6086,29.4001h-2.1533v-1.0664h-.0342c-.5332.8247-1.2471,1.2373-2.1396,1.2373-1.623,0-2.4336-.9819-2.4336-2.9463v-4.2246h2.1533v4.0332c0,.9888.3916,1.4834,1.1758,1.4834.3867,0,.6973-.1357.9297-.4067s.3486-.6392.3486-1.104v-4.0059h2.1533v7Z" fill="#2f2f2f"/>
      <path d="M472.5637,28.5866h-.0273v.8135h-2.1602v-10.3633h2.1602v4.416h.0273c.5332-.8159,1.292-1.2236,2.2764-1.2236.9023,0,1.5977.3101,2.085.9297.4883.6196.7314,1.4673.7314,2.543,0,1.1665-.2842,2.103-.8545,2.8096-.5693.7065-1.3301,1.0596-2.2832,1.0596-.8613,0-1.5127-.3281-1.9551-.9844ZM472.5021,25.6335v.7178c0,.4512.1299.8247.3896,1.1211s.5928.4443.998.4443c.4922,0,.874-.1904,1.1455-.5708.2705-.3804.4062-.9194.4062-1.6167,0-.5786-.124-1.0312-.3721-1.3569-.249-.3257-.6025-.4888-1.0635-.4888-.4326,0-.792.1616-1.0762.4854-.2852.3237-.4277.7451-.4277,1.2646Z" fill="#2f2f2f"/>
      <path d="M478.6965,29.2155v-1.75c.3555.2144.71.3735,1.0635.4785.3525.105.6865.1572,1.001.1572.3828,0,.6846-.0522.9062-.1572.2207-.105.3311-.2642.3311-.4785,0-.1367-.0498-.2505-.1504-.3418-.0996-.0913-.2285-.1709-.3857-.2393s-.3291-.1299-.5166-.1846c-.1865-.0547-.3662-.1162-.54-.1846-.2773-.105-.5225-.2178-.7344-.3384s-.3896-.2607-.5332-.4204-.2529-.3442-.3281-.5537-.1133-.458-.1133-.7451c0-.3921.0859-.729.2568-1.0117s.3984-.5137.6836-.6938c.2842-.1802.6104-.312.9775-.3965.3662-.0845.748-.1265,1.1445-.1265.3105,0,.625.0239.9434.0718.3193.0479.6338.1172.9434.2085v1.668c-.2734-.1597-.5664-.2793-.8779-.3589-.3125-.0796-.6191-.1196-.9199-.1196-.1406,0-.2744.0127-.3994.0376-.126.0249-.2363.0615-.332.1094s-.1709.1094-.2256.1846-.082.1606-.082.2563c0,.1274.041.2368.123.3281s.1895.1699.3213.2358c.1328.0659.2793.1255.4414.1777.1611.0522.3223.106.4814.1606.2871.1001.5469.2095.7793.3281s.4316.2573.5986.417c.166.1597.2939.3462.3828.5605s.1328.4692.1328.7656c0,.4146-.0898.769-.2695,1.063-.1807.2939-.4199.5332-.7178.7178-.2988.1846-.6426.3188-1.0322.4033s-.7939.1265-1.2139.1265c-.7695,0-1.4834-.1187-2.1396-.3555Z" fill="#2f2f2f"/>
      <path d="M490.6613,29.1472c-.4873.2827-1.1914.4238-2.1123.4238-1.0752,0-1.9453-.3257-2.6113-.9775-.665-.6519-.998-1.4927-.998-2.5225,0-1.1895.3564-2.127,1.0703-2.813.7129-.686,1.667-1.0288,2.8604-1.0288.8252,0,1.4219.1094,1.791.3281v1.832c-.4512-.3374-.9541-.5059-1.5107-.5059-.6191,0-1.1104.1812-1.4727.5435s-.5439.8623-.5439,1.5005c0,.6196.1738,1.1064.5195,1.4595.3467.353.8232.5298,1.4287.5298.5381,0,1.0645-.1685,1.5791-.5059v1.7363Z" fill="#2f2f2f"/>
      <path d="M496.7453,24.3483c-.2598-.1411-.5625-.2119-.9092-.2119-.4688,0-.8359.1719-1.1006.5161-.2637.3442-.3965.8125-.3965,1.4048v3.3428h-2.1602v-7h2.1602v1.2988h.0273c.3418-.9478.957-1.4219,1.8457-1.4219.2285,0,.4062.0273.5332.082v1.9893Z" fill="#2f2f2f"/>
      <path d="M498.8313,21.2927c-.3643,0-.6631-.1084-.8955-.3247s-.3486-.4819-.3486-.7964c0-.3237.1162-.5879.3486-.793s.5312-.3076.8955-.3076c.3691,0,.6689.1025.8994.3076.2295.2051.3447.4692.3447.793,0,.3281-.1152.5972-.3447.8066-.2305.2095-.5303.3145-.8994.3145ZM499.8977,29.4001h-2.1602v-7h2.1602v7Z" fill="#2f2f2f"/>
      <path d="M503.8674,28.5866h-.0273v4.0332h-2.1602v-10.2197h2.1602v1.0527h.0273c.5332-.8159,1.2822-1.2236,2.249-1.2236.9062,0,1.6074.311,2.1016.9331.4951.6221.7422,1.4688.7422,2.5396,0,1.1665-.2881,2.103-.8652,2.8096-.5762.7065-1.3428,1.0596-2.2998,1.0596-.8438,0-1.4863-.3281-1.9277-.9844ZM503.8059,25.7155v.5605c0,.4829.127.8774.3828,1.1826.2549.3052.5898.458,1.0049.458.4922,0,.874-.1904,1.1445-.5708.2715-.3804.4072-.9194.4072-1.6167,0-1.2305-.4785-1.8457-1.4355-1.8457-.4424,0-.8037.1675-1.084.5024s-.4199.7783-.4199,1.3296Z" fill="#2f2f2f"/>
      <path d="M514.5861,29.3181c-.3193.1685-.7998.2529-1.4424.2529-1.5225,0-2.2832-.7905-2.2832-2.3721v-3.2061h-1.1348v-1.5928h1.1348v-1.5107l2.1533-.6152v2.126h1.5723v1.5928h-1.5723v2.8301c0,.729.2891,1.0938.8682,1.0938.2275,0,.4619-.0659.7041-.1982v1.5996Z" fill="#2f2f2f"/>
      <path d="M516.9641,21.2927c-.3652,0-.6631-.1084-.8955-.3247s-.3486-.4819-.3486-.7964c0-.3237.1162-.5879.3486-.793s.5303-.3076.8955-.3076c.3691,0,.6689.1025.8984.3076.2305.2051.3457.4692.3457.793,0,.3281-.1152.5972-.3457.8066-.2295.2095-.5293.3145-.8984.3145ZM518.0305,29.4001h-2.1602v-7h2.1602v7Z" fill="#2f2f2f"/>
      <path d="M523.1408,29.571c-1.166,0-2.084-.3271-2.751-.981-.668-.6538-1.002-1.5415-1.002-2.6626,0-1.1577.3467-2.0635,1.0391-2.7173.6934-.6538,1.6299-.981,2.8096-.981,1.1621,0,2.0742.3271,2.7344.981.6611.6538.9912,1.5186.9912,2.5942,0,1.1621-.3408,2.0806-1.0215,2.7549-.6816.6743-1.6143,1.0117-2.7998,1.0117ZM523.1955,23.8835c-.5098,0-.9062.1753-1.1895.5264-.2822.3511-.4238.8477-.4238,1.4902,0,1.3442.543,2.0166,1.627,2.0166,1.0352,0,1.5518-.6904,1.5518-2.0713,0-1.3081-.5215-1.9619-1.5654-1.9619Z" fill="#2f2f2f"/>
      <path d="M535.1037,29.4001h-2.1533v-3.8896c0-1.0845-.3877-1.627-1.1621-1.627-.374,0-.6816.1436-.9229.4307-.2422.2871-.3623.6519-.3623,1.0938v3.9922h-2.1602v-7h2.1602v1.1074h.0273c.5146-.8521,1.2646-1.2783,2.249-1.2783,1.5488,0,2.3242.9614,2.3242,2.8848v4.2861Z" fill="#2f2f2f"/>
      <path d="M540.8869,29.4001v-9.8027h3.5684c1.0938,0,1.9346.2007,2.5225.6016s.8818.9663.8818,1.6953c0,.5288-.1787.9912-.5371,1.3877-.3574.3965-.8145.6724-1.3701.8271v.0273c.6973.0864,1.2539.3442,1.6709.7725s.626.9502.626,1.5654c0,.8979-.3213,1.6099-.9639,2.1362s-1.5205.7896-2.6318.7896h-3.7666ZM543.0949,21.2243v2.3242h.9707c.4551,0,.8145-.1104,1.0762-.3315.2627-.2212.3936-.5254.3936-.9126,0-.7202-.5381-1.0801-1.6133-1.0801h-.8271ZM543.0949,25.1892v2.584h1.1963c.5098,0,.9102-.1187,1.1992-.3555.29-.2368.4346-.5605.4346-.9707,0-.3921-.1426-.6997-.4277-.9229-.2842-.2231-.6826-.335-1.1924-.335h-1.21Z" fill="#2f2f2f"/>
    </g>
    <g>
      <path d="M476.9699,83.5998h-5.0859v-9.8027h1.1484v8.7637h3.9375v1.0391Z" fill="#2f2f2f"/>
      <path d="M481.2492,83.7639c-1.0342,0-1.8604-.3271-2.4775-.981-.6182-.6538-.9268-1.521-.9268-2.6011,0-1.1758.3213-2.0942.9639-2.7549s1.5107-.9912,2.6045-.9912c1.0439,0,1.8584.3213,2.4443.9639.585.6426.8779,1.5337.8779,2.6729,0,1.1167-.3154,2.0107-.9463,2.6831-.6318.6724-1.4775,1.0083-2.54,1.0083ZM481.3313,77.3791c-.7197,0-1.2891.2451-1.709.7349-.4189.4897-.6289,1.1655-.6289,2.0269,0,.8296.2119,1.4834.6357,1.9619s.9912.7178,1.7021.7178c.7246,0,1.2822-.2349,1.6719-.7041s.584-1.1372.584-2.0029c0-.875-.1943-1.5493-.584-2.0234s-.9473-.7109-1.6719-.7109Z" fill="#2f2f2f"/>
      <path d="M492.5012,83.0393c0,2.5703-1.2305,3.8555-3.6914,3.8555-.8652,0-1.6221-.1641-2.2695-.4922v-1.1211c.7891.4375,1.541.6562,2.2559.6562,1.7227,0,2.584-.916,2.584-2.748v-.7656h-.0273c-.5332.8931-1.335,1.3398-2.4062,1.3398-.8701,0-1.5713-.311-2.1016-.9331-.5312-.6221-.7969-1.457-.7969-2.5054,0-1.1895.2861-2.1353.8584-2.8369.5713-.7017,1.3545-1.0527,2.3477-1.0527.9434,0,1.6436.3784,2.0986,1.1348h.0273v-.9707h1.1211v6.4395ZM491.3801,80.4348v-1.0322c0-.5562-.1875-1.0322-.5635-1.4287s-.8447-.5947-1.4053-.5947c-.6924,0-1.2344.252-1.627.7554-.3916.5034-.5879,1.209-.5879,2.1157,0,.7793.1885,1.4023.5645,1.8696s.874.7007,1.4932.7007c.6289,0,1.1406-.2231,1.5352-.6699.3936-.4468.5908-1.0186.5908-1.7158Z" fill="#2f2f2f"/>
      <path d="M495.3449,74.8225c-.2002,0-.3711-.0684-.5127-.2051-.1406-.1367-.2119-.3101-.2119-.5195s.0713-.3838.2119-.5229c.1416-.1392.3125-.2085.5127-.2085.2051,0,.3799.0693.5234.2085s.2148.3135.2148.5229c0,.2007-.0713.3716-.2148.5127s-.3184.2119-.5234.2119ZM495.8918,83.5998h-1.1211v-7h1.1211v7Z" fill="#2f2f2f"/>
      <path d="M502.9328,83.2785c-.5371.3237-1.1758.4854-1.9141.4854-.998,0-1.8037-.3247-2.416-.9741-.6133-.6494-.9199-1.4912-.9199-2.5259,0-1.1528.3311-2.0791.9912-2.7788.6611-.6997,1.543-1.0493,2.6455-1.0493.6152,0,1.1582.1138,1.627.3418v1.1484c-.5195-.3647-1.0752-.5469-1.668-.5469-.7148,0-1.3018.2563-1.7598.769s-.6875,1.186-.6875,2.02c0,.8203.2158,1.4673.6465,1.9414s1.0078.7109,1.7324.7109c.6113,0,1.1855-.2026,1.7227-.6084v1.0664Z" fill="#2f2f2f"/>
      <path d="M509.6389,83.5998h-1.1211v-1.0938h-.0273c-.4873.8384-1.2051,1.2578-2.1533,1.2578-.6973,0-1.2432-.1846-1.6367-.5537-.3945-.3691-.5918-.8589-.5918-1.4697,0-1.3081.7705-2.0688,2.3105-2.2832l2.0986-.2939c0-1.1895-.4805-1.7842-1.4424-1.7842-.8428,0-1.6035.2871-2.2832.8613v-1.1484c.6885-.4375,1.4814-.6562,2.3789-.6562,1.6455,0,2.4678.8706,2.4678,2.6113v4.5527ZM508.5178,80.0588l-1.6885.2324c-.5195.0728-.9111.2017-1.1758.3862-.2637.1846-.3965.5117-.3965.981,0,.3418.1221.6211.3662.8374.2432.2163.5684.3247.9736.3247.5566,0,1.0156-.1948,1.3779-.5845.3623-.3896.543-.8828.543-1.48v-.6973Z" fill="#2f2f2f"/>
      <path d="M512.8723,83.5998h-1.1211v-10.3633h1.1211v10.3633Z" fill="#2f2f2f"/>
      <path d="M523.8576,76.9211l-4.1426,5.7217h4.1016v.957h-5.749v-.3486l4.1426-5.6943h-3.7529v-.957h5.4004v.3213Z" fill="#2f2f2f"/>
      <path d="M528.2326,83.7639c-1.0342,0-1.8604-.3271-2.4775-.981-.6182-.6538-.9268-1.521-.9268-2.6011,0-1.1758.3213-2.0942.9639-2.7549s1.5107-.9912,2.6045-.9912c1.0439,0,1.8584.3213,2.4443.9639.585.6426.8779,1.5337.8779,2.6729,0,1.1167-.3154,2.0107-.9463,2.6831-.6318.6724-1.4775,1.0083-2.54,1.0083ZM528.3146,77.3791c-.7197,0-1.2891.2451-1.709.7349-.4189.4897-.6289,1.1655-.6289,2.0269,0,.8296.2119,1.4834.6357,1.9619.4238.4785.9912.7178,1.7022.7178.7246,0,1.2822-.2349,1.6719-.7041s.584-1.1372.584-2.0029c0-.875-.1943-1.5493-.584-2.0234s-.9473-.7109-1.6719-.7109Z" fill="#2f2f2f"/>
      <path d="M539.3205,83.5998h-1.1211v-3.9922c0-1.4858-.542-2.2285-1.627-2.2285-.5605,0-1.0244.2109-1.3906.6323-.3672.4214-.5508.9536-.5508,1.5962v3.9922h-1.1211v-7h1.1211v1.1621h.0273c.5293-.8843,1.2949-1.3262,2.2969-1.3262.7656,0,1.3516.2471,1.7568.7417.4062.4946.6084,1.209.6084,2.1431v4.2793Z" fill="#2f2f2f"/>
      <path d="M547.0588,80.3801h-4.9424c.0186.7793.2285,1.3809.6289,1.8047.4014.4238.9531.6357,1.6543.6357.7891,0,1.5137-.2598,2.1738-.7793v1.0527c-.6152.4468-1.4287.6699-2.4404.6699-.9883,0-1.7656-.3179-2.3311-.9536-.5645-.6357-.8477-1.5303-.8477-2.6831,0-1.0894.3086-1.9766.9268-2.6626.6172-.686,1.3838-1.0288,2.2998-1.0288s1.625.2964,2.126.8887c.502.5923.752,1.415.752,2.4678v.5879ZM545.9104,79.4299c-.0039-.647-.1602-1.1509-.4678-1.5107s-.7354-.54-1.2822-.54c-.5283,0-.9775.189-1.3467.5674s-.5967.8726-.6836,1.4834h3.7803Z" fill="#2f2f2f"/>
      <path d="M556.4035,83.5998h-1.1211v-8.4697c-.0859.0864-.2129.1855-.3789.2974-.167.1118-.3535.2222-.5605.3315-.208.1094-.4268.2119-.6562.3076-.2305.0957-.4551.1709-.6738.2256v-1.1348c.2461-.0684.5068-.1606.7832-.2769.2754-.1162.5469-.2461.8135-.3896s.5186-.2939.7549-.4512c.2373-.1572.4424-.311.6152-.4614h.4238v10.0215Z" fill="#2f2f2f"/>
    </g>
    <g>
      <path d="M476.9699,136.4001h-5.0859v-9.8027h1.1484v8.7637h3.9375v1.0391Z" fill="#2f2f2f"/>
      <path d="M481.2492,136.5642c-1.0342,0-1.8604-.3271-2.4775-.981-.6182-.6538-.9268-1.521-.9268-2.6011,0-1.1758.3213-2.0942.9639-2.7549s1.5107-.9912,2.6045-.9912c1.0439,0,1.8584.3213,2.4443.9639.585.6426.8779,1.5337.8779,2.6729,0,1.1167-.3154,2.0107-.9463,2.6831-.6318.6724-1.4775,1.0083-2.54,1.0083ZM481.3313,130.1794c-.7197,0-1.2891.2451-1.709.7349-.4189.4897-.6289,1.1655-.6289,2.0269,0,.8296.2119,1.4834.6357,1.9619s.9912.7178,1.7021.7178c.7246,0,1.2822-.2349,1.6719-.7041s.584-1.1372.584-2.0029c0-.875-.1943-1.5493-.584-2.0234s-.9473-.7109-1.6719-.7109Z" fill="#2f2f2f"/>
      <path d="M492.5012,135.8396c0,2.5703-1.2305,3.8555-3.6914,3.8555-.8652,0-1.6221-.1641-2.2695-.4922v-1.1211c.7891.4375,1.541.6562,2.2559.6562,1.7227,0,2.584-.916,2.584-2.748v-.7656h-.0273c-.5332.8931-1.335,1.3398-2.4062,1.3398-.8701,0-1.5713-.311-2.1016-.9331-.5312-.6221-.7969-1.457-.7969-2.5054,0-1.1895.2861-2.1353.8584-2.8369.5713-.7017,1.3545-1.0527,2.3477-1.0527.9434,0,1.6436.3784,2.0986,1.1348h.0273v-.9707h1.1211v6.4395ZM491.3801,133.2351v-1.0322c0-.5562-.1875-1.0322-.5635-1.4287s-.8447-.5947-1.4053-.5947c-.6924,0-1.2344.252-1.627.7554-.3916.5034-.5879,1.209-.5879,2.1157,0,.7793.1885,1.4023.5645,1.8696s.874.7007,1.4932.7007c.6289,0,1.1406-.2231,1.5352-.6699.3936-.4468.5908-1.0186.5908-1.7158Z" fill="#2f2f2f"/>
      <path d="M495.3449,127.6228c-.2002,0-.3711-.0684-.5127-.2051-.1406-.1367-.2119-.3101-.2119-.5195s.0713-.3838.2119-.5229c.1416-.1392.3125-.2085.5127-.2085.2051,0,.3799.0693.5234.2085s.2148.3135.2148.5229c0,.2007-.0713.3716-.2148.5127s-.3184.2119-.5234.2119ZM495.8918,136.4001h-1.1211v-7h1.1211v7Z" fill="#2f2f2f"/>
      <path d="M502.9328,136.0788c-.5371.3237-1.1758.4854-1.9141.4854-.998,0-1.8037-.3247-2.416-.9741-.6133-.6494-.9199-1.4912-.9199-2.5259,0-1.1528.3311-2.0791.9912-2.7788.6611-.6997,1.543-1.0493,2.6455-1.0493.6152,0,1.1582.1138,1.627.3418v1.1484c-.5195-.3647-1.0752-.5469-1.668-.5469-.7148,0-1.3018.2563-1.7598.769s-.6875,1.186-.6875,2.02c0,.8203.2158,1.4673.6465,1.9414s1.0078.7109,1.7324.7109c.6113,0,1.1855-.2026,1.7227-.6084v1.0664Z" fill="#2f2f2f"/>
      <path d="M509.6389,136.4001h-1.1211v-1.0938h-.0273c-.4873.8384-1.2051,1.2578-2.1533,1.2578-.6973,0-1.2432-.1846-1.6367-.5537-.3945-.3691-.5918-.8589-.5918-1.4697,0-1.3081.7705-2.0688,2.3105-2.2832l2.0986-.2939c0-1.1895-.4805-1.7842-1.4424-1.7842-.8428,0-1.6035.2871-2.2832.8613v-1.1484c.6885-.4375,1.4814-.6562,2.3789-.6562,1.6455,0,2.4678.8706,2.4678,2.6113v4.5527ZM508.5178,132.8591l-1.6885.2324c-.5195.0728-.9111.2017-1.1758.3862-.2637.1846-.3965.5117-.3965.981,0,.3418.1221.6211.3662.8374.2432.2163.5684.3247.9736.3247.5566,0,1.0156-.1948,1.3779-.5845.3623-.3896.543-.8828.543-1.48v-.6973Z" fill="#2f2f2f"/>
      <path d="M512.8723,136.4001h-1.1211v-10.3633h1.1211v10.3633Z" fill="#2f2f2f"/>
      <path d="M523.8576,129.7214l-4.1426,5.7217h4.1016v.957h-5.749v-.3486l4.1426-5.6943h-3.7529v-.957h5.4004v.3213Z" fill="#2f2f2f"/>
      <path d="M528.2326,136.5642c-1.0342,0-1.8604-.3271-2.4775-.981-.6182-.6538-.9268-1.521-.9268-2.6011,0-1.1758.3213-2.0942.9639-2.7549s1.5107-.9912,2.6045-.9912c1.0439,0,1.8584.3213,2.4443.9639.585.6426.8779,1.5337.8779,2.6729,0,1.1167-.3154,2.0107-.9463,2.6831-.6318.6724-1.4775,1.0083-2.54,1.0083ZM528.3146,130.1794c-.7197,0-1.2891.2451-1.709.7349-.4189.4897-.6289,1.1655-.6289,2.0269,0,.8296.2119,1.4834.6357,1.9619.4238.4785.9912.7178,1.7022.7178.7246,0,1.2822-.2349,1.6719-.7041s.584-1.1372.584-2.0029c0-.875-.1943-1.5493-.584-2.0234s-.9473-.7109-1.6719-.7109Z" fill="#2f2f2f"/>
      <path d="M539.3205,136.4001h-1.1211v-3.9922c0-1.4858-.542-2.2285-1.627-2.2285-.5605,0-1.0244.2109-1.3906.6323-.3672.4214-.5508.9536-.5508,1.5962v3.9922h-1.1211v-7h1.1211v1.1621h.0273c.5293-.8843,1.2949-1.3262,2.2969-1.3262.7656,0,1.3516.2471,1.7568.7417.4062.4946.6084,1.209.6084,2.1431v4.2793Z" fill="#2f2f2f"/>
      <path d="M547.0588,133.1804h-4.9424c.0186.7793.2285,1.3809.6289,1.8047.4014.4238.9531.6357,1.6543.6357.7891,0,1.5137-.2598,2.1738-.7793v1.0527c-.6152.4468-1.4287.6699-2.4404.6699-.9883,0-1.7656-.3179-2.3311-.9536-.5645-.6357-.8477-1.5303-.8477-2.6831,0-1.0894.3086-1.9766.9268-2.6626.6172-.686,1.3838-1.0288,2.2998-1.0288s1.625.2964,2.126.8887c.502.5923.752,1.415.752,2.4678v.5879ZM545.9104,132.2302c-.0039-.647-.1602-1.1509-.4678-1.5107s-.7354-.54-1.2822-.54c-.5283,0-.9775.189-1.3467.5674s-.5967.8726-.6836,1.4834h3.7803Z" fill="#2f2f2f"/>
      <path d="M556.7316,129.1677c0-.3008-.0469-.563-.1396-.7861-.0938-.2231-.2217-.4092-.3828-.5571-.1621-.1479-.3525-.2588-.5713-.3315s-.4551-.1094-.7109-.1094c-.2188,0-.4326.0298-.6426.0889-.209.0591-.4131.1411-.6113.2461s-.3896.23-.5742.376-.3564.3076-.5166.4854v-1.2031c.3145-.3052.667-.5391,1.0566-.7007s.8643-.2427,1.4248-.2427c.4014,0,.7725.0581,1.1143.1743s.6387.2861.8887.5093c.251.2231.4482.499.5918.8271s.2148.7041.2148,1.1279c0,.3872-.0439.7383-.1328,1.0527s-.2236.6108-.4033.8887c-.1807.2778-.4072.5444-.6807.7998s-.5947.5151-.9639.7793c-.46.3281-.8398.6084-1.1377.8408-.2988.2324-.5361.4502-.7109.6528-.1758.2026-.2988.4058-.3691.6084-.0713.2026-.1064.4365-.1064.7007h4.8809v1.0049h-6.0498v-.4854c0-.4194.0459-.7886.1367-1.1074.0918-.3188.2422-.6221.4512-.9092.21-.2871.4844-.5742.8242-.8613.3389-.2871.7549-.6108,1.2471-.9707.3555-.2554.6533-.499.8926-.7314s.4316-.4648.5771-.6973c.1465-.2324.25-.4683.3115-.7075s.0918-.4932.0918-.7622Z" fill="#2f2f2f"/>
    </g>
    <g>
      <path d="M476.9699,189.1999h-5.0859v-9.8027h1.1484v8.7637h3.9375v1.0391Z" fill="#2f2f2f"/>
      <path d="M481.2492,189.364c-1.0342,0-1.8604-.3271-2.4775-.981-.6182-.6538-.9268-1.521-.9268-2.6011,0-1.1758.3213-2.0942.9639-2.7549s1.5107-.9912,2.6045-.9912c1.0439,0,1.8584.3213,2.4443.9639.585.6426.8779,1.5337.8779,2.6729,0,1.1167-.3154,2.0107-.9463,2.6831-.6318.6724-1.4775,1.0083-2.54,1.0083ZM481.3313,182.9792c-.7197,0-1.2891.2451-1.709.7349-.4189.4897-.6289,1.1655-.6289,2.0269,0,.8296.2119,1.4834.6357,1.9619s.9912.7178,1.7021.7178c.7246,0,1.2822-.2349,1.6719-.7041s.584-1.1372.584-2.0029c0-.875-.1943-1.5493-.584-2.0234s-.9473-.7109-1.6719-.7109Z" fill="#2f2f2f"/>
      <path d="M492.5012,188.6394c0,2.5703-1.2305,3.8555-3.6914,3.8555-.8652,0-1.6221-.1641-2.2695-.4922v-1.1211c.7891.4375,1.541.6562,2.2559.6562,1.7227,0,2.584-.916,2.584-2.748v-.7656h-.0273c-.5332.8931-1.335,1.3398-2.4062,1.3398-.8701,0-1.5713-.311-2.1016-.9331-.5312-.6221-.7969-1.457-.7969-2.5054,0-1.1895.2861-2.1353.8584-2.8369.5713-.7017,1.3545-1.0527,2.3477-1.0527.9434,0,1.6436.3784,2.0986,1.1348h.0273v-.9707h1.1211v6.4395ZM491.3801,186.0349v-1.0322c0-.5562-.1875-1.0322-.5635-1.4287s-.8447-.5947-1.4053-.5947c-.6924,0-1.2344.252-1.627.7554-.3916.5034-.5879,1.209-.5879,2.1157,0,.7793.1885,1.4023.5645,1.8696s.874.7007,1.4932.7007c.6289,0,1.1406-.2231,1.5352-.6699.3936-.4468.5908-1.0186.5908-1.7158Z" fill="#2f2f2f"/>
      <path d="M495.3449,180.4226c-.2002,0-.3711-.0684-.5127-.2051-.1406-.1367-.2119-.3101-.2119-.5195s.0713-.3838.2119-.5229c.1416-.1392.3125-.2085.5127-.2085.2051,0,.3799.0693.5234.2085s.2148.3135.2148.5229c0,.2007-.0713.3716-.2148.5127s-.3184.2119-.5234.2119ZM495.8918,189.1999h-1.1211v-7h1.1211v7Z" fill="#2f2f2f"/>
      <path d="M502.9328,188.8786c-.5371.3237-1.1758.4854-1.9141.4854-.998,0-1.8037-.3247-2.416-.9741-.6133-.6494-.9199-1.4912-.9199-2.5259,0-1.1528.3311-2.0791.9912-2.7788.6611-.6997,1.543-1.0493,2.6455-1.0493.6152,0,1.1582.1138,1.627.3418v1.1484c-.5195-.3647-1.0752-.5469-1.668-.5469-.7148,0-1.3018.2563-1.7598.769s-.6875,1.186-.6875,2.02c0,.8203.2158,1.4673.6465,1.9414s1.0078.7109,1.7324.7109c.6113,0,1.1855-.2026,1.7227-.6084v1.0664Z" fill="#2f2f2f"/>
      <path d="M509.6389,189.1999h-1.1211v-1.0938h-.0273c-.4873.8384-1.2051,1.2578-2.1533,1.2578-.6973,0-1.2432-.1846-1.6367-.5537-.3945-.3691-.5918-.8589-.5918-1.4697,0-1.3081.7705-2.0688,2.3105-2.2832l2.0986-.2939c0-1.1895-.4805-1.7842-1.4424-1.7842-.8428,0-1.6035.2871-2.2832.8613v-1.1484c.6885-.4375,1.4814-.6562,2.3789-.6562,1.6455,0,2.4678.8706,2.4678,2.6113v4.5527ZM508.5178,185.6589l-1.6885.2324c-.5195.0728-.9111.2017-1.1758.3862-.2637.1846-.3965.5117-.3965.981,0,.3418.1221.6211.3662.8374.2432.2163.5684.3247.9736.3247.5566,0,1.0156-.1948,1.3779-.5845.3623-.3896.543-.8828.543-1.48v-.6973Z" fill="#2f2f2f"/>
      <path d="M512.8723,189.1999h-1.1211v-10.3633h1.1211v10.3633Z" fill="#2f2f2f"/>
      <path d="M523.8576,182.5212l-4.1426,5.7217h4.1016v.957h-5.749v-.3486l4.1426-5.6943h-3.7529v-.957h5.4004v.3213Z" fill="#2f2f2f"/>
      <path d="M528.2326,189.364c-1.0342,0-1.8604-.3271-2.4775-.981-.6182-.6538-.9268-1.521-.9268-2.6011,0-1.1758.3213-2.0942.9639-2.7549s1.5107-.9912,2.6045-.9912c1.0439,0,1.8584.3213,2.4443.9639.585.6426.8779,1.5337.8779,2.6729,0,1.1167-.3154,2.0107-.9463,2.6831-.6318.6724-1.4775,1.0083-2.54,1.0083ZM528.3146,182.9792c-.7197,0-1.2891.2451-1.709.7349-.4189.4897-.6289,1.1655-.6289,2.0269,0,.8296.2119,1.4834.6357,1.9619.4238.4785.9912.7178,1.7022.7178.7246,0,1.2822-.2349,1.6719-.7041s.584-1.1372.584-2.0029c0-.875-.1943-1.5493-.584-2.0234s-.9473-.7109-1.6719-.7109Z" fill="#2f2f2f"/>
      <path d="M539.3205,189.1999h-1.1211v-3.9922c0-1.4858-.542-2.2285-1.627-2.2285-.5605,0-1.0244.2109-1.3906.6323-.3672.4214-.5508.9536-.5508,1.5962v3.9922h-1.1211v-7h1.1211v1.1621h.0273c.5293-.8843,1.2949-1.3262,2.2969-1.3262.7656,0,1.3516.2471,1.7568.7417.4062.4946.6084,1.209.6084,2.1431v4.2793Z" fill="#2f2f2f"/>
      <path d="M547.0588,185.9802h-4.9424c.0186.7793.2285,1.3809.6289,1.8047.4014.4238.9531.6357,1.6543.6357.7891,0,1.5137-.2598,2.1738-.7793v1.0527c-.6152.4468-1.4287.6699-2.4404.6699-.9883,0-1.7656-.3179-2.3311-.9536-.5645-.6357-.8477-1.5303-.8477-2.6831,0-1.0894.3086-1.9766.9268-2.6626.6172-.686,1.3838-1.0288,2.2998-1.0288s1.625.2964,2.126.8887c.502.5923.752,1.415.752,2.4678v.5879ZM545.9104,185.03c-.0039-.647-.1602-1.1509-.4678-1.5107s-.7354-.54-1.2822-.54c-.5283,0-.9775.189-1.3467.5674s-.5967.8726-.6836,1.4834h3.7803Z" fill="#2f2f2f"/>
      <path d="M557.9689,186.4245c0,.4419-.083.8442-.249,1.2065-.167.3623-.4014.6724-.7041.9297-.3037.2573-.667.457-1.0908.5981s-.8906.2119-1.4014.2119c-.9336,0-1.6768-.1777-2.2285-.5332v-1.2031c.6611.5195,1.418.7793,2.2695.7793.3418,0,.6504-.0435.9268-.1299.2754-.0864.5127-.2119.7109-.376s.3506-.3623.458-.5947c.1064-.2324.1602-.4946.1602-.7861,0-1.2808-.9111-1.9209-2.7344-1.9209h-.8135v-.9502h.7725c1.6133,0,2.4199-.6016,2.4199-1.8047,0-1.1118-.6152-1.668-1.8457-1.668-.6924,0-1.3418.2324-1.9482.6973v-1.0869c.625-.3735,1.3672-.5605,2.2285-.5605.4102,0,.7822.0571,1.1143.1709.333.1138.6182.2734.8545.4785.2373.2051.4209.4512.5508.7383s.1943.604.1943.9502c0,1.2896-.6514,2.1191-1.9551,2.4883v.0273c.333.0366.6406.1172.9229.2427.2832.1255.5264.2881.7314.4888s.3662.4365.4824.7075.1738.5708.1738.8989Z" fill="#2f2f2f"/>
    </g>
  </g>
</svg>