<?xml version="1.0" encoding="UTF-8"?>
<svg xmlns="http://www.w3.org/2000/svg" xmlns:xlink="http://www.w3.org/1999/xlink" version="1.1" viewBox="0 0 631.1143362 211.2" width="631.1143362" height="211.2">
  <!-- Generator: Adobe Illustrator 29.8.2, SVG Export Plug-In . SVG Version: 2.1.1 Build 3)  -->
  <defs>
    <linearGradient id="Cool_gray_gradient_1" data-name="Cool gray gradient 1" x1="217.5143362" y1="105.6" x2="415.5143362" y2="105.6" gradientUnits="userSpaceOnUse">
      <stop offset="0" stop-color="#f5f5f4"/>
      <stop offset="1" stop-color="#ececea"/>
    </linearGradient>
    <radialGradient id="radial-gradient" cx="-76.4861758" cy="352.9824329" fx="-76.4861758" fy="352.9824329" r="10.720407" gradientTransform="translate(108.6878521 301.6880142) scale(.7677603 -.7677603)" gradientUnits="userSpaceOnUse">
      <stop offset=".27" stop-color="#ffd70f"/>
      <stop offset=".49" stop-color="#ffcb12"/>
      <stop offset=".88" stop-color="#feac19"/>
      <stop offset="1" stop-color="#fea11b"/>
    </radialGradient>
    <radialGradient id="radial-gradient1" cx="462.2236542" fx="462.2236542" r="10.720407" xlink:href="#radial-gradient"/>
  </defs>
  <g isolation="isolate">
    <g id="Shapes">
      <rect width="631.1143362" height="211.2" fill="#fff"/>
      <g>
        <rect x="10.7143362" y="8.8" width="198" height="193.6" rx="8" ry="8" fill="#fff"/>
        <rect x="10.7143362" y="8.8" width="198" height="193.6" rx="8" ry="8" fill="#fff1cc" opacity=".5"/>
        <rect x="10.7143362" y="8.8" width="198" height="193.6" rx="8" ry="8" fill="none" stroke="#dfa626" stroke-width=".25"/>
      </g>
      <g>
        <g mix-blend-mode="multiply" opacity=".8">
          <rect x="218.0143362" y="9.3" width="198" height="193.6" rx="8" ry="8" fill="#2b436f"/>
          <rect x="218.0143362" y="9.3" width="198" height="193.6" rx="8" ry="8" fill="#2b436f" opacity=".4"/>
        </g>
        <g>
          <rect x="217.5143362" y="8.8" width="198" height="193.6" rx="8" ry="8" fill="url(#Cool_gray_gradient_1)"/>
          <rect x="217.5143362" y="8.8" width="198" height="193.6" rx="8" ry="8" fill="#8ec8e7" opacity=".4"/>
        </g>
      </g>
      <g>
        <g>
          <path d="M47.859833,42.925293c-1.9731445,0-3.7641602-.5976562-5.1801758-1.7285156-4.2675781-3.4086914-4.0859375-10.7558594.4042969-16.3779297,2.8725586-3.5966797,6.8735352-5.7441406,10.703125-5.7441406,1.9726562,0,3.7641602.5976562,5.1796875,1.7285156,2.0644531,1.6489258,3.1606445,4.2583008,3.0874023,7.3476562-.0737305,3.0966797-1.3134766,6.3037109-3.4912109,9.0302734-2.8725586,3.5966797-6.8735352,5.7441406-10.703125,5.7441406Z" fill="#fff"/>
          <path d="M47.859833,42.925293c-1.9731445,0-3.7641602-.5976562-5.1801758-1.7285156-4.2675781-3.4086914-4.0859375-10.7558594.4042969-16.3779297,2.8725586-3.5966797,6.8735352-5.7441406,10.703125-5.7441406,1.9726562,0,3.7641602.5976562,5.1796875,1.7285156,2.0644531,1.6489258,3.1606445,4.2583008,3.0874023,7.3476562-.0737305,3.0966797-1.3134766,6.3037109-3.4912109,9.0302734-2.8725586,3.5966797-6.8735352,5.7441406-10.703125,5.7441406Z" fill="#ffe452" opacity=".08"/>
          <path d="M53.7872088,19v.1499939c1.9556923,0,3.7306709.5920105,5.1330299,1.7120514,4.2352905,3.3825684,4.0487328,10.6823578-.4158783,16.2724457-2.8583107,3.5788727-6.8375206,5.7155151-10.6444016,5.7155151-1.9559174,0-3.7310181-.5920105-5.1333809-1.7120514-2.0454865-1.6336517-3.1318054-4.2214966-3.0588608-7.2868195.0733109-3.0806885,1.3073349-6.2718506,3.4747467-8.9856262,2.8582077-3.5787506,6.8375549-5.7153931,10.6447449-5.7155151v-.1499939M53.786854,19c-3.6879578.0001221-7.7925377,2.0543518-10.7616005,5.7718964-4.5234604,5.6637726-4.6990967,13.0435791-.3922806,16.4832764,1.4799347,1.1819763,3.2962418,1.7448273,5.2269859,1.7448273,3.6879578,0,7.7925377-2.0543518,10.7616119-5.7718964,4.5234489-5.6637726,4.6990776-13.0435791.3922806-16.4832764-1.4799423-1.1819763-3.2962532-1.7448883-5.2269974-1.7448273h0Z" fill="#ffe452"/>
          <path d="M53.786854,19c1.9307442-.000061,3.7470551.562851,5.2269974,1.7448273,4.306797,3.4396973,4.1311684,10.8195038-.3922806,16.4832764-2.9690742,3.7175446-7.0736542,5.7718964-10.7616119,5.7718964-1.9307442,0-3.7470512-.562851-5.2269859-1.7448273-4.3068161-3.4396973-4.1311798-10.8195038.3922806-16.4832764,2.9690628-3.7175446,7.0736427-5.7717743,10.7616005-5.7718964M53.7872088,18.8999939c-3.8825073.0001373-7.9348869,2.1719055-10.8400955,5.809494-2.2013092,2.7562408-3.4547119,6.0006866-3.5293198,9.1356964-.0748596,3.1452484,1.0448151,5.8045807,3.1527634,7.4881287,1.4471436,1.155777,3.2761841,1.7666931,5.289402,1.7666931,3.8821907,0,7.934433-2.1717834,10.8397522-5.809494,4.5506287-5.6977997,4.7195511-13.1552277.3765488-16.6238251-1.4471397-1.155777-3.2760582-1.7666931-5.2890511-1.7666931h0Z" fill="#d15900"/>
        </g>
        <g>
          <path id="e3d1e58c-f78e-4fb5-9857-0c9331da9979" d="M54.751821,29.5051506c.6336771-.6325615.6345816-1.6590504.0020196-2.2927271-.0006722-.0006741-.0013459-.0013474-.0020196-.00202h0l-2.7881574-2.7959891c-.6286041-.6315142-1.6501319-.6338734-2.281646-.0052693-.0017605.0017524-.0035172.0035088-.0052694.0052693h0l-2.788157,2.7959891c-.6259305.636866-.6259305,1.6578815,0,2.2947475l2.3495705,2.3495705c.0831283.0865196.1306582.2011506.1331424.3211079v4.3232102c-.0020947.1461969.0542958.2871728.1566379.3915951l1.0573067,1.057307c.1323327.1427402.3553237.1511757.4980631.018843.006516-.006041.0128013-.012327.0188423-.018843l1.0259787-1.0259787h0l.6030568-.6030568c.0821831-.0767687.0865727-.2056254.0098039-.2878084-.0031557-.0033783-.0064257-.0066482-.0098039-.0098039l-.4307548-.4385868c-.0908345-.0865084-.0943405-.2302733-.0078321-.3211079.002547-.0026739.0051581-.0052851.0078321-.0078321l.4307548-.4385868c.0821831-.0767687.0865727-.2056254.0098039-.2878084-.0031557-.0033783-.0064257-.0066482-.0098039-.0098039l-.4542502-.4620823c-.0886715-.082496-.093678-.2212544-.011182-.3099259.0035919-.0038608.0073212-.0075901.011182-.011182l.4699144-.4620823c.0821831-.0767687.0865727-.2056254.0098039-.2878084-.0031557-.0033783-.0064257-.0066482-.0098039-.0098039l-.6030568-.6108881v-.219293l2.608024-2.6393512ZM50.8358701,25.087958c.5103834.0043257.9206243.4215799.916299.9319635-.0043261.5103836-.4215805.9206245-.9319639.916299-.5073144-.0042998-.9163135-.4167653-.9163318-.9240982-.0043253-.5060581.4024092-.9198055.9084669-.924131.0026216-.0000224.005244-.0000336.0078657-.0000335l.0156642.0000002Z" fill="url(#radial-gradient)"/>
          <path id="a21a8f7a-61cc-4035-8449-e5c8fe4d4d5e" d="M50.0996709,36.5695253h0c.0923597.0562422.2128244.0269619.2690659-.0653978.0181958-.0298808.0280528-.0640907.0285465-.0990714v-3.4851962c.0006304-.0679388-.0314213-.1320429-.086151-.172302h0c-.0894893-.060705-.2112455-.0373708-.2719505.0521185-.0239709.035337-.0357328.0775418-.0334936.1201835v3.4851962c.0036472.0665734.0384785.1275286.0939827.1644692Z" fill="#ff9300" isolation="isolate" opacity=".75"/>
          <rect id="ecd3189c-fb1e-4a0e-a2b6-ba2f11dda484" x="48.588114" y="28.1423995" width="4.5894946" height=".5404013" rx=".250621" ry=".250621" fill="#ff9300" isolation="isolate" opacity=".75"/>
          <rect id="a1949a3c-4818-4bd1-b236-0d970b92fc62" x="48.588114" y="29.0195727" width="4.5894946" height=".5404013" rx=".250621" ry=".250621" fill="#ff9300" isolation="isolate" opacity=".75"/>
        </g>
      </g>
      <rect x="41.5143362" y="52.7915499" width="132" height="35.2" fill="#fff" stroke="#4e4f4f" stroke-width=".25"/>
      <rect x="41.5143362" y="101.2" width="132" height="35.2" fill="#fff" stroke="#4e4f4f" stroke-width=".25"/>
      <rect x="41.5143362" y="149.6" width="132" height="35.2" fill="#fff" stroke="#4e4f4f" stroke-width=".25"/>
      <g>
        <rect x="424.3143362" y="8.8" width="198" height="193.6" rx="8" ry="8" fill="#fff"/>
        <rect x="424.3143362" y="8.8" width="198" height="193.6" rx="8" ry="8" fill="#fff1cc" opacity=".5"/>
        <rect x="424.3143362" y="8.8" width="198" height="193.6" rx="8" ry="8" fill="none" stroke="#dfa626" stroke-width=".25"/>
      </g>
      <g>
        <g>
          <path d="M461.459833,42.925293c-1.9731445,0-3.7641602-.5976562-5.1801758-1.7285156-4.2675781-3.4086914-4.0859375-10.7558594.4042969-16.3779297,2.8725586-3.5966797,6.8735352-5.7441406,10.703125-5.7441406,1.9726562,0,3.7641602.5976562,5.1796875,1.7285156,2.0644531,1.6489258,3.1606445,4.2583008,3.0874023,7.3476562-.0737305,3.0966797-1.3134766,6.3037109-3.4912109,9.0302734-2.8725586,3.5966797-6.8735352,5.7441406-10.703125,5.7441406Z" fill="#fff"/>
          <path d="M461.459833,42.925293c-1.9731445,0-3.7641602-.5976562-5.1801758-1.7285156-4.2675781-3.4086914-4.0859375-10.7558594.4042969-16.3779297,2.8725586-3.5966797,6.8735352-5.7441406,10.703125-5.7441406,1.9726562,0,3.7641602.5976562,5.1796875,1.7285156,2.0644531,1.6489258,3.1606445,4.2583008,3.0874023,7.3476562-.0737305,3.0966797-1.3134766,6.3037109-3.4912109,9.0302734-2.8725586,3.5966797-6.8735352,5.7441406-10.703125,5.7441406Z" fill="#ffe452" opacity=".08"/>
          <path d="M467.3872088,19v.1499939c1.9556923,0,3.7306709.5920105,5.1330299,1.7120514,4.2352905,3.3825684,4.0487328,10.6823578-.4158783,16.2724457-2.8583107,3.5788727-6.8375206,5.7155151-10.6444016,5.7155151-1.9559174,0-3.7310181-.5920105-5.1333809-1.7120514-2.0454865-1.6336517-3.1318054-4.2214966-3.0588608-7.2868195.0733109-3.0806885,1.3073349-6.2718506,3.4747467-8.9856262,2.8582077-3.5787506,6.8375549-5.7153931,10.6447449-5.7155151v-.1499939M467.386854,19c-3.6879578.0001221-7.7925377,2.0543518-10.7616005,5.7718964-4.5234604,5.6637726-4.6990967,13.0435791-.3922806,16.4832764,1.4799347,1.1819763,3.2962418,1.7448273,5.2269859,1.7448273,3.6879578,0,7.7925377-2.0543518,10.7616119-5.7718964,4.5234489-5.6637726,4.6990776-13.0435791.3922806-16.4832764-1.4799423-1.1819763-3.2962532-1.7448883-5.2269974-1.7448273h0Z" fill="#ffe452"/>
          <path d="M467.386854,19c1.9307442-.000061,3.7470551.562851,5.2269974,1.7448273,4.306797,3.4396973,4.1311684,10.8195038-.3922806,16.4832764-2.9690742,3.7175446-7.0736542,5.7718964-10.7616119,5.7718964-1.9307442,0-3.7470512-.562851-5.2269859-1.7448273-4.3068161-3.4396973-4.1311798-10.8195038.3922806-16.4832764,2.9690628-3.7175446,7.0736427-5.7717743,10.7616005-5.7718964M467.3872088,18.8999939c-3.8825073.0001373-7.9348869,2.1719055-10.8400955,5.809494-2.2013092,2.7562408-3.4547119,6.0006866-3.5293198,9.1356964-.0748596,3.1452484,1.0448151,5.8045807,3.1527634,7.4881287,1.4471436,1.155777,3.2761841,1.7666931,5.289402,1.7666931,3.8821907,0,7.934433-2.1717834,10.8397522-5.809494,4.5506287-5.6977997,4.7195511-13.1552277.3765488-16.6238251-1.4471397-1.155777-3.2760582-1.7666931-5.2890511-1.7666931h0Z" fill="#d15900"/>
        </g>
        <g>
          <path id="e3d1e58c-f78e-4fb5-9857-0c9331da99791" data-name="e3d1e58c-f78e-4fb5-9857-0c9331da9979" d="M468.351821,29.5051506c.6336771-.6325615.6345816-1.6590504.0020196-2.2927271-.0006722-.0006741-.0013459-.0013474-.0020196-.00202h0l-2.7881574-2.7959891c-.6286041-.6315142-1.6501319-.6338734-2.281646-.0052693-.0017605.0017524-.0035172.0035088-.0052694.0052693h0l-2.788157,2.7959891c-.6259305.636866-.6259305,1.6578815,0,2.2947475l2.3495705,2.3495705c.0831283.0865196.1306582.2011506.1331424.3211079v4.3232102c-.0020947.1461969.0542958.2871728.1566379.3915951l1.0573067,1.057307c.1323327.1427402.3553237.1511757.4980631.018843.006516-.006041.0128013-.012327.0188423-.018843l1.0259787-1.0259787h0l.6030568-.6030568c.0821831-.0767687.0865727-.2056254.0098039-.2878084-.0031557-.0033783-.0064257-.0066482-.0098039-.0098039l-.4307548-.4385868c-.0908345-.0865084-.0943405-.2302733-.0078321-.3211079.002547-.0026739.0051581-.0052851.0078321-.0078321l.4307548-.4385868c.0821831-.0767687.0865727-.2056254.0098039-.2878084-.0031557-.0033783-.0064257-.0066482-.0098039-.0098039l-.4542502-.4620823c-.0886715-.082496-.093678-.2212544-.011182-.3099259.0035919-.0038608.0073212-.0075901.011182-.011182l.4699144-.4620823c.0821831-.0767687.0865727-.2056254.0098039-.2878084-.0031557-.0033783-.0064257-.0066482-.0098039-.0098039l-.6030568-.6108881v-.219293l2.608024-2.6393512ZM464.4358701,25.087958c.5103834.0043257.9206243.4215799.916299.9319635-.0043261.5103836-.4215805.9206245-.9319639.916299-.5073144-.0042998-.9163135-.4167653-.9163318-.9240982-.0043253-.5060581.4024092-.9198055.9084669-.924131.0026216-.0000224.005244-.0000336.0078657-.0000335l.0156642.0000002Z" fill="url(#radial-gradient1)"/>
          <path id="a21a8f7a-61cc-4035-8449-e5c8fe4d4d5e1" data-name="a21a8f7a-61cc-4035-8449-e5c8fe4d4d5e" d="M463.6996709,36.5695253h0c.0923597.0562422.2128244.0269619.2690659-.0653978.0181958-.0298808.0280528-.0640907.0285465-.0990714v-3.4851962c.0006304-.0679388-.0314213-.1320429-.086151-.172302h0c-.0894893-.060705-.2112455-.0373708-.2719505.0521185-.0239709.035337-.0357328.0775418-.0334936.1201835v3.4851962c.0036472.0665734.0384785.1275286.0939827.1644692Z" fill="#ff9300" isolation="isolate" opacity=".75"/>
          <rect id="ecd3189c-fb1e-4a0e-a2b6-ba2f11dda4841" data-name="ecd3189c-fb1e-4a0e-a2b6-ba2f11dda484" x="462.188114" y="28.1423995" width="4.5894946" height=".5404013" rx=".250621" ry=".250621" fill="#ff9300" isolation="isolate" opacity=".75"/>
          <rect id="a1949a3c-4818-4bd1-b236-0d970b92fc621" data-name="a1949a3c-4818-4bd1-b236-0d970b92fc62" x="462.188114" y="29.0195727" width="4.5894946" height=".5404013" rx=".250621" ry=".250621" fill="#ff9300" isolation="isolate" opacity=".75"/>
        </g>
      </g>
      <rect x="455.1143362" y="52.7915499" width="132" height="35.2" fill="#fff" stroke="#4e4f4f" stroke-width=".25"/>
      <rect x="455.1143362" y="101.2" width="132" height="35.2" fill="#fff" stroke="#4e4f4f" stroke-width=".25"/>
      <rect x="455.1143362" y="149.6" width="132" height="35.2" fill="#fff" stroke="#4e4f4f" stroke-width=".25"/>
      <rect x="250.5143362" y="52.7915499" width="132" height="35.2" fill="#fff" stroke="#4e4f4f" stroke-width=".25"/>
      <rect x="250.5143362" y="101.2" width="132" height="35.2" fill="#fff" stroke="#4e4f4f" stroke-width=".25"/>
      <rect x="250.5143362" y="149.6" width="132" height="35.2" fill="#fff" stroke="#4e4f4f" stroke-width=".25"/>
      <g>
        <path d="M173.5143347,118.7999939h8.2856674c1.6500015,0,3.9545898-.9545898,5.121315-2.1213074l44.1573639-44.1573792c1.1667252-1.1667175,3.4713211-2.1213074,5.1213226-2.1213074h9.2178268" fill="none" stroke="#3c3c41" stroke-miterlimit="10"/>
        <polygon points="244.3235922 74.1397461 250.8000021 70.4 244.3235922 66.6602539 244.3235922 74.1397461" fill="#3c3c41"/>
      </g>
      <g>
        <path d="M455.1143484,167.1999878h-4.8428345c-1.6500244,0-3.6037598-1.2074585-4.3416443-2.6832581l-45.7167358-91.4334412c-.7378845-1.4757996-2.6916199-2.6832886-4.3416443-2.6832886h-9.217804" fill="none" stroke="#3c3c41" stroke-miterlimit="10"/>
        <polygon points="387.7479239 66.6602539 381.271514 70.4 387.7479239 74.1397461 387.7479239 66.6602539" fill="#3c3c41"/>
      </g>
    </g>
    <g id="Text">
      <text transform="translate(68.4234038 36.1999969)" fill="#2f2f2f" font-family="SegoeUI-Bold, &apos;Segoe UI&apos;" font-size="14" font-weight="700"><tspan x="0" y="0">Subscription A</tspan></text>
      <text transform="translate(273.8263846 36.1999969)" fill="#2f2f2f" font-family="SegoeUI-Bold, &apos;Segoe UI&apos;" font-size="14" font-weight="700"><tspan x="0" y="0">Azure region</tspan></text>
      <text transform="translate(63.580032 75.0706482)" fill="#2f2f2f" font-family="SegoeUI, &apos;Segoe UI&apos;" font-size="14"><tspan x="0" y="0">Logical zone 1</tspan></text>
      <text transform="translate(63.579912 123.1051483)" fill="#2f2f2f" font-family="SegoeUI, &apos;Segoe UI&apos;" font-size="14"><tspan x="0" y="0">Logical zone 2</tspan></text>
      <text transform="translate(63.579912 170.4918518)" fill="#2f2f2f" font-family="SegoeUI, &apos;Segoe UI&apos;" font-size="14"><tspan x="0" y="0">Logical zone 3</tspan></text>
      <text transform="translate(482.0234061 36.1999969)" fill="#2f2f2f" font-family="SegoeUI-Bold, &apos;Segoe UI&apos;" font-size="14" font-weight="700"><tspan x="0" y="0">Subscription B</tspan></text>
      <text transform="translate(477.1800223 75.0706482)" fill="#2f2f2f" font-family="SegoeUI, &apos;Segoe UI&apos;" font-size="14"><tspan x="0" y="0">Logical zone 1</tspan></text>
      <text transform="translate(477.1799002 123.1051483)" fill="#2f2f2f" font-family="SegoeUI, &apos;Segoe UI&apos;" font-size="14"><tspan x="0" y="0">Logical zone 2</tspan></text>
      <text transform="translate(477.1799002 170.4918518)" fill="#2f2f2f" font-family="SegoeUI, &apos;Segoe UI&apos;" font-size="14"><tspan x="0" y="0">Logical zone 3</tspan></text>
      <text transform="translate(269.5923453 75.0706482)" fill="#2f2f2f" font-family="SegoeUI, &apos;Segoe UI&apos;" font-size="14"><tspan x="0" y="0">Physical zone 1</tspan></text>
      <text transform="translate(269.5922232 123.1051483)" fill="#2f2f2f" font-family="SegoeUI, &apos;Segoe UI&apos;" font-size="14"><tspan x="0" y="0">Physical zone 2</tspan></text>
      <text transform="translate(269.5922232 170.4918518)" fill="#2f2f2f" font-family="SegoeUI, &apos;Segoe UI&apos;" font-size="14"><tspan x="0" y="0">Physical zone 3</tspan></text>
    </g>
  </g>
</svg>